<svg id="Livello_1" data-name="Livello 1" xmlns="http://www.w3.org/2000/svg" width="43.04mm" height="14.11mm" viewBox="0 0 122 40">
  <title>alessi</title>
  <g>
    <path d="M49.82,15a1,1,0,0,0,.8-.33,1.14,1.14,0,0,0,.33-.85,1,1,0,0,0-.33-.8,1.14,1.14,0,0,0-1.94.8,1,1,0,0,0,.33.8.89.89,0,0,0,.8.38"/>
    <path d="M35.87,23.36a2.68,2.68,0,0,1-.19,1.18,2.09,2.09,0,0,1-.66.85,1.7,1.7,0,0,1-1.14.43,1.18,1.18,0,0,1-.85-.38,1.6,1.6,0,0,1-.38-1.09A2.11,2.11,0,0,1,33,23.12l.28-.28a5.25,5.25,0,0,1,2.6-.61v1.14Zm3.31,1.84a1,1,0,0,1-.76.52.42.42,0,0,1-.38-.24,2.52,2.52,0,0,1-.14-1.09V20.47a5.05,5.05,0,0,0-.14-1.37,1.34,1.34,0,0,0-.8-.8A4.62,4.62,0,0,0,34.87,18a5.71,5.71,0,0,0-2.79.57,1.65,1.65,0,0,0-1,1.42,1.27,1.27,0,0,0,.24.71,1,1,0,0,0,.71.28,1.13,1.13,0,0,0,.66-.24A.79.79,0,0,0,33,20a1,1,0,0,0-.14-.52.76.76,0,0,1-.14-.43c0-.43.57-.66,1.75-.66.66,0,1,.14,1.18.43a4.42,4.42,0,0,1,.24,1.75V21.7c-2.32.09-3.88.57-4.68,1.37a2.25,2.25,0,0,0-.66,1.61,1.94,1.94,0,0,0,.66,1.47,2.62,2.62,0,0,0,1.75.61,3.61,3.61,0,0,0,2.93-1.7c.19,1.14.8,1.7,1.75,1.7a1.66,1.66,0,0,0,1.8-1.56Z"/>
    <path d="M44.48,26V12a11.4,11.4,0,0,1-2.13.14H40.88v.57H42.4v13.2H40.88v.52H46v-.52H44.48Z"/>
    <path d="M50.82,26v-8a14.2,14.2,0,0,1-2,.14H47.27v.57h1.51v7.28H47.27v.52h5v-.52H50.82Z"/>
    <path d="M60.23,24.21a2.59,2.59,0,0,1-.9,1.37,2.26,2.26,0,0,1-1.56.61,1.21,1.21,0,0,1-1.18-.61A6.42,6.42,0,0,1,56.21,23V21.56a11.06,11.06,0,0,1,.28-2.41c.19-.57.66-.85,1.47-.85a2.17,2.17,0,0,1,1.84.85,4,4,0,0,1,.66,2.41v.09a12,12,0,0,1,0,1.37c0,.52-.14.9-.19,1.18M62.5,26V12a16.09,16.09,0,0,1-2.13.14H58.43v.57h1.94v6.62h0a2.65,2.65,0,0,0-2.46-1.51A3.72,3.72,0,0,0,55,19.2a4.79,4.79,0,0,0-1.14,2.37,7.59,7.59,0,0,0,0,1.47A4.71,4.71,0,0,0,55,25.39a3.38,3.38,0,0,0,2.65,1.32,2.86,2.86,0,0,0,2.74-1.89h0v1.75a21.9,21.9,0,0,1,2.41-.14H64v-.52H62.5Z"/>
    <path d="M68,19.86a1.53,1.53,0,0,1,.43-1.14,1.65,1.65,0,0,1,1.18-.43q1.56,0,1.56,1.7c0,.28,0,.66-.09,1.14H67.94V19.86Zm1.89,6.43a1.63,1.63,0,0,1-1.51-.71A6,6,0,0,1,68,23.12V21.7h5.39v-.09a3.85,3.85,0,0,0-1.14-2.74,3.58,3.58,0,0,0-2.51-1,3.88,3.88,0,0,0-2.89,1.28,4.16,4.16,0,0,0-1.18,2.46,3.58,3.58,0,0,0,0,.71,4.59,4.59,0,0,0,0,.8,4,4,0,0,0,1.23,2.41,4.08,4.08,0,0,0,3,1.28,3.39,3.39,0,0,0,2.18-.76,3.87,3.87,0,0,0,1.32-2.37h-.47c-.52,1.7-1.51,2.6-3,2.6"/>
    <path d="M90.12,26V21.61a10.26,10.26,0,0,0-.14-2,1.8,1.8,0,0,0-.8-1.09A2.59,2.59,0,0,0,87.57,18a3.15,3.15,0,0,0-3.07,2.18h0A2.26,2.26,0,0,0,81.85,18a3.05,3.05,0,0,0-3,2.08h0V18a19.27,19.27,0,0,1-2.65.14h-.95v.57h1.51V26H75.18v.52h5V26H78.77V23.08a13.33,13.33,0,0,1,0-1.47c0-.28,0-.52.09-.76a3.22,3.22,0,0,1,.85-1.56,2.12,2.12,0,0,1,1.56-.8.82.82,0,0,1,.85.47,11.76,11.76,0,0,1,.19,2.65V26H81v.52h4.82V26H84.45V23.08a12.72,12.72,0,0,1,.09-1.47,4.26,4.26,0,0,1,.8-2.13,2.5,2.5,0,0,1,1.8-1c.43,0,.66.14.76.47a7,7,0,0,1,.14,1.7v5.25H86.62v.52h5v-.52H90.12Z"/>
    <path d="M33.17,17.45s-.71-1.37,1.18-2.51,3.59-2.22,2.93-3.12a1.43,1.43,0,0,1-.09,2.32c-1.37,1.32-4.3,1.42-4,3.31"/>
    <path d="M33.31,17.4s-.28-.95,1-1.42,2.55-.95,2.22-1.61a.92.92,0,0,1-.33,1.47c-1,.61-2.89.33-2.93,1.56"/>
  </g>
</svg>
