<svg id="Livello_1" data-name="Livello 1" xmlns="http://www.w3.org/2000/svg" width="43.04mm" height="14.11mm" viewBox="0 0 122 40">
  <defs>
    <style>
      .cls-1 {
        fill: #1d1d1b;
      }
    </style>
  </defs>
  <title>unopiu-centro-01</title>
  <g>
    <path class="cls-1" d="M86.9,16.85a.45.45,0,1,0,.45-.45h0A.45.45,0,0,0,86.9,16.85Zm0,0a.41.41,0,1,1,.41.41h0a.41.41,0,0,1-.38-.41Z"/>
    <path class="cls-1" d="M87.09,16.6h.28c.09,0,.19,0,.19.14s-.1.14-.18.14a.13.13,0,0,1,.12.11h0a.2.2,0,0,0,0,.07V17h0c0,.06,0,.14-.1.14h-.06a.16.16,0,0,1,0-.06h0c0-.09,0-.14-.13-.14h0v.19h-.12v-.45h0Zm.17.24h.18a.14.14,0,0,0,0-.06c0-.05,0-.11-.09-.11h-.12Z"/>
    <path class="cls-1" d="M88.31,14H87.17l-.32,1.85V16h.1l.15-.11.07-.06h0l.22-.27c.31-.43.63-.87.91-1.32v-.05h0V14Z"/>
    <path class="cls-1" d="M83.81,14v.21h.36a.71.71,0,0,1,.8.62v7.89a2.62,2.62,0,0,1-.57,1.91,1.91,1.91,0,0,1-1.41.49,2.13,2.13,0,0,1-1.52-.62A1.5,1.5,0,0,1,81,23.7V14.58c0-.32.4-.35.43-.35h.77V14H78.35v.21h.55c.69,0,.74.5.74.51v8.51a2.46,2.46,0,0,0,.68,1.64,3,3,0,0,0,2.22.77,3.07,3.07,0,0,0,2.31-.82,2.13,2.13,0,0,0,.6-1.26V14.18h1.06V14Z"/>
    <path class="cls-1" d="M73.83,14v.21h.45a.67.67,0,0,1,.49.16.51.51,0,0,1,.14.34V25.27H73.73v.21h4v-.21h-.31a.74.74,0,0,1-.54-.18.46.46,0,0,1-.14-.31V14.25h1.06V14Z"/>
    <path class="cls-1" d="M73.71,16.15A5.72,5.72,0,0,0,70,13.65a7.07,7.07,0,0,0-3.76.82h-.07V14h-2.7v.21h.47a.52.52,0,0,1,.58.45h0V25.26H63.45v.21h4.36v-.21h-.94a.65.65,0,0,1-.71-.5h0v-2h.07l.4.2a6.12,6.12,0,0,0,4.65.19A4.19,4.19,0,0,0,74,20.51,5.07,5.07,0,0,0,73.71,16.15Zm-1.06,4.6A4.19,4.19,0,0,1,70.31,23a3.55,3.55,0,0,1-3-.49,4.71,4.71,0,0,1-1.17-1h0V15.22h0a4.07,4.07,0,0,1,4.52-.41c2.2,1.33,2.54,4.65,2,5.94Z"/>
    <path class="cls-1" d="M63.86,19.7a5.68,5.68,0,0,1-1.76,4,6.7,6.7,0,0,1-4.61,2,6.79,6.79,0,0,1-4.79-1.94A5.78,5.78,0,0,1,51,19.7c0-3.31,2.86-6,6.52-6a6.3,6.3,0,0,1,4.58,1.74A6,6,0,0,1,63.86,19.7Zm-2.13-1.79a5.24,5.24,0,0,0-5.32-3.84,4.55,4.55,0,0,0-3.29,2.13,5.51,5.51,0,0,0-.5,4.6c1.4,4.56,5.14,4.63,5.18,4.63a4.32,4.32,0,0,0,3.58-1.76c.76-1,1.38-2.82.37-5.75Z"/>
    <path class="cls-1" d="M48.32,14v.21h.47a.7.7,0,0,1,.51.19.61.61,0,0,1,.19.39v7.45l-.1-.17-4.86-8H42.81v.21h.35c.44,0,.66.18.67.57h0V25.28H42.67v.21h2.81v-.21h-.33a.63.63,0,0,1-.68-.57V16.93l.11.18c0,.07,4.44,7.7,4.9,8.51.16.27.3.39.41.36s.19-.22.19-.3V14.24H51V14Z"/>
    <path class="cls-1" d="M39.44,14v.21h.36a.71.71,0,0,1,.8.62v7.89A2.62,2.62,0,0,1,40,24.65a1.91,1.91,0,0,1-1.41.46,2,2,0,0,1-2-1.45V14.58c0-.29.28-.35.43-.35h.77V14H34v.21h.56c.69,0,.72.49.72.51v8.51a2.46,2.46,0,0,0,.68,1.64,3,3,0,0,0,2.22.77c2.78,0,2.9-2.05,2.9-2.13V14.13h1.06v-.21Z"/>
  </g>
</svg>
