<?xml version="1.0" encoding="utf-8"?>
<!-- Generator: Adobe Illustrator 16.0.0, SVG Export Plug-In . SVG Version: 6.00 Build 0)  -->
<!DOCTYPE svg PUBLIC "-//W3C//DTD SVG 1.1//EN" "http://www.w3.org/Graphics/SVG/1.1/DTD/svg11.dtd">
<svg version="1.1" id="Livello_1" xmlns="http://www.w3.org/2000/svg" xmlns:xlink="http://www.w3.org/1999/xlink" x="0px" y="0px"
	 width="122px" height="40px" viewBox="0 0 122 40" enable-background="new 0 0 122 40" xml:space="preserve">
<g display="none">
	<path display="inline" d="M39.114,19.686h2.121v-3.958L23,17.77v8.144h18.183v-3.712h-2.042v1.671H25.174V22.43h9.385V20.9h-9.411
		v-1.529l13.967-1.242v1.557H39.114z M44.455,17.656l13.836-1.085v2.715l-13.836,0.8V17.656z M44.375,22l16.09,4v-1.957L51.038,21.7
		l9.347-0.286V14L42.4,15.643l0.025,10.3h1.949L44.375,22L44.375,22z M77.52,19.658h2.277v-3.473l-18.299-2.043v11.799h18.273
		v-3.771H77.52v1.813H63.709v-7.772l13.811,1.773V19.658z M96.973,24.128H82.9v-5.456l14.072,1.07V24.128L96.973,24.128z M99,25.973
		v-8.043l-18.168-1.658v9.702H99z"/>
</g>
<g display="none">
	<rect x="43.25" y="32.521" display="inline" width="56.314" height="0.479"/>
	<polygon display="inline" points="78.17,28.449 77.243,28.449 77.243,27.9 79.632,27.9 79.632,28.449 78.757,28.449 78.757,31.303 
		78.17,31.303 	"/>
	<rect x="79.456" y="29.562" display="inline" width="1.205" height="0.563"/>
	<path display="inline" d="M82.475,29.561h2.121v0.066c0,0.977-0.8,1.743-1.688,1.743c-0.959,0-1.758-0.759-1.758-1.78
		c0-1.002,0.795-1.754,1.74-1.754c0.801,0,1.379,0.566,1.545,1.066h-0.707c-0.138-0.242-0.429-0.491-0.854-0.491
		c-0.76,0-1.134,0.664-1.134,1.185c0,0.531,0.364,1.176,1.166,1.176c0.393,0,0.755-0.223,0.944-0.646h-1.379v-0.564H82.475z"/>
	<path display="inline" d="M89.354,28.449h0.404c0.372,0,0.491,0.16,0.491,0.382c0,0.354-0.392,0.354-0.543,0.354h-0.353V28.449
		L89.354,28.449z M88.77,31.303h1.01c0.238,0,0.609-0.021,0.854-0.221c0.193-0.143,0.396-0.393,0.396-0.793
		c0-0.586-0.334-0.77-0.549-0.85c0.101-0.057,0.356-0.217,0.356-0.652c0-0.236-0.108-0.479-0.271-0.626
		c-0.273-0.259-0.649-0.259-1.025-0.259H88.77V31.303z M89.354,29.734h0.483c0.536,0,0.565,0.397,0.565,0.531
		c0,0.34-0.316,0.436-0.58,0.436h-0.469V29.734L89.354,29.734z"/>
	<rect x="94.441" y="27.9" display="inline" width="0.625" height="3.401"/>
	<path display="inline" d="M86.646,30.771c-0.646,0-1.17-0.521-1.17-1.182c0-0.637,0.523-1.179,1.17-1.179
		c0.656,0,1.213,0.542,1.213,1.179C87.859,30.251,87.303,30.771,86.646,30.771 M86.646,27.836c-0.97,0-1.795,0.78-1.795,1.754
		c0,0.982,0.825,1.78,1.795,1.78c1.016,0,1.795-0.798,1.795-1.78C88.439,28.616,87.661,27.836,86.646,27.836"/>
	<path display="inline" d="M92.6,28.773h-0.012l-0.447,1.103h0.873L92.6,28.773z M90.995,31.303l1.358-3.4h0.471l1.333,3.4h-0.618
		l-0.318-0.865h-1.285l-0.326,0.865H90.995z"/>
	<polygon display="inline" points="95.648,27.9 96.252,27.9 97.678,30.127 97.678,27.9 98.27,27.9 98.27,31.302 97.711,31.302 
		96.242,28.955 96.242,31.302 95.648,31.302 	"/>
	<path display="inline" d="M68.064,30.326c0.027,0.333,0.375,0.443,0.562,0.443c0.232,0,0.494-0.164,0.494-0.42
		c0-0.339-0.266-0.451-0.67-0.61c-0.292-0.099-0.861-0.229-0.861-0.929c0-0.558,0.453-0.976,1.045-0.976
		c0.374,0,0.975,0.271,1.002,0.976h-0.589c-0.024-0.324-0.271-0.399-0.433-0.399c-0.186,0-0.43,0.14-0.43,0.339
		c0,0.311,0.303,0.398,0.635,0.514c0.268,0.092,0.897,0.272,0.897,1.021c0,0.722-0.594,1.088-1.098,1.088
		c-0.462,0-1.111-0.31-1.149-1.045L68.064,30.326L68.064,30.326z"/>
	<rect x="73.128" y="27.9" display="inline" width="0.599" height="3.4"/>
	<path display="inline" d="M71.266,28.773h-0.009l-0.428,1.103h0.854L71.266,28.773z M69.654,31.302l1.378-3.399h0.454l1.343,3.399
		h-0.622l-0.327-0.866h-1.272l-0.332,0.866H69.654z"/>
	<polygon display="inline" points="74.316,27.9 74.912,27.9 76.344,30.124 76.344,27.9 76.934,27.9 76.934,31.302 76.375,31.302 
		74.9,28.953 74.9,31.302 74.316,31.302 	"/>
	<polygon display="inline" points="43.029,7 46.594,7 43.367,33 39.802,33 	"/>
	<path display="inline" d="M84.275,18.465c0.156-1.24,0.994-2.461,2.418-2.461c1.441,0,1.983,1.19,1.828,2.461
		c-0.174,1.385-0.797,2.864-2.486,2.864C84.363,21.329,84.105,19.834,84.275,18.465 M81.951,18.723
		c-0.297,2.382,1.091,4.28,3.876,4.28c2.803,0,4.661-1.897,4.954-4.28c0.339-2.737-1.372-4.391-3.879-4.391
		C84.413,14.332,82.29,15.985,81.951,18.723"/>
	<path display="inline" d="M98.281,14.604c-0.584-0.178-1.211-0.271-2.096-0.271c-2.638,0-4.315,1.896-4.613,4.293
		c-0.311,2.526,0.852,4.378,3.619,4.378c0.901,0,1.567-0.08,2.229-0.271l0.123-1.787c-0.396,0.16-1.112,0.386-1.735,0.386
		c-1.539,0-2.131-1.173-1.941-2.704c0.193-1.561,1.193-2.621,2.553-2.621c0.671,0,1.084,0.127,1.454,0.306L98.281,14.604z"/>
	<path display="inline" d="M58.588,11.854c-0.947-0.29-1.974-0.467-3.302-0.467c-3.882,0-6.54,2.155-7.017,6.001
		c-0.471,3.801,1.877,5.616,5.578,5.616c1.229,0,2.523-0.255,3.777-0.579l0.748-6.051h-4.621l-0.221,1.771h2.428l-0.363,2.927
		c-0.408,0.098-0.906,0.162-1.527,0.162c-2.441,0-3.67-1.721-3.387-4.006c0.283-2.302,1.979-4.071,4.647-4.071
		c0.919,0,2.042,0.194,2.876,0.595L58.588,11.854z"/>
	<path display="inline" d="M61.303,14.525h-2.424l2.149,8.706c-0.11,0.885-0.725,1.48-1.608,1.48c-0.541,0-0.848-0.048-1.113-0.146
		l-0.344,1.596c0.487,0.145,1.002,0.224,1.528,0.224c2.294,0,3.022-1.802,3.954-3.634l4.184-8.225H65.4l-2.779,6.051h-0.034
		L61.303,14.525z"/>
	<path display="inline" d="M72.273,16.004c1.429,0,1.629,1.529,1.492,2.641c-0.143,1.143-0.742,2.688-2.186,2.688
		c-1.456,0-1.743-1.512-1.6-2.688C70.126,17.486,70.866,16.004,72.273,16.004 M66.837,26.191h2.192l0.537-4.33H69.6
		c0.656,0.918,1.396,1.144,2.332,1.144c2.639,0,3.851-2.091,4.127-4.36c0.284-2.284-0.414-4.312-3.002-4.312
		c-1.293,0-2.199,0.562-2.791,1.369h-0.031l0.144-1.176h-2.099L66.837,26.191z"/>
	<path display="inline" d="M76.33,22.814h2.195L78.9,19.77c0.146-1.19,0.418-3.38,2.205-3.38c0.394,0,0.777,0.065,0.961,0.178
		l0.269-2.17c-0.222-0.066-0.45-0.066-0.664-0.066c-1.31,0-2.372,1.303-2.565,2.075h-0.032l0.233-1.882h-1.951L76.33,22.814z"/>
	<g display="inline">
		<path d="M31.468,12.691c-4.989,0-9.032,3.206-9.032,7.158c0,3.953,4.043,7.158,9.032,7.158c4.988,0,9.032-3.205,9.032-7.158
			C40.5,15.897,36.456,12.691,31.468,12.691z M32.987,15.252c0,0,1.044-0.252,1.366-0.252c0.005,0,0.01,0,0.016,0
			c0.007,0,0.015,0,0.022,0h0.001c0.182,0,0.563-0.196,0.563-0.196c0.083-0.005,0.166-0.089,0.247-0.089
			c0.475,0,0.91,0.047,1.301,0.186c0.135,0.048,0.263,0.081,0.386,0.139l-3.905,0.186C32.986,15.212,32.987,15.268,32.987,15.252z
			 M37.48,15.354c0.166,0.109,0.316,0.226,0.449,0.34l-5.88,0.156c0.017-0.063,0.098-0.125,0.35-0.131
			c0.001-0.004,0.002,0.188,0.003,0.184C32.416,15.848,32.376,16,32.3,16c0,0-0.001,0-0.003,0c-0.004,0-0.01,0-0.014,0
			c-0.058,0-0.131-0.166-0.217-0.113c-0.003,0.002-0.006-0.093-0.01-0.09c-0.035-0.023-0.158-0.191-0.158-0.286
			c0-0.021,0.007-0.062,0.021-0.081c0.096-0.079,0.137-0.167,0.145-0.225l0.521,0.01c0.051,0.055,0.129,0.084,0.238,0.094
			c0.06-0.017,0.102-0.048,0.129-0.088L37.48,15.354z M31.924,14.659c0.025-0.003,0.051-0.006,0.076-0.007
			c0.009,0,0.019-0.001,0.027-0.001c0.199,0,0.397,0.08,0.553,0.163c0.137,0.073,0.24,0.148,0.276,0.173
			c0.01,0.006,0.018,0.012,0.024,0.019c0.049,0.049,0.002,0.114-0.062,0.119c-0.002,0-0.005,0-0.008,0h-0.002
			c-0.012,0-0.023-0.002-0.035-0.007c-0.005-0.002-0.01-0.004-0.016-0.005c-0.003-0.002-0.006-0.003-0.01-0.004
			c-0.047-0.018-0.098-0.037-0.139-0.047c-0.008-0.002-0.016-0.003-0.021-0.004c-0.007-0.001-0.014-0.002-0.019-0.002h-0.003
			c-0.028,0.002-0.043,0.016-0.033,0.054c0,0.003,0,0.005,0.001,0.007c0.003,0.01,0.007,0.02,0.011,0.03l-0.48,0.015
			c-0.001-0.008-0.003-0.016-0.006-0.023c-0.01-0.029-0.031-0.046-0.06-0.047h-0.003c-0.005,0-0.009,0-0.014,0
			c-0.024,0.005-0.053,0.021-0.079,0.051c-0.001,0.002-0.002,0.002-0.003,0.004c-0.002,0.002-0.002,0.003-0.004,0.004
			c-0.004,0.006-0.008,0.012-0.012,0.017l-0.347,0.011l0.333,0.01l-0.004,0.005c0.003,0.013,0.004,0.023,0.004,0.034
			c0.001,0.1-0.113,0.131-0.18,0.217c-0.008,0.016-0.012,0.033-0.012,0.05c0,0.09,0.105,0.184,0.105,0.259
			c-0.001,0.039-0.031,0.072-0.121,0.098v0.012L31.39,15.87l0.271,0.007c-0.002,0.155-0.078,0.257-0.141,0.277
			c-0.008,0.003-0.016,0.005-0.023,0.005c-0.001,0-0.002,0-0.004-0.001c-0.037-0.002-0.062-0.04-0.054-0.123
			c-0.077-0.059-0.085-0.185-0.085-0.234c0-0.013,0-0.02,0-0.02s-0.109,0.091-0.202,0.116c-0.015,0.004-0.028,0.006-0.04,0.006
			c-0.002,0-0.003,0-0.003,0c-0.021-0.001-0.04-0.007-0.054-0.021c-0.025-0.025-0.051-0.1-0.051-0.188
			c0-0.145,0.068-0.326,0.307-0.385C31.674,14.956,31.533,14.77,31.924,14.659z M27.356,14.178c0.119-0.035,0.253-0.129,0.526-0.146
			c0.106-0.045,0.205-0.076,0.293-0.099l0.557-0.022l-0.357,0.129c-0.09,0.038-0.18,0.077-0.269,0.116l-0.259,0.15
			c-0.04,0.034-0.081,0.062-0.122,0.085l-0.585-0.025c-0.005-0.012-0.008-0.023-0.008-0.035
			C27.133,14.275,27.194,14.215,27.356,14.178z M27.996,16.71c0.088,0.002,0.082,0.132,0.103,0.146c0.002,0,0.005-0.001,0.007-0.002
			c0.004,0,0.007-0.001,0.01-0.001c0.033-0.001,0.02,0.032-0.033,0.109c-0.002,0.003-0.005,0.007-0.008,0.011
			c-0.002,0.004-0.004,0.008-0.007,0.011v0.001c-0.003,0.004-0.005,0.004-0.009,0.004l0,0c-0.002,0-0.005-0.001-0.007-0.003
			c-0.006-0.005-0.012-0.017-0.019-0.026c0-0.002-0.002-0.004-0.003-0.005c-0.001-0.001-0.001-0.003-0.003-0.003
			c-0.001-0.003-0.003-0.005-0.004-0.007c-0.008-0.009-0.016-0.015-0.025-0.015h-0.004c-0.001,0-0.002,0-0.004,0
			c-0.002,0.001-0.004,0.002-0.006,0.004c-0.002,0-0.004,0.002-0.006,0.004c-0.014,0.01-0.024,0.015-0.031,0.016c0,0,0,0-0.003,0
			c0,0-0.001,0-0.003-0.001c-0.013-0.005-0.014-0.028-0.033-0.044c-0.005-0.004-0.011-0.007-0.018-0.01
			c-0.004,0-0.009-0.002-0.014-0.002c-0.002,0-0.004-0.001-0.007-0.001c-0.003-0.001-0.005-0.001-0.008-0.001
			c-0.007,0-0.015,0.001-0.022,0.002c-0.027,0.004-0.061,0.013-0.102,0.025c-0.003,0.002-0.006,0.002-0.008,0.003
			c-0.004,0.001-0.008,0.002-0.012,0.003c0,0-0.001,0-0.003,0c0,0-0.001-0.001-0.003-0.001c-0.018-0.003-0.014-0.027-0.007-0.047
			c0.007-0.034,0.05-0.207,0.202-0.312c0.041-0.027,0.062-0.037,0.073-0.037c0.016,0,0.007,0.021-0.002,0.039
			c-0.024,0.053-0.038,0.043-0.048,0.092C27.936,16.694,27.938,16.709,27.996,16.71z M26.346,14.662l0.011-0.003l1.634-0.053
			c0.084,0.075,0.124,0.178,0.123,0.282c0,0.082-0.025,0.166-0.079,0.236l-0.306-0.014c0.002-0.006,0.004-0.012,0.005-0.018
			c0.004-0.017,0.004-0.032,0.001-0.047l0,0c-0.004-0.018-0.011,0.018-0.021,0.004C27.672,14.988,27.58,15,27.545,15
			c0,0-0.002,0-0.003,0c-0.002,0-0.005,0-0.005,0h-0.001c-0.181,0-0.184,0.059-0.194,0.146l-1.672-0.1
			C25.916,14.831,26.346,14.662,26.346,14.662z M27.533,15.838l-0.46-0.021c0.099-0.156,0.226-0.227,0.353-0.227
			c0.02,0,0.039,0.002,0.059,0.005c0.025,0.005,0.051,0.011,0.075,0.021c0.021,0.012,0.028,0.027,0.028,0.043
			c0,0.039-0.039,0.086-0.045,0.108s-0.01,0.044-0.01,0.063C27.533,15.832,27.533,15.836,27.533,15.838z M27.495,15.314
			c0.015-0.006,0.029-0.012,0.046-0.017c0.004-0.001,0.007-0.003,0.012-0.004c0.023-0.015,0.043-0.031,0.062-0.046l0.307-0.014
			c0.025,0.037,0.038,0.073,0.038,0.106c0,0.107-0.128,0.187-0.319,0.2c-0.005,0-0.01,0-0.015,0c-0.001,0-0.003,0-0.005,0
			C27.291,15.541,27.141,15.447,27.495,15.314z M25.348,15.348l1.834-0.08c-0.197,0.098-0.403,0.2-0.649,0.433l-0.106,0.085
			l-1.555-0.076C25.011,15.584,25.167,15.463,25.348,15.348z M24.552,16.033l1.753-0.257C26.23,15.96,26.352,16,26.614,16
			c0.004,0,0.009,0,0.013,0h0.001c0.005,0,0.009,0,0.013,0c0.006,0,0.012,0,0.019,0c0.001,0,0.002,0,0.004,0h0.002
			c0.036,0,0.011,0.209-0.013,0.309c-0.002,0.008-0.004,0.096-0.006,0.104l-2.234-0.243C24.398,16.158,24.38,16,24.357,16
			c-0.001,0-0.004,0-0.004,0c-0.005,0-0.01,0.19-0.015,0.191c-0.015,0.002-0.03,0.1-0.047,0.107l-0.028,0.045
			C24.354,16.225,24.448,16.152,24.552,16.033z M24.098,18.742l1.946-0.112l-1.969-0.118c-0.005-0.076-0.007-0.154-0.007-0.232
			c0-0.07,0.002-0.141,0.006-0.212l2.299-0.129l-2.277-0.128c0.016-0.14,0.038-0.282,0.067-0.426l1.908-0.088
			c-0.047,0.104-0.131,0.398-0.136,0.531C25.941,17.835,25.949,18,25.957,18h0.002c0.001,0,0.002,0,0.004,0
			c0.004,0,0.008-0.162,0.012-0.164c0.018-0.009,0.039-0.113,0.059-0.16c0.002-0.002,0.004-0.045,0.004-0.049
			c0.003-0.005,0.005-0.029,0.007-0.035c0.017-0.043,0.067-0.221,0.122-0.29l0.453-0.009c0.003,0.006,0.38,0.009,0.38,0.016
			c0,0.002,0,0.004,0,0.006c0,0.03-0.405,0.086-0.405,0.141c0,0.02-0.181,0.277-0.168,0.295c0.004,0.007-0.175,0.25-0.17,0.25h0.002
			c0.002,0,0.356-0.24,0.358-0.241C26.631,17.754,27,17.492,27,17.469c0,0,0,0,0-0.002l-0.35-0.051
			c0.013-0.042-0.139-0.245-0.106-0.252c0,0-0.14-0.164-0.101-0.164c0,0,0.002,0,0.003,0c0.006,0,0.011,0.18,0.017,0.179
			c0.021-0.003,0.029,0.07,0.029,0.05c0-0.014-0.003,0.018-0.008,0.004l0.629-0.008l-0.68-0.033C26.258,17.156,26.3,17,26.274,17
			c-0.001,0-0.001,0-0.002,0c-0.003,0-0.007,0.023-0.01,0.019C26.238,16.984,26.209,17,26.182,17c-0.004,0-0.008,0-0.011,0
			c-0.005,0-0.009,0-0.013,0c-0.091,0-0.139,0.107-0.139,0.107S26,17.152,26,17.162v-0.004c0,0.014-0.051,0.021-0.051,0.027
			c0,0.004-0.018,0.006-0.017,0.008l-1.697-0.078c0.033-0.132,0.066-0.266,0.111-0.402l2.471-0.113
			C26.816,16.613,27,16.625,27,16.639c0,0.002,0,0.004,0,0.006C27,16.669,26.641,17,26.663,17h0.002c0.007,0,0.013-0.157,0.019-0.16
			c0.02-0.007,0.038-0.104,0.053-0.139c0-0.004,0.002-0.045,0.003-0.049c0.002-0.006,0.004-0.031,0.006-0.039l1.101-0.062
			l-1.076-0.05c0.021-0.093,0.037-0.192,0.068-0.21c0.161-0.065,0.229-0.156,0.229-0.254c0-0.044-0.014-0.09-0.04-0.137l0.003-0.006
			l0.512,0.027C27.549,15.934,27.561,16,27.58,16h0.002c0.004,0,0.008,0,0.012,0c0.008,0,0.018-0.061,0.027-0.064
			c0.01-0.003,0.021-0.037,0.034-0.043c0.002,0,0.005-0.018,0.009-0.02l0.133-0.015l-0.121-0.011
			c0.039-0.041,0.102-0.133,0.131-0.133c0.018,0,0.023,0.031,0.008,0.123c-0.006,0.03-0.008,0.059-0.009,0.085
			c-0.001,0.267,0.235,0.378,0.233,0.48c0,0.025-0.014,0.05-0.051,0.076c-0.428,0.2-0.641,0.394-0.643,0.577
			c0,0.049,0.016,0.098,0.045,0.145l-0.057,0.021l-0.074-0.007c-0.146,0.021-0.238,0.088-0.275,0.201
			c-0.029,0.115-0.146,0.23-0.349,0.344c0,0-0.258,0.083-0.257,0.23c0,0.01,0.001,0.02,0.004,0.029
			c0.02,0.064,0.029,0.121,0.028,0.168c-0.001,0.092-0.04,0.154-0.128,0.192c-0.088,0.05-0.166,0.132-0.234,0.247
			c-0.008,0.013-0.014,0.023-0.02,0.035l-0.047,0.174l0.004,0.33c0.003,0.017,0.004,0.033,0.004,0.048
			c0,0.054,0.056,0.093,0.021,0.118C25.915,19.328,26,19.178,26,19.148v-0.072l-0.06-0.225c-0.082-0.033-0.2,0.051-0.275,0.049
			L25.628,19c-0.001,0-0.004,0-0.004,0c-0.061,0-0.031-0.008-0.084,0.037c-0.003,0.003-0.006-0.045-0.009-0.043
			c-0.002,0.002-0.005-0.021-0.007-0.021c-0.003,0.001-0.006-0.009-0.01-0.009c-0.003,0.002-0.006,0.018-0.009,0.018
			C25.502,18.984,25.498,19,25.494,19c-0.001,0-0.003,0-0.005,0c0,0,0,0-0.002,0h-0.001c-0.019,0-0.032-0.033-0.046-0.047
			c-0.005-0.004-0.009-0.02-0.014-0.025c-0.002-0.002-0.004,0.053-0.005,0.051C25.406,18.961,25.39,19,25.367,19
			c-0.002,0-0.004,0-0.007,0c-0.001,0-0.005,0-0.005,0c-0.013,0-0.026-0.057-0.042-0.047c-0.093,0.062,0.226,0.184,0.227,0.237
			c0.001,0.034,0.46,0.036,0.46,0.071c0,0.004,0,0.008,0,0.012l-1.358-0.055C24.599,19.064,24.119,18.904,24.098,18.742z
			 M25.973,17.195c0.004,0,0.066-0.06,0.098-0.076c0.002-0.001,0.002-0.002,0.004-0.002l0,0l0.002-0.001
			c0.003-0.001,0.006-0.002,0.008-0.002c0.016,0,0.021,0.019,0.021,0.038c0.002,0.02-0.002,0.041-0.003,0.045L25.973,17.195z
			 M25.539,19.751c0,0.067-0.04,0.156-0.04,0.156l-0.017,0.047l-0.169-0.009c0.003-0.019,0.024-0.126,0.067-0.199
			c0.023-0.04,0.053-0.07,0.089-0.07c0.004,0,0.007,0.001,0.01,0.002c0.003,0,0.005,0,0.008,0.001
			C25.526,19.683,25.539,19.713,25.539,19.751z M24.475,19.904c-0.086-0.158-0.159-0.322-0.218-0.489l0.808-0.05
			c-0.009,0.01-0.02,0.021-0.033,0.035c-0.012,0.011-0.045,0.112-0.045,0.26c0,0.08,0.01,0.172,0.038,0.271L24.475,19.904z
			 M25.176,20.621l-0.05-0.046l-0.179-0.067c-0.004-0.006-0.005-0.01-0.005-0.016c0-0.061,0.206-0.17,0.208-0.23
			c0-0.004-0.001-0.008-0.003-0.011l-0.06-0.017l-0.147,0.012c-0.005,0-0.01,0-0.016,0c-0.005,0-0.011,0-0.016,0h-0.001
			c-0.01,0-0.021,0-0.031,0c-0.048-0.006-0.107-0.022-0.182-0.07c-0.002-0.002-0.005-0.003-0.007-0.004
			c-0.025-0.018-0.053-0.039-0.082-0.064l0.837-0.043c-0.016,0.035-0.063,0.15-0.086,0.225c0.007-0.004,0.014-0.008,0.02-0.012
			c0.042-0.025,0.079-0.037,0.109-0.039c0.003,0,0.005,0,0.008,0c0.001,0,0.002,0,0.003,0c0.066,0.002,0.095,0.055,0.048,0.109
			c-0.001,0.001-0.003,0.002-0.003,0.002c-0.002,0.004-0.004,0.006-0.007,0.008c-0.003,0.004-0.006,0.006-0.01,0.01l-0.118,0.086
			c-0.013,0.053-0.019,0.103-0.019,0.146c0,0.023,0.002,0.047,0.005,0.066l-0.202-0.014L25.176,20.621z M28.6,22.652
			c-0.043,0.045-0.071,0.08-0.087,0.115c-0.012,0.025-0.017,0.053-0.017,0.086c0,0.065,0.021,0.152,0.053,0.297
			c0.012,0.037,0.018,0.076,0.018,0.117c0,0.131-0.062,0.279-0.155,0.375c-0.097,0.088-0.308,0.101-0.308,0.279
			c0,0.012,0,0.021,0.002,0.033c0.005,0.031,0.008,0.066,0.008,0.104c0,0.148-0.044,0.312-0.135,0.373
			c-0.209,0.09-0.342,0.236-0.342,0.433c-0.001,0.116,0.047,0.047,0.153,0.198C27.785,25.157,27.736,25,27.645,25h-0.002
			c-0.01,0-0.021,0.205-0.031,0.204c-0.044-0.005-0.096,0.085-0.154,0.063c-0.002-0.002-0.004,0.049-0.006,0.049
			c-0.013-0.004-0.025,0.017-0.039,0.011c-0.008-0.003-0.015,0.007-0.022,0.004c-0.157-0.104-0.296-0.257-0.409-0.454l0.619-0.041
			l-0.668-0.046c-0.082-0.165-0.148-0.354-0.193-0.562l1.348-0.062l-1.375-0.077c-0.019-0.108-0.031-0.22-0.038-0.333l-0.024-0.21
			l1.81-0.069l-1.827-0.082l-0.02-0.17c-0.237-0.11-0.434-0.23-0.59-0.358l2.48-0.095l-2.688-0.106
			c-0.129-0.151-0.208-0.315-0.236-0.487l2.855-0.098l-2.865-0.115c0.012-0.156,0.06-0.318,0.146-0.49l1.719-0.066l-1.633-0.077
			c-0.004-0.056-0.006-0.111-0.008-0.166c-0.282-0.06-0.451-0.171-0.508-0.336l-0.046-0.085l0.171-0.012
			c0.001,0.004,0.002,0.008,0.004,0.012c0.001,0.004,0.003,0.039,0.004,0.043C25.468,20.902,25.577,21,25.701,21
			c0.004,0,0.008,0,0.014,0c0,0,0,0,0.001,0c0.007,0,0.014,0,0.021,0c0.008,0,0.016-0.034,0.023-0.035
			c0.051-0.018,0.133-0.049,0.143-0.178c0,0,0.001-0.01,0.002-0.012c0.049-0.06,0.111-0.084,0.178-0.084
			c0.08,0,0.168,0.027,0.247,0.059c0.024,0.01,0.048,0.018,0.07,0.027c0.017,0.006,0.032,0.011,0.046,0.016
			c0.02,0.006,0.035,0.105,0.051,0.109C26.508,20.904,26.518,21,26.527,21c0.005,0,0.01,0,0.014,0c0.002,0,0.004-0.098,0.006-0.098
			c0.021-0.008,0.041,0.049,0.061,0.043C26.628,20.941,26.647,21,26.663,21c0.001,0,0.003,0,0.005,0c0.023,0,0.039-0.1,0.041-0.076
			c0.02,0.108,0.28,0.238,0.679,0.328c0.071,0.43,0.551,0.693,0.915,0.75c0.295,0.055,0.424,0.207,0.426,0.378
			C28.729,22.482,28.684,22.572,28.6,22.652z M29.049,15.633C29.019,15.642,29,15.822,29,15.822V16c0,0-0.084,0-0.086,0
			c-0.189,0-0.301-0.385-0.291-0.594c0-0.008,0.001-0.105,0.002-0.114l0.598-0.07l-0.59-0.048c0.02-0.094,0.083-0.195,0.16-0.259
			c0.13-0.093,0.207-0.22,0.207-0.326c0-0.005,0-0.011,0-0.016l1.576-0.053l-1.645-0.075c-0.005-0.006-0.013-0.168-0.019-0.174
			C28.859,14.203,28.767,14,28.65,14c-0.005,0-0.009,0-0.014,0h-0.002c-0.01,0-0.02,0-0.03,0c-0.001,0-0.003,0-0.003,0
			c-0.013,0-0.024,0.158-0.037,0.159l-0.221-0.058C28.324,14.105,28.307,14,28.29,14h-0.001c-0.002,0-0.004,0-0.006,0
			c-0.104,0-0.119,0.101-0.032,0.055c0.281-0.135,0.593-0.158,0.937-0.256l1.883-0.031l-1.312-0.04
			c0.111-0.023,0.224-0.032,0.34-0.054c0.045-0.005,0.107-0.006,0.18-0.012c0.082-0.006,0.178-0.009,0.283-0.009
			c0.196,0,0.425,0.02,0.651,0.081c0.007,0.005,0.011,0.012,0.011,0.018c0,0.012-0.014,0.025-0.042,0.042l-0.233,0.108
			c-0.375,0.199-0.219,0.691-0.613,0.814l-0.072,0.013c-0.49,0.088-0.797,0.231-0.963,0.433
			C29.298,15.162,29.216,15.333,29.049,15.633z M30.707,16.551c0.001,0.02-0.048,0.044-0.061,0.048
			c-0.034-0.003-0.064-0.007-0.09-0.007c-0.002,0-0.005,0-0.005,0c-0.003,0-0.005,0-0.008,0c-0.005,0-0.011,0.002-0.015,0.002
			c-0.002,0.001-0.003,0.001-0.004,0.002c-0.01,0-0.02,0.028-0.041,0.029c-0.014,0-0.039-0.004-0.051-0.004
			c-0.088,0.02-0.111,0.043-0.139,0.078c-0.002,0.004-0.006,0.005-0.012,0.006l0,0c-0.006,0-0.013-0.003-0.018-0.006
			c-0.004-0.004-0.008-0.009-0.008-0.015v-0.001c0-0.002,0-0.004,0.001-0.007c0.001-0.001,0.001-0.001,0.001-0.001
			c0.006-0.02,0.047-0.133,0.145-0.137c0.002,0,0.006,0,0.006,0c0.003,0,0.006,0,0.009,0.001c0.015-0.012,0.019-0.021,0.019-0.026
			c0-0.005-0.004-0.008-0.004-0.008L30.37,16.51c0,0-0.044-0.001-0.045-0.023c-0.001-0.008,0.005-0.018,0.016-0.03
			c0.015-0.015,0.024-0.021,0.036-0.06c0.008-0.028-0.016-0.094,0.01-0.102c0.002,0,0.004,0,0.006,0h0.001c0.001,0,0.003,0,0.003,0
			c0.003,0,0.006,0,0.011,0.001c0.002,0,0.005,0.001,0.007,0.001h0.004c0.006,0,0.012-0.001,0.017-0.002
			c0.011-0.004,0.021-0.01,0.023-0.023c0.001-0.001,0.001-0.004,0.001-0.004c0.002-0.008,0.002-0.019,0.002-0.029
			c0-0.021-0.002-0.043-0.002-0.043l0,0c-0.002-0.006-0.004-0.01-0.008-0.014c-0.004-0.003-0.01-0.004-0.018-0.005c0,0,0,0-0.002,0
			s-0.005,0-0.008,0.001c-0.018,0.002-0.035,0.01-0.035,0.01c-0.002,0-0.004,0-0.006,0l0,0h-0.002c-0.002,0-0.004,0-0.006,0
			c-0.037-0.006-0.041-0.059-0.039-0.098c0-0.002,0-0.004,0-0.006c0-0.004,0-0.009,0.001-0.012c0-0.002,0-0.003,0-0.003v-0.002
			c-0.001-0.003-0.002-0.007-0.002-0.007c-0.001,0-0.001-0.002-0.001-0.002c-0.002,0-0.003-0.002-0.003-0.002
			c-0.003-0.001-0.005-0.002-0.009-0.002c0,0-0.001,0-0.002,0l-0.002,0.001c-0.002,0.001-0.004,0.001-0.007,0.003
			c-0.001,0-0.002,0-0.003,0c-0.002,0.001-0.005,0.001-0.008,0.002h-0.002h-0.002c-0.02-0.002-0.021-0.025-0.006-0.068l0.032-0.088
			c0.021-0.055,0.045-0.091,0.068-0.113c0.022-0.023,0.044-0.032,0.06-0.032c0.021,0,0.029,0.018,0.012,0.044
			c-0.006,0.007-0.01,0.014-0.014,0.021c-0.012,0.025-0.009,0.05,0.014,0.05h0.002c0.003,0,0.006,0,0.01,0
			c0.008-0.002,0.015-0.004,0.021-0.004c0.007-0.002,0.013-0.002,0.02-0.002h0.002c0.027,0.002,0.027,0.02,0.007,0.059
			c-0.002,0.004-0.005,0.009-0.007,0.014l-0.029,0.076c-0.001,0.003-0.001,0.005-0.001,0.008c0,0.009,0.003,0.02,0.005,0.021
			c0.107,0.107,0.16,0.199,0.16,0.276c0,0.008-0.002,0.016-0.002,0.022c0.003,0,0.006-0.001,0.01-0.001c0.002,0,0.003,0,0.004,0.001
			c0.088,0.001,0.104,0.046,0.05,0.136c-0.001,0.004-0.003,0.007-0.005,0.01c-0.014,0.02-0.047,0.039-0.047,0.039
			C30.695,16.533,30.707,16.541,30.707,16.551z M30.053,16.314c0-0.002,0.002-0.006,0.006-0.01l0.037-0.03
			c0.002-0.002,0.002-0.004,0.002-0.007c0-0.01-0.011-0.025-0.011-0.037c0-0.004,0.002-0.009,0.007-0.012
			c0.017-0.008,0.061-0.018,0.061-0.018c0.013-0.004,0.016-0.012,0.016-0.02c0-0.008-0.002-0.016-0.002-0.023
			c0-0.005,0.001-0.01,0.005-0.014c0.015-0.011,0.028-0.016,0.042-0.016c0.017,0,0.032,0.008,0.046,0.02
			c0.032,0.025,0.052,0.072,0.054,0.09v0.002c0,0.025-0.064,0.047-0.064,0.047s0.012,0.023,0.012,0.06
			c0,0.053-0.026,0.13-0.153,0.195c-0.026,0-0.092-0.032-0.094-0.051v-0.003c0.001-0.031,0.069-0.049,0.071-0.137l0,0
			C30.086,16.33,30.054,16.328,30.053,16.314z M33.291,24.346c-0.023,0.053-0.049,0.068-0.072,0.069h-0.002
			c-0.003,0-0.006,0-0.008-0.001c-0.028-0.004-0.053-0.029-0.063-0.044c-0.002-0.003-0.004-0.006-0.005-0.009
			c-0.027-0.066-0.04-0.125-0.046-0.166l0.249,0.009C33.321,24.268,33.305,24.314,33.291,24.346z M33.553,23.634
			c-0.074,0.183-0.129,0.339-0.172,0.46l-0.288,0.008c0.026-0.213,0.136-0.416,0.211-0.49c0,0,0.022-0.034,0.058-0.073l0.222,0.004
			C33.577,23.587,33.553,23.634,33.553,23.634z M33.77,21.318l-3.885,0.088l3.811,0.07c-0.105,0.188-0.26,0.381-0.398,0.564
			l-2.084,0.053l2.021,0.045C33.098,22.326,33,22.5,33,22.645c0,0.011,0,0.02,0,0.028c0,0.019,0.003,0.036,0.008,0.056L31.49,22.77
			l1.534,0.035c0.041,0.159,0.061,0.301,0.061,0.424c0.001,0.078-0.008,0.149-0.024,0.215l-1.658,0.05l1.627,0.036
			c-0.057,0.127-0.154,0.215-0.297,0.266L32.7,24.066c-0.003,0.016-0.006,0.031-0.012,0.048l-1.174,0.032l1.152,0.039
			c-0.082,0.25-0.234,0.498-0.426,0.646l-0.573,0.02l0.517,0.021c-0.002,0.002-0.004,0.003-0.007,0.005
			c-0.001,0.001-0.005,0.003-0.005,0.003c-0.003,0.002-0.006,0.018-0.01,0.02c-0.089,0.054-0.185,0.1-0.283,0.1
			c-0.002,0-0.004,0-0.006,0s-0.004,0-0.008,0c-0.029,0-0.061-0.018-0.092-0.023c-0.008,0-0.016-0.01-0.024-0.012
			c-0.043-0.011-0.088-0.109-0.088-0.109c-0.108-0.178-0.112-0.43-0.153-0.703c-0.025-0.159-0.062-0.32-0.135-0.479
			c-0.013-0.027-0.018-0.057-0.019-0.086c-0.001-0.104,0.071-0.222,0.142-0.365c0.004-0.052,0.005-0.098,0.005-0.14
			c0.001-0.229-0.04-0.354-0.116-0.519c-0.124-0.121-0.186-0.269-0.188-0.443c0-0.105,0.021-0.221,0.066-0.346
			c-0.003-0.004-0.006-0.006-0.008-0.008s-0.004-0.004-0.005-0.007c-0.011-0.01-0.021-0.02-0.03-0.028
			c-0.002-0.002-0.004,0.231-0.006,0.229C31.057,21.816,30.88,22,30.775,22c-0.006,0-0.01,0-0.015,0c-0.001,0-0.002,0-0.003,0
			c-0.036,0-0.061-0.23-0.07-0.221c0,0-0.209,0.169-0.391,0.188C30.283,21.97,30.27,22,30.256,22h-0.002
			c-0.039,0-0.076-0.155-0.109-0.173c-0.001,0-0.002-0.075-0.004-0.075c-0.245-0.172-0.562-0.627-0.658-1.141
			c-0.009-0.045-0.012-0.156-0.012-0.253c-0.001-0.099,0.003-0.209,0.009-0.259c0.047-0.375,0.147-0.626,0.261-0.802
			c0.15-0.24,0.273-0.167,0.305-0.603c0.006-0.039,0.025-0.106,0.119-0.126c0.01-0.009,0.018-0.019,0.025-0.028
			c0.002-0.004,0.006-0.008,0.01-0.014c0,0,0-0.002,0.002-0.002c0.072-0.111,0.029-0.24,0.113-0.242h0.001
			c0.006,0,0.013,0,0.021,0.002c0.018,0.004,0.04,0.011,0.068,0.023c0.01,0.004,0.021,0.01,0.033,0.016
			c0.01,0.005,0.02,0.01,0.031,0.016c0.006,0.004,0.014,0.008,0.021,0.012c0.001,0.002,0.003,0.002,0.005,0.002
			c0.004,0.002,0.008,0.003,0.011,0.003h0.001c0.047,0,0.089-0.11,0.207-0.169c0.002-0.002,0.006-0.003,0.008-0.004
			c0.012-0.006,0.025-0.012,0.039-0.016c0.057-0.019,0.178-0.032,0.307-0.032c0.104,0,0.211,0.009,0.29,0.03
			c-0.034,0.075-0.05,0.143-0.05,0.207c-0.001,0.086,0.029,0.162,0.084,0.232l-1.231,0.023l1.28,0.027
			c0.094,0.088,0.23,0.162,0.404,0.23c0.139,0,0.059-0.141,0.111-0.219l0.137,0.004c0.002,0,0.004,0.002,0.004,0.002
			c0.003,0.002,0.006,0.092,0.008,0.094c0.09,0.057,0.229,0.235,0.4,0.235c0.003,0,0.006,0,0.009,0c0.017,0,0.033-0.09,0.051-0.092
			c0.004,0,0.009-0.045,0.013-0.046c0.077-0.01,0.147-0.084,0.201-0.153l5.136,0.104c0.008,0.072,0.013,0.139,0.012,0.209
			c0,0.047-0.002,0.092-0.006,0.139l-4.062,0.078c-0.041-0.055-0.07-0.119-0.09-0.188c0-0.003,0-0.005-0.002-0.007
			c-0.009-0.025-0.05-0.047-0.089-0.055C33.671,18.986,33.664,19,33.659,19h-0.001c-0.024,0-0.045,0-0.054,0h-0.001
			c-0.001,0-0.002,0.025-0.002,0.031c-0.002,0.006-0.002,0.02-0.002,0.025c0,0.049,0.043,0.124,0.08,0.181l-3.865,0.079l2.968,0.061
			l0.159,0.564l-3.354,0.066l3.39,0.066l0.124,0.44c0.014,0.041,0.029,0.077,0.047,0.113l-3.568,0.068l3.648,0.072
			c0.083,0.119,0.188,0.213,0.314,0.281c0.002-0.003,0.004-0.006,0.007-0.01c0.001-0.002,0.003-0.004,0.004-0.006
			c0.005-0.006,0.01-0.012,0.015-0.02c0,0,0.002,0,0.002-0.002c0.042-0.05,0.091-0.044,0.135-0.054
			C33.713,20.961,33.721,21,33.729,21c0.002,0,0.004,0,0.005,0c0.021,0,0.04-0.031,0.057-0.014c0.003,0.002,0.005-0.017,0.007-0.014
			c0,0.002,0.002-0.008,0.002-0.007c0.016,0.042,0.021,0.081,0.021,0.126C33.82,21.167,33.803,21.24,33.77,21.318z M31.58,18.057
			c0,0,0-0.002,0-0.003c0-0.009,0.001-0.019,0.003-0.028c0.001-0.004,0.001-0.008,0.003-0.013c0-0.003,0-0.005,0.002-0.008
			c0.002-0.01,0.005-0.021,0.006-0.031l0.1,0.001c-0.004,0.015-0.027,0.104-0.068,0.146c-0.002,0.002-0.004,0.002-0.006,0.002l0,0
			c-0.006,0-0.012-0.002-0.017-0.006C31.59,18.109,31.579,18.091,31.58,18.057z M31.954,18.02c0,0-0.012-0.015-0.026-0.041
			l0.2,0.006c0.019,0.031,0.036,0.064,0.044,0.084c0,0.002,0,0.004,0,0.006c0,0.027-0.059,0.086-0.121,0.088h-0.002
			c-0.002,0-0.004,0-0.006,0c-0.029-0.002-0.059-0.018-0.083-0.058c0.05-0.022,0.067-0.04,0.066-0.052
			C32.025,18.027,31.954,18.02,31.954,18.02z M33.148,17.533c-0.004-0.004-0.008-0.008-0.01-0.012
			c-0.006-0.005-0.01-0.01-0.014-0.014c-0.006-0.006-0.01-0.012-0.016-0.017c-0.002-0.002-0.004-0.004-0.006-0.006
			c-0.1-0.099-0.19-0.142-0.316-0.144c-0.002,0-0.004,0-0.006,0h-0.004c-0.012,0-0.023,0-0.037,0.002h-0.003
			c-0.019,0.001-0.038,0.003-0.06,0.006h-0.001h-0.001c-0.001,0-0.002,0-0.005-0.002h0.001c-0.002-0.001-0.004-0.002-0.006-0.004
			s-0.004-0.002-0.005-0.004c-0.005-0.004-0.009-0.01-0.013-0.016c-0.006-0.01-0.01-0.021-0.01-0.033v0.001l0.822,0.019
			c0.008,0.205,0.232,0.43,0.232,0.487c0,0.003,0,0.005-0.001,0.007c-0.016,0.027-0.028,0.055-0.038,0.083l-1.389,0.032
			c0.022-0.069,0.08-0.14,0.186-0.206c0.002-0.001,0.005-0.003,0.008-0.005c0.074-0.044,0.14-0.066,0.211-0.066
			c0.002,0,0.003,0,0.004,0c0.004,0,0.006,0,0.01,0c0.077,0.002,0.162,0.027,0.271,0.076c0.008,0.004,0.014,0.006,0.021,0.01
			c0.01,0.004,0.02,0.01,0.03,0.014c0.007,0.004,0.013,0.007,0.021,0.01c0.014,0.008,0.027,0.01,0.041,0.011h0.002
			c0.001,0,0.002,0,0.002,0C33.164,17.758,33.216,17.608,33.148,17.533z M34,18.014c0,0.004,0,0.008,0,0.012
			C34,18.145,33.697,18,33.817,18c0.001,0,0.003,0,0.005,0c0.002,0,0.004,0,0.007,0C33.896,18,34,18.079,34,18.021V18.02
			l3.764,0.076l0.033,0.191c0.026,0.062,0.04,0.129,0.06,0.195l-4.938,0.094C32.924,18.563,33,18.551,33,18.537v-0.129
			C33,18.27,32.889,18,32.751,18c-0.001,0-0.004,0-0.004,0h-0.001c-0.012,0-0.023,0-0.037,0h-0.002
			c-0.004,0-0.008,0.133-0.012,0.133c-0.003,0-0.006-0.07-0.009-0.069C32.662,18.068,32.638,18,32.613,18h-0.002
			c-0.01,0-0.02,0-0.029,0C32.414,18,33,18.139,33,17.993c0-0.002,0-0.005,0-0.007L34,18.014z M34.212,20.157
			c-0.111,0.171-0.257,0.323-0.437,0.46l-0.406,0.008c-0.021-0.025-0.043-0.053-0.062-0.081l-0.15-0.466l1.078,0.021
			C34.225,20.121,34.217,20.141,34.212,20.157z M34.304,19.916l-1.192,0.024l-0.181-0.561l0.815,0.017
			c0.029,0.131,0.173,0.209,0.433,0.232c0.104,0.05,0.138,0.121,0.138,0.199C34.316,19.857,34.312,19.887,34.304,19.916z
			 M35.621,21.052c-0.092,0.121-0.217,0.188-0.373,0.202c-0.024-0.166-0.047-0.314-0.07-0.445l0.484,0.01
			C35.652,20.889,35.639,20.965,35.621,21.052z M35.66,20.502c0.006,0.021,0.01,0.049,0.012,0.078l-0.535,0.01
			c-0.038-0.188-0.078-0.342-0.127-0.477L36,20.134C35.932,20.251,35.818,20.373,35.66,20.502z M36.242,20
			c-0.004,0-0.008-0.119-0.014-0.119c-0.027,0.006-0.062-0.032-0.105,0.014c-0.002,0.001-0.003-0.027-0.005-0.025
			c-0.001,0.002-0.002-0.012-0.003-0.012c-0.011,0.012-0.021,0.018-0.033,0.032l-1.162,0.019c-0.064-0.128-0.142-0.243-0.238-0.36
			c-0.266-0.011-0.476-0.061-0.628-0.144l3.792,0.074c-0.066,0.168-0.176,0.303-0.332,0.375l-1.186,0.024
			c0-0.003-0.002,0.114-0.002,0.11C36.312,19.928,36.288,20,36.245,20C36.245,20,36.244,20,36.242,20z M37.476,21.902
			c-0.001,0.011-0.003,0.021-0.007,0.031l-0.462,0.012l-0.003-0.043c0.045-0.262,0.252-0.15,0.324-0.303l0.027-0.056l0.155,0.003
			c-0.04,0.067-0.05,0.131-0.05,0.188C37.461,21.8,37.475,21.855,37.476,21.902z M36.354,20.566
			c-0.015-0.122-0.022-0.229-0.022-0.306c0-0.014,0-0.027,0-0.039c0.002-0.01,0.005-0.041,0.008-0.083l0.875,0.018
			c0.004,0.103,0.047,0.229,0.135,0.38v0.01L36.354,20.566z M37.328,20.85c0,0.002-0.002,0.004-0.002,0.006
			c-0.002,0.004-0.004,0.009-0.006,0.013c-0.053,0.108-0.148,0.146-0.229,0.147c-0.003,0-0.006,0-0.008,0s-0.004,0-0.006,0
			c-0.057-0.002-0.104-0.02-0.115-0.041l-0.002-0.002c-0.027-0.053-0.041-0.1-0.047-0.131L37.328,20.85z M36.711,20.838
			c0,0.004,0,0.01,0,0.016c-0.01,0.033-0.014,0.07-0.014,0.109c0,0.088,0.019,0.189,0.041,0.293l-0.259,0.005
			c-0.034-0.137-0.064-0.286-0.087-0.43L36.711,20.838z M36.805,21.535c0.014,0.066,0.024,0.128,0.023,0.175
			c0,0.062-0.017,0.103-0.064,0.106c0,0,0,0-0.002,0c-0.004,0-0.007,0-0.01,0c-0.069-0.012-0.135-0.123-0.193-0.286L36.805,21.535z
			 M36.76,22.218c-0.006,0.125-0.056,0.177-0.107,0.181c-0.001,0-0.002,0-0.004,0c-0.004,0-0.008,0-0.012-0.002
			c-0.035-0.004-0.068-0.03-0.084-0.07c-0.001-0.002-0.002-0.004-0.002-0.008l-0.035-0.104L36.76,22.218z M36.715,22.441
			c0.006,0,0.012,0.002,0.016,0.004c0.003,0,0.006,0,0.008,0c0.004,0,0.007,0,0.01,0c0.111,0.002,0.248,0.029,0.248,0.029
			l0.305,0.135l-0.47,0.013c-0.114-0.037-0.163-0.07-0.163-0.07c-0.001,0-0.002-0.001-0.003-0.002
			C36.617,22.491,36.677,22.441,36.715,22.441z M37.27,22.331c-0.002,0.002-0.004,0.004-0.006,0.005
			c-0.025,0.023-0.059,0.037-0.092,0.038c-0.001,0-0.003,0-0.003,0c-0.006,0-0.013,0-0.019-0.001
			c-0.046-0.006-0.089-0.037-0.107-0.091c0-0.001,0-0.002,0-0.003c-0.006-0.014-0.01-0.034-0.014-0.057l0.303,0.008
			C37.297,22.289,37.27,22.331,37.27,22.331z M36.29,21.525l0.19,0.004c0.051,0.101,0.143,0.277,0.207,0.426l-0.256,0.005
			c-0.061-0.18-0.117-0.351-0.126-0.374C36.297,21.564,36.293,21.545,36.29,21.525z M36.453,24.552
			c-0.004,0.003-0.006,0.003-0.009,0.005c-0.002,0.002-0.005,0.002-0.007,0.004c-0.024,0.013-0.053,0.021-0.076,0.021
			c-0.002,0-0.004,0.001-0.006,0.001l-0.003-0.001c-0.034-0.001-0.055-0.019-0.036-0.063c0.027-0.037,0.07-0.078,0.084-0.121
			c0.008-0.029,0.018-0.063,0.025-0.104l0.475,0.015C36.688,24.396,36.5,24.514,36.453,24.552z M37.447,24.518
			c0,0-0.15,0.114-0.25,0.139c-0.051-0.012-0.074-0.03-0.074-0.059v-0.003c0.012-0.073,0.025-0.192,0.025-0.192
			c-0.005,0-0.01,0.002-0.016,0.002c0,0,0,0-0.002,0s-0.003,0-0.005,0c-0.001,0-0.002,0-0.003,0c-0.053-0.002-0.08-0.03-0.097-0.088
			c-0.001-0.002-0.002-0.004-0.003-0.008l0.584,0.018C37.561,24.384,37.508,24.447,37.447,24.518z M37.947,23.768
			c0,0-0.003,0.058-0.087,0.198l-1.423,0.042c0.056-0.18,0.145-0.312,0.265-0.396l1.259,0.027
			C37.959,23.676,37.955,23.719,37.947,23.768z M37.927,23.23c-0.003,0.021-0.005,0.043-0.005,0.062l-0.924,0.027
			c0.05-0.113,0.133-0.178,0.383-0.287l0.156-0.117l0.16-0.002c-0.028,0.05-0.057,0.1-0.085,0.146
			c0.062,0.039,0.091,0.108,0.091,0.205c0,0.004,0,0.01,0,0.015l0.172-0.361l0.092,0.001c0.002,0.016,0.002,0.029,0.002,0.043
			C37.969,23.051,37.944,23.139,37.927,23.23z M38.309,17.777l-4.494,0.201C33.804,17.938,33.816,18,33.852,18h0.002
			c0.002,0,0.002,0,0.002,0c0.004,0,0.006,0,0.008,0c0.014,0,0.028-0.09,0.046-0.08c0.04-0.01,0.054-0.08,0.054-0.104
			c0.001-0.054-0.061-0.146-0.078-0.165c0,0-0.141-0.133-0.19-0.2c-0.01-0.015-0.015-0.2-0.015-0.22c0-0.027,0.01-0.23,0.033-0.23
			h0.08c0.003,0,0.006,0.163,0.01,0.166c0.013,0.009,0.023,0.095,0.035,0.101c0,0,0.002-0.136,0.004-0.136
			C33.848,17.134,33.854,17,33.86,17c0,0,0.001,0,0.004,0c0,0,0.002,0,0.003,0c0.002,0,0.002,0,0.004,0
			c0.017,0,0.025,0.161,0.028,0.143l4.503,0.189C38.385,17.434,38.356,17.656,38.309,17.777z M31.119,16.558l6.945,0.174
			c0.16,0.103,0.249,0.235,0.299,0.345l-4.532,0.104c-0.027-0.033-0.051-0.097-0.051-0.097C33.744,17.057,33.709,17,33.675,17
			c-0.004,0-0.007,0-0.011,0h-0.003C33.605,17,34,17.072,34,17.137v0.021c0,0.003-0.257,0.016-0.259,0.019l-0.626,0.017
			c0.008-0.016-0.05-0.031-0.05-0.046c0-0.013-0.034-0.022-0.039-0.028c-0.002-0.002-0.021-0.004-0.023-0.006
			c-0.016-0.013-0.054-0.064-0.083-0.066C32.905,17.045,32.883,17,32.87,17c-0.001,0-0.001,0-0.003,0
			c-0.014,0-0.024,0.046-0.031,0.047c-0.119,0.01-0.23,0.063-0.316,0.139l-1.762,0.051l1.693,0.044
			c-0.037,0.054-0.064,0.125-0.081,0.211c-0.004,0.019-0.005,0.038-0.005,0.054c0,0.065,0.027,0.102,0.027,0.125
			c0,0.004,0,0.008-0.002,0.011c-0.047,0.071-0.096,0.098-0.117,0.098c-0.01-0.002-0.015,0.128-0.019,0.118
			C32.248,17.883,32.246,18,32.234,18c0,0-0.002,0-0.004,0h-0.002c-0.002,0-0.006,0-0.01,0c-0.001,0-0.002,0-0.002,0h-0.002
			c-0.049,0-0.097-0.029-0.161,0.002c0,0,0.015-0.045,0.035-0.014l-0.19-0.029c-0.025-0.054-0.051-0.142-0.051-0.218
			c0-0.028,0.216-0.064,0.224-0.093C31.789,17.479,32,17.426,32,17.426s0,0,0-0.002C32,17.406,31.545,17,31.487,17
			c-0.003,0-0.007,0-0.011,0h-0.002C31.455,17,32,17.162,32,17.191v0.075c0,0.004-0.306,0.046-0.311,0.05l-0.151,0.021
			c0,0.001-0.076,0.011-0.076,0.012l-0.041,0.009c-0.002,0.002-0.021,0.006-0.023,0.008c0.189,0.145,0.1,0.236,0.257,0.324
			c0.037,0.019,0.104,0.128,0.104,0.172c0,0.007-0.004,0.072-0.006,0.075C31.751,17.938,31.747,18,31.744,18c0,0-0.001,0-0.002,0
			c-0.006,0-0.012-0.063-0.02-0.07l-0.002-0.031c-0.005-0.006-0.01-0.026-0.016-0.032c-0.012-0.015-0.021-0.037-0.023-0.037
			c-0.01,0.001-0.015,0.043-0.015,0.06c0,0.023,0.007,0.111,0.014,0.111h-0.086c-0.001,0-0.003-0.065-0.009-0.08
			c-0.084-0.191-0.146-0.181-0.201-0.248c-0.002-0.002-0.003-0.012-0.004-0.014c-0.002-0.002-0.004-0.008-0.004-0.01
			c-0.002-0.002-0.004-0.186-0.006-0.188C31.311,17.367,31.299,17,31.221,17h-0.002c-0.003,0-0.006,0-0.01,0
			c-0.025,0-0.058,0.207-0.1,0.255c-0.004,0.005-0.01-0.147-0.014-0.142C31.086,17.125,31.062,17,31.031,17
			c-0.002,0-0.004,0-0.004,0c-0.002,0-0.004,0-0.006,0c-0.008,0-0.017,0.245-0.025,0.239l-0.003,0.122c0,0-0.001,0.062-0.003,0.061
			c-0.002,0-0.004-0.204-0.006-0.205C30.968,17.208,30.952,17,30.938,17c-0.003,0-0.005,0-0.007,0h-0.004
			c-0.047,0-0.074,0.279-0.062,0.337c0.002,0.003,0.002,0.123,0.004,0.126c0.001,0.007,0.002,0.072,0.002,0.077
			c0,0.024-0.016,0.067-0.032,0.077c-0.153,0.115-0.188,0.217-0.188,0.271c-0.001,0.045,0.023,0.075,0.023,0.075
			c-0.004,0.054-0.068,0.107-0.115,0.127c-0.023,0.023-0.021,0.084-0.059,0.1c-0.002,0-0.005-0.094-0.008-0.094
			C30.482,18.094,30.474,18,30.465,18c-0.003,0-0.006,0-0.01,0c-0.003,0-0.006,0-0.008,0c-0.037,0-0.062,0.105-0.082,0.117
			c-0.002,0-0.004,0.049-0.006,0.05c-0.004,0.002-0.008,0.028-0.011,0.03c-0.001,0.001-0.003,0.014-0.003,0.014
			c-0.006,0.004-0.012,0.014-0.016,0.018c-0.003,0-0.005-0.115-0.008-0.113c-0.002,0-0.004-0.115-0.006-0.115h-0.002h0.133
			C30.441,18,31,18.115,31,18.106c0-0.001,0,0.058,0,0.058c0-0.002-0.356-0.042-0.358-0.045C30.625,18.096,30.259,18,30.229,18
			c-0.001,0-0.004,0-0.004,0c-0.001,0-0.004,0-0.006,0c-0.001,0-0.003,0.068-0.005,0.069c-0.001,0.001-0.003-0.047-0.005-0.046
			C30.199,18.028,30.162,18,30.133,18c0,0-0.001,0-0.002,0h-0.002c-0.019,0-0.033,0.072-0.032,0.046c0-0.005,0.001,0.03,0.002,0.023
			c0.007-0.024,0.021-0.03,0.021-0.052c0-0.011-0.002-0.01-0.01-0.018c-0.019-0.021-0.025-0.043-0.025-0.072
			c0-0.084,0.055-0.191,0.054-0.286c0-0.024-0.003-0.046-0.013-0.066c-0.014-0.036-0.026-0.063-0.026-0.087
			c-0.001-0.034,0.028-0.281,0.124-0.294c0,0,0.082-0.194,0.172-0.194c0.004,0,0.006,0,0.01,0c0.004,0,0.008,0,0.013,0
			C30.521,17,31,17.402,31,17.223c0-0.004,0-0.006,0-0.01c0-0.09-0.271-0.195-0.421-0.23c-0.006-0.014,0.111-0.025,0.111-0.036
			c-0.001-0.052,0.31-0.08,0.31-0.082c0-0.004,0-0.008,0-0.013c0-0.082,0-0.126,0-0.13c0-0.004,0-0.008,0-0.012
			c0-0.08-0.047-0.16,0.104-0.244c0,0,0.141-0.004,0.141-0.25c-0.001-0.019,0.378-0.039,0.376-0.061
			C31.62,16.146,32,16.138,32,16.129c0-0.002,0-0.005,0-0.005c0-0.003,0-0.007,0-0.01c0-0.081-0.382-0.113-0.351-0.124
			C31.653,15.988,31.246,16,31.25,16c0.002,0,0.003,0,0.004,0c0.029,0,0.053,0.027,0.041,0.097c-0.002,0.012-0.006-0.052-0.01-0.038
			C31.28,16.072,31.284,16,31.29,16h0.002c0.005,0,0.011,0.068,0.015,0.066c0.001-0.001,0.002-0.027,0.004-0.028
			C31.321,16.031,31.33,16,31.338,16c0.004,0,0.006,0,0.01,0c0,0,0,0,0.002,0c0.047,0,0.035,0.162,0.004,0.199
			c-0.01,0.012-0.014,0.056-0.014,0.068c-0.001,0.019,0.008,0.05,0.022,0.055c0.001,0.001,0.002,0.01,0.002,0.01
			c0.005,0.002,0.008,0.008,0.011,0.008c0.004,0,0.008,0,0.012-0.002c0.008-0.004,0.015-0.011,0.022-0.018
			c0.003-0.004,0.007-0.006,0.011-0.009c0.005-0.003,0.01-0.007,0.016-0.009c0.002-0.001,0.006-0.15,0.008-0.152
			c0.004,0,0.008-0.15,0.012-0.15c0,0,0.002,0,0.005,0c0,0,0.001,0,0.003,0s0.005,0,0.007,0c0.005,0,0.011,0.152,0.017,0.154
			c0.002,0.001,0.004-0.082,0.007-0.081C31.512,16.079,31.543,16,31.581,16c0,0,0.001,0,0.003,0c0.013,0,0.026,0.158,0.04,0.157
			c0.14-0.011,0.323-0.005,0.308-0.253c0-0.012-0.002,0.016-0.003,0.004c0.007-0.005,0.013,0.043,0.019,0.042
			c0.004-0.001,0.007,0.05,0.01,0.05h0.002c0.021,0,0.035-0.018,0.049,0c0.014,0.017,0.026,0,0.041,0c0.002,0,0.004,0,0.006,0
			c0.001,0,0.002,0,0.003,0c0.005,0,0.011,0.002,0.018-0.003c0.003-0.002,0.005-0.001,0.007-0.003
			c-0.002-0.014-0.033-0.06-0.035-0.11l6.26,0.167c0.115,0.123,0.203,0.234,0.264,0.32L31.119,16.558z"/>
		<path d="M26.66,17.361c0-0.008-0.003-0.014-0.01-0.018c-0.279,0.1-0.448,0.26-0.494,0.32c-0.012,0.016-0.016,0.031-0.014,0.043
			c0.002,0.014,0.012,0.022,0.025,0.022s0.027-0.008,0.045-0.026c0.098-0.111,0.283-0.16,0.354-0.218
			C26.602,17.458,26.658,17.393,26.66,17.361z"/>
	</g>
	<g display="inline">
		<path d="M37.049,13.221L37.82,7h-3.565l-0.624,5.023C34.874,12.248,36.03,12.658,37.049,13.221z"/>
		<path d="M31.665,27.865L31.027,33h3.568l0.713-5.753C34.186,27.631,32.955,27.845,31.665,27.865z"/>
	</g>
	<g display="inline">
		<path d="M40.914,17.428L42.207,7h-3.565l-0.831,6.688C39.246,14.658,40.336,15.95,40.914,17.428z"/>
		<path d="M36.17,26.913L35.414,33h3.566l1.149-9.259C39.211,25.08,37.836,26.186,36.17,26.913z"/>
	</g>
</g>
<g display="none">
	<path display="inline" d="M57.5,9.338c0.159-0.453,0.234-0.947,0.328-1.414c0.17-0.877,0.299-1.76,0.365-2.65
		c0.061-0.855,0.079-1.746-0.132-2.585c-0.139-0.566-0.463-1.204-1.153-1.339c-0.676-0.137-1.295,0.208-1.566,0.764
		c-0.269,0.541-0.166,1.161,0.009,1.71C55.6,4.606,56.03,5.34,56.463,6.047c0.553,0.896,1.158,1.76,1.764,2.624
		c1.299,1.869,2.639,3.75,3.548,5.803c0.777,1.768,1.252,3.834,0.072,5.553c-0.721,1.053-2.044,1.407-3.242,0.778
		c-1.173-0.624-1.808-1.855-2.09-3.005c-0.611-2.475,0.217-5.357,2.137-7.213c0.182-0.169-0.111-0.432-0.288-0.256
		c-2.077,2.003-2.894,5.061-2.204,7.719c0.32,1.231,1.073,2.453,2.314,3.112c1.209,0.638,2.609,0.322,3.475-0.635
		c1.411-1.565,1.146-3.735,0.479-5.518c-0.775-2.064-2.075-3.955-3.345-5.793c-1.121-1.625-2.414-3.244-3.172-5.043
		C55.684,3.633,55.471,3,55.649,2.422c0.157-0.523,0.72-0.877,1.315-0.676c0.557,0.188,0.701,0.947,0.78,1.397
		c0.138,0.812,0.083,1.659,0.011,2.47c-0.074,0.805-0.199,1.599-0.359,2.389c-0.082,0.41-0.15,0.84-0.293,1.236
		C57.021,9.469,57.417,9.565,57.5,9.338"/>
	<path display="inline" d="M56.623,1.824c-0.383,0-0.729,0.264-0.843,0.638c-0.163,0.532,0.04,1.136,0.258,1.659
		c0.403,0.951,0.962,1.855,1.448,2.58c0.055-0.375,0.102-0.746,0.134-1.101c0.067-0.746,0.129-1.61-0.014-2.437
		c-0.062-0.361-0.188-1.121-0.686-1.287C56.823,1.842,56.723,1.824,56.623,1.824 M56.62,1.457c-0.488,0-0.942,0.28-1.154,0.717
		c-0.207,0.414-0.2,0.93,0.019,1.611c0.245,0.781,0.697,1.541,1.098,2.191c0.234,0.379,0.498,0.787,0.82,1.262
		c0.006-0.049,0.016-0.096,0.022-0.141c-0.527-0.771-1.18-1.785-1.64-2.872C55.547,3.658,55.33,3,55.517,2.384
		c0.188-0.616,0.87-0.979,1.491-0.769c0.652,0.218,0.799,1.086,0.87,1.506c0.146,0.856,0.085,1.742,0.015,2.507
		c-0.041,0.448-0.103,0.925-0.18,1.405c0.036,0.053,0.071,0.1,0.105,0.153c0.111-0.664,0.189-1.298,0.238-1.922
		c0.057-0.776,0.088-1.688-0.129-2.545c-0.121-0.493-0.401-1.109-1.045-1.235C56.795,1.466,56.707,1.457,56.62,1.457 M57.55,7.941
		c-0.007,0.03-0.011,0.062-0.018,0.092l-0.046,0.223c-0.064,0.344-0.133,0.695-0.253,1.031c0.011,0.055,0.116,0.055,0.135,0.003
		c0.132-0.362,0.206-0.763,0.278-1.147l0.008-0.048c-0.034-0.054-0.069-0.102-0.102-0.147H57.55V7.941z M58.498,10.408
		c-0.008,0-0.02,0.004-0.038,0.018c-2.009,1.942-2.858,4.92-2.167,7.588c0.352,1.354,1.169,2.453,2.246,3.025
		c0.399,0.21,0.824,0.318,1.266,0.318c0.77,0,1.515-0.336,2.042-0.925c1.441-1.594,1.041-3.804,0.45-5.375
		c-0.774-2.064-2.073-3.947-3.327-5.763c-0.229-0.332-0.465-0.664-0.703-1c-0.098-0.135-0.195-0.271-0.292-0.41h-0.003
		c-0.003,0.021-0.008,0.043-0.012,0.065l-0.018,0.079l0.626,0.898c1.214,1.742,2.469,3.547,3.33,5.492
		c1.045,2.363,1.064,4.223,0.062,5.68c-0.497,0.734-1.276,1.153-2.13,1.153c-0.441,0-0.873-0.114-1.29-0.331
		c-1.398-0.739-1.952-2.253-2.159-3.092c-0.623-2.527,0.253-5.479,2.178-7.339c0.018-0.018,0.015-0.026,0.011-0.036
		C58.561,10.434,58.529,10.408,58.498,10.408 M59.805,21.633c-0.486,0-0.955-0.117-1.396-0.349c-1.143-0.607-2.01-1.773-2.381-3.201
		c-0.716-2.763,0.161-5.845,2.244-7.853c0.164-0.163,0.469-0.084,0.554,0.125c0.047,0.118,0.017,0.241-0.079,0.332
		c-1.854,1.795-2.697,4.637-2.098,7.076c0.194,0.796,0.719,2.229,2.021,2.918c0.375,0.195,0.764,0.297,1.16,0.297
		c0.764,0,1.458-0.375,1.906-1.03c0.943-1.376,0.916-3.147-0.088-5.419c-0.853-1.922-2.098-3.711-3.306-5.443l-0.468-0.677
		c-0.063,0.327-0.136,0.659-0.247,0.973c-0.048,0.14-0.175,0.224-0.326,0.224c-0.121,0-0.236-0.059-0.296-0.145
		c-0.056-0.079-0.065-0.174-0.034-0.267c0.115-0.314,0.183-0.659,0.245-0.991l0.046-0.229c0.023-0.116,0.047-0.234,0.068-0.352
		c-0.396-0.581-0.709-1.057-0.984-1.502c-0.408-0.664-0.869-1.441-1.125-2.254c-0.15-0.476-0.316-1.179-0.004-1.815
		c0.304-0.62,1.018-0.978,1.716-0.839c0.613,0.123,1.061,0.633,1.261,1.441c0.223,0.896,0.192,1.829,0.136,2.633
		c-0.057,0.707-0.153,1.453-0.288,2.217c0.148,0.215,0.299,0.424,0.447,0.634c0.24,0.337,0.477,0.669,0.707,1
		c1.264,1.833,2.571,3.728,3.358,5.825c0.615,1.641,1.031,3.954-0.507,5.657C61.471,21.261,60.65,21.633,59.805,21.633"/>
	<path display="inline" d="M60.258,1.27c-0.787,2.904-1.098,5.934-0.34,8.867c0.688,2.672,2.256,5.048,4.135,7.174
		c0.822,0.926,1.709,1.807,2.623,2.664c0.182,0.17,0.471-0.088,0.285-0.258c-2.245-2.109-4.352-4.401-5.684-7.082
		c-1.291-2.603-1.613-5.445-1.252-8.256c0.132-1.014,0.355-2.021,0.626-3.014C60.714,1.135,60.321,1.038,60.258,1.27"/>
	<path display="inline" d="M60.443,1.275c-0.043,0-0.05,0.021-0.052,0.029c-0.899,3.314-1.013,6.191-0.343,8.798
		c0.605,2.345,1.948,4.671,4.106,7.116c0.729,0.82,1.559,1.664,2.613,2.654c0.019,0.018,0.033,0.018,0.041,0.018
		c0.031,0,0.062-0.021,0.07-0.043c-1.911-1.816-4.277-4.235-5.726-7.151c-1.23-2.476-1.655-5.283-1.267-8.335
		c0.123-0.93,0.328-1.922,0.629-3.029C60.504,1.292,60.477,1.275,60.443,1.275 M66.811,20.166c-0.084,0-0.162-0.031-0.228-0.092
		c-1.063-0.995-1.899-1.847-2.632-2.672c-2.189-2.48-3.551-4.842-4.166-7.229c-0.684-2.655-0.572-5.575,0.342-8.938
		C60.164,1.092,60.289,1,60.443,1c0.114,0,0.227,0.056,0.293,0.139c0.057,0.074,0.074,0.172,0.048,0.263
		c-0.299,1.097-0.505,2.077-0.622,2.995c-0.387,3,0.033,5.75,1.237,8.176c1.432,2.877,3.775,5.275,5.658,7.044
		c0.096,0.087,0.125,0.213,0.08,0.331C67.087,20.079,66.951,20.166,66.811,20.166"/>
	<path display="inline" d="M60.121,9.627c0.869-0.508,1.732-1.018,2.611-1.506c0.195-0.113,0.016-0.398-0.184-0.289
		c-0.879,0.493-1.744,1.004-2.613,1.51C59.74,9.461,59.925,9.744,60.121,9.627"/>
	<path display="inline" d="M62.641,7.945c-0.781,0.432-1.543,0.877-2.277,1.31l-0.355,0.21C59.99,9.518,60.03,9.518,60.05,9.508
		l0.611-0.353c0.666-0.393,1.33-0.781,2.005-1.158C62.675,7.963,62.658,7.945,62.641,7.945 M60.025,9.787
		c-0.139,0-0.261-0.091-0.298-0.23c-0.035-0.131,0.02-0.262,0.142-0.332l0.352-0.205c0.738-0.432,1.5-0.877,2.261-1.305
		c0.184-0.102,0.412,0.004,0.463,0.191c0.035,0.131-0.021,0.262-0.145,0.332c-0.675,0.375-1.338,0.764-2.004,1.152l-0.609,0.354
		C60.139,9.775,60.08,9.787,60.025,9.787"/>
	<path display="inline" d="M64.994,16.166c0.542,0,0.542-0.76,0-0.76S64.452,16.166,64.994,16.166"/>
	<path display="inline" d="M64.994,15.547c-0.199,0-0.27,0.131-0.27,0.24c0,0.113,0.069,0.24,0.27,0.24
		c0.199,0,0.271-0.127,0.271-0.24C65.266,15.678,65.193,15.547,64.994,15.547 M64.994,16.303c-0.357,0-0.544-0.258-0.544-0.516
		c0-0.258,0.187-0.516,0.544-0.516s0.545,0.258,0.545,0.516C65.539,16.045,65.352,16.303,64.994,16.303"/>
	<rect x="42.559" y="26.443" display="inline" width="7.381" height="0.311"/>
	<path display="inline" d="M42.607,26.488h7.286v0.227h-7.286V26.488z M42.516,26.798h7.469v-0.394h-7.469V26.798z"/>
	<path display="inline" d="M37.146,38.943l-0.002-0.31h0.174c1.068-0.005,2.08-0.372,2.779-1.01
		c0.584-0.532,0.902-1.209,0.896-1.907c-0.008-1.253-1.071-2.16-3.345-2.861c-1.781-0.558-3.6-1.373-3.602-3.194
		c-0.001-0.859,0.419-1.677,1.187-2.282c0.764-0.604,1.773-0.939,2.849-0.939h0.173v0.312h-0.173c-0.989,0-1.923,0.306-2.62,0.858
		c-0.692,0.551-1.074,1.281-1.072,2.053c0.002,1.297,1.008,2.166,3.367,2.904c2.397,0.736,3.57,1.769,3.58,3.147
		c0.004,0.78-0.349,1.541-0.997,2.132c-0.763,0.692-1.864,1.094-3.022,1.1h-0.172V38.943z"/>
	<path display="inline" d="M37.191,38.68l0.001,0.225h0.124c1.148-0.008,2.24-0.401,2.992-1.086c0.64-0.584,0.988-1.332,0.982-2.104
		c-0.01-1.362-1.169-2.38-3.548-3.11c-2.38-0.744-3.396-1.627-3.4-2.941c0-0.78,0.386-1.523,1.089-2.081
		c0.708-0.56,1.65-0.869,2.651-0.874h0.126v-0.223h-0.126c-1.063,0-2.066,0.33-2.817,0.925c-0.756,0.604-1.174,1.401-1.174,2.253
		c0.004,1.796,1.809,2.604,3.572,3.156c2.294,0.703,3.367,1.625,3.378,2.899c0.003,0.712-0.32,1.396-0.909,1.939
		c-0.71,0.641-1.734,1.016-2.816,1.021h-0.125V38.68z M37.101,38.988l-0.003-0.395h0.219c1.055-0.004,2.056-0.365,2.75-0.994
		c0.574-0.529,0.887-1.192,0.882-1.883c-0.009-1.236-1.062-2.128-3.317-2.814c-1.793-0.568-3.625-1.394-3.631-3.241
		c0-0.872,0.428-1.697,1.205-2.313c0.771-0.609,1.791-0.947,2.878-0.947h0.221v0.39l-0.221,0.005c-0.978,0-1.899,0.301-2.591,0.848
		c-0.682,0.545-1.058,1.262-1.056,2.021c0,1.276,0.999,2.131,3.337,2.864c2.42,0.742,3.602,1.787,3.609,3.188
		c0.008,0.794-0.352,1.562-1.006,2.16c-0.773,0.699-1.888,1.109-3.061,1.114L37.101,38.988L37.101,38.988z"/>
	<rect x="46.078" y="26.479" display="inline" width="0.344" height="12.443"/>
	<path display="inline" d="M46.125,26.521h0.25v12.356h-0.25V26.521z M46.03,38.961h0.437V26.438H46.03V38.961z"/>
	<rect x="53.308" y="26.439" display="inline" width="0.343" height="12.518"/>
	<path display="inline" d="M53.354,26.482h0.251v12.431h-0.251V26.482z M53.26,39h0.434V26.398H53.26V39z"/>
	<rect x="56.807" y="26.405" display="inline" width="0.344" height="12.518"/>
	<path display="inline" d="M56.852,26.443h0.252v12.436h-0.252V26.443z M56.762,38.961h0.434V26.365h-0.434V38.961z"/>
	<rect x="56.807" y="38.611" display="inline" width="7.378" height="0.312"/>
	<path display="inline" d="M56.852,38.65h7.287v0.229h-7.287V38.65z M56.762,38.961h7.468v-0.395h-7.468V38.961z"/>
	<rect x="67.343" y="26.405" display="inline" width="0.343" height="12.518"/>
	<path display="inline" d="M67.391,26.443h0.248v12.436h-0.248V26.443z M67.298,38.961h0.435V26.365h-0.435V38.961z"/>
	<rect x="67.343" y="38.611" display="inline" width="7.375" height="0.312"/>
	<path display="inline" d="M67.391,38.65h7.283v0.229h-7.283V38.65z M67.298,38.961h7.468v-0.395h-7.468V38.961z"/>
	<polygon display="inline" points="78.335,38.904 78.012,38.805 82.814,26.35 83.139,26.35 87.938,38.805 87.616,38.904 
		82.979,26.868 	"/>
	<path display="inline" d="M78.068,38.773l0.238,0.078l4.67-12.111l0.041,0.113l4.629,11.998l0.234-0.078l-4.775-12.387h-0.262
		L78.068,38.773z M87.59,38.957l-4.611-11.963l-4.615,11.963l-0.409-0.131l4.827-12.525h0.392l0.013,0.029L88,38.826L87.59,38.957z"
		/>
	<rect x="80.508" y="32.469" display="inline" width="4.932" height="0.312"/>
	<path display="inline" d="M80.557,32.514h4.838v0.223h-4.838V32.514z M80.462,32.818h5.026V32.43h-5.026V32.818z"/>
</g>
<g>
	<path fill-rule="evenodd" clip-rule="evenodd" d="M44.515,13.151v4.008c-1.041-0.671-2.21-1.558-3.511-0.975
		c-0.346,0.26-0.541,0.629-0.541,1.061c0.021,0.476,0.432,0.867,0.823,1.148c1.493,0.716,3.486,1.865,3.726,3.728
		c0.434,1.884-0.303,3.681-1.776,4.873c-1.84,1.276-4.743,1.147-6.694,0.238l-0.759-0.542v-3.985
		c0.844,0.997,2.038,1.407,3.334,1.429c0.394-0.088,0.824-0.088,1.106-0.477c0.194-0.261,0.26-0.629,0.174-0.952
		c-0.586-1.172-1.905-1.387-2.838-2.08c-1.234-0.692-2.037-2.016-2.081-3.443c-0.086-1.864,0.847-3.553,2.471-4.484
		C39.878,11.68,42.76,11.939,44.515,13.151z"/>
	<path fill-rule="evenodd" clip-rule="evenodd" d="M54.868,13.151v4.008c-1.039-0.671-2.208-1.558-3.509-0.975
		c-0.345,0.26-0.541,0.629-0.541,1.061c0.019,0.476,0.433,0.867,0.822,1.148c1.494,0.716,3.486,1.865,3.727,3.728
		c0.433,1.884-0.301,3.681-1.777,4.873c-1.839,1.276-4.742,1.147-6.693,0.238l-0.759-0.542v-3.985
		c0.845,0.997,2.04,1.407,3.335,1.429c0.391-0.088,0.823-0.088,1.106-0.477c0.195-0.261,0.258-0.629,0.172-0.952
		c-0.583-1.172-1.903-1.387-2.836-2.08c-1.236-0.692-2.037-2.016-2.081-3.443c-0.084-1.864,0.845-3.553,2.473-4.484
		C50.231,11.68,53.114,11.939,54.868,13.151z"/>
	<rect x="56.54" y="12.222" fill-rule="evenodd" clip-rule="evenodd" width="4.46" height="15.247"/>
	<polygon fill-rule="evenodd" clip-rule="evenodd" points="19.604,24.329 23.98,24.35 23.98,27.688 15.097,27.688 15.097,12.372 
		19.604,12.372 	"/>
	<polygon fill-rule="evenodd" clip-rule="evenodd" points="34.312,15.687 29.482,15.687 29.482,18.311 34.138,18.311 34.138,21.622 
		29.482,21.622 29.482,24.458 34.289,24.458 34.289,27.688 24.934,27.688 24.934,12.372 34.312,12.372 	"/>
	<path fill-rule="evenodd" clip-rule="evenodd" d="M0,27.708l4.506-15.315h5.393l4.463,15.296H9.531l-0.584-2.343L5.46,25.324
		l-0.631,2.364L0,27.708 M8.057,21.772H6.347l0.801-3.462C7.516,19.411,7.778,20.604,8.057,21.772z"/>
</g>
</svg>
