<?xml version="1.0" encoding="utf-8"?>
<!-- Generator: Adobe Illustrator 21.1.0, SVG Export Plug-In . SVG Version: 6.00 Build 0)  -->
<svg version="1.1" id="Livello_1" xmlns="http://www.w3.org/2000/svg" xmlns:xlink="http://www.w3.org/1999/xlink" x="0px" y="0px"
	 width="122px" height="40px" viewBox="0 0 122 40" style="enable-background:new 0 0 122 40;" xml:space="preserve">
<style type="text/css">
	.st0{fill:#1D1D1B;}
</style>
<g>
	<g>
		<path class="st0" d="M11.7,15.3V26h6.7l-6.6-6.6C15.2,19.3,14.7,15.3,11.7,15.3z"/>
		<path class="st0" d="M14.4,16.9l4.4,9.1h0V15.2h-6C13.6,15.5,14.2,16.2,14.4,16.9z"/>
		<rect x="8" y="15.2" class="st0" width="3.4" height="10.7"/>
	</g>
	<g>
		<g>
			<path class="st0" d="M97.9,15.4h-4.4l0,0.2c0,2.6-0.2,6.8-0.4,10l0,0.2h3.9c4.3,0,5.8-2.9,5.8-5.7C102.7,18,101.8,15.4,97.9,15.4
				z M101.3,20.1c0,2.8-1.7,4.6-4.4,4.6h-2.4l0.3-8.1H98C101,16.5,101.3,19,101.3,20.1z"/>
			<g>
				<path class="st0" d="M28.4,17.8c0-1.6-1-2.5-2.9-2.5h-3.7v0.2c0,3.1-0.1,6.2-0.4,10l0,0.2h1.5v-0.2c0-2,0.1-3.8,0.1-5.6l0.2,0.3
					c0.3,0.5,0.7,1,1,1.6c0.8,1.2,1.7,2.5,2.4,3.8l0.1,0.1h1.7L25.2,21C27.2,20.8,28.4,19.7,28.4,17.8z M23,19.9c0-0.2,0-0.3,0-0.5
					c0-0.9,0.1-1.9,0.1-2.8h2c1.6,0,1.8,0.8,1.8,1.5c0,1.5-1.3,2-2.5,2c-0.3,0-0.6,0-1-0.1L23,19.9z"/>
				<path class="st0" d="M32,15.4l0,0.2c0,3.9-0.1,6.5-0.4,10l0,0.2h6.5l0.1-1.2l-0.2,0c-1.3,0.1-1.8,0.1-2.8,0.1H33l0.1-3.6h4.6
					l0-1.2h-4.6l0.1-3.4h3.4c0.5,0,0.8,0,1.5,0l0.2,0l0.1-1.2H32z"/>
			</g>
			<g>
				<path class="st0" d="M45,20c-1-0.8-1.9-1.5-1.9-2.3c0-0.9,0.9-1.4,1.8-1.4c0.7,0,1.3,0.1,1.9,0.4l0.3,0.1L47,15.5l-0.2,0
					c-0.5-0.1-1.2-0.2-2.1-0.2c-2.3,0-3.1,1.4-3.1,2.6c0,1.3,1.2,2.2,2.4,3.2c1,0.8,2,1.6,2,2.4c0,1-0.9,1.4-1.9,1.4
					c-0.8,0-1.6-0.2-2.5-0.6L41.3,24l0.1,1.5l0.1,0c0.9,0.3,1.7,0.5,2.6,0.5c1.6,0,3.3-0.7,3.3-2.6C47.4,22,46.2,21,45,20z"/>
				<path class="st0" d="M54.1,20c-1-0.8-1.9-1.5-1.9-2.3c0-0.9,0.9-1.4,1.8-1.4c0.6,0,1.3,0.1,1.9,0.4l0.3,0.1l-0.1-1.4l-0.2,0
					c-0.5-0.1-1.2-0.2-2.1-0.2c-2.3,0-3.1,1.4-3.1,2.6c0,1.3,1.2,2.2,2.4,3.2c1,0.8,2,1.6,2,2.4c0,1-0.9,1.4-1.9,1.4
					c-0.8,0-1.6-0.2-2.5-0.6L50.4,24l0.1,1.5l0.1,0c0.9,0.3,1.7,0.5,2.6,0.5c1.6,0,3.3-0.7,3.3-2.6C56.5,22,55.3,21,54.1,20z"/>
			</g>
			<g>
				<path class="st0" d="M59,16.6h0.2c0.4,0,0.8,0,1.2,0c0.5,0,1,0,1.7,0c0,0.7-0.1,1.4-0.1,2.1c-0.1,2.3-0.2,4.6-0.3,6.9l0,0.2h1.5
					v-0.2c0-2.7,0.1-5.5,0.3-8l0-1c1.2,0,2.2,0,2.9,0l0.2,0l0-1.2h-7.6L59,16.6z"/>
				<path class="st0" d="M69.9,15.4l0,0.2c0,3.9-0.1,6.5-0.4,10l0,0.2l6.5,0l0.1-1.2l-0.2,0c-1.3,0.1-1.8,0.1-2.8,0.1h-2.1l0.1-3.6
					h4.6l0-1.2h-4.6l0.1-3.4h3.4c0.5,0,0.8,0,1.5,0l0.2,0l0.1-1.2H69.9z"/>
			</g>
			<path class="st0" d="M87.9,15.4l0,0.2c0,1.5-0.1,3-0.2,4.5c-0.1,1.3-0.1,2.5-0.1,3.8c-0.5-0.8-1-1.5-1.5-2.3
				c-1.4-2-2.8-4.1-4.2-6.2l-0.1-0.1h-1.7l0,0.2c-0.1,4-0.2,7.1-0.4,10l0,0.2h1.4l0-0.2c0-2.2,0.1-4.4,0.2-6.6c0-0.5,0-1.1,0.1-1.6
				c0.9,1.4,1.7,2.5,2.4,3.5c1.5,2.2,2.5,3.6,3.3,4.9l0.1,0.1h1.6l0-0.2c0.1-3.2,0.2-6.6,0.4-10l0-0.2H87.9z"/>
			<path class="st0" d="M106.5,15.4l0,0.2c0,3.9-0.1,6.5-0.4,10l0,0.2h6.5l0.1-1.2l-0.2,0c-1.3,0.1-1.8,0.1-2.8,0.1h-2.1l0.1-3.6
				h4.6l0-1.2h-4.6l0.1-3.4h3.4c0.5,0,0.8,0,1.5,0l0.2,0l0.1-1.2H106.5z"/>
		</g>
	</g>
</g>
</svg>
