<?xml version="1.0" encoding="utf-8"?>
<!-- Generator: Adobe Illustrator 21.1.0, SVG Export Plug-In . SVG Version: 6.00 Build 0)  -->
<svg version="1.0" id="Livello_1" xmlns="http://www.w3.org/2000/svg" xmlns:xlink="http://www.w3.org/1999/xlink" x="0px" y="0px"
	 width="122px" height="40px" viewBox="0 0 122 40" style="enable-background:new 0 0 122 40;" xml:space="preserve">
<style type="text/css">
	.st0{fill:#1D1D1B;}
</style>
<g>
	<g>
		<path class="st0" d="M6.9,15v12h7.6L7,19.5C10.9,19.5,10.4,15,6.9,15z"/>
		<path class="st0" d="M9.9,16.8l5,10.2h0V14.9H8.1C9.1,15.2,9.7,15.9,9.9,16.8z"/>
		<rect x="2.8" y="14.9" class="st0" width="3.8" height="12.1"/>
	</g>
	<g>
		<g>
			<path class="st0" d="M104,15h-5l0,0.2c0,2.9-0.2,7.7-0.5,11.2l0,0.3h4.4c4.8,0,6.5-3.3,6.5-6.4C109.5,17.9,108.5,15,104,15z
				 M107.9,20.3c0,3.1-1.9,5.1-5,5.1h-2.8l0.4-9.1h3.7C107.6,16.3,107.9,19.1,107.9,20.3z"/>
			<g>
				<path class="st0" d="M25.7,17.8c0-1.8-1.2-2.8-3.3-2.8h-4.1v0.2c0,3.5-0.1,7-0.4,11.2l0,0.3h1.7v-0.2c0-2.2,0.1-4.3,0.2-6.4
					l0.2,0.4c0.4,0.6,0.8,1.2,1.2,1.8c0.9,1.4,1.9,2.8,2.7,4.3l0.1,0.1h1.9l-3.7-5.4C24.4,21.2,25.7,19.9,25.7,17.8z M19.7,20.1
					c0-0.2,0-0.4,0-0.6c0-1,0.1-2.1,0.1-3.2h2.3c1.8,0,2.1,0.9,2.1,1.7c0,1.7-1.5,2.3-2.8,2.3c-0.3,0-0.7,0-1.1-0.1L19.7,20.1z"/>
				<path class="st0" d="M29.8,15l0,0.2c0,4.4-0.1,7.4-0.4,11.2l0,0.3h7.3l0.1-1.4l-0.3,0c-1.4,0.1-2,0.1-3.1,0.1H31l0.2-4h5.2
					l0.1-1.3h-5.2l0.1-3.8h3.8c0.6,0,0.9,0,1.7,0l0.2,0l0.1-1.4H29.8z"/>
			</g>
			<g>
				<path class="st0" d="M44.4,20.3c-1.1-0.9-2.2-1.7-2.2-2.6c0-1,1.1-1.5,2-1.5c0.7,0,1.4,0.1,2.2,0.4l0.4,0.1l-0.2-1.6l-0.2,0
					c-0.6-0.1-1.3-0.2-2.3-0.2c-2.6,0-3.5,1.6-3.5,2.9c0,1.4,1.4,2.5,2.7,3.6c1.1,0.9,2.2,1.8,2.2,2.7c0,1.1-1.1,1.6-2.1,1.6
					c-0.9,0-1.8-0.2-2.8-0.7l-0.4-0.2l0.1,1.6l0.2,0c1,0.3,1.9,0.5,2.9,0.5c1.8,0,3.7-0.8,3.7-2.9C47.2,22.5,45.8,21.4,44.4,20.3z"
					/>
				<path class="st0" d="M54.7,20.3c-1.1-0.9-2.2-1.7-2.2-2.6c0-1,1.1-1.5,2-1.5c0.7,0,1.4,0.1,2.2,0.4l0.4,0.1L57,15.1l-0.2,0
					c-0.6-0.1-1.3-0.2-2.3-0.2c-2.6,0-3.5,1.6-3.5,2.9c0,1.4,1.4,2.5,2.7,3.6c1.1,0.9,2.2,1.8,2.2,2.7c0,1.1-1.1,1.6-2.1,1.6
					c-0.9,0-1.8-0.2-2.8-0.7l-0.4-0.2l0.1,1.6l0.2,0c1,0.3,1.9,0.5,2.9,0.5c1.8,0,3.7-0.8,3.7-2.9C57.5,22.5,56.1,21.4,54.7,20.3z"
					/>
			</g>
			<g>
				<path class="st0" d="M60.3,16.4h0.3c0.5,0,0.9,0,1.3,0c0.5,0,1.1,0,1.9,0c0,0.8-0.1,1.6-0.1,2.4c-0.1,2.5-0.2,5.2-0.4,7.8l0,0.3
					H65v-0.2c0-3,0.2-6.2,0.3-9.1l0.1-1.1c1.4,0,2.5,0,3.3,0l0.3,0L69,15h-8.6L60.3,16.4z"/>
				<path class="st0" d="M72.5,15l0,0.2c0,4.4-0.1,7.4-0.4,11.2l0,0.3l7.3,0l0.1-1.4l-0.3,0c-1.4,0.1-2,0.1-3.1,0.1h-2.3l0.2-4h5.2
					l0.1-1.3h-5.2l0.1-3.8h3.8c0.6,0,0.9,0,1.7,0l0.2,0l0.1-1.4H72.5z"/>
			</g>
			<path class="st0" d="M92.8,15l0,0.2c0,1.7-0.1,3.4-0.2,5.1c-0.1,1.4-0.1,2.9-0.2,4.3c-0.6-0.8-1.2-1.7-1.7-2.5
				c-1.6-2.3-3.2-4.6-4.7-7L86,15h-1.9l0,0.2c-0.1,4.5-0.2,8-0.5,11.2l0,0.3h1.6l0-0.2c0.1-2.5,0.1-4.9,0.3-7.5c0-0.6,0-1.2,0.1-1.9
				c1.1,1.5,2,2.9,2.7,4c1.7,2.5,2.8,4.1,3.7,5.5l0.1,0.1h1.8l0-0.2c0.1-3.6,0.2-7.5,0.5-11.2l0-0.3H92.8z"/>
			<path class="st0" d="M113.7,15l0,0.2c0,4.4-0.1,7.4-0.4,11.2l0,0.3h7.3l0.1-1.4l-0.3,0c-1.4,0.1-2,0.1-3.1,0.1h-2.3l0.2-4h5.2
				l0.1-1.3h-5.2l0.1-3.8h3.8c0.6,0,0.9,0,1.7,0l0.2,0l0.1-1.4H113.7z"/>
		</g>
	</g>
</g>
</svg>
