<?xml version="1.0" encoding="utf-8"?>
<!-- Generator: Adobe Illustrator 16.0.0, SVG Export Plug-In . SVG Version: 6.00 Build 0)  -->
<!DOCTYPE svg PUBLIC "-//W3C//DTD SVG 1.1//EN" "http://www.w3.org/Graphics/SVG/1.1/DTD/svg11.dtd">
<svg version="1.1" id="Livello_1" xmlns="http://www.w3.org/2000/svg" xmlns:xlink="http://www.w3.org/1999/xlink" x="0px" y="0px"
	 width="122px" height="40px" viewBox="0 0 122 40" enable-background="new 0 0 122 40" xml:space="preserve">
<g>
	<g>
		<path fill="#1D1D1B" d="M60.17,9.25c-0.725,0-1.313,0.59-1.313,1.312v7.082h-6.233v-7.082c0-0.723-0.589-1.312-1.314-1.312
			c-0.723,0-1.312,0.59-1.312,1.312v16.785c0,0.724,0.589,1.313,1.312,1.313c0.725,0,1.314-0.59,1.314-1.313v-7.079h6.233v7.079
			c0,0.724,0.588,1.313,1.313,1.313c0.723,0,1.312-0.59,1.312-1.313V10.562C61.481,9.84,60.893,9.25,60.17,9.25z M60.432,27.348
			c0,0.146-0.117,0.263-0.262,0.263c-0.146,0-0.263-0.117-0.263-0.263v-8.129h-8.335v8.129c0,0.146-0.118,0.263-0.263,0.263
			c-0.145,0-0.261-0.117-0.261-0.263V10.562c0-0.146,0.116-0.263,0.261-0.263c0.146,0,0.263,0.117,0.263,0.263v8.13h8.335v-8.13
			c0-0.146,0.117-0.263,0.263-0.263c0.145,0,0.262,0.117,0.262,0.263V27.348z"/>
		<path fill="#1D1D1B" d="M77.281,21.805V10.662c0-0.727-0.588-1.314-1.312-1.314c-0.723,0-1.313,0.588-1.313,1.314l0.001,11.186
			c0,0.021,0.027,2.184-1.089,3.335c-0.486,0.501-1.168,0.757-2.024,0.757c-0.855,0-1.537-0.256-2.023-0.757
			c-1.122-1.157-1.089-3.337-1.089-3.369V10.662c0-0.727-0.589-1.314-1.312-1.314c-0.722,0-1.312,0.588-1.312,1.314v11.121
			c-0.008,0.333-0.033,3.302,1.827,5.222c0.999,1.034,2.314,1.559,3.91,1.559c1.597,0,2.912-0.524,3.913-1.559
			C77.318,25.081,77.292,22.121,77.281,21.805z M71.543,27.513c-1.301,0-2.363-0.415-3.156-1.236
			c-1.604-1.657-1.534-4.357-1.531-4.472V10.662c0-0.146,0.117-0.265,0.263-0.265s0.263,0.119,0.263,0.265v11.151
			c0,0.034-0.064,2.606,1.385,4.101c0.691,0.713,1.626,1.073,2.777,1.073c1.153,0,2.087-0.36,2.778-1.073
			c1.449-1.494,1.387-4.066,1.386-4.092v-11.16c0-0.146,0.116-0.265,0.262-0.265c0.145,0,0.264,0.119,0.264,0.265v11.151
			c0.002,0.105,0.071,2.806-1.531,4.463C73.907,27.098,72.844,27.513,71.543,27.513z"/>
		<path fill="#1D1D1B" d="M86.123,23.214V10.662c0-0.727-0.59-1.314-1.312-1.314s-1.312,0.588-1.312,1.314v12.626
			c0.004,0.027,0.08,2.754-1.203,4.096c-0.472,0.492-1.114,0.74-1.909,0.74c-0.725,0-1.312,0.588-1.312,1.313
			c0,0.723,0.588,1.312,1.312,1.312c1.54,0,2.82-0.524,3.806-1.555C86.198,27.098,86.139,23.652,86.123,23.214z M80.386,29.698
			c-0.146,0-0.264-0.117-0.264-0.261c0-0.146,0.118-0.264,0.264-0.264c1.094,0,1.99-0.356,2.667-1.065
			c1.614-1.688,1.498-4.831,1.496-4.86l-0.001-12.586c0-0.146,0.117-0.265,0.263-0.265c0.145,0,0.262,0.119,0.262,0.265v12.573
			c0.006,0.126,0.132,3.384-1.641,5.235C82.654,29.286,81.629,29.698,80.386,29.698z"/>
		<path fill="#1D1D1B" d="M46.404,21.192c-0.835-2.73-3.077-3.69-4.882-4.467c-0.254-0.108-0.505-0.215-0.761-0.332
			c-1.156-0.516-2.131-1.665-1.706-3.068c0.205-0.679,0.736-1.172,1.453-1.35c0.2-0.05,0.408-0.075,0.613-0.075
			c0.665,0,1.305,0.262,1.759,0.718c0.248,0.251,0.578,0.39,0.932,0.39c0.348,0,0.677-0.134,0.923-0.381
			c0.249-0.247,0.387-0.573,0.389-0.926c0.002-0.352-0.133-0.68-0.381-0.929c-0.942-0.95-2.262-1.498-3.623-1.498
			c-0.42,0-0.84,0.052-1.247,0.153c-1.637,0.408-2.851,1.553-3.33,3.138c-0.759,2.499,0.533,5.06,3.137,6.22
			c0.274,0.126,0.55,0.243,0.813,0.358c1.567,0.67,2.921,1.251,3.4,2.819c0.244,0.789,0.141,1.979-0.236,2.708
			c-0.423,0.815-1.39,1.343-2.467,1.343c-0.416,0-0.812-0.08-1.18-0.238c-0.75-0.321-1.207-1.007-1.735-1.801
			c-0.244-0.366-0.653-0.587-1.093-0.587c-0.259,0-0.512,0.078-0.728,0.223c-0.602,0.401-0.766,1.217-0.365,1.818
			c0.633,0.949,1.419,2.129,2.883,2.76c0.692,0.297,1.433,0.447,2.204,0.447c2.057-0.002,3.946-1.084,4.813-2.761
			C46.676,24.548,46.846,22.622,46.404,21.192z M41.178,27.586c-0.604,0-1.215-0.115-1.788-0.364
			c-1.18-0.506-1.812-1.455-2.424-2.375c-0.081-0.121-0.049-0.282,0.072-0.362c0.121-0.082,0.284-0.05,0.365,0.072
			c0.57,0.854,1.159,1.739,2.195,2.184c1.85,0.796,4.138,0.069,4.993-1.588c0.504-0.974,0.633-2.445,0.308-3.498
			c-0.622-2.032-2.334-2.769-3.989-3.476c-0.268-0.115-0.533-0.229-0.792-0.348c-2.113-0.943-3.171-2.983-2.569-4.96
			c0.369-1.227,1.308-2.107,2.58-2.426c1.393-0.345,2.875,0.062,3.869,1.064c0.103,0.104,0.103,0.271,0,0.371
			c-0.104,0.104-0.271,0.104-0.372,0c-0.864-0.872-2.155-1.228-3.372-0.926c-1.085,0.271-1.888,1.023-2.203,2.068
			c-0.612,2.015,0.705,3.626,2.283,4.328c0.257,0.118,0.52,0.23,0.783,0.343c1.765,0.758,3.59,1.54,4.285,3.805
			c0.361,1.171,0.217,2.81-0.344,3.896C44.347,26.767,42.785,27.586,41.178,27.586z"/>
	</g>
</g>
</svg>
