<?xml version="1.0" encoding="utf-8"?>
<!-- Generator: Adobe Illustrator 16.0.0, SVG Export Plug-In . SVG Version: 6.00 Build 0)  -->
<!DOCTYPE svg PUBLIC "-//W3C//DTD SVG 1.1//EN" "http://www.w3.org/Graphics/SVG/1.1/DTD/svg11.dtd">
<svg version="1.1" id="Livello_2" xmlns="http://www.w3.org/2000/svg" xmlns:xlink="http://www.w3.org/1999/xlink" x="0px" y="0px"
	 width="122px" height="24px" viewBox="0 0 122 24" enable-background="new 0 0 122 24" xml:space="preserve">
<path fill="#FFFFFF" d="M92.579,5.49c1.768,0,3.671,1.691,3.709,1.73c0.121,0.127,0.6,0.646,0.645,0.689
	c0.046,0.043,0.387,0.572,1.169,0.264c0.729-0.289,0.516-1.038,0.501-1.141c-0.023-0.103-0.357-1.525-1.077-2.673
	c-0.577-0.909-0.714-1.215-1.351-1.215c-0.479,0-0.714,0.476-0.994,0.423C93.724,3.301,92.427,3,90.773,3
	c-2.641,0-8.276,2.611-8.276,8.97c0,6.757,5.766,9.03,8.838,9.03c3.929,0,6.212-0.967,9.065-2.663
	c0.31-0.184,0.454-0.513,0.363-0.862c-0.129-0.47-0.614-0.705-0.683-0.743c-0.076-0.042-0.106-0.09-0.106-0.179v-3.311
	c0-0.083,0.008-0.142,0.099-0.172c0.061-0.018,0.956-0.138,0.926-0.981c-0.016-0.474-0.387-0.833-0.865-0.833h-5.757
	c-0.016,0-0.956,0.039-0.956,0.939c0,0.545,0.417,0.907,0.895,1.05c0.114,0.034,0.076,0.126,0.076,0.207v4.046
	c0,0.104,0,0.933-1.812,0.933c-1.965,0-4.423-2.284-4.423-6.461C88.156,7.875,90.523,5.49,92.579,5.49 M51.745,14.965h-3.922
	c-0.136,0-0.212-0.161-0.152-0.28c0.228-0.501,1.904-4.101,2.033-4.397c0.045-0.098,0.22-0.1,0.266,0
	c0.129,0.296,1.889,4.362,1.927,4.457C51.935,14.843,51.852,14.965,51.745,14.965 M60.81,18.993l-0.03-0.01
	c-0.129-0.04-0.6-0.218-0.607-0.221c-0.433-0.164-0.698-0.402-0.88-0.83c-2.063-4.77-4.126-9.539-6.19-14.309
	c-0.129-0.31-0.342-0.341-0.645-0.341h-5.492c-1.1,0-1.191,1.64-0.061,1.766c0.683,0.078,1.107,0.758,1.153,0.832l0.008,0.011
	c0.023,0.051,0.258,0.598,0.341,0.793c0.068,0.158,0.076,0.287,0,0.445c-0.524,1.124-4.628,9.971-5.083,10.948
	c-0.152,0.329-0.349,0.507-0.706,0.601c-0.348,0.095-0.705,0.189-1.062,0.283c-0.873,0.261-0.925,1.596,0.182,1.743h4.354
	c1.32-0.201,0.979-1.489,0.327-1.713c-0.152-0.055-0.304-0.108-0.447-0.163c-0.145-0.051-0.159-0.136-0.106-0.265
	c0.137-0.284,0.266-0.567,0.402-0.853c0.068-0.152,0.167-0.195,0.326-0.195h5.993c0.364,0,0.562,0.119,0.705,0.457
	c0.365,0.836,0.721,1.671,1.084,2.507c0.069,0.165,0.167,0.225,0.35,0.225h5.833C61.804,20.411,61.356,19.173,60.81,18.993
	 M70.353,5.783c-0.145,0-0.311,0.057-0.311,0.231v4.42c0,0.183,0.136,0.293,0.311,0.293h5.446c0.304,0,0.524-0.098,0.759-0.286
	c0.273-0.227,0.547-0.451,0.819-0.677c0.819-0.578,2.102,0.228,1.503,1.368c-0.691,0.971-1.389,1.944-2.087,2.916
	c-0.85,0.978-1.835,0.206-1.957-0.483c-0.046-0.241-0.175-0.308-0.402-0.308h-4.081c-0.136,0-0.311,0.054-0.311,0.227v4.441
	c0,0.18,0.151,0.271,0.311,0.271h3.945c0.629,0,1.236-0.077,1.843-0.225c1.032-0.25,2.208-1.036,2.791-1.506
	c0.767-0.612,1.828,0.469,1.275,1.176c-0.698,0.968-1.404,1.937-2.102,2.905c-0.068,0.09-0.129,0.158-0.258,0.158H64.103
	c-1.184-0.115-1.26-1.536-0.022-1.831c0.401-0.097,0.439-0.35,0.439-0.702V5.787c0-0.35-0.083-0.561-0.448-0.671
	c-1.229-0.368-1.138-1.754,0.031-1.833h13.699c0.167,0,0.243,0.078,0.334,0.195c0.683,0.943,1.373,1.889,2.063,2.832
	c0.516,0.704-0.425,1.904-1.358,1.141c-1.775-1.459-3.595-1.648-4.218-1.668c-0.075-0.002-0.159,0-0.234,0H70.353z M21,20.708
	h17.561V3.353H21V20.708z M31.324,4.441c0,3.961-3.732,6.994-7.699,6.994h-1.669c0.272-4.064,3.679-7.145,7.82-7.145
	C30.308,4.291,30.832,4.343,31.324,4.441 M31.324,19.617c-0.493,0.1-1.016,0.152-1.547,0.152c-4.142,0-7.548-3.222-7.82-7.281h1.669
	C27.592,12.488,31.324,15.657,31.324,19.617 M32.371,4.732c3.057,1.065,5.242,3.827,5.242,7.226c0,3.403-2.185,6.305-5.242,7.37
	C32.371,18.615,32.371,5.445,32.371,4.732"/>
</svg>
