<?xml version="1.0" encoding="utf-8"?>
<!-- Generator: Adobe Illustrator 16.0.0, SVG Export Plug-In . SVG Version: 6.00 Build 0)  -->
<!DOCTYPE svg PUBLIC "-//W3C//DTD SVG 1.1//EN" "http://www.w3.org/Graphics/SVG/1.1/DTD/svg11.dtd">
<svg version="1.1" id="Livello_9" xmlns="http://www.w3.org/2000/svg" xmlns:xlink="http://www.w3.org/1999/xlink" x="0px" y="0px"
	 width="122px" height="24px" viewBox="0 0 122 24" enable-background="new 0 0 122 24" xml:space="preserve">
<g>
	<g>
		<g>
			<g>
				<rect x="41" y="5.002" fill="#FFFFFF" width="3.037" height="13.71"/>
				<path fill="#FFFFFF" d="M54.055,18.712h-2.945v-1.364h-0.037C50.5,18.367,49.322,19,48.25,19c-2.66,0-3.428-1.652-3.428-4.263
					V8.745h3.037v5.78c0,1.323,0.535,1.786,1.5,1.786c0.66,0,1.66-0.463,1.66-2.229V8.745h3.035V18.712z"/>
				<path fill="#FFFFFF" d="M58.555,16.983c1.447,0,1.928-0.884,1.857-2.939c-0.43,0.29-1.215,0.348-1.875,0.539
					c-0.68,0.173-1.25,0.48-1.25,1.268C57.287,16.657,57.877,16.983,58.555,16.983 M54.627,11.818
					c0.053-1.306,0.625-2.15,1.445-2.67c0.822-0.5,1.893-0.691,2.947-0.691c2.195,0,4.32,0.519,4.32,3.342v4.358
					c0,0.845,0,1.766,0.357,2.553h-3.053c-0.107-0.306-0.143-0.612-0.18-0.939c-0.785,0.884-1.945,1.228-3.053,1.228
					c-1.768,0-3.16-0.96-3.16-3.014c0-3.245,3.285-2.994,5.393-3.457c0.518-0.115,0.803-0.307,0.803-0.921
					c0-0.749-0.84-1.036-1.465-1.036c-0.838,0-1.375,0.402-1.518,1.248H54.627z"/>
				<rect x="64.107" y="5.002" fill="#FFFFFF" width="3.037" height="13.71"/>
				<path fill="#FFFFFF" d="M70.537,13.623c0,1.362,0.465,2.88,1.857,2.88c1.482,0,1.803-1.518,1.803-2.783
					c0-1.441-0.482-2.765-1.803-2.765C71.002,10.955,70.537,12.354,70.537,13.623 M77.127,18.712h-2.895V17.56h-0.035
					c-0.59,0.941-1.482,1.44-2.553,1.44c-2.912,0-4.143-2.688-4.143-5.492c0-2.592,1.285-5.051,3.91-5.051
					c1.143,0,2.018,0.461,2.643,1.363h0.035V5h3.037V18.712z"/>
				<path fill="#FFFFFF" d="M77.965,8.745H81v9.967h-3.035V8.745z M81,7.498h-3.035V5.002H81V7.498z"/>
			</g>
		</g>
	</g>
</g>
</svg>
