<?xml version="1.0" encoding="utf-8"?>
<!-- Generator: Adobe Illustrator 16.0.0, SVG Export Plug-In . SVG Version: 6.00 Build 0)  -->
<!DOCTYPE svg PUBLIC "-//W3C//DTD SVG 1.1//EN" "http://www.w3.org/Graphics/SVG/1.1/DTD/svg11.dtd">
<svg version="1.1" id="Livello_10" xmlns="http://www.w3.org/2000/svg" xmlns:xlink="http://www.w3.org/1999/xlink" x="0px" y="0px"
	 width="122px" height="24px" viewBox="0 0 122 24" enable-background="new 0 0 122 24" xml:space="preserve">
<g>
	<g>
		<path fill="#FFFFFF" d="M67.543,14.786c0-1.177-0.936-2.159-2.094-2.159c-1.184,0-2.121,0.982-2.121,2.159
			c0,1.18,0.938,2.134,2.121,2.134C66.607,16.92,67.543,15.966,67.543,14.786 M76.996,14.743v-0.08l-0.027,0.042L76.996,14.743z
			 M88.709,14.786c0-1.177-0.967-2.159-2.121-2.159c-1.156,0-2.123,0.982-2.123,2.159c0,1.18,0.967,2.134,2.123,2.134
			C87.742,16.92,88.709,15.966,88.709,14.786 M98.465,16.329c0,0.309-0.057,0.646-0.168,0.953c-0.414,1.236-1.625,1.966-3.361,1.966
			c-1.352,0-2.809-0.534-3.689-1.263l0.963-1.795c0,0,0.496,0.392,1.127,0.674c0.473,0.195,0.967,0.336,1.488,0.362
			c0.857,0.056,1.297-0.251,1.408-0.42c0.082-0.111,0.139-0.28,0.082-0.447c-0.111-0.338-0.689-0.505-1.131-0.591
			c-0.441-0.083-0.605-0.113-1.295-0.28c-0.662-0.196-2.205-0.702-2.205-2.33c0-2.074,1.766-2.804,3.443-2.804
			c1.051,0,2.068,0.309,3.004,0.841l-0.936,1.768c0,0-0.137-0.053-0.273-0.166c-0.166-0.086-0.223-0.113-0.416-0.197
			c-0.191-0.086-0.77-0.309-1.186-0.309c0,0-0.193-0.029-0.496,0c-0.303,0.03-0.605,0.17-0.742,0.364
			C94.025,12.74,94,12.88,94,12.936c0,0.394,0.246,0.449,0.303,0.507c0.139,0.082,1.102,0.278,1.406,0.336
			c0.439,0.084,0.963,0.223,0.963,0.223c0.881,0.253,1.436,0.785,1.684,1.571C98.438,15.797,98.465,16.049,98.465,16.329
			 M90.941,14.786c0,2.44-1.959,4.435-4.354,4.435c-2.4,0-4.355-1.994-4.355-4.435c0-2.465,1.955-4.46,4.355-4.46
			C88.982,10.326,90.941,12.321,90.941,14.786 M82.506,10.496l-2.838,4.209l3.115,4.43h-2.672l-3.115-4.392v4.394h-2.453v-8.641
			h2.453v4.167l2.838-4.167H82.506z M73.193,19.137H70.74v-8.641h2.453V19.137z M69.803,14.786c0,2.44-1.957,4.435-4.354,4.435
			c-2.424,0-4.381-1.994-4.381-4.435c0-2.465,1.957-4.46,4.381-4.46C67.846,10.326,69.803,12.321,69.803,14.786 M101,2H21v20h80V2z"
			/>
	</g>
</g>
</svg>
