<?xml version="1.0" encoding="utf-8"?>
<!-- Generator: Adobe Illustrator 16.0.0, SVG Export Plug-In . SVG Version: 6.00 Build 0)  -->
<!DOCTYPE svg PUBLIC "-//W3C//DTD SVG 1.1//EN" "http://www.w3.org/Graphics/SVG/1.1/DTD/svg11.dtd">
<svg version="1.1" id="Livello_7" xmlns="http://www.w3.org/2000/svg" xmlns:xlink="http://www.w3.org/1999/xlink" x="0px" y="0px"
	 width="122px" height="24px" viewBox="0 0 122 24" enable-background="new 0 0 122 24" xml:space="preserve">
<g>
	<g>
		<g>
			<g>
				<path fill="#FFFFFF" d="M80.201,4h4.91l-4.91,15.998h-4.613L80.201,4z M83.836,11.711L86.195,4L91,19.998h-4.805L83.836,11.711z
					"/>
				<path fill="#FFFFFF" d="M31,4.002h4.516v10.055H31V4.002z M31,15.468h9.725V19.9H31V15.468z M42.209,4.002H57.23v4.432H42.209
					V4.002z M42.209,9.625H57.23v4.432H42.209V9.625z M42.209,15.468H57.23V19.9H42.209V15.468z M58.709,4.002h4.516V20h-4.516
					V4.002z M64.449,4.002h4.516V20h-4.516V4.002z M70.188,4.002h4.516V20h-4.516V4.002z"/>
			</g>
		</g>
	</g>
</g>
</svg>
