<?xml version="1.0" encoding="utf-8"?>
<!-- Generator: Adobe Illustrator 16.0.0, SVG Export Plug-In . SVG Version: 6.00 Build 0)  -->
<!DOCTYPE svg PUBLIC "-//W3C//DTD SVG 1.1//EN" "http://www.w3.org/Graphics/SVG/1.1/DTD/svg11.dtd">
<svg version="1.1" id="Livello_4" xmlns="http://www.w3.org/2000/svg" xmlns:xlink="http://www.w3.org/1999/xlink" x="0px" y="0px"
	 width="122px" height="24px" viewBox="0 0 122 24" enable-background="new 0 0 122 24" xml:space="preserve">
<g>
	<g>
		<g>
			<g>
				<path fill="#FFFFFF" d="M43.011,19.793c-3.266,0-6.519,0-9.781,0c0-1.041,0-2.076,0-3.119
					C36.672,17.142,39.899,18.258,43.011,19.793z"/>
				<path fill="#FFFFFF" d="M33.199,16.629c-0.896-0.092-1.787-0.184-2.694-0.277c0.89-1.113,1.783-2.232,2.694-3.373
					C33.199,14.214,33.199,15.424,33.199,16.629z"/>
				<path fill="#FFFFFF" d="M40.938,5.303c-0.542,0-1.084,0-1.657,0c1.193-1.468,2.351-2.93,3.616-4.303
					c0.017,0.008,0.033,0.016,0.05,0.023c-0.195,0.521-0.376,1.049-0.588,1.564c-0.378,0.918-0.879,1.775-1.379,2.631
					c-0.017,0.029-0.03,0.059-0.045,0.087L40.938,5.303z"/>
				<g>
					<path fill="#FFFFFF" d="M42.359,2.588c0.211-0.516,0.393-1.043,0.588-1.564C42.93,1.016,42.914,1.008,42.897,1
						c-1.265,1.373-2.423,2.835-3.616,4.303c0.572,0,1.114,0,1.655,0c0.014-0.028,0.028-0.057,0.043-0.084
						C41.48,4.363,41.981,3.506,42.359,2.588z"/>
					<path fill="#FFFFFF" d="M33.23,19.793c3.262,0,6.515,0,9.781,0c-3.111-1.535-6.338-2.651-9.781-3.119
						C33.23,17.717,33.23,18.752,33.23,19.793z"/>
					<path fill="#FFFFFF" d="M24.335,8.174c2.336,0,4.662,0,6.984,0c0-0.963,0-1.908,0-2.855c-3.445,0-6.879,0-10.319,0
						c0,4.828,0,9.648,0,14.471c1.112,0,2.211,0,3.324,0c0-0.078,0-0.147,0-0.217c0-1.818,0-3.636,0-5.454
						c0-0.18,0-0.181,0.186-0.181c1.921,0,3.842,0,5.764,0c0.061,0,0.121,0,0.19,0c0-0.862,0-1.71,0-2.573c-2.046,0-4.083,0-6.129,0
						C24.335,10.289,24.335,9.239,24.335,8.174z"/>
					<rect x="40.934" y="5.303" fill="#FFFFFF" width="0.005" height="0.002"/>
					<path fill="#FFFFFF" d="M33.228,5.322c0,2.529,0,5.048,0,7.609c2.02-2.554,4.015-5.076,6.019-7.609
						C37.229,5.322,35.23,5.322,33.228,5.322z"/>
					<path fill="#FFFFFF" d="M33.199,16.629c0-1.205,0-2.415,0-3.65c-0.911,1.141-1.805,2.26-2.694,3.373
						C31.412,16.445,32.303,16.537,33.199,16.629z"/>
					<path fill="#FFFFFF" d="M45.986,19.794c0.666,0,1.295,0,1.924,0c0-4.836,0-9.653,0-14.483c-0.064,0-0.12,0-0.176,0
						c-2.214,0-4.429,0-6.644,0c-0.051,0-0.103-0.003-0.154-0.004c-0.5,0.865-0.997,1.733-1.502,2.596
						c-1.1,1.875-2.298,3.689-3.499,5.501c-0.202,0.304-0.407,0.606-0.616,0.918c0.173,0.059,0.338,0.102,0.494,0.166
						c1.453,0.6,2.903,1.205,4.355,1.805c2.005,0.827,3.852,1.917,5.536,3.277c0.085,0.068,0.168,0.14,0.253,0.209
						c-0.005,0.01-0.009,0.021-0.014,0.03c-0.923,0-1.846,0-2.786,0c1.016,0.503,2.017,0.986,3.006,1.493
						c0.988,0.506,1.951,1.057,2.862,1.698c0.007-0.035,0.007-0.061-0.004-0.078C48.201,21.716,47.098,20.777,45.986,19.794z"/>
					<path fill="#FFFFFF" d="M78.073,19.48c0.011-0.119-0.027-0.193-0.136-0.262c-0.352-0.224-0.541-0.539-0.518-0.968
						c0.015-0.276,0.031-0.555,0.021-0.831c-0.026-0.676-0.047-1.353-0.107-2.025c-0.102-1.129-0.631-1.979-1.711-2.439
						c-0.039-0.018-0.077-0.037-0.114-0.055c0.256-0.168,0.508-0.316,0.742-0.49c0.606-0.45,1.071-1.006,1.25-1.757
						c0.146-0.614,0.156-1.237,0.095-1.862c-0.143-1.457-0.866-2.492-2.259-3.036c-0.817-0.319-1.675-0.429-2.544-0.435
						c-2.356-0.014-4.713-0.008-7.069-0.009c-0.031,0-0.062,0.009-0.092,0.013c0,4.827,0,9.645,0,14.464c1.062,0,2.113,0,3.183,0
						c0-1.85,0-3.688,0-5.542c0.071,0,0.127,0,0.183,0c0.979,0,1.959-0.001,2.938,0.002c0.204,0,0.407,0.008,0.609,0.024
						c0.889,0.068,1.683,0.796,1.78,1.68c0.065,0.601,0.072,1.208,0.09,1.812c0.019,0.646,0.072,1.283,0.274,1.902
						c0.033,0.104,0.08,0.135,0.188,0.134c0.999-0.004,1.997-0.002,2.996-0.002c0.061,0,0.121,0,0.199,0
						C78.071,19.677,78.064,19.578,78.073,19.48z M74.262,10.605c-0.202,0.653-0.691,0.99-1.334,1.123
						c-0.317,0.064-0.646,0.098-0.971,0.102c-1.003,0.014-2.006,0.006-3.009,0.006c-0.037,0-0.074-0.005-0.124-0.008
						c0-1.319,0-2.624,0-3.932c0.023-0.003,0.042-0.008,0.06-0.008c1.174,0.004,2.348-0.006,3.521,0.02
						c0.314,0.008,0.636,0.093,0.938,0.192c0.535,0.177,0.857,0.568,0.979,1.112C74.425,9.681,74.403,10.148,74.262,10.605z"/>
					<path fill="#FFFFFF" d="M100.897,5.311c-1.453,0-2.906,0.002-4.358-0.003c-0.116-0.001-0.142,0.054-0.17,0.141
						c-1.021,3.142-2.044,6.282-3.066,9.423c-0.014,0.041-0.029,0.081-0.053,0.146c-0.027-0.065-0.045-0.103-0.058-0.142
						c-1.062-3.138-2.123-6.276-3.182-9.415c-0.036-0.107-0.077-0.154-0.202-0.153c-1.458,0.005-2.915,0.003-4.373,0.003
						c-0.045,0-0.09,0-0.137,0c0,4.839,0,9.657,0,14.478c1.061,0,2.112,0,3.179,0c0-3.326,0-6.643,0-9.958
						c0.042,0.037,0.06,0.079,0.074,0.122c1.104,3.237,2.207,6.475,3.308,9.714c0.034,0.1,0.078,0.137,0.188,0.136
						c0.767-0.006,1.533-0.006,2.3,0c0.115,0.001,0.163-0.034,0.2-0.141c1.126-3.245,2.256-6.489,3.386-9.733
						c0.013-0.035,0.031-0.07,0.047-0.104C97.99,9.825,98,9.828,98.01,9.83c0,3.317,0,6.636,0,9.961c1.005,0,1.995,0,2.99,0
						c0-4.826,0-9.645,0-14.475C100.953,5.314,100.925,5.311,100.897,5.311z"/>
					<path fill="#FFFFFF" d="M79.595,19.788c1.115,0,2.22,0,3.327,0c0-4.828,0-9.646,0-14.47c-1.11,0-2.211,0-3.327,0
						C79.595,10.146,79.595,14.968,79.595,19.788z"/>
					<path fill="#FFFFFF" d="M60.349,5.75c-1.094-0.553-2.274-0.738-3.49-0.758c-0.321,0.021-0.643,0.033-0.962,0.062
						c-0.937,0.085-1.834,0.316-2.665,0.765c-1.553,0.838-2.555,2.127-3.097,3.78c-0.384,1.172-0.474,2.381-0.414,3.604
						c0.048,0.962,0.212,1.902,0.579,2.799c0.75,1.833,2.045,3.116,3.944,3.749c1.464,0.487,2.968,0.521,4.468,0.205
						c2.175-0.459,3.721-1.722,4.64-3.729c0.426-0.93,0.615-1.917,0.675-2.933c0.07-1.189-0.005-2.366-0.354-3.511
						C63.126,7.986,62.051,6.608,60.349,5.75z M60.824,13.138c-0.04,0.74-0.163,1.465-0.472,2.146
						c-0.583,1.284-1.587,1.979-3.002,2.093c-0.688,0.055-1.362-0.007-2.004-0.271c-0.953-0.393-1.54-1.122-1.892-2.06
						c-0.229-0.608-0.328-1.242-0.364-1.887c-0.011-0.196-0.001-0.395-0.001-0.592c-0.01-0.888,0.084-1.761,0.424-2.594
						c0.571-1.401,1.754-2.198,3.279-2.217c0.695-0.01,1.369,0.078,1.993,0.401c0.871,0.45,1.399,1.185,1.712,2.087
						C60.822,11.184,60.878,12.156,60.824,13.138z"/>
				</g>
			</g>
		</g>
	</g>
</g>
</svg>
