<?xml version="1.0" encoding="utf-8"?>
<!-- Generator: Adobe Illustrator 16.0.0, SVG Export Plug-In . SVG Version: 6.00 Build 0)  -->
<!DOCTYPE svg PUBLIC "-//W3C//DTD SVG 1.1//EN" "http://www.w3.org/Graphics/SVG/1.1/DTD/svg11.dtd">
<svg version="1.1" id="Livello_8" xmlns="http://www.w3.org/2000/svg" xmlns:xlink="http://www.w3.org/1999/xlink" x="0px" y="0px"
	 width="122px" height="24px" viewBox="0 0 122 24" enable-background="new 0 0 122 24" xml:space="preserve">
<g>
	<defs>
		<rect id="SVGID_1_" x="1" y="6" width="120" height="12"/>
	</defs>
	<clipPath id="SVGID_2_">
		<use xlink:href="#SVGID_1_"  overflow="visible"/>
	</clipPath>
	<path clip-path="url(#SVGID_2_)" fill="#FFFFFF" d="M2.184,16.876H1v0.549h8.678v-3.917H9.122c0,3.212-1.047,3.368-4.389,3.368
		H4.094V6.54h1.043V6H1.01v0.54h1.174V16.876z"/>
	<polygon clip-path="url(#SVGID_2_)" fill="#FFFFFF" points="12.316,10.445 10.92,10.445 10.92,10.994 12.177,10.994 12.177,16.874 
		10.92,16.874 10.92,17.423 15.17,17.423 15.17,16.874 13.915,16.874 13.915,10.445 	"/>
	<path clip-path="url(#SVGID_2_)" fill="#FFFFFF" d="M12.066,7.018c0,0.522,0.439,0.952,0.982,0.952c0.532,0,0.975-0.43,0.975-0.952
		c0-0.523-0.443-0.953-0.975-0.953C12.505,6.064,12.066,6.494,12.066,7.018"/>
	<path clip-path="url(#SVGID_2_)" fill="#FFFFFF" d="M27.627,13.848c0,1.957,1.455,3.745,3.566,3.745
		c2.094,0,3.565-1.788,3.565-3.745c0-1.951-1.471-3.555-3.565-3.555C29.129,10.293,27.627,11.896,27.627,13.848 M32.867,14.085
		c0,1.477-0.029,2.943-1.674,2.943c-1.609,0-1.676-1.467-1.676-2.943v-0.409c0-1.482,0.045-2.812,1.676-2.812
		c1.66,0,1.674,1.33,1.674,2.812V14.085z"/>
	<path clip-path="url(#SVGID_2_)" fill="#FFFFFF" d="M19.604,13.022c-0.26-0.044-0.842-0.125-1.17-0.185
		c-0.494-0.087-0.965-0.359-0.965-1.021c0-0.565,0.522-0.993,1.227-0.993c0.92,0,1.771,0.409,1.84,1.549h0.427l-0.041-2.022h-0.386
		l-0.059,0.575c-0.326-0.372-0.988-0.682-1.828-0.682c-1.252,0-2.309,0.864-2.309,2.145c0,0.962,0.434,1.823,1.584,2.057
		c0.266,0.05,1.098,0.246,1.373,0.312c0.869,0.19,1.018,0.7,0.971,1.199c-0.045,0.54-0.449,1.045-1.404,1.045
		c-1.211,0-1.992-1.059-1.992-1.776h-0.434l0.041,2.266h0.393l0.158-0.646c0.347,0.418,1.179,0.777,1.869,0.777
		c1.447,0,2.514-1.024,2.514-2.543C21.413,13.533,20.366,13.166,19.604,13.022"/>
	<path clip-path="url(#SVGID_2_)" fill="#FFFFFF" d="M48.424,17.03c-1.451,0-1.896-1.462-1.896-2.945l-0.004-0.388h4.877
		c-0.03-1.851-1.313-3.402-3.227-3.402c-2.07,0-3.566,1.602-3.566,3.555c0,1.955,1.533,3.745,3.668,3.745
		c1.632,0,2.482-0.942,2.978-2.168l-0.506-0.197C50.467,15.941,49.926,17.03,48.424,17.03 M48.096,10.859
		c1.277,0,1.359,1.024,1.436,2.273h-2.983C46.645,11.884,46.805,10.859,48.096,10.859"/>
	<path clip-path="url(#SVGID_2_)" fill="#FFFFFF" d="M26.836,16.876c-0.168,0.077-0.428,0.168-0.959,0.168
		c-0.424,0-0.67-0.303-0.67-0.999v-5.031h1.42v-0.55h-1.42V8.196H24.85c0,0.832-0.832,2.268-2.151,2.268h0.01h-0.326v0.55h1.041
		v4.329c0,1.893,0.746,2.281,2.1,2.281c0.628,0,1.22-0.197,1.492-0.38C27.016,17.244,26.836,16.891,26.836,16.876"/>
	<path clip-path="url(#SVGID_2_)" fill="#FFFFFF" d="M44.074,16.876c-0.695,0.243-0.977-0.175-0.977-0.871v-2.646
		c0-0.641-0.009-1.221-0.138-1.679c-0.332-1.177-1.854-1.721-3.182-1.23c-0.545,0.197-1.17,0.787-1.389,1.305v-1.305h-2.906v0.544
		h1.237v5.879h-1.247v0.55h4.163v-0.546h-1.176v-3.724c0-1.176,0.941-2.254,1.799-2.254c0.828,0,1.062,0.509,1.062,1.32v3.286
		c0,1.408,0.609,2.038,1.844,2.038c0.43,0,0.797-0.146,0.996-0.283C44.16,17.26,44.074,16.891,44.074,16.876"/>
	<path clip-path="url(#SVGID_2_)" fill="#FFFFFF" d="M113.863,14.093c0,1.957,1.455,3.745,3.566,3.745
		c2.094,0,3.569-1.788,3.569-3.745s-1.476-3.556-3.569-3.556C115.359,10.537,113.863,12.136,113.863,14.093 M119.104,14.33
		c0,1.481-0.031,2.943-1.674,2.943c-1.609,0-1.672-1.462-1.672-2.943v-0.409c0-1.482,0.041-2.818,1.672-2.818
		c1.66,0,1.674,1.336,1.674,2.818V14.33z"/>
	<path clip-path="url(#SVGID_2_)" fill="#FFFFFF" d="M113.457,17.183c-0.695,0.237-0.977-0.177-0.977-0.873v-2.65
		c0-0.641-0.01-1.217-0.137-1.673c-0.326-1.183-1.859-1.721-3.184-1.232c-0.545,0.197-1.17,0.787-1.389,1.301v-1.301h-2.906V11.3
		h1.23v5.877h-1.24v0.55h4.162v-0.544h-1.174v-3.726c0-1.175,0.934-2.258,1.797-2.258c0.828,0,1.062,0.513,1.062,1.324v3.288
		c0,1.406,0.608,2.03,1.846,2.03c0.428,0,0.801-0.145,0.996-0.281C113.545,17.561,113.457,17.197,113.457,17.183"/>
	<polygon clip-path="url(#SVGID_2_)" fill="#FFFFFF" points="70.455,10.736 69.06,10.736 69.06,11.301 70.316,11.301 70.316,17.185 
		69.06,17.185 69.06,17.729 73.316,17.729 73.316,17.185 72.059,17.185 72.059,10.736 	"/>
	<path clip-path="url(#SVGID_2_)" fill="#FFFFFF" d="M73.633,14.122c0,1.956,1.461,3.745,3.564,3.745
		c2.102,0,3.572-1.789,3.572-3.745c0-1.951-1.471-3.556-3.572-3.556C75.135,10.566,73.633,12.171,73.633,14.122 M78.879,14.353
		c0,1.482-0.031,2.949-1.682,2.949c-1.607,0-1.67-1.467-1.67-2.949V13.95c0-1.48,0.047-2.818,1.67-2.818
		c1.662,0,1.682,1.338,1.682,2.818V14.353z"/>
	<path clip-path="url(#SVGID_2_)" fill="#FFFFFF" d="M85.842,11.124c-0.885,0-1.705,1.432-1.705,2.88v3.181h0.969v0.538h-3.611
		v-0.544h0.973v-5.878H81.51v-0.564h2.549v1.049c0.021,0.212-0.01,0.644-0.01,0.644c0.193-0.891,0.822-1.454,1.139-1.627
		c0.328-0.183,0.639-0.212,0.966-0.212c0.745,0,1.313,0.479,1.313,1.164c0,0.606-0.395,1.024-0.914,1.024
		c-0.562,0-0.926-0.39-0.926-0.913c0-0.232,0.107-0.459,0.225-0.564C85.943,11.211,86.057,11.124,85.842,11.124"/>
	<path clip-path="url(#SVGID_2_)" fill="#FFFFFF" d="M94.977,17.183V6.434h-1.604h-1.395v0.544h1.328v4.028
		c0,0.244,0.037,0.817,0.037,0.817c-0.17-0.521-0.945-1.26-2.045-1.26c-2.221,0-3.441,1.603-3.441,3.558
		c0,1.957,0.883,3.748,3.289,3.748c1.129,0,2.033-0.772,2.232-1.539c0,0-0.035,0.525-0.035,0.853v0.546h2.89v-0.546H94.977z
		 M91.422,17.273c-1.322,0-1.582-1.433-1.582-2.919v-0.403c0-1.481,0.219-2.82,1.68-2.82c1.104,0,1.824,1.357,1.824,2.396v0.937
		C93.344,15.897,92.598,17.273,91.422,17.273"/>
	<path clip-path="url(#SVGID_2_)" fill="#FFFFFF" d="M104.115,17.183c-0.641,0.216-1.1-0.087-1.1-0.873v-2.646
		c0-0.636-0.01-1.21-0.143-1.675c-0.322-1.17-1.416-1.417-2.811-1.417c-1.66,0-2.773,0.983-2.773,1.938
		c0,0.635,0.414,0.968,0.904,0.968c0.465,0,0.859-0.237,0.859-0.717c0-0.372-0.15-0.625-0.404-0.715
		c-0.088-0.037-0.158-0.087-0.123-0.197c0.168-0.524,0.689-0.711,1.41-0.711c1.129,0,1.414,0.848,1.414,1.635v0.875
		c-1.807,0-4.52,0.304-4.52,2.321c0,1.153,0.832,1.96,2.324,1.96c1.015,0,1.84-0.418,2.268-1.133
		c0.307,0.745,0.863,1.046,1.809,1.046c0.438,0,0.897-0.15,1.098-0.281C104.328,17.561,104.115,17.192,104.115,17.183
		 M99.689,17.268c-0.582,0-1.107-0.443-1.107-1.558c0-1.215,1.496-1.563,2.768-1.563v1.378
		C101.335,16.365,100.764,17.268,99.689,17.268"/>
	<path clip-path="url(#SVGID_2_)" fill="#FFFFFF" d="M64.537,13.306v0.544h1.609v1.532c0,1.423-1.287,2.013-2.691,2.013
		c-3.117,0-3.389-3.479-3.389-5.687c0-2.237,0.151-5.087,3.26-5.087c1.967,0,3.566,1.152,3.627,3.371h0.715V6.337h-0.545
		l-0.322,1.149c-0.553-0.696-1.809-1.461-3.475-1.461c-2.957,0-5.531,2.178-5.531,5.683c0,4.037,2.394,6.292,5.531,6.292
		c2.764,0,4.117-1.367,4.709-1.831v-2.863H64.537z"/>
	<path clip-path="url(#SVGID_2_)" fill="#FFFFFF" d="M70.072,7.016c0,0.524,0.444,0.948,0.977,0.948
		c0.535,0,0.979-0.424,0.979-0.948c0-0.523-0.444-0.951-0.979-0.951C70.517,6.064,70.072,6.492,70.072,7.016"/>
</g>
</svg>
