<?xml version="1.0" encoding="utf-8"?>
<!-- Generator: Adobe Illustrator 16.0.0, SVG Export Plug-In . SVG Version: 6.00 Build 0)  -->
<!DOCTYPE svg PUBLIC "-//W3C//DTD SVG 1.1//EN" "http://www.w3.org/Graphics/SVG/1.1/DTD/svg11.dtd">
<svg version="1.1" id="Livello_3" xmlns="http://www.w3.org/2000/svg" xmlns:xlink="http://www.w3.org/1999/xlink" x="0px" y="0px"
	 width="122px" height="24px" viewBox="0 0 122 24" enable-background="new 0 0 122 24" xml:space="preserve">
<g>
	<path fill="#FFFFFF" d="M97.962,13.035c-0.217,0.356-0.543,0.645-0.981,0.857c-0.435,0.213-0.903,0.32-1.409,0.32
		c-0.577,0-1.034-0.146-1.37-0.438c-0.335-0.294-0.503-0.684-0.503-1.169c0-0.804,0.372-1.433,1.12-1.897
		c0.747-0.461,1.779-0.698,3.101-0.71V8.312c0-0.346-0.11-0.6-0.33-0.766c-0.219-0.164-0.554-0.245-1.012-0.245
		c-0.357,0-0.676,0.065-0.952,0.2c-0.275,0.136-0.412,0.273-0.412,0.414c0,0.023,0.08,0.117,0.239,0.279
		c0.156,0.158,0.235,0.342,0.235,0.548c0,0.222-0.062,0.405-0.19,0.546s-0.292,0.209-0.491,0.209c-0.222,0-0.398-0.074-0.525-0.227
		c-0.128-0.153-0.19-0.357-0.19-0.615c0-0.488,0.25-0.89,0.75-1.213c0.497-0.321,1.143-0.483,1.93-0.483
		c0.833,0,1.418,0.138,1.756,0.417c0.339,0.278,0.51,0.775,0.51,1.489v3.923c0,0.276,0.025,0.456,0.073,0.543
		c0.052,0.084,0.14,0.126,0.268,0.126c0.139,0,0.264-0.061,0.375-0.181c0.11-0.119,0.188-0.27,0.225-0.452h0.275
		c-0.034,0.411-0.179,0.74-0.438,0.992s-0.58,0.378-0.961,0.378c-0.329,0-0.585-0.097-0.768-0.291
		C98.101,13.712,97.993,13.422,97.962,13.035L97.962,13.035z M97.919,10.395c-0.949,0-1.674,0.15-2.177,0.453
		c-0.504,0.299-0.754,0.736-0.754,1.312c0,0.41,0.117,0.737,0.351,0.983c0.232,0.245,0.542,0.368,0.932,0.368
		c0.483,0,0.878-0.132,1.186-0.396c0.31-0.264,0.463-0.605,0.463-1.028V10.395L97.919,10.395z"/>
	<path fill="#FFFFFF" d="M92.115,2v11.581h0.921v0.413c-0.51,0-0.938,0.015-1.283,0.045c-0.345,0.027-0.653,0.072-0.932,0.129
		v-1.271c-0.227,0.42-0.526,0.746-0.9,0.974s-0.787,0.342-1.24,0.342c-0.869,0-1.603-0.351-2.2-1.049s-0.895-1.562-0.895-2.586
		c0-1.02,0.297-1.873,0.895-2.562c0.598-0.693,1.336-1.037,2.217-1.037c0.493,0,0.915,0.113,1.269,0.338
		c0.354,0.225,0.629,0.558,0.822,0.996V2.537h-1.104v-0.36h0.274c0.354,0,0.708-0.015,1.067-0.045
		C91.382,2.102,91.745,2.061,92.115,2L92.115,2z M90.805,11.887V9.48c0-0.561-0.198-1.052-0.592-1.475
		c-0.396-0.422-0.861-0.633-1.391-0.633c-0.608,0-1.042,0.24-1.3,0.72s-0.385,1.298-0.385,2.448c0,1.209,0.133,2.053,0.398,2.542
		c0.264,0.488,0.711,0.734,1.334,0.734c0.493,0,0.938-0.201,1.337-0.603C90.606,12.816,90.805,12.373,90.805,11.887L90.805,11.887z"
		/>
	<path fill="#FFFFFF" d="M65.479,13.994v-0.413h1.02V7.506h-1.039V7.128c0.433,0,0.863-0.015,1.293-0.045
		c0.427-0.03,0.85-0.069,1.264-0.123l0.009,1.729c0.297-0.584,0.661-1.02,1.085-1.304c0.427-0.284,0.932-0.426,1.508-0.426
		c0.646,0,1.147,0.153,1.515,0.456c0.365,0.305,0.563,0.734,0.597,1.282c0.254-0.566,0.599-0.998,1.039-1.294
		c0.439-0.297,0.961-0.444,1.566-0.444c0.696,0,1.225,0.183,1.576,0.549c0.355,0.365,0.531,0.911,0.531,1.63v4.442h0.974v0.413h-3.6
		v-0.413h1.117V8.506c0-0.35-0.081-0.613-0.247-0.791c-0.166-0.176-0.414-0.264-0.746-0.264c-0.59,0-1.113,0.276-1.569,0.824
		c-0.453,0.552-0.682,1.193-0.682,1.925v3.381h0.984v0.413h-3.54v-0.413H71.2V8.506c0-0.374-0.081-0.644-0.244-0.809
		c-0.162-0.164-0.43-0.246-0.804-0.246c-0.58,0-1.092,0.315-1.531,0.947c-0.443,0.633-0.665,1.395-0.665,2.284v2.898h1.004v0.413
		H65.479L65.479,13.994z"/>
	<path fill="#FFFFFF" d="M60.033,10.578c0,1.301,0.134,2.169,0.403,2.612c0.268,0.441,0.731,0.663,1.392,0.663
		c0.652,0,1.119-0.234,1.389-0.701c0.274-0.471,0.411-1.322,0.411-2.557c0-1.312-0.131-2.182-0.396-2.613
		c-0.265-0.429-0.729-0.645-1.39-0.645c-0.664,0-1.133,0.228-1.404,0.686C60.167,8.479,60.033,9.33,60.033,10.578L60.033,10.578z
		 M58.345,10.578c0-1.02,0.338-1.877,1.015-2.572c0.673-0.697,1.502-1.046,2.483-1.046c1.003,0,1.828,0.342,2.486,1.028
		c0.658,0.684,0.987,1.54,0.987,2.571c0,1.013-0.341,1.873-1.021,2.577c-0.683,0.704-1.505,1.059-2.468,1.059
		c-1.002,0-1.831-0.345-2.492-1.031C58.674,12.475,58.345,11.615,58.345,10.578L58.345,10.578z"/>
	<path fill="#FFFFFF" d="M54.862,12.756v-5.25h-0.914V7.128h0.914c0.475-0.443,0.761-1.169,0.857-2.179
		c0.012-0.132,0.252-0.027,0.358-0.051v2.229h1.454v0.378h-1.454v5.082c0,0.405,0.043,0.672,0.13,0.801
		c0.089,0.129,0.252,0.192,0.488,0.192c0.149,0,0.295-0.055,0.442-0.162c0.147-0.108,0.293-0.273,0.442-0.489l0.252,0.219
		c-0.249,0.381-0.504,0.654-0.768,0.818c-0.26,0.165-0.569,0.246-0.925,0.246c-0.439,0-0.762-0.12-0.968-0.356
		C54.965,13.619,54.862,13.254,54.862,12.756L54.862,12.756z"/>
	<path fill="#FFFFFF" d="M48.715,13.994v-2.316h0.388c0.16,0.662,0.437,1.172,0.828,1.534c0.393,0.362,0.862,0.546,1.408,0.546
		c0.466,0,0.841-0.132,1.128-0.396c0.285-0.263,0.428-0.607,0.428-1.033c0-0.488-0.526-0.842-1.581-1.064
		c-0.207-0.045-0.369-0.084-0.486-0.113c-0.808-0.187-1.361-0.432-1.654-0.734c-0.296-0.3-0.442-0.738-0.442-1.312
		c0-0.633,0.193-1.148,0.581-1.547c0.385-0.398,0.887-0.597,1.502-0.597c0.35,0,0.657,0.052,0.925,0.153s0.48,0.252,0.64,0.443
		l0.325-0.465h0.223v1.993h-0.342c-0.111-0.572-0.317-1.01-0.621-1.312C51.663,7.47,51.278,7.32,50.812,7.32
		c-0.428,0-0.776,0.116-1.044,0.35c-0.268,0.234-0.401,0.54-0.401,0.914c0,0.48,0.619,0.843,1.853,1.088
		c0.206,0.043,0.366,0.075,0.478,0.1c0.624,0.123,1.09,0.354,1.402,0.698c0.309,0.341,0.464,0.797,0.464,1.364
		c0,0.73-0.214,1.312-0.64,1.737c-0.426,0.429-1.004,0.642-1.736,0.642c-0.333,0-0.651-0.069-0.949-0.21
		c-0.301-0.141-0.575-0.348-0.822-0.623l-0.374,0.614H48.715L48.715,13.994z"/>
	<path fill="#FFFFFF" d="M33.619,13.994v-0.413h0.927V7.506h-0.945V7.128h0.314c0.354,0,0.695-0.015,1.023-0.045
		s0.639-0.069,0.927-0.123l0.009,2.003c0.25-0.663,0.593-1.16,1.026-1.496c0.436-0.339,0.954-0.507,1.555-0.507
		c0.607,0,1.082,0.168,1.421,0.501c0.34,0.332,0.512,0.803,0.512,1.405v4.715h0.91v0.413h-3.227v-0.413h0.988V8.812
		c0-0.449-0.087-0.782-0.265-1.001c-0.174-0.216-0.448-0.323-0.817-0.323c-0.561,0-1.046,0.29-1.457,0.868
		c-0.41,0.579-0.613,1.286-0.613,2.116v3.108h0.918v0.413H33.619L33.619,13.994z"/>
	<path fill="#FFFFFF" d="M27.64,13.994v-0.413h1.147V7.506h-1.113V7.128c0.446,0,0.878-0.015,1.292-0.045
		c0.412-0.03,0.8-0.065,1.162-0.114v1.76c0.284-0.576,0.594-1.004,0.933-1.289c0.342-0.285,0.708-0.426,1.095-0.426
		c0.325,0,0.571,0.078,0.739,0.237c0.171,0.159,0.255,0.387,0.255,0.687c0,0.222-0.067,0.401-0.2,0.536
		c-0.134,0.135-0.31,0.2-0.531,0.2c-0.197,0-0.368-0.071-0.513-0.219c-0.145-0.146-0.217-0.32-0.217-0.518
		c0-0.049,0.006-0.103,0.018-0.168c0.011-0.062,0.017-0.105,0.017-0.123c0-0.048-0.006-0.078-0.017-0.096
		c-0.012-0.018-0.029-0.027-0.052-0.027c-0.31,0-0.638,0.281-0.979,0.842c-0.342,0.564-0.513,1.139-0.513,1.73v3.485h1.266v0.413
		H27.64L27.64,13.994z"/>
	<path fill="#FFFFFF" d="M22.651,9.517h3.219V9.34c0-0.726-0.118-1.25-0.35-1.573c-0.233-0.321-0.609-0.483-1.129-0.483
		c-0.54,0-0.953,0.187-1.241,0.559C22.861,8.213,22.694,8.773,22.651,9.517L22.651,9.517z M22.6,10.018v0.527
		c0,1.186,0.146,2.017,0.442,2.487c0.293,0.471,0.801,0.707,1.525,0.707c0.612,0,1.131-0.171,1.56-0.513
		c0.431-0.344,0.724-0.824,0.878-1.444h0.379c-0.169,0.8-0.505,1.402-1.013,1.808c-0.509,0.404-1.178,0.605-2.014,0.605
		c-0.947,0-1.746-0.333-2.389-0.998C21.322,12.535,21,11.719,21,10.754c0-1.061,0.33-1.957,0.988-2.691
		c0.661-0.733,1.465-1.103,2.418-1.103c0.893,0,1.597,0.261,2.113,0.785c0.515,0.524,0.816,1.283,0.899,2.272H22.6L22.6,10.018z"/>
	<path fill="#FFFFFF" d="M43.306,9.517h3.22V9.34c0-0.726-0.118-1.25-0.351-1.573c-0.233-0.321-0.609-0.483-1.129-0.483
		c-0.54,0-0.953,0.187-1.241,0.559C43.515,8.213,43.349,8.773,43.306,9.517L43.306,9.517z M43.254,10.018v0.527
		c0,1.186,0.147,2.017,0.442,2.487c0.293,0.471,0.801,0.707,1.525,0.707c0.612,0,1.131-0.171,1.56-0.513
		c0.431-0.344,0.724-0.824,0.879-1.444h0.379c-0.169,0.8-0.505,1.402-1.014,1.808c-0.508,0.404-1.178,0.605-2.014,0.605
		c-0.948,0-1.746-0.333-2.389-0.998c-0.646-0.662-0.968-1.479-0.968-2.443c0-1.061,0.33-1.957,0.988-2.691
		c0.661-0.733,1.465-1.103,2.418-1.103c0.893,0,1.597,0.261,2.113,0.785c0.514,0.524,0.816,1.283,0.899,2.272H43.254L43.254,10.018z
		"/>
	<path fill="#FFFFFF" d="M80.037,9.517h3.22V9.34c0-0.726-0.117-1.25-0.351-1.573c-0.232-0.321-0.608-0.483-1.128-0.483
		c-0.54,0-0.954,0.187-1.241,0.559C80.247,8.213,80.081,8.773,80.037,9.517L80.037,9.517z M79.985,10.018v0.527
		c0,1.186,0.147,2.017,0.443,2.487c0.293,0.471,0.801,0.707,1.524,0.707c0.612,0,1.132-0.171,1.56-0.513
		c0.431-0.344,0.724-0.824,0.879-1.444h0.379c-0.169,0.8-0.505,1.402-1.014,1.808c-0.508,0.404-1.178,0.605-2.014,0.605
		c-0.947,0-1.746-0.333-2.39-0.998c-0.646-0.662-0.967-1.479-0.967-2.443c0-1.061,0.33-1.957,0.987-2.691
		c0.661-0.733,1.465-1.103,2.419-1.103c0.893,0,1.597,0.261,2.113,0.785c0.514,0.524,0.815,1.283,0.899,2.272H79.985L79.985,10.018z
		"/>
	<polygon fill-rule="evenodd" clip-rule="evenodd" fill="#FFFFFF" points="21.218,14.986 101,14.986 101,22 21.218,22 
		21.218,14.986 	"/>
</g>
</svg>
