<?xml version="1.0" encoding="utf-8"?>
<!-- Generator: Adobe Illustrator 16.0.0, SVG Export Plug-In . SVG Version: 6.00 Build 0)  -->
<!DOCTYPE svg PUBLIC "-//W3C//DTD SVG 1.1//EN" "http://www.w3.org/Graphics/SVG/1.1/DTD/svg11.dtd">
<svg version="1.1" id="Livello_1" xmlns="http://www.w3.org/2000/svg" xmlns:xlink="http://www.w3.org/1999/xlink" x="0px" y="0px"
	 width="122px" height="24px" viewBox="0 0 122 24" enable-background="new 0 0 122 24" xml:space="preserve">
<g>
	<g>
		<g>
			<g>
				<g>
					<path fill="#FFFFFF" d="M56.037,2.109c-0.655,0-1.207,0.016-1.895,0.016C47.521,2.125,44,7.172,44,12.115
						c0,6.807,5.25,9.771,10.143,9.771h1.895V11.02h-6.044v1.92h4.149v7.025c-3.646,0-8.249-2.453-8.249-7.85
						c0-7.1,6.786-8.055,8.249-8.055h1.895V2.109z"/>
					<polygon fill="#FFFFFF" points="56.85,2 56.85,21.887 62.606,21.887 62.606,19.535 59.178,19.535 59.178,8.199 61,8.199 
						61,5.918 59.178,5.918 59.178,4.469 62.606,4.469 62.606,2 					"/>
					<path fill="#FFFFFF" d="M63.708,22v-2.465c0,0,4.114-0.506,4.114-3.84c0-3.332-4.114-6.408-4.114-9.777S67.358,2,67.822,2
						h1.065v2.469h-1.065c0,0-1.787-0.398-1.787,1.449s4.108,6.445,4.108,9.777C70.144,20.441,64.917,22,63.708,22"/>
					<path fill="#FFFFFF" d="M69.176,22v-2.465c0,0,4.114-0.506,4.114-3.84c0-3.332-4.114-6.408-4.114-9.777S72.826,2,73.29,2h1.065
						v2.469H73.29c0,0-1.787-0.398-1.787,1.449s3.964,6.445,3.964,9.777C75.467,20.441,70.385,22,69.176,22"/>
					<rect x="75.817" y="2" fill="#FFFFFF" width="2.183" height="19.887"/>
				</g>
			</g>
		</g>
	</g>
</g>
</svg>
