<?xml version="1.0" encoding="utf-8"?>
<!-- Generator: Adobe Illustrator 16.0.0, SVG Export Plug-In . SVG Version: 6.00 Build 0)  -->
<!DOCTYPE svg PUBLIC "-//W3C//DTD SVG 1.0//EN" "http://www.w3.org/TR/2001/REC-SVG-20010904/DTD/svg10.dtd" [
	<!ENTITY ns_flows "http://ns.adobe.com/Flows/1.0/">
	<!ENTITY ns_extend "http://ns.adobe.com/Extensibility/1.0/">
	<!ENTITY ns_ai "http://ns.adobe.com/AdobeIllustrator/10.0/">
	<!ENTITY ns_graphs "http://ns.adobe.com/Graphs/1.0/">
]>
<svg version="1.0" id="Livello_10" xmlns:x="&ns_extend;" xmlns:i="&ns_ai;" xmlns:graph="&ns_graphs;"
	 xmlns="http://www.w3.org/2000/svg" xmlns:xlink="http://www.w3.org/1999/xlink" xmlns:a="http://ns.adobe.com/AdobeSVGViewerExtensions/3.0/"
	 x="0px" y="0px" width="122px" height="24px" viewBox="0 0 122 24" enable-background="new 0 0 122 24" xml:space="preserve">
<g>
	<path d="M102.271,18.273v-0.006c-2.066,0-3.744-1.675-3.744-3.744c0-2.064,1.678-3.742,3.744-3.742c1.025,0,1.951,0.412,2.629,1.08
		l1.791-1.791c-1.135-1.125-2.696-1.822-4.42-1.822c-3.033,0-5.562,2.152-6.146,5.012v0.004c-0.084-0.408-0.13-0.83-0.13-1.264
		c0-3.469,2.81-6.275,6.274-6.275c3.467,0,6.275,2.808,6.275,6.275C108.547,15.465,105.738,18.273,102.271,18.273 M102.271,3.166
		c-4.879,0-8.834,3.955-8.834,8.834s3.955,8.834,8.834,8.834s8.834-3.955,8.834-8.834S107.15,3.166,102.271,3.166"/>
	<path d="M18.725,6.982c0.188,0.164,0.354,0.545,0.354,0.947c0,0.426-0.24,0.877-0.518,0.877c-0.121,0-0.242-0.048-0.332-0.164
		C17.701,8,16.831,7.385,15.859,7.385c-1.651,0-3.262,1.305-3.262,3.814c0,1.848,1.278,4.053,3.803,4.053
		c1.375,0,2.084-0.617,2.625-1.422c0.195-0.047,0.404,0.117,0.428,0.332c-0.805,1.752-2.577,2.412-3.944,2.412
		c-1.257,0-2.413-0.402-3.239-1.205c-0.828-0.805-1.375-1.965-1.375-3.506c0-2.559,1.803-5.281,5.727-5.281
		C17.161,6.582,18.084,6.701,18.725,6.982"/>
	<path d="M30.479,10.188c0.992,0,1.323-0.021,1.392-0.162c0.045-0.094,0.098-0.278,0.098-0.608c0-1.438-1.323-2.836-3.358-2.836
		c-2.832,0-4.752,2.453-4.752,5.36c0,1.039,0.285,2.152,0.994,3.074c0.69,0.898,1.894,1.56,3.426,1.56
		c1.232,0,2.933-0.591,3.714-2.197c-0.022-0.213-0.188-0.354-0.429-0.283c-0.729,0.923-1.391,1.158-2.172,1.158
		c-2.525,0-3.924-2.035-3.924-4.424c0-0.593,0.021-0.642,0.639-0.642H30.479z M25.895,9.488c-0.166,0-0.166-0.072-0.166-0.119
		c0.022-0.791,1.228-2.088,2.623-2.088c1.369,0,1.819,0.84,1.819,1.512c0,0.311-0.075,0.408-0.146,0.455
		c-0.187,0.145-0.703,0.24-2.455,0.24H25.895z"/>
	<path d="M42.413,7c0.21,0.518,0.376,1.275,0.376,1.918c-0.098,0.166-0.452,0.215-0.564,0.072c-0.404-1.045-1.111-1.736-2.08-1.736
		c-0.926,0-1.519,0.594-1.519,1.451c0,0.973,0.998,1.498,1.826,1.971c1.247,0.713,2.405,1.52,2.405,3.205
		c0,1.807-1.654,2.695-3.397,2.695c-1.112,0-1.938-0.232-2.526-0.699c-0.188-0.451-0.33-1.615-0.285-2.398
		c0.121-0.143,0.43-0.168,0.543-0.024c0.404,1.307,1.156,2.446,2.502,2.446c0.85,0,1.586-0.498,1.586-1.52
		c0-1.094-0.947-1.688-1.818-2.186c-1.375-0.783-2.338-1.613-2.338-2.92c0-1.736,1.413-2.693,3.209-2.693
		C41.323,6.582,42.195,6.812,42.413,7"/>
	<path d="M49.898,12.355c-1.51,0.547-1.955,1.092-1.955,2.018c0,0.664,0.279,1.26,0.729,1.66c0.397,0.354,0.972,0.541,1.654,0.541
		c0.659,0,1.179-0.307,1.698-0.59c0.474-0.258,0.759-0.471,0.924-0.471c0.143,0,0.285,0.188,0.375,0.327
		c0.398,0.521,0.971,0.732,1.533,0.732c1.158,0,1.983-0.921,1.983-1.037c0-0.168-0.073-0.312-0.165-0.312
		c-0.074,0-0.188,0.096-0.309,0.168c-0.143,0.07-0.354,0.144-0.594,0.144c-0.916,0-1.127-0.974-1.082-2.063l0.144-4.132
		c0.067-1.78-0.76-2.762-2.451-2.762c-1.728,0-4.396,1.668-4.396,2.903c0,0.213,0.111,0.332,0.33,0.332
		c0.354,0,0.99-0.166,1.346-0.45c0.188-0.144,0.21-0.429,0.232-0.808c0.053-0.736,0.854-1.07,1.52-1.07
		c1.464,0,1.743,1.188,1.721,2.066l-0.021,1.092c-0.023,0.355-0.045,0.57-0.399,0.689L49.898,12.355z M49.764,14.088
		c0-0.926,0.684-1.281,2.074-1.756c0.43-0.143,0.827-0.238,0.971-0.238c0.143,0,0.239,0.049,0.239,0.309l-0.052,1.402
		c0,0.5-0.021,0.83-0.311,1.115c-0.231,0.238-0.961,0.594-1.436,0.594C50.042,15.514,49.764,14.494,49.764,14.088"/>
	<path d="M62.502,9.449c0-0.922,0-1.043-0.639-1.469l-0.211-0.144c-0.09-0.094-0.09-0.354,0.022-0.424
		c0.548-0.19,1.886-0.81,2.359-1.162c0.09,0,0.212,0.047,0.257,0.166c-0.045,0.543-0.045,0.899-0.045,1.113
		c0,0.143,0.088,0.262,0.254,0.262c1-0.617,2.111-1.211,3.322-1.211c1.953,0,2.758,1.353,2.758,2.938v4.075
		c0,1.707,0.045,1.943,0.895,2.062l0.52,0.069c0.166,0.117,0.119,0.517-0.045,0.588c-0.715-0.047-1.397-0.08-2.217-0.08
		c-0.851,0-1.558,0.033-2.195,0.08c-0.165-0.071-0.217-0.471-0.053-0.588l0.451-0.069c0.879-0.146,0.9-0.355,0.9-2.062v-3.528
		c0-1.353-0.615-2.347-2.225-2.347c-0.901,0-1.684,0.382-2.014,0.83c-0.308,0.402-0.353,0.732-0.353,1.42v3.625
		c0,1.707,0.045,1.919,0.894,2.062l0.43,0.069c0.164,0.117,0.119,0.517-0.045,0.588c-0.64-0.047-1.332-0.08-2.15-0.08
		c-0.85,0-1.555,0.033-2.217,0.08c-0.165-0.071-0.213-0.471-0.047-0.588l0.498-0.069c0.871-0.119,0.894-0.355,0.894-2.062
		L62.502,9.449L62.502,9.449z"/>
	<path d="M78.939,12.355c-1.512,0.547-1.963,1.092-1.963,2.018c0,0.664,0.285,1.26,0.735,1.66c0.399,0.354,0.97,0.541,1.653,0.541
		c0.662,0,1.183-0.307,1.699-0.59c0.474-0.258,0.76-0.471,0.926-0.471c0.142,0,0.277,0.188,0.373,0.327
		c0.398,0.521,0.964,0.732,1.527,0.732c1.156,0,1.992-0.921,1.992-1.037c0-0.168-0.076-0.312-0.166-0.312
		c-0.076,0-0.195,0.096-0.309,0.168c-0.145,0.07-0.361,0.144-0.594,0.144c-0.926,0-1.135-0.974-1.09-2.063l0.143-4.132
		c0.074-1.78-0.751-2.762-2.45-2.762c-1.722,0-4.39,1.668-4.39,2.903c0,0.213,0.111,0.332,0.324,0.332
		c0.358,0,0.998-0.166,1.353-0.45c0.187-0.144,0.211-0.429,0.233-0.808c0.045-0.736,0.849-1.07,1.511-1.07
		c1.465,0,1.75,1.188,1.728,2.066l-0.021,1.092c-0.022,0.355-0.053,0.57-0.405,0.689L78.939,12.355z M78.796,14.088
		c0-0.926,0.685-1.281,2.082-1.756c0.431-0.143,0.826-0.238,0.97-0.238c0.145,0,0.233,0.049,0.233,0.309l-0.046,1.402
		c0,0.5-0.021,0.83-0.307,1.115c-0.233,0.238-0.973,0.594-1.444,0.594C79.081,15.514,78.796,14.494,78.796,14.088"/>
</g>
</svg>
