<?xml version="1.0" encoding="utf-8"?>
<!-- Generator: Adobe Illustrator 16.0.0, SVG Export Plug-In . SVG Version: 6.00 Build 0)  -->
<!DOCTYPE svg PUBLIC "-//W3C//DTD SVG 1.0//EN" "http://www.w3.org/TR/2001/REC-SVG-20010904/DTD/svg10.dtd" [
	<!ENTITY ns_flows "http://ns.adobe.com/Flows/1.0/">
	<!ENTITY ns_extend "http://ns.adobe.com/Extensibility/1.0/">
	<!ENTITY ns_ai "http://ns.adobe.com/AdobeIllustrator/10.0/">
	<!ENTITY ns_graphs "http://ns.adobe.com/Graphs/1.0/">
]>
<svg version="1.0" id="Livello_1" xmlns:x="&ns_extend;" xmlns:i="&ns_ai;" xmlns:graph="&ns_graphs;"
	 xmlns="http://www.w3.org/2000/svg" xmlns:xlink="http://www.w3.org/1999/xlink" xmlns:a="http://ns.adobe.com/AdobeSVGViewerExtensions/3.0/"
	 x="0px" y="0px" width="122px" height="40px" viewBox="0 0 122 40" enable-background="new 0 0 122 40" xml:space="preserve">
<g>
	<path d="M33.385,29.066c-0.833-0.252-1.199-0.411-1.199-0.884c0-0.426,0.568-0.576,1.055-0.576c0.426,0,0.883,0.126,1.195,0.328
		c0.074,0.048,0.164,0.062,0.248,0.039s0.156-0.08,0.195-0.159l0.143-0.28c0.068-0.14,0.024-0.309-0.107-0.395
		c-0.448-0.29-1.084-0.47-1.657-0.47c-1.208,0-2.021,0.616-2.021,1.533c0,1.194,1.014,1.494,1.827,1.738
		c0.851,0.253,1.223,0.416,1.219,0.92c0,0.507-0.599,0.687-1.16,0.687c-0.537,0-1.12-0.284-1.475-0.61
		c-0.072-0.064-0.163-0.103-0.258-0.091c-0.094,0.011-0.18,0.065-0.229,0.146l-0.163,0.274c-0.074,0.121-0.053,0.274,0.048,0.373
		c0.526,0.518,1.318,0.838,2.07,0.838c1.265,0,2.116-0.654,2.116-1.623C35.241,29.626,34.212,29.316,33.385,29.066"/>
	<path d="M37.612,30.074l0.902-1.989l0.912,1.989H37.612z M38.963,26.863c-0.05-0.11-0.16-0.18-0.28-0.18h-0.334
		c-0.121,0-0.23,0.069-0.28,0.18l-2.36,5.175c-0.042,0.095-0.035,0.204,0.022,0.293c0.056,0.087,0.153,0.139,0.258,0.139h0.342
		c0.122,0,0.231-0.07,0.281-0.18l0.587-1.293h2.65l0.596,1.294c0.05,0.109,0.16,0.179,0.28,0.179h0.342
		c0.105,0,0.203-0.053,0.26-0.14c0.055-0.089,0.062-0.198,0.02-0.293L38.963,26.863z"/>
	<path d="M42.89,26.684h-0.312c-0.17,0-0.309,0.138-0.309,0.306v5.175c0,0.17,0.139,0.306,0.309,0.306h0.312
		c0.17,0,0.308-0.136,0.308-0.306v-5.175C43.197,26.821,43.06,26.684,42.89,26.684"/>
	<path d="M49.382,26.684h-0.306c-0.171,0-0.307,0.138-0.307,0.306v3.77l-2.921-3.95c-0.058-0.078-0.151-0.125-0.248-0.125h-0.366
		c-0.17,0-0.308,0.138-0.308,0.306v5.175c0,0.17,0.138,0.306,0.308,0.306h0.312c0.17,0,0.309-0.136,0.309-0.306v-3.767l2.914,3.949
		c0.057,0.077,0.149,0.123,0.247,0.123h0.366c0.17,0,0.307-0.136,0.307-0.306v-5.175C49.689,26.821,49.552,26.684,49.382,26.684"/>
	<path d="M54.75,26.684h-3.827c-0.17,0-0.307,0.138-0.307,0.306v0.304c0,0.17,0.137,0.306,0.307,0.306h1.45v4.565
		c0,0.17,0.139,0.306,0.308,0.306h0.312c0.171,0,0.308-0.136,0.308-0.306v-4.565h1.45c0.17,0,0.308-0.136,0.308-0.306v-0.304
		C55.057,26.821,54.919,26.684,54.75,26.684"/>
	<path d="M57.039,29.504h-1.66c-0.17,0-0.309,0.138-0.309,0.307v0.252c0,0.168,0.139,0.306,0.309,0.306h1.66
		c0.17,0,0.307-0.138,0.307-0.306v-0.252C57.345,29.642,57.208,29.504,57.039,29.504"/>
	<path d="M63.504,29.319h-0.283h-0.006h-0.923c-0.171,0-0.307,0.138-0.307,0.306v0.311c0,0.169,0.136,0.307,0.307,0.307h0.622v0.945
		c-0.361,0.247-0.799,0.382-1.241,0.382c-1.148,0-2.083-0.896-2.083-1.996c0-1.098,0.935-1.989,2.083-1.989
		c0.532,0,1.057,0.196,1.439,0.536c0.064,0.057,0.146,0.085,0.23,0.077c0.085-0.007,0.161-0.047,0.214-0.112l0.187-0.229
		c0.104-0.128,0.087-0.315-0.036-0.424c-0.561-0.487-1.283-0.756-2.034-0.756c-1.66,0-3.011,1.299-3.011,2.896
		c0,1.602,1.343,2.903,2.996,2.903c0.746,0,1.492-0.272,2.045-0.748c0.069-0.056,0.107-0.142,0.107-0.231v-1.872
		C63.812,29.457,63.673,29.319,63.504,29.319"/>
	<path d="M67.866,31.562c-1.139,0-2.067-0.893-2.067-1.988c0-1.093,0.929-1.981,2.067-1.981c1.141,0,2.068,0.889,2.068,1.981
		C69.935,30.67,69.007,31.562,67.866,31.562 M67.866,26.676c-1.655,0-3.002,1.3-3.002,2.898c0,1.601,1.347,2.902,3.002,2.902
		s3.004-1.302,3.004-2.902C70.87,27.976,69.521,26.676,67.866,26.676"/>
	<path d="M72.845,29.946h1.502c0.474,0,1.27,0.102,1.27,0.789c0,0.678-0.689,0.819-1.27,0.819h-1.502V29.946z M74.347,29.03h-1.502
		V27.6h1.502c0.46,0,1.01,0.123,1.01,0.707C75.356,28.788,75.017,29.03,74.347,29.03 M75.798,29.413
		c0.312-0.268,0.487-0.662,0.487-1.143c0-0.979-0.741-1.587-1.932-1.587h-2.13c-0.168,0-0.306,0.138-0.306,0.306v5.175
		c0,0.17,0.138,0.306,0.306,0.306h2.146c1.362,0,2.176-0.634,2.176-1.696C76.545,30.171,76.271,29.693,75.798,29.413"/>
	<path d="M78.971,30.074l0.901-1.989l0.912,1.989H78.971z M80.321,26.863c-0.051-0.11-0.159-0.18-0.279-0.18h-0.336
		c-0.12,0-0.23,0.069-0.28,0.18l-2.359,5.175c-0.043,0.095-0.035,0.204,0.021,0.293c0.058,0.087,0.153,0.139,0.259,0.139h0.342
		c0.121,0,0.231-0.07,0.28-0.18l0.589-1.293h2.647l0.597,1.294c0.05,0.109,0.159,0.179,0.28,0.179h0.341
		c0.105,0,0.203-0.053,0.26-0.14c0.058-0.089,0.064-0.198,0.021-0.293L80.321,26.863z"/>
	<path d="M84.247,26.684h-0.312c-0.169,0-0.309,0.138-0.309,0.306v5.175c0,0.17,0.14,0.306,0.309,0.306h0.312
		c0.171,0,0.309-0.136,0.309-0.306v-5.175C84.556,26.821,84.418,26.684,84.247,26.684"/>
	<path d="M90.739,26.684h-0.306c-0.17,0-0.307,0.138-0.307,0.306v3.77l-2.921-3.95c-0.059-0.078-0.149-0.125-0.25-0.125h-0.363
		c-0.17,0-0.307,0.138-0.307,0.306v5.175c0,0.17,0.137,0.306,0.307,0.306h0.312c0.17,0,0.307-0.136,0.307-0.306v-3.767l2.915,3.949
		c0.059,0.077,0.148,0.123,0.247,0.123h0.365c0.17,0,0.308-0.136,0.308-0.306v-5.175C91.047,26.821,90.909,26.684,90.739,26.684"/>
	<path d="M64.735,18.565v5.087h-0.942v-5.786L64.735,18.565z M82.996,23.635h-3.705l-0.027-0.025l-3.259-3.204
		c-0.133-0.131-0.337-0.172-0.511-0.099c-0.174,0.072-0.289,0.241-0.289,0.43v2.916h-0.967v-7.217c0-0.128-0.054-0.251-0.147-0.339
		l-2.708-2.542c-0.088-0.082-0.201-0.127-0.321-0.127h-1.354c-0.259,0-0.469,0.21-0.469,0.467v9.758h-0.961V7.986
		c0-0.19-0.114-0.359-0.291-0.432c-0.174-0.071-0.382-0.027-0.511,0.104l-4.485,4.523c-0.088,0.088-0.136,0.205-0.136,0.328v3.495
		l-1.835-1.364c-0.167-0.123-0.411-0.119-0.574,0.01l-4.174,3.327c-0.112,0.089-0.177,0.222-0.177,0.364v5.31h-0.945v-2.926
		c0-1.027-0.711-2.12-2.029-2.12c-1.319,0-2.03,1.097-2.03,2.13v2.915h-0.958v-1.984c0-0.805-0.556-1.659-1.588-1.659
		s-1.59,0.855-1.59,1.66v1.984l-0.953,0.001v-0.089c-0.002-0.398-0.004-0.911-0.004-1.118c0-0.683-0.648-1.283-1.389-1.283
		c-0.74,0-1.389,0.598-1.389,1.278v1.211l-4.181-0.001c-0.259,0-0.468,0.209-0.468,0.467c0,0.124,0.049,0.241,0.138,0.33
		c0.087,0.087,0.205,0.136,0.331,0.136h4.65c0.125,0,0.243-0.048,0.332-0.136c0.088-0.088,0.137-0.206,0.137-0.33v-1.592
		c0-0.174,0.189-0.43,0.451-0.43c0.258,0,0.451,0.234,0.451,0.443c0,0.12,0.005,1.582,0.005,1.582
		c0.002,0.255,0.211,0.464,0.469,0.464l1.889-0.002c0.258,0,0.469-0.208,0.469-0.466v-2.45c0-0.252,0.136-0.729,0.652-0.729
		c0.515,0,0.652,0.476,0.652,0.728v2.45c0,0.258,0.209,0.467,0.467,0.467h1.895c0.124,0,0.246-0.049,0.333-0.135
		c0.087-0.088,0.138-0.208,0.138-0.331v-3.382c0-0.414,0.228-1.197,1.092-1.197c0.799,0,1.091,0.71,1.091,1.188v3.392
		c0,0.258,0.21,0.466,0.469,0.466h1.884c0.258,0,0.469-0.208,0.469-0.466v-5.552l0.033-0.025l3.682-2.936l2.106,1.563v6.949
		c0,0.258,0.211,0.466,0.47,0.466h1.88c0.259,0,0.47-0.208,0.47-0.466v-5.786c0-0.147-0.07-0.287-0.188-0.374l-1.692-1.256v-4.001
		l0.026-0.025l3.52-3.554v14.996c0,0.258,0.211,0.466,0.469,0.466h1.899c0.259,0,0.469-0.208,0.469-0.466v-9.759h0.699l0.025,0.024
		l2.399,2.254v7.48c0,0.258,0.211,0.466,0.469,0.466h1.907c0.258,0,0.469-0.208,0.469-0.466v-2.265l2.624,2.579
		c0.088,0.087,0.205,0.135,0.328,0.135h3.899c0.259,0,0.469-0.208,0.469-0.466C83.465,23.845,83.255,23.635,82.996,23.635"/>
</g>
</svg>
