<?xml version="1.0" encoding="utf-8"?>
<!-- Generator: Adobe Illustrator 16.0.0, SVG Export Plug-In . SVG Version: 6.00 Build 0)  -->
<!DOCTYPE svg PUBLIC "-//W3C//DTD SVG 1.1//EN" "http://www.w3.org/Graphics/SVG/1.1/DTD/svg11.dtd">
<svg version="1.1" id="Livello_3" xmlns="http://www.w3.org/2000/svg" xmlns:xlink="http://www.w3.org/1999/xlink" x="0px" y="0px"
	 width="122px" height="24px" viewBox="0 0 122 24" enable-background="new 0 0 122 24" xml:space="preserve">
<g>
	<path fill-rule="evenodd" clip-rule="evenodd" d="M88.082,11.551h2.17v4.307h-2.17V11.551L88.082,11.551z M95,17.082
		C95,18.133,94.127,19,93.067,19h-7.756c-1.059,0-1.902-0.837-1.902-1.888L83.4,10.35c0-1.051,0.873-1.917,1.932-1.917l7.756,0.001
		c1.06,0,1.902,0.836,1.902,1.887L95,17.082L95,17.082z"/>
	<path fill-rule="evenodd" clip-rule="evenodd" d="M31.82,15.749h2.287V11.31h-2.273L31.82,15.749L31.82,15.749z M27,18.949V5.035
		h4.752L31.746,8.49l4.982-0.012c1.209,0,1.902,0.838,1.902,1.889l0.009,6.761c0,1.052-0.833,1.799-1.892,1.799L27,18.949L27,18.949
		z"/>
	<polygon points="47.053,8.383 51.711,8.383 51.711,18.944 47.053,18.944 47.053,8.383 	"/>
	<polygon points="65.18,8.383 69.838,8.383 69.838,18.944 65.18,18.944 65.18,8.383 	"/>
	<path d="M82.367,10.176c0-1.18-0.783-1.793-1.972-1.793h-9.473v10.562h4.527v-7.429h2.319v7.429l4.598-0.009V10.176L82.367,10.176z
		"/>
	<path d="M41.652,18.936c-1.059,0-1.917-0.838-1.917-1.889L39.739,5h4.516v3.383h1.976v3.133h-1.965v4.429h1.983v3L41.652,18.936
		L41.652,18.936z"/>
	<path d="M62.207,18.944l-7.799-0.009c-1.059,0-1.753-0.838-1.753-1.889l-0.009-6.925c0.166-1.167,1.268-1.853,2.434-1.743h6.902
		c1.188,0,2.151,0.6,2.151,1.777v2.863h-4.546v-1.526h-2.375v4.444h2.375v-1.563h4.546l-0.004,2.673
		C64.13,18.098,63.266,18.944,62.207,18.944L62.207,18.944z"/>
</g>
</svg>
