<?xml version="1.0" encoding="utf-8"?>
<!-- Generator: Adobe Illustrator 16.0.0, SVG Export Plug-In . SVG Version: 6.00 Build 0)  -->
<!DOCTYPE svg PUBLIC "-//W3C//DTD SVG 1.1 Basic//EN" "http://www.w3.org/Graphics/SVG/1.1/DTD/svg11-basic.dtd">
<svg version="1.1" baseProfile="basic" id="Livello_1"
	 xmlns="http://www.w3.org/2000/svg" xmlns:xlink="http://www.w3.org/1999/xlink" x="0px" y="0px" width="600px" height="500px"
	 viewBox="0 0 600 500" xml:space="preserve">
<g>
	<polygon fill="#FFDA00" points="593.201,139.516 380.942,40.538 160.379,261.101 45.317,376.162 19.946,401.533 106.188,441.748 
		158.461,466.063 217.927,406.599 152.818,395.117 246.648,301.327 372.639,360.078 	"/>
	<path d="M158.461,466.563c-0.071,0-0.144-0.016-0.211-0.047l-52.274-24.315l-86.242-40.215c-0.147-0.069-0.252-0.206-0.281-0.366
		c-0.028-0.161,0.023-0.325,0.139-0.44L380.589,40.184c0.148-0.149,0.374-0.19,0.565-0.1l212.258,98.978
		c0.148,0.069,0.253,0.206,0.281,0.366s-0.023,0.325-0.139,0.44L372.992,360.432c-0.15,0.148-0.375,0.188-0.565,0.1l-125.672-58.604
		l-92.903,92.864l64.163,11.314c0.184,0.032,0.334,0.164,0.39,0.342c0.056,0.178,0.008,0.372-0.124,0.504l-59.466,59.465
		C158.719,466.513,158.591,466.563,158.461,466.563z M20.805,401.382l85.594,39.913l51.956,24.168l58.54-58.539l-64.163-11.314
		c-0.184-0.032-0.334-0.164-0.39-0.342c-0.056-0.178-0.008-0.372,0.124-0.504l93.83-93.79c0.148-0.148,0.374-0.188,0.565-0.1
		l125.672,58.603l219.811-219.81L381.049,41.139L20.805,401.382z"/>
</g>
<g>
	<polygon fill="#FFDA00" points="228.542,192.937 160.379,261.101 372.639,360.078 463.863,268.912 315.174,199.518 
		292.103,222.589 	"/>
	<path d="M372.744,360.679l-0.317-0.147l-212.906-99.279l68.916-68.916l63.561,29.652l23.071-23.071l0.316,0.148l149.337,69.696
		L372.744,360.679z M161.237,260.949l211.295,98.528l90.473-90.414l-147.726-68.945l-23.07,23.071l-63.561-29.652L161.237,260.949z"
		/>
</g>
<g>
	<g>
		<polygon fill="#FFDA00" points="283.884,287.1 283.894,267.722 275,295.576 274.99,314.544 		"/>
		<path d="M274.99,315.044c-0.026,0-0.052-0.002-0.079-0.006c-0.243-0.039-0.422-0.248-0.422-0.494l0.01-18.968
			c0-0.052,0.008-0.103,0.024-0.152l8.895-27.854c0.075-0.235,0.309-0.381,0.553-0.342c0.244,0.038,0.423,0.248,0.423,0.494
			l-0.01,19.378c0,0.053-0.008,0.104-0.024,0.154l-8.895,27.444C275.398,314.907,275.204,315.044,274.99,315.044z M275.5,295.654
			l-0.008,15.72l7.893-24.354l0.008-16.084L275.5,295.654z"/>
	</g>
	<g>
		<polygon fill="#FFDA00" points="283.894,267.722 246.128,250.445 217.38,268.842 274.99,295.706 		"/>
		<path d="M274.99,296.206c-0.072,0-0.145-0.016-0.211-0.047l-57.61-26.864c-0.165-0.077-0.275-0.238-0.288-0.42
			s0.076-0.356,0.229-0.454l28.748-18.397c0.143-0.09,0.323-0.103,0.478-0.033l37.766,17.276c0.23,0.105,0.345,0.366,0.269,0.606
			l-8.904,27.984c-0.043,0.138-0.144,0.249-0.276,0.307C275.126,296.192,275.058,296.206,274.99,296.206z M218.415,268.772
			l56.271,26.24l8.598-27.021l-37.115-16.979L218.415,268.772z"/>
	</g>
</g>
<g>
	<g>
		<polygon fill="#FFDA00" points="19.946,401.534 106.187,441.749 152.818,395.118 45.317,376.163 		"/>
		<path d="M106.293,442.351l-0.317-0.148l-86.888-40.517l26.06-26.06l0.256,0.045l108.447,19.122L106.293,442.351z M20.804,401.383
			l85.277,39.765l45.704-45.704L45.486,376.701L20.804,401.383z"/>
	</g>
</g>
<g>
	<polygon fill="#FFDA00" points="106.187,441.749 158.461,466.064 217.926,406.599 152.818,395.118 	"/>
	<path d="M158.461,466.564c-0.071,0-0.144-0.016-0.211-0.047l-52.274-24.315c-0.148-0.068-0.253-0.205-0.281-0.366
		c-0.029-0.16,0.023-0.325,0.139-0.44l46.631-46.631c0.116-0.115,0.281-0.166,0.44-0.139l65.108,11.48
		c0.184,0.032,0.334,0.164,0.39,0.342c0.056,0.178,0.008,0.372-0.124,0.504l-59.465,59.466
		C158.719,466.514,158.591,466.564,158.461,466.564z M107.046,441.597l51.309,23.867l58.539-58.54l-63.906-11.268L107.046,441.597z"
		/>
</g>
<g>
	<polygon fill="#FFDA00" points="246.621,301.367 160.379,261.101 45.317,376.163 152.817,395.118 	"/>
	<path d="M152.987,395.655l-0.256-0.045L44.285,376.488l0.679-0.679l115.31-115.311l0.317,0.148l86.888,40.568L152.987,395.655z
		 M46.35,375.838l106.298,18.743l93.114-93.062l-85.277-39.816L46.35,375.838z"/>
</g>
<g>
	<polygon fill="#FFDA00" points="317.389,104.091 251.605,169.875 315.175,199.518 380.941,133.75 	"/>
	<path d="M315.281,200.119l-64.535-30.093l66.537-66.537l64.518,30.109L315.281,200.119z M252.463,169.724l62.605,29.193
		l65.016-65.016l-62.589-29.209L252.463,169.724z"/>
</g>
<g>
	<polygon fill="#FFDA00" points="380.942,40.538 317.39,104.09 529.647,203.068 593.201,139.516 	"/>
	<path d="M529.647,203.568c-0.071,0-0.144-0.015-0.211-0.047l-212.259-98.978c-0.147-0.069-0.252-0.206-0.28-0.366
		s0.023-0.325,0.139-0.44l63.553-63.553c0.148-0.149,0.374-0.19,0.565-0.1l212.258,98.978c0.148,0.069,0.253,0.206,0.281,0.366
		s-0.023,0.325-0.139,0.44l-63.554,63.553C529.905,203.518,529.777,203.568,529.647,203.568z M318.248,103.939l211.293,98.528
		l62.802-62.8L381.049,41.139L318.248,103.939z"/>
</g>
<g>
	<polygon fill="#FFDA00" points="392.418,176.727 352.356,216.855 463.864,268.912 503.926,228.791 	"/>
	<path d="M463.971,269.514l-0.318-0.148l-112.154-52.358l40.814-40.881l0.316,0.148l112.154,52.366L463.971,269.514z
		 M353.215,216.704l110.543,51.606l39.311-39.368l-110.545-51.614L353.215,216.704z"/>
</g>
<g>
	<polygon fill="#FFDA00" points="251.605,169.875 228.534,192.946 292.103,222.589 315.175,199.518 	"/>
	<path d="M292.209,223.19l-64.533-30.093l23.823-23.823l64.534,30.092L292.209,223.19z M229.393,192.794l62.604,29.193
		l22.319-22.319l-62.605-29.193L229.393,192.794z"/>
</g>
<g>
	<g>
		<polygon fill="#FFDA00" points="380.942,21.699 45.317,357.325 45.317,376.164 380.942,40.538 		"/>
		<path d="M45.317,376.664c-0.064,0-0.129-0.013-0.191-0.038c-0.187-0.077-0.309-0.26-0.309-0.462v-18.839
			c0-0.133,0.053-0.26,0.146-0.354L380.589,21.346c0.144-0.143,0.358-0.187,0.545-0.108c0.187,0.077,0.309,0.26,0.309,0.462v18.839
			c0,0.133-0.053,0.26-0.146,0.354L45.67,376.518C45.575,376.613,45.447,376.664,45.317,376.664z M45.817,357.532v17.425
			L380.442,40.331V22.906L45.817,357.532z"/>
	</g>
	<g>
		<polygon fill="#FFDA00" points="45.317,357.325 19.946,382.695 19.946,401.534 45.317,376.164 		"/>
		<path d="M19.446,402.741v-20.253l26.371-26.37v20.253L19.446,402.741z M20.446,382.902v17.425l24.371-24.37v-17.425
			L20.446,382.902z"/>
	</g>
</g>
<g>
	<polygon fill="#FFDA00" points="45.317,357.325 19.946,382.695 19.946,401.534 45.317,376.164 	"/>
	<path d="M19.446,402.741v-20.253l26.371-26.37v20.253L19.446,402.741z M20.446,382.902v17.425l24.371-24.37v-17.425L20.446,382.902
		z"/>
</g>
<g>
	<g>
		<polygon fill="#FFDA00" points="380.942,40.537 593.201,139.515 593.201,120.677 380.942,21.699 		"/>
		<path d="M593.201,140.015c-0.072,0-0.145-0.016-0.211-0.047L380.73,40.99c-0.176-0.082-0.288-0.259-0.288-0.453V21.699
			c0-0.171,0.087-0.33,0.231-0.422c0.145-0.091,0.324-0.104,0.48-0.031l212.258,98.978c0.177,0.082,0.289,0.259,0.289,0.453v18.838
			c0,0.171-0.087,0.33-0.231,0.422C593.389,139.989,593.295,140.015,593.201,140.015z M381.442,40.218l211.259,98.512v-17.735
			L381.442,22.483V40.218z"/>
	</g>
</g>
<g>
	<polygon fill="#FFDA00" points="418.385,132.348 399.438,151.296 399.438,170.135 418.385,151.186 	"/>
	<path d="M399.438,170.635c-0.064,0-0.13-0.012-0.191-0.038c-0.188-0.077-0.309-0.26-0.309-0.462v-18.839
		c0-0.133,0.053-0.26,0.146-0.354l18.947-18.948c0.145-0.143,0.359-0.187,0.545-0.108c0.188,0.077,0.309,0.26,0.309,0.462v18.838
		c0,0.133-0.053,0.26-0.146,0.354l-18.947,18.949C399.695,170.584,399.566,170.635,399.438,170.635z M399.938,151.503v17.425
		l17.947-17.949v-17.424L399.938,151.503z"/>
</g>
<g>
	<polygon fill="#FFDA00" points="302.725,327.342 324.994,305.072 324.994,286.233 302.725,308.503 	"/>
	<path d="M302.725,327.842c-0.064,0-0.129-0.013-0.191-0.038c-0.187-0.077-0.309-0.26-0.309-0.462v-18.839
		c0-0.133,0.053-0.26,0.146-0.354l22.27-22.27c0.145-0.144,0.357-0.186,0.545-0.108s0.309,0.26,0.309,0.462v18.839
		c0,0.133-0.053,0.26-0.146,0.354l-22.27,22.27C302.982,327.791,302.855,327.842,302.725,327.842z M303.225,308.71v17.425
		l21.27-21.27V287.44L303.225,308.71z"/>
</g>
<g>
	<polygon fill="#FFDA00" points="45.317,394.526 19.946,382.695 19.946,401.533 45.317,413.364 	"/>
	<path d="M45.317,413.864c-0.072,0-0.144-0.016-0.211-0.047l-25.371-11.831c-0.176-0.082-0.289-0.259-0.289-0.453v-18.838
		c0-0.171,0.087-0.33,0.231-0.422s0.324-0.104,0.48-0.031l25.371,11.831c0.176,0.082,0.289,0.259,0.289,0.453v18.838
		c0,0.171-0.087,0.33-0.231,0.422C45.504,413.838,45.411,413.864,45.317,413.864z M20.446,401.215l24.371,11.364v-17.734
		L20.446,383.48V401.215z"/>
</g>
<g>
	<polygon fill="#FFDA00" points="289.705,321.405 372.639,360.078 372.639,341.24 289.705,302.567 	"/>
	<path d="M372.639,360.578c-0.072,0-0.145-0.016-0.211-0.047l-82.935-38.673c-0.176-0.082-0.289-0.259-0.289-0.453v-18.838
		c0-0.171,0.087-0.33,0.231-0.422c0.144-0.091,0.324-0.103,0.48-0.031l82.934,38.673c0.176,0.082,0.289,0.259,0.289,0.453v18.838
		c0,0.171-0.088,0.33-0.231,0.422C372.826,360.552,372.732,360.578,372.639,360.578z M290.205,321.087l81.934,38.206v-17.734
		l-81.934-38.206V321.087z"/>
</g>
<g>
	<polygon fill="#FFDA00" points="178.71,250.81 160.379,242.262 160.379,261.1 178.71,269.647 	"/>
	<path d="M178.71,270.147c-0.072,0-0.144-0.016-0.211-0.047l-18.331-8.548c-0.176-0.082-0.289-0.259-0.289-0.453v-18.838
		c0-0.171,0.087-0.33,0.231-0.422c0.144-0.091,0.324-0.103,0.48-0.031l18.331,8.548c0.176,0.082,0.289,0.259,0.289,0.453v18.838
		c0,0.171-0.087,0.33-0.231,0.422C178.897,270.121,178.804,270.147,178.71,270.147z M160.879,260.781l17.331,8.081v-17.734
		l-17.331-8.082V260.781z"/>
</g>
<g>
	<polygon fill="#FFDA00" points="196.471,308.59 217.38,287.681 217.38,268.842 196.471,289.751 	"/>
	<path d="M196.471,309.09c-0.064,0-0.129-0.013-0.191-0.038c-0.187-0.077-0.309-0.26-0.309-0.462v-18.839
		c0-0.133,0.053-0.26,0.146-0.354l20.909-20.909c0.144-0.144,0.358-0.186,0.545-0.108c0.187,0.077,0.309,0.26,0.309,0.462v18.839
		c0,0.133-0.053,0.26-0.146,0.354l-20.909,20.909C196.729,309.039,196.601,309.09,196.471,309.09z M196.971,289.958v17.425
		l19.909-19.909v-17.425L196.971,289.958z"/>
</g>
<g>
	<polygon fill="#FFDA00" points="196.472,308.59 225.712,322.225 225.712,303.387 196.472,289.752 	"/>
	<path d="M225.712,322.725c-0.072,0-0.144-0.016-0.211-0.047l-29.24-13.635c-0.176-0.082-0.289-0.259-0.289-0.453v-18.838
		c0-0.171,0.087-0.33,0.231-0.422c0.144-0.092,0.325-0.103,0.48-0.031l29.24,13.635c0.176,0.082,0.289,0.259,0.289,0.453v18.838
		c0,0.171-0.087,0.33-0.231,0.422C225.899,322.698,225.806,322.725,225.712,322.725z M196.972,308.271l28.24,13.168v-17.734
		l-28.24-13.168V308.271z"/>
</g>
<g>
	<polygon fill="#FFDA00" points="152.818,395.118 152.818,376.279 116.687,369.909 116.687,388.747 	"/>
	<path d="M152.818,395.618c-0.029,0-0.058-0.003-0.087-0.008l-36.131-6.371c-0.239-0.042-0.413-0.25-0.413-0.492v-18.838
		c0-0.147,0.065-0.288,0.179-0.383c0.113-0.096,0.263-0.135,0.408-0.109l36.131,6.37c0.239,0.042,0.413,0.25,0.413,0.492v18.839
		c0,0.147-0.065,0.288-0.179,0.383C153.048,395.577,152.935,395.618,152.818,395.618z M117.187,388.327l35.131,6.195v-17.823
		l-35.131-6.194V388.327z"/>
</g>
<g>
	<polygon fill="#FFDA00" points="81.448,363.695 45.317,357.324 45.317,376.162 81.448,382.533 	"/>
	<path d="M81.448,383.033c-0.029,0-0.058-0.003-0.087-0.008l-36.131-6.371c-0.239-0.042-0.413-0.25-0.413-0.492v-18.838
		c0-0.147,0.065-0.288,0.179-0.383c0.113-0.096,0.263-0.135,0.408-0.109l36.131,6.371c0.239,0.042,0.413,0.25,0.413,0.492v18.838
		c0,0.147-0.065,0.288-0.179,0.383C81.678,382.992,81.564,383.033,81.448,383.033z M45.817,375.742l35.131,6.195v-17.822
		l-35.131-6.195V375.742z"/>
</g>
<g>
	<polygon fill="#FFDA00" points="152.818,376.279 134.376,394.721 134.376,413.56 152.818,395.117 	"/>
	<path d="M134.376,414.06c-0.064,0-0.129-0.013-0.191-0.038c-0.187-0.077-0.309-0.26-0.309-0.462v-18.839
		c0-0.133,0.053-0.26,0.146-0.354l18.442-18.441c0.143-0.143,0.358-0.185,0.545-0.108c0.187,0.077,0.309,0.26,0.309,0.462v18.838
		c0,0.133-0.053,0.26-0.146,0.354l-18.442,18.442C134.634,414.009,134.506,414.06,134.376,414.06z M134.876,394.928v17.425
		l17.442-17.442v-17.424L134.876,394.928z"/>
</g>
<g>
	<polygon fill="#FFDA00" points="124.629,404.468 106.187,422.909 106.187,441.748 124.629,423.307 	"/>
	<path d="M106.187,442.248c-0.064,0-0.129-0.013-0.191-0.038c-0.187-0.077-0.309-0.26-0.309-0.462v-18.839
		c0-0.133,0.053-0.26,0.146-0.354l18.442-18.441c0.143-0.144,0.358-0.186,0.545-0.108c0.187,0.077,0.309,0.26,0.309,0.462v18.839
		c0,0.133-0.053,0.26-0.146,0.354l-18.442,18.441C106.445,442.197,106.317,442.248,106.187,442.248z M106.687,423.116v17.425
		l17.442-17.441v-17.425L106.687,423.116z"/>
</g>
<g>
	<polygon fill="#FFDA00" points="158.461,466.064 158.461,447.227 80.557,410.899 80.557,429.737 	"/>
	<path d="M158.461,466.564c-0.072,0-0.144-0.016-0.211-0.047L80.345,430.19c-0.176-0.082-0.289-0.259-0.289-0.453v-18.838
		c0-0.171,0.087-0.33,0.231-0.422c0.144-0.092,0.325-0.104,0.48-0.031l77.904,36.327c0.176,0.082,0.289,0.259,0.289,0.453v18.838
		c0,0.171-0.087,0.33-0.231,0.422C158.648,466.538,158.555,466.564,158.461,466.564z M81.057,429.419l76.904,35.86v-17.734
		l-76.904-35.86V429.419z"/>
</g>
<g>
	<polygon fill="#FFDA00" points="324.909,305.159 394.914,337.803 394.914,318.965 324.909,286.321 	"/>
	<path d="M394.914,338.303c-0.072,0-0.145-0.016-0.211-0.047l-70.006-32.644c-0.176-0.082-0.288-0.259-0.288-0.453v-18.838
		c0-0.171,0.087-0.33,0.231-0.422c0.145-0.091,0.324-0.104,0.48-0.031l70.004,32.644c0.176,0.082,0.289,0.259,0.289,0.453v18.838
		c0,0.171-0.088,0.33-0.231,0.422C395.102,338.276,395.008,338.303,394.914,338.303z M325.409,304.841l69.005,32.177v-17.734
		l-69.005-32.177V304.841z"/>
</g>
<g>
	<polygon fill="#FFDA00" points="352.115,277.951 374.386,255.682 374.386,236.843 352.115,259.113 	"/>
	<path d="M352.115,278.451c-0.064,0-0.129-0.013-0.191-0.038c-0.187-0.077-0.309-0.26-0.309-0.462v-18.838
		c0-0.133,0.053-0.26,0.146-0.354l22.271-22.271c0.143-0.143,0.358-0.187,0.545-0.108c0.187,0.077,0.309,0.26,0.309,0.462v18.839
		c0,0.133-0.053,0.26-0.146,0.354l-22.271,22.27C352.373,278.4,352.246,278.451,352.115,278.451z M352.615,259.32v17.424
		l21.271-21.27V238.05L352.615,259.32z"/>
</g>
<g>
	<polygon fill="#FFDA00" points="374.3,255.768 444.305,288.412 444.305,269.574 374.3,236.93 	"/>
	<path d="M444.305,288.912c-0.071,0-0.144-0.016-0.211-0.047l-70.006-32.645c-0.176-0.082-0.288-0.259-0.288-0.453V236.93
		c0-0.171,0.087-0.33,0.231-0.422c0.144-0.092,0.324-0.103,0.48-0.031l70.005,32.645c0.176,0.082,0.288,0.259,0.288,0.453v18.838
		c0,0.171-0.087,0.33-0.23,0.422C444.492,288.886,444.398,288.912,444.305,288.912z M374.8,255.449l69.005,32.178v-17.734
		L374.8,237.714V255.449z"/>
</g>
<g>
	<polygon fill="#FFDA00" points="352.116,278.087 422.029,310.688 422.029,291.851 352.116,259.249 	"/>
	<path d="M422.029,311.188c-0.071,0-0.144-0.016-0.211-0.047l-69.914-32.602c-0.176-0.082-0.288-0.259-0.288-0.453v-18.838
		c0-0.171,0.087-0.33,0.231-0.422c0.145-0.091,0.324-0.104,0.48-0.031l69.913,32.602c0.176,0.082,0.288,0.259,0.288,0.453v18.838
		c0,0.171-0.087,0.33-0.23,0.422C422.217,311.162,422.123,311.188,422.029,311.188z M352.616,277.769l68.913,32.135v-17.734
		l-68.913-32.135V277.769z"/>
</g>
<g>
	
		<rect x="261.98" y="320.652" transform="matrix(0.6933 0.7206 -0.7206 0.6933 325.6652 -85.2423)" fill="#1D1D1B" width="2" height="38.671"/>
</g>
<g>
	<polygon points="276.726,332.456 276.066,327.735 268.901,328.926 268.573,326.953 277.763,325.427 278.706,332.179 	"/>
</g>
<g>
	<polygon fill="#FFDA00" points="217.38,287.68 246.62,301.314 246.62,282.477 217.38,268.842 	"/>
	<path d="M246.62,301.814c-0.072,0-0.144-0.016-0.211-0.047l-29.24-13.635c-0.176-0.082-0.289-0.259-0.289-0.453v-18.838
		c0-0.171,0.087-0.33,0.231-0.422c0.144-0.092,0.325-0.104,0.48-0.031l29.24,13.635c0.176,0.082,0.289,0.259,0.289,0.453v18.838
		c0,0.171-0.087,0.33-0.231,0.422C246.807,301.788,246.714,301.814,246.62,301.814z M217.88,287.361l28.24,13.168v-17.734
		l-28.24-13.168V287.361z"/>
</g>
<g>
	<polygon fill="#FFDA00" points="246.621,301.314 152.818,395.117 152.818,376.279 246.621,282.477 	"/>
	<path d="M152.818,395.617c-0.064,0-0.129-0.013-0.191-0.038c-0.187-0.077-0.309-0.26-0.309-0.462v-18.838
		c0-0.133,0.053-0.26,0.146-0.354l93.803-93.803c0.143-0.144,0.358-0.186,0.545-0.108c0.187,0.077,0.309,0.26,0.309,0.462v18.838
		c0,0.133-0.053,0.26-0.146,0.354l-93.803,93.803C153.076,395.566,152.948,395.617,152.818,395.617z M153.318,376.486v17.424
		l92.803-92.803v-17.424L153.318,376.486z"/>
</g>
<g>
	<polygon fill="#FFDA00" points="152.817,395.118 217.926,406.599 217.926,387.761 152.817,376.28 	"/>
	<path fill="#1D1D1B" d="M217.926,407.099c-0.029,0-0.058-0.003-0.087-0.008l-65.109-11.48c-0.239-0.042-0.413-0.25-0.413-0.492
		V376.28c0-0.147,0.065-0.288,0.179-0.383s0.263-0.136,0.408-0.109l65.109,11.48c0.239,0.042,0.413,0.25,0.413,0.492v18.838
		c0,0.147-0.065,0.288-0.179,0.383C218.157,407.058,218.043,407.099,217.926,407.099z M153.317,394.698l64.109,11.305v-17.822
		l-64.109-11.305V394.698z"/>
</g>
<g>
	<polygon fill="#FFDA00" points="158.46,466.064 217.926,406.599 217.926,387.76 158.46,447.226 	"/>
	<path fill="#1D1D1B" d="M158.46,466.564c-0.064,0-0.129-0.013-0.191-0.038c-0.187-0.077-0.309-0.26-0.309-0.462v-18.839
		c0-0.133,0.053-0.26,0.146-0.354l59.466-59.466c0.143-0.143,0.358-0.185,0.545-0.108c0.187,0.077,0.309,0.26,0.309,0.462v18.839
		c0,0.133-0.053,0.26-0.146,0.354l-59.466,59.466C158.718,466.514,158.59,466.564,158.46,466.564z M158.96,447.433v17.425
		l58.466-58.466v-17.425L158.96,447.433z"/>
</g>
<g>
	<polygon fill="#FFDA00" points="246.62,301.314 274.99,314.544 274.99,295.706 246.62,282.477 	"/>
	<path d="M274.99,315.044c-0.072,0-0.144-0.016-0.211-0.047l-28.37-13.229c-0.176-0.082-0.289-0.259-0.289-0.453v-18.838
		c0-0.171,0.087-0.33,0.231-0.422c0.144-0.091,0.324-0.103,0.48-0.031l28.37,13.229c0.176,0.082,0.289,0.259,0.289,0.453v18.838
		c0,0.171-0.087,0.33-0.231,0.422C275.177,315.018,275.084,315.044,274.99,315.044z M247.12,300.996l27.37,12.763v-17.734
		l-27.37-12.763V300.996z"/>
</g>
<g>
	<rect x="163.046" y="181.697" fill="#1D1D1B" width="2" height="38.531"/>
</g>
<g>
	<polygon fill="#1D1D1B" points="160.055,187.459 158.59,186.097 164.047,180.228 169.502,186.097 168.038,187.458 164.047,183.166 
			"/>
</g>
<g>
	<polygon fill="#FFDA00" points="418.385,151.186 503.926,191.074 503.926,172.236 418.385,132.348 	"/>
	<path d="M503.926,191.574c-0.072,0-0.145-0.016-0.211-0.047l-85.541-39.889c-0.176-0.082-0.289-0.259-0.289-0.453v-18.838
		c0-0.171,0.088-0.33,0.231-0.422c0.144-0.091,0.324-0.104,0.479-0.031l85.541,39.888c0.177,0.082,0.289,0.259,0.289,0.453v18.838
		c0,0.171-0.087,0.33-0.231,0.422C504.113,191.548,504.02,191.574,503.926,191.574z M418.885,150.867l84.541,39.422v-17.735
		l-84.541-39.422V150.867z"/>
</g>
<g>
	<polygon fill="#FFDA00" points="392.418,176.793 503.927,228.79 503.927,209.952 392.418,157.955 	"/>
	<path d="M503.927,229.29c-0.072,0-0.145-0.016-0.211-0.047l-111.509-51.997c-0.176-0.082-0.289-0.259-0.289-0.453v-18.838
		c0-0.171,0.088-0.33,0.231-0.422c0.144-0.091,0.325-0.103,0.479-0.031l111.509,51.997c0.177,0.082,0.289,0.259,0.289,0.453v18.838
		c0,0.171-0.087,0.33-0.231,0.422C504.114,229.264,504.021,229.29,503.927,229.29z M392.918,176.475l110.509,51.531v-17.735
		L392.918,158.74V176.475z"/>
</g>
<g>
	<polygon fill="#FFDA00" points="317.389,104.091 380.942,133.726 380.942,114.888 317.389,85.253 	"/>
	<path d="M380.942,134.226c-0.071,0-0.144-0.016-0.212-0.047l-63.553-29.635c-0.176-0.082-0.289-0.259-0.289-0.453V85.253
		c0-0.171,0.088-0.33,0.232-0.422c0.144-0.092,0.324-0.104,0.479-0.031l63.554,29.635c0.176,0.082,0.288,0.259,0.288,0.453v18.838
		c0,0.171-0.087,0.33-0.231,0.422C381.129,134.2,381.036,134.226,380.942,134.226z M317.889,103.772l62.554,29.169v-17.735
		l-62.554-29.169V103.772z"/>
</g>
<g>
	<polygon fill="#FFDA00" points="380.942,114.912 349.166,146.688 349.166,165.527 380.942,133.75 	"/>
	<path d="M349.166,166.027c-0.064,0-0.129-0.012-0.191-0.038c-0.188-0.077-0.309-0.26-0.309-0.462v-18.838
		c0-0.133,0.053-0.26,0.146-0.354l31.776-31.777c0.144-0.143,0.358-0.187,0.545-0.108c0.187,0.077,0.309,0.26,0.309,0.462v18.839
		c0,0.133-0.053,0.26-0.146,0.354L349.52,165.88C349.424,165.976,349.296,166.027,349.166,166.027z M349.666,146.896v17.424
		l30.776-30.776v-17.425L349.666,146.896z"/>
</g>
<g>
	<polygon fill="#FFDA00" points="228.534,192.946 292.104,222.589 292.104,203.751 228.534,174.108 	"/>
	<path d="M292.104,223.089c-0.072,0-0.144-0.016-0.211-0.047l-63.569-29.643c-0.176-0.082-0.289-0.259-0.289-0.453v-18.838
		c0-0.171,0.087-0.33,0.231-0.422c0.144-0.091,0.325-0.104,0.48-0.031l63.569,29.643c0.176,0.082,0.289,0.259,0.289,0.453v18.838
		c0,0.171-0.087,0.33-0.231,0.422C292.291,223.062,292.197,223.089,292.104,223.089z M229.034,192.627l62.569,29.177v-17.735
		l-62.569-29.177V192.627z"/>
</g>
<g>
	<polygon fill="#FFDA00" points="352.355,216.922 463.864,268.919 463.864,250.08 352.355,198.083 	"/>
	<path d="M463.864,269.419c-0.072,0-0.145-0.016-0.211-0.047l-111.509-51.997c-0.176-0.082-0.289-0.259-0.289-0.453v-18.838
		c0-0.171,0.088-0.33,0.231-0.422c0.144-0.091,0.325-0.103,0.479-0.031l111.509,51.997c0.177,0.082,0.289,0.259,0.289,0.453v18.839
		c0,0.171-0.087,0.33-0.231,0.422C464.052,269.393,463.958,269.419,463.864,269.419z M352.855,216.604l110.509,51.53v-17.735
		l-110.509-51.53V216.604z"/>
</g>
<g>
	<polygon fill="#FFDA00" points="372.639,360.078 593.201,139.515 593.201,120.677 372.639,341.239 	"/>
	<path d="M372.639,360.578c-0.064,0-0.13-0.013-0.191-0.038c-0.188-0.077-0.309-0.26-0.309-0.462v-18.839
		c0-0.133,0.053-0.26,0.146-0.354l220.562-220.562c0.143-0.144,0.359-0.187,0.545-0.108c0.187,0.077,0.309,0.26,0.309,0.462v18.838
		c0,0.133-0.053,0.26-0.146,0.354L372.992,360.432C372.896,360.527,372.768,360.578,372.639,360.578z M373.139,341.446v17.425
		l219.562-219.563v-17.424L373.139,341.446z"/>
</g>
<g>
	<polygon fill="#FFDA00" points="329.617,166.238 315.175,180.68 315.175,199.519 329.617,185.076 	"/>
	<path d="M315.175,200.019c-0.064,0-0.13-0.012-0.191-0.038c-0.187-0.077-0.309-0.26-0.309-0.462V180.68
		c0-0.133,0.053-0.26,0.146-0.354l14.442-14.442c0.143-0.144,0.357-0.186,0.545-0.108c0.187,0.077,0.309,0.26,0.309,0.462v18.838
		c0,0.133-0.053,0.26-0.146,0.354l-14.442,14.442C315.433,199.968,315.305,200.019,315.175,200.019z M315.675,180.887v17.425
		l13.442-13.442v-17.424L315.675,180.887z"/>
</g>
<g>
	<polygon fill="#FFDA00" points="251.605,169.875 315.174,199.518 315.174,180.679 251.605,151.037 	"/>
	<path d="M315.174,200.018c-0.071,0-0.144-0.016-0.211-0.047l-63.569-29.643c-0.176-0.082-0.289-0.259-0.289-0.453v-18.838
		c0-0.171,0.087-0.33,0.231-0.422s0.325-0.103,0.48-0.031l63.569,29.643c0.176,0.082,0.288,0.259,0.288,0.453v18.838
		c0,0.171-0.087,0.33-0.23,0.422C315.361,199.991,315.268,200.018,315.174,200.018z M252.105,169.556l62.569,29.177v-17.735
		l-62.569-29.176V169.556z"/>
</g>
<g>
	<g>
		<polygon fill="#FFDA00" points="207.238,202.242 194.39,196.251 180.841,240.859 193.1,246.576 		"/>
		<path d="M193.1,247.076c-0.072,0-0.145-0.016-0.211-0.047l-12.259-5.717c-0.226-0.105-0.339-0.36-0.267-0.599l13.549-44.608
			c0.042-0.139,0.143-0.252,0.275-0.311c0.133-0.059,0.285-0.057,0.415,0.003l12.848,5.991c0.228,0.106,0.341,0.365,0.265,0.605
			l-14.138,44.334c-0.044,0.137-0.145,0.249-0.276,0.306C193.237,247.062,193.168,247.076,193.1,247.076z M181.445,240.589
			l11.351,5.293l13.832-43.374l-11.927-5.561L181.445,240.589z"/>
	</g>
	<g>
		<line fill="#FFDA00" x1="187.571" y1="218.738" x2="200.132" y2="224.595"/>
		<rect x="186.922" y="221.166" transform="matrix(0.9063 0.4226 -0.4226 0.9063 111.8267 -61.152)" width="13.859" height="1"/>
	</g>
	<g>
		<line fill="#FFDA00" x1="189.571" y1="213.156" x2="202.132" y2="219.014"/>
		<rect x="188.922" y="215.585" transform="matrix(0.9063 0.4226 -0.4226 0.9063 109.6733 -62.5255)" width="13.86" height="1"/>
	</g>
	<g>
		<line fill="#FFDA00" x1="190.571" y1="207.574" x2="203.132" y2="213.432"/>
		<rect x="189.922" y="210.003" transform="matrix(0.9063 0.4226 -0.4226 0.9063 107.4079 -63.4711)" width="13.86" height="1"/>
	</g>
	<g>
		<line fill="#FFDA00" x1="192.571" y1="201.993" x2="205.132" y2="207.85"/>
		<rect x="191.922" y="204.421" transform="matrix(0.9063 0.4226 -0.4226 0.9063 105.2277 -64.8364)" width="13.859" height="1"/>
	</g>
	<g>
		<line fill="#FFDA00" x1="185.786" y1="224.32" x2="198.347" y2="230.177"/>
		<rect x="185.137" y="226.749" transform="matrix(0.9063 0.4226 -0.4226 0.9063 114.0183 -59.8748)" width="13.859" height="1"/>
	</g>
	<g>
		<line fill="#FFDA00" x1="183.828" y1="229.796" x2="196.84" y2="235.864"/>
		<rect x="183.155" y="232.33" transform="matrix(0.9063 0.4227 -0.4227 0.9063 116.2475 -58.6284)" width="14.357" height="1"/>
	</g>
	<g>
		<line fill="#FFDA00" x1="182.057" y1="235.378" x2="195.069" y2="241.445"/>
		<rect x="181.385" y="237.912" transform="matrix(0.9063 0.4226 -0.4226 0.9063 118.4182 -57.3516)" width="14.357" height="1"/>
	</g>
</g>
<g>
	<g>
		
			<rect x="359.149" y="154.024" transform="matrix(-0.9063 -0.4227 0.4227 -0.9063 619.7401 479.3484)" fill="#FFDA00" width="7.744" height="33.865"/>
		<path d="M359.373,188.44c-0.072,0-0.145-0.016-0.211-0.047l-7.018-3.273c-0.25-0.117-0.359-0.414-0.242-0.665l14.312-30.692
			c0.056-0.12,0.157-0.213,0.281-0.258c0.124-0.046,0.262-0.04,0.383,0.017l7.018,3.273c0.25,0.117,0.359,0.414,0.242,0.665
			l-14.312,30.692c-0.056,0.12-0.157,0.213-0.281,0.258C359.489,188.43,359.432,188.44,359.373,188.44z M353.02,184.425l6.112,2.851
			l13.89-29.786l-6.112-2.85L353.02,184.425z"/>
	</g>
	<g>
		<polygon fill="#FFDA00" points="352.355,184.667 359.374,187.94 359.374,201.291 352.355,198.018 		"/>
		<path d="M359.374,201.791c-0.071,0-0.144-0.016-0.212-0.047l-7.018-3.273c-0.176-0.082-0.289-0.259-0.289-0.453v-13.351
			c0-0.171,0.088-0.33,0.231-0.422c0.144-0.091,0.325-0.103,0.479-0.031l7.02,3.273c0.176,0.082,0.288,0.259,0.288,0.453v13.351
			c0,0.171-0.087,0.33-0.231,0.422C359.561,201.765,359.468,201.791,359.374,201.791z M352.855,197.7l6.019,2.807v-12.248
			l-6.019-2.807V197.7z"/>
	</g>
	<g>
		<polygon fill="#FFDA00" points="392.418,144.604 399.437,147.876 399.437,161.228 392.418,157.955 		"/>
		<path d="M399.437,161.728c-0.071,0-0.144-0.016-0.212-0.047l-7.018-3.273c-0.176-0.082-0.289-0.259-0.289-0.453v-13.351
			c0-0.171,0.088-0.33,0.231-0.422s0.325-0.103,0.479-0.031l7.02,3.273c0.176,0.082,0.288,0.259,0.288,0.453v13.351
			c0,0.171-0.087,0.33-0.231,0.422C399.623,161.701,399.53,161.728,399.437,161.728z M392.918,157.636l6.019,2.807v-12.248
			l-6.019-2.807V157.636z"/>
	</g>
	<g>
		<g>
			<polygon fill="#FFDA00" points="366.668,153.975 373.686,157.247 399.434,147.876 392.416,144.604 			"/>
			<path d="M373.686,157.747c-0.072,0-0.145-0.016-0.212-0.047l-7.018-3.272c-0.183-0.085-0.297-0.273-0.288-0.475
				c0.009-0.202,0.139-0.379,0.328-0.448l25.75-9.371c0.124-0.045,0.261-0.04,0.382,0.017l7.018,3.272
				c0.183,0.085,0.297,0.273,0.288,0.475c-0.009,0.202-0.139,0.379-0.328,0.448l-25.75,9.371
				C373.801,157.736,373.742,157.747,373.686,157.747z M367.973,154.032l5.736,2.674l24.42-8.887l-5.736-2.675L367.973,154.032z"/>
		</g>
	</g>
	<g>
		
			<rect x="373.186" y="160.57" transform="matrix(-0.9063 -0.4227 0.4227 -0.9063 643.7495 497.7449)" fill="#FFDA00" width="7.743" height="33.865"/>
		<path d="M373.41,194.985c-0.072,0-0.145-0.016-0.211-0.047l-7.018-3.273c-0.25-0.117-0.359-0.414-0.242-0.665l14.312-30.692
			c0.056-0.12,0.157-0.213,0.281-0.258s0.262-0.04,0.383,0.017l7.018,3.273c0.25,0.117,0.359,0.414,0.242,0.665l-14.312,30.692
			c-0.056,0.12-0.157,0.213-0.281,0.258C373.526,194.975,373.469,194.985,373.41,194.985z M367.057,190.971l6.112,2.85l13.89-29.786
			l-6.112-2.85L367.057,190.971z"/>
	</g>
	<g>
		<polygon fill="#FFDA00" points="366.393,191.211 373.412,194.484 373.412,207.835 366.393,204.562 		"/>
		<path d="M373.412,208.335c-0.072,0-0.145-0.016-0.212-0.047l-7.019-3.273c-0.176-0.082-0.289-0.259-0.289-0.453v-13.351
			c0-0.171,0.088-0.33,0.231-0.422s0.325-0.103,0.479-0.031l7.02,3.273c0.176,0.082,0.289,0.259,0.289,0.453v13.351
			c0,0.171-0.088,0.33-0.232,0.422C373.599,208.309,373.506,208.335,373.412,208.335z M366.893,204.244l6.02,2.807v-12.248
			l-6.02-2.807V204.244z"/>
	</g>
	<g>
		<polygon fill="#FFDA00" points="406.455,151.15 413.473,154.423 413.473,167.773 406.455,164.501 		"/>
		<path d="M413.473,168.273c-0.071,0-0.144-0.016-0.211-0.047l-7.019-3.272c-0.176-0.082-0.288-0.259-0.288-0.453V151.15
			c0-0.171,0.087-0.33,0.23-0.422c0.145-0.091,0.324-0.104,0.48-0.031l7.019,3.273c0.176,0.082,0.288,0.259,0.288,0.453v13.351
			c0,0.171-0.087,0.33-0.23,0.422C413.66,168.247,413.566,168.273,413.473,168.273z M406.955,164.183l6.018,2.806v-12.248
			l-6.018-2.807V164.183z"/>
	</g>
	<g>
		<g>
			<polygon fill="#FFDA00" points="380.705,160.52 387.723,163.792 413.471,154.421 406.453,151.149 			"/>
			<path d="M387.723,164.292c-0.072,0-0.145-0.016-0.212-0.047l-7.018-3.272c-0.183-0.085-0.297-0.273-0.288-0.475
				c0.009-0.202,0.139-0.379,0.328-0.448l25.75-9.371c0.123-0.045,0.262-0.04,0.382,0.017l7.018,3.272
				c0.183,0.085,0.297,0.273,0.288,0.475c-0.009,0.202-0.139,0.379-0.328,0.448l-25.75,9.371
				C387.838,164.282,387.779,164.292,387.723,164.292z M382.01,160.577l5.736,2.674l24.42-8.887l-5.736-2.674L382.01,160.577z"/>
		</g>
	</g>
	<g>
		
			<rect x="387.223" y="167.116" transform="matrix(-0.9063 -0.4227 0.4227 -0.9063 667.7415 516.1559)" fill="#FFDA00" width="7.743" height="33.865"/>
		<path d="M387.447,201.531c-0.072,0-0.145-0.016-0.211-0.047l-7.018-3.273c-0.25-0.117-0.359-0.414-0.242-0.665l14.312-30.692
			c0.056-0.12,0.157-0.213,0.281-0.258c0.125-0.046,0.262-0.041,0.383,0.017l7.018,3.273c0.25,0.117,0.359,0.414,0.242,0.665
			L387.9,201.242c-0.056,0.12-0.157,0.213-0.281,0.258C387.563,201.521,387.506,201.531,387.447,201.531z M381.094,197.516
			l6.112,2.85l13.89-29.786l-6.112-2.85L381.094,197.516z"/>
	</g>
	<g>
		<polygon fill="#FFDA00" points="380.43,197.758 387.448,201.031 387.448,214.382 380.43,211.109 		"/>
		<path d="M387.448,214.882c-0.071,0-0.144-0.016-0.212-0.047l-7.018-3.273c-0.176-0.082-0.289-0.259-0.289-0.453v-13.351
			c0-0.171,0.088-0.33,0.231-0.422s0.325-0.103,0.479-0.031l7.02,3.272c0.176,0.082,0.288,0.259,0.288,0.453v13.351
			c0,0.171-0.087,0.33-0.231,0.422C387.635,214.855,387.542,214.882,387.448,214.882z M380.93,210.791l6.019,2.807v-12.248
			l-6.019-2.806V210.791z"/>
	</g>
	<g>
		<polygon fill="#FFDA00" points="420.491,157.695 427.511,160.968 427.511,174.319 420.491,171.046 		"/>
		<path d="M427.511,174.819c-0.071,0-0.144-0.016-0.212-0.047l-7.02-3.273c-0.176-0.082-0.288-0.259-0.288-0.453v-13.351
			c0-0.171,0.087-0.33,0.231-0.422c0.144-0.092,0.324-0.103,0.48-0.031l7.02,3.273c0.176,0.082,0.288,0.259,0.288,0.453v13.351
			c0,0.171-0.087,0.33-0.231,0.422C427.697,174.793,427.604,174.819,427.511,174.819z M420.991,170.728l6.02,2.807v-12.248
			l-6.02-2.807V170.728z"/>
	</g>
	<g>
		<g>
			<polygon fill="#FFDA00" points="394.741,167.065 401.759,170.338 427.508,160.967 420.49,157.695 			"/>
			<path d="M401.759,170.838c-0.072,0-0.145-0.016-0.212-0.047l-7.018-3.272c-0.183-0.085-0.297-0.273-0.287-0.475
				c0.008-0.202,0.139-0.379,0.328-0.448l25.749-9.371c0.124-0.046,0.261-0.04,0.382,0.017l7.018,3.272
				c0.184,0.085,0.297,0.273,0.289,0.475c-0.01,0.202-0.139,0.379-0.329,0.448l-25.749,9.371
				C401.875,170.828,401.816,170.838,401.759,170.838z M396.047,167.123l5.735,2.675l24.42-8.888l-5.735-2.674L396.047,167.123z"/>
		</g>
	</g>
	<g>
		
			<rect x="401.26" y="173.694" transform="matrix(-0.9063 -0.4227 0.4227 -0.9063 691.7194 534.6299)" fill="#FFDA00" width="7.743" height="33.865"/>
		<path d="M401.484,208.109c-0.072,0-0.145-0.016-0.211-0.047l-7.019-3.273c-0.25-0.117-0.358-0.414-0.241-0.665l14.312-30.692
			c0.056-0.12,0.157-0.213,0.282-0.258c0.123-0.045,0.262-0.041,0.383,0.017l7.018,3.273c0.25,0.117,0.358,0.414,0.242,0.665
			l-14.312,30.692c-0.057,0.12-0.158,0.213-0.282,0.258C401.6,208.099,401.542,208.109,401.484,208.109z M395.131,204.095
			l6.111,2.85l13.89-29.786l-6.112-2.85L395.131,204.095z"/>
	</g>
	<g>
		<polygon fill="#FFDA00" points="394.467,204.335 401.484,207.608 401.484,220.959 394.467,217.686 		"/>
		<path d="M401.484,221.459c-0.072,0-0.145-0.016-0.211-0.047l-7.019-3.273c-0.176-0.082-0.288-0.259-0.288-0.453v-13.35
			c0-0.171,0.087-0.33,0.23-0.422c0.145-0.091,0.325-0.103,0.48-0.031l7.018,3.272c0.176,0.082,0.289,0.259,0.289,0.453v13.351
			c0,0.171-0.088,0.33-0.231,0.422C401.672,221.433,401.578,221.459,401.484,221.459z M394.967,217.367l6.018,2.807v-12.248
			l-6.018-2.806V217.367z"/>
	</g>
	<g>
		<polygon fill="#FFDA00" points="434.528,164.274 441.548,167.547 441.548,180.898 434.528,177.625 		"/>
		<path d="M441.548,181.398c-0.071,0-0.144-0.016-0.212-0.047l-7.02-3.273c-0.176-0.082-0.288-0.259-0.288-0.453v-13.351
			c0-0.171,0.087-0.33,0.231-0.422c0.145-0.091,0.324-0.104,0.48-0.031l7.02,3.273c0.176,0.082,0.288,0.259,0.288,0.453v13.351
			c0,0.171-0.087,0.33-0.231,0.422C441.734,181.372,441.642,181.398,441.548,181.398z M435.028,177.307l6.02,2.807v-12.248
			l-6.02-2.807V177.307z"/>
	</g>
	<g>
		<g>
			<polygon fill="#FFDA00" points="408.778,173.644 415.796,176.917 441.545,167.546 434.527,164.273 			"/>
			<path d="M415.796,177.417c-0.072,0-0.145-0.016-0.212-0.047l-7.018-3.272c-0.183-0.085-0.297-0.273-0.287-0.475
				c0.008-0.202,0.139-0.379,0.328-0.448l25.749-9.371c0.124-0.046,0.263-0.041,0.382,0.017l7.018,3.272
				c0.184,0.085,0.297,0.273,0.289,0.475c-0.01,0.202-0.139,0.379-0.329,0.448l-25.749,9.371
				C415.912,177.406,415.854,177.417,415.796,177.417z M410.084,173.701l5.735,2.675l24.421-8.887l-5.736-2.675L410.084,173.701z"/>
		</g>
	</g>
	<g>
		
			<rect x="415.297" y="180.24" transform="matrix(-0.9063 -0.4226 0.4226 -0.9063 715.7318 553.0235)" fill="#FFDA00" width="7.743" height="33.865"/>
		<path d="M415.521,214.654c-0.071,0-0.143-0.015-0.211-0.047l-7.019-3.272c-0.12-0.056-0.213-0.158-0.259-0.282
			c-0.045-0.125-0.039-0.262,0.018-0.382l14.312-30.692c0.056-0.12,0.157-0.213,0.282-0.258c0.123-0.046,0.262-0.04,0.383,0.017
			l7.018,3.273c0.25,0.117,0.358,0.414,0.242,0.665l-14.312,30.691C415.89,214.547,415.709,214.654,415.521,214.654z
			 M409.168,210.64l6.111,2.85l13.89-29.785l-6.112-2.85L409.168,210.64z"/>
	</g>
	<g>
		<polygon fill="#FFDA00" points="408.503,210.882 415.522,214.155 415.522,227.506 408.503,224.232 		"/>
		<path d="M415.522,228.006c-0.071,0-0.144-0.016-0.212-0.047l-7.02-3.273c-0.176-0.082-0.288-0.259-0.288-0.453v-13.35
			c0-0.171,0.087-0.33,0.231-0.422c0.145-0.091,0.325-0.103,0.48-0.031l7.02,3.273c0.176,0.082,0.288,0.259,0.288,0.453v13.351
			c0,0.171-0.087,0.33-0.231,0.422C415.709,227.979,415.616,228.006,415.522,228.006z M409.003,223.914l6.02,2.807v-12.248
			l-6.02-2.807V223.914z"/>
	</g>
	<g>
		<polygon fill="#FFDA00" points="448.566,170.819 455.585,174.092 455.585,187.443 448.566,184.17 		"/>
		<path d="M455.585,187.943c-0.072,0-0.145-0.016-0.211-0.047l-7.019-3.273c-0.177-0.082-0.289-0.259-0.289-0.453v-13.351
			c0-0.171,0.087-0.33,0.231-0.422c0.144-0.092,0.327-0.103,0.479-0.031l7.019,3.273c0.177,0.082,0.289,0.259,0.289,0.453v13.351
			c0,0.171-0.087,0.33-0.231,0.422C455.772,187.917,455.679,187.943,455.585,187.943z M449.066,183.852l6.019,2.807V174.41
			l-6.019-2.807V183.852z"/>
	</g>
	<g>
		<g>
			<polygon fill="#FFDA00" points="422.815,180.189 429.832,183.462 455.582,174.091 448.564,170.819 			"/>
			<path d="M429.832,183.962c-0.072,0-0.145-0.016-0.211-0.047l-7.018-3.272c-0.183-0.085-0.297-0.273-0.287-0.475
				c0.008-0.202,0.139-0.379,0.328-0.448l25.749-9.371c0.125-0.045,0.262-0.04,0.382,0.017l7.018,3.272
				c0.184,0.085,0.298,0.273,0.289,0.475c-0.01,0.202-0.139,0.379-0.329,0.448l-25.749,9.371
				C429.948,183.952,429.891,183.962,429.832,183.962z M424.121,180.247l5.734,2.675l24.421-8.887l-5.735-2.675L424.121,180.247z"/>
		</g>
	</g>
	<g>
		
			<rect x="429.333" y="186.786" transform="matrix(-0.9063 -0.4226 0.4226 -0.9063 739.7421 571.4172)" fill="#FFDA00" width="7.744" height="33.865"/>
		<path d="M429.558,221.2c-0.071,0-0.143-0.015-0.211-0.047l-7.019-3.272c-0.119-0.056-0.213-0.158-0.258-0.282
			s-0.039-0.262,0.017-0.382l14.312-30.692c0.056-0.12,0.157-0.213,0.282-0.258c0.123-0.045,0.262-0.04,0.383,0.017l7.018,3.273
			c0.25,0.117,0.357,0.414,0.241,0.665l-14.312,30.692C429.926,221.093,429.746,221.2,429.558,221.2z M423.205,217.186l6.111,2.85
			l13.889-29.786l-6.111-2.85L423.205,217.186z"/>
	</g>
	<g>
		<polygon fill="#FFDA00" points="422.541,217.428 429.559,220.701 429.559,234.052 422.541,230.779 		"/>
		<path d="M429.559,234.552c-0.071,0-0.144-0.016-0.211-0.047l-7.019-3.272c-0.176-0.082-0.288-0.259-0.288-0.453v-13.352
			c0-0.171,0.087-0.33,0.23-0.422c0.145-0.091,0.325-0.103,0.48-0.031l7.019,3.273c0.176,0.082,0.288,0.259,0.288,0.453v13.351
			c0,0.171-0.087,0.33-0.23,0.422C429.746,234.525,429.652,234.552,429.559,234.552z M423.041,230.461l6.018,2.806V221.02
			l-6.018-2.807V230.461z"/>
	</g>
	<g>
		<polygon fill="#FFDA00" points="462.602,177.364 469.621,180.637 469.621,193.989 462.602,190.716 		"/>
		<path d="M469.621,194.489c-0.072,0-0.145-0.016-0.211-0.047l-7.02-3.273c-0.177-0.082-0.289-0.259-0.289-0.453v-13.352
			c0-0.171,0.087-0.33,0.231-0.422s0.327-0.103,0.479-0.031l7.02,3.273c0.177,0.082,0.289,0.259,0.289,0.453v13.352
			c0,0.171-0.087,0.33-0.231,0.422C469.809,194.463,469.715,194.489,469.621,194.489z M463.102,190.397l6.02,2.807v-12.249
			l-6.02-2.807V190.397z"/>
	</g>
	<g>
		<g>
			<polygon fill="#FFDA00" points="436.853,186.735 443.869,190.007 469.618,180.637 462.602,177.365 			"/>
			<path d="M443.869,190.507c-0.072,0-0.145-0.016-0.211-0.047l-7.018-3.272c-0.183-0.085-0.297-0.273-0.287-0.475
				c0.008-0.202,0.139-0.379,0.328-0.448l25.749-9.371c0.124-0.045,0.262-0.04,0.382,0.017l7.017,3.272
				c0.184,0.085,0.298,0.273,0.289,0.475c-0.01,0.202-0.139,0.379-0.329,0.448l-25.748,9.371
				C443.985,190.497,443.928,190.507,443.869,190.507z M438.158,186.792l5.734,2.674l24.42-8.887l-5.734-2.674L438.158,186.792z"/>
		</g>
	</g>
	<g>
		
			<rect x="443.37" y="193.364" transform="matrix(-0.9063 -0.4227 0.4227 -0.9063 763.6781 589.9258)" fill="#FFDA00" width="7.744" height="33.865"/>
		<path d="M443.596,227.779c-0.072,0-0.145-0.016-0.212-0.047l-7.019-3.273c-0.25-0.117-0.357-0.414-0.241-0.665l14.312-30.692
			c0.056-0.12,0.157-0.213,0.282-0.258s0.263-0.04,0.382,0.017l7.019,3.273c0.251,0.117,0.359,0.414,0.242,0.665l-14.312,30.692
			c-0.057,0.12-0.158,0.213-0.283,0.258C443.711,227.769,443.652,227.779,443.596,227.779z M437.242,223.764l6.111,2.851
			l13.89-29.786l-6.112-2.85L437.242,223.764z"/>
	</g>
	<g>
		<polygon fill="#FFDA00" points="436.578,224.006 443.596,227.279 443.596,240.631 436.578,237.357 		"/>
		<path d="M443.596,241.131c-0.071,0-0.144-0.016-0.211-0.047l-7.019-3.273c-0.176-0.082-0.288-0.259-0.288-0.453v-13.352
			c0-0.171,0.087-0.33,0.23-0.422c0.145-0.091,0.325-0.104,0.48-0.031l7.019,3.273c0.176,0.082,0.288,0.259,0.288,0.453v13.352
			c0,0.171-0.087,0.33-0.23,0.422C443.783,241.104,443.689,241.131,443.596,241.131z M437.078,237.039l6.018,2.807v-12.249
			l-6.018-2.807V237.039z"/>
	</g>
	<g>
		<polygon fill="#FFDA00" points="476.639,183.942 483.657,187.215 483.657,200.566 476.639,197.293 		"/>
		<path d="M483.657,201.066c-0.072,0-0.145-0.016-0.211-0.047l-7.019-3.273c-0.177-0.082-0.289-0.259-0.289-0.453v-13.351
			c0-0.171,0.087-0.33,0.231-0.422c0.144-0.092,0.327-0.104,0.479-0.031l7.019,3.273c0.177,0.082,0.289,0.259,0.289,0.453v13.351
			c0,0.171-0.087,0.33-0.231,0.422C483.845,201.04,483.751,201.066,483.657,201.066z M477.139,196.975l6.019,2.807v-12.248
			l-6.019-2.807V196.975z"/>
	</g>
	<g>
		<g>
			<polygon fill="#FFDA00" points="450.889,193.314 457.906,196.586 483.655,187.215 476.638,183.943 			"/>
			<path d="M457.906,197.086c-0.072,0-0.145-0.016-0.211-0.047l-7.018-3.272c-0.184-0.085-0.298-0.273-0.289-0.475
				c0.01-0.202,0.139-0.379,0.329-0.448l25.749-9.371c0.124-0.046,0.262-0.04,0.382,0.017l7.018,3.272
				c0.184,0.085,0.298,0.273,0.289,0.475c-0.01,0.202-0.139,0.379-0.329,0.448l-25.749,9.371
				C458.021,197.076,457.964,197.086,457.906,197.086z M452.194,193.371l5.735,2.674l24.42-8.887l-5.735-2.674L452.194,193.371z"/>
		</g>
	</g>
</g>
<g>
	<path d="M135.776,320.155h6.741c1.541,0,2.721,0.38,3.501,1.14c0.74,0.681,1.14,1.58,1.14,2.721c0,1.54-0.84,2.561-2.44,3.041v0.06
		c1.86,0.44,3.041,1.721,3.041,3.601c0,1.32-0.48,2.361-1.32,3.081c-0.86,0.8-2.101,1.24-3.701,1.24h-6.961V320.155z
		 M142.118,326.296c1.44,0,2.34-0.7,2.34-1.98c0-1.22-0.84-1.94-2.2-1.94h-3.741v3.921H142.118z M142.498,332.777
		c0.84,0,1.48-0.24,1.88-0.64c0.38-0.36,0.6-0.881,0.6-1.521c0-1.521-1.08-2.261-2.561-2.261h-3.9v4.421H142.498z"/>
</g>
<g>
	<path d="M449.572,100.028h10.883v2.361h-8.122v3.681h7.182v2.22h-7.182v4.201h8.302v2.42h-11.062V100.028z"/>
</g>
<g>
	<path d="M311.729,134.411h5.861c4.301,0,6.761,3.001,6.761,7.522c0,4.441-2.421,7.361-6.921,7.361h-5.701V134.411z
		 M317.249,146.934c2.94,0,4.261-1.88,4.261-5.001c0-3.101-1.26-5.161-4.181-5.161h-2.821v10.162H317.249z"/>
</g>
<g>
	<path d="M310.026,217.299c0-4.421,2.761-7.762,7.182-7.762c1.7,0,3.101,0.44,4.12,1.22c1.201,0.94,1.921,2.281,2.102,3.841h-2.762
		c-0.26-1.6-1.52-2.72-3.48-2.72c-2.84,0-4.341,2.32-4.341,5.421c0,3.16,1.7,5.381,4.361,5.381c2.22,0,3.44-1.48,3.601-3.28h2.781
		c-0.061,1.479-0.761,2.98-1.801,3.98c-1.08,1.08-2.602,1.641-4.602,1.641C312.887,225.021,310.026,221.76,310.026,217.299z"/>
</g>
<g>
	<path d="M321.568,262.631h-0.08c-0.96,1.62-2.561,2.38-4.42,2.38c-2.102,0-3.842-0.8-5.062-2.12c-1.28-1.381-1.96-3.321-1.96-5.602
		c0-2.4,0.799-4.501,2.26-5.901c1.2-1.18,2.841-1.88,4.961-1.88c3.641,0,5.762,1.94,6.302,4.741h-2.801
		c-0.399-1.381-1.48-2.421-3.461-2.421c-3.021,0-4.44,2.381-4.44,5.461c0,3.181,1.76,5.401,4.44,5.401
		c2.501,0,3.821-1.7,3.841-3.601v-0.181h-3.601v-2.16h6.261v7.922h-1.859L321.568,262.631z"/>
</g>
<g>
	<path d="M459.308,219.922h10.562v2.38h-7.801v3.821h6.501v2.3h-6.501v6.382h-2.761V219.922z"/>
</g>
<g>
	<path d="M157.499,410.029h2.96l5.421,14.883h-2.96l-1.181-3.541h-5.641l-1.2,3.541h-2.8L157.499,410.029z M156.779,419.331h4.281
		l-1.141-3.44c-0.58-1.761-0.94-3.581-0.94-3.581h-0.04c0,0-0.5,2.16-0.98,3.581L156.779,419.331z"/>
</g>
<g>
	
		<rect x="35.986" y="424.275" transform="matrix(0.6933 0.7206 -0.7206 0.6933 331.0294 109.3994)" fill="#1D1D1B" width="2" height="38.671"/>
</g>
<g>
	<polygon points="50.732,436.079 50.073,431.358 42.908,432.549 42.58,430.576 51.77,429.05 52.713,435.802 	"/>
</g>
<g>
	<path d="M233.691,360.413h2.21v7.773h4.459v1.898h-6.669V360.413z"/>
	<path d="M241.141,366.64c0-2.08,1.456-3.666,3.666-3.666c2.197,0,3.64,1.586,3.64,3.666c0,2.067-1.443,3.666-3.64,3.666
		C242.597,370.306,241.141,368.707,241.141,366.64z M246.38,366.64c0-1.312-0.572-2.21-1.586-2.21c-1.04,0-1.586,0.897-1.586,2.21
		c0,1.3,0.546,2.185,1.586,2.185C245.808,368.824,246.38,367.939,246.38,366.64z"/>
	<path d="M254.037,370.085v-0.988h-0.039c-0.507,0.807-1.131,1.184-2.08,1.184c-1.573,0-2.431-1.015-2.431-2.535v-4.576h2.041v4.186
		c0,0.768,0.377,1.209,1.105,1.209c0.819,0,1.326-0.624,1.326-1.481v-3.913h2.015v6.916H254.037z"/>
	<path d="M259.366,364.222h0.039c0.429-0.832,1.17-1.248,2.132-1.248c1.521,0,2.405,1.014,2.405,2.562v4.55h-2.028v-4.16
		c0-0.754-0.403-1.261-1.157-1.261c-0.793,0-1.326,0.637-1.326,1.521v3.9h-2.041v-6.916h1.976V364.222z"/>
	<path d="M265.19,370.332h1.989c0.13,0.416,0.52,0.702,1.313,0.702c0.962,0,1.443-0.494,1.443-1.339v-0.144
		c0-0.351,0.013-0.676,0.039-0.91h-0.052c-0.403,0.677-1.014,1.015-1.872,1.015c-1.599,0-3.016-1.184-3.016-3.276
		c0-2.016,1.209-3.406,2.912-3.406c0.936,0,1.599,0.312,1.989,1.079h0.026v-0.884h1.95v6.305c0,1.027-0.338,1.769-0.897,2.263
		c-0.598,0.52-1.482,0.754-2.496,0.754C266.621,372.49,265.398,371.697,265.19,370.332z M270,366.314
		c0-1.026-0.507-1.794-1.508-1.794c-0.897,0-1.456,0.702-1.456,1.808c0,1.092,0.559,1.794,1.469,1.794
		C269.545,368.122,270,367.342,270,366.314z"/>
	<path d="M273.017,366.64c0-2.08,1.443-3.666,3.549-3.666c0.988,0,1.769,0.325,2.379,0.884c0.78,0.754,1.131,1.925,1.118,3.289
		h-5.044c0.13,1.04,0.689,1.664,1.677,1.664c0.637,0,1.04-0.247,1.261-0.676h1.976c-0.351,1.222-1.482,2.158-3.263,2.158
		C274.408,370.293,273.017,368.707,273.017,366.64z M275.032,365.964h2.951c-0.065-0.962-0.611-1.547-1.417-1.547
		C275.63,364.417,275.162,365.015,275.032,365.964z"/>
	<path d="M284.495,360.413h7.254v1.846h-5.044v1.924h4.368v1.755h-4.368v2.249h5.135v1.898h-7.346V360.413z"/>
	<path d="M295.104,364.222h0.039c0.429-0.832,1.17-1.248,2.132-1.248c1.521,0,2.405,1.014,2.405,2.562v4.55h-2.028v-4.16
		c0-0.754-0.403-1.261-1.157-1.261c-0.793,0-1.326,0.637-1.326,1.521v3.9h-2.042v-6.916h1.977V364.222z"/>
	<path d="M300.641,363.169h1.041v-2.21h2.002v2.21h1.352v1.3h-1.352v3.433c0,0.52,0.285,0.662,0.767,0.662
		c0.13,0,0.338-0.013,0.468-0.025h0.104v1.521c-0.222,0.039-0.638,0.104-1.183,0.104c-1.287,0-2.158-0.416-2.158-1.82v-3.874h-1.041
		V363.169z"/>
	<path d="M308.129,364.403h0.039c0.442-0.962,1.066-1.352,1.924-1.352c0.195,0,0.339,0.013,0.43,0.052v1.781h-0.053
		c-0.143-0.026-0.285-0.039-0.428-0.039c-1.105-0.013-1.834,0.676-1.834,2.028v3.211h-2.041v-6.916h1.963V364.403z"/>
	<path d="M315.76,369.24h-0.025c-0.455,0.637-1.027,1.026-2.093,1.026c-1.365,0-2.366-0.728-2.366-2.093
		c0-1.534,1.209-1.924,2.717-2.106c1.235-0.169,1.742-0.363,1.742-0.884c0-0.494-0.325-0.832-1.027-0.832
		c-0.779,0-1.156,0.364-1.209,0.91h-1.885c0.052-1.183,1.014-2.288,3.068-2.288c0.884,0,1.508,0.13,1.988,0.416
		c0.716,0.416,1.054,1.131,1.054,2.067v3.549c0,0.546,0.078,0.845,0.26,0.962v0.117h-1.989
		C315.891,369.929,315.799,369.63,315.76,369.24z M315.787,367.602v-0.896c-0.3,0.182-0.742,0.286-1.197,0.39
		c-0.896,0.195-1.326,0.416-1.326,1.014c0,0.599,0.455,0.819,1.015,0.819C315.188,368.928,315.787,368.355,315.787,367.602z"/>
	<path d="M321.143,364.222h0.039c0.429-0.832,1.17-1.248,2.132-1.248c1.521,0,2.405,1.014,2.405,2.562v4.55h-2.028v-4.16
		c0-0.754-0.403-1.261-1.157-1.261c-0.793,0-1.326,0.637-1.326,1.521v3.9h-2.041v-6.916h1.977V364.222z"/>
	<path d="M326.759,366.64c0-2.08,1.417-3.666,3.588-3.666c1.847,0,2.99,1.053,3.237,2.562h-1.977
		c-0.143-0.638-0.559-1.04-1.234-1.04c-1.027,0-1.547,0.845-1.547,2.145c0,1.262,0.52,2.119,1.547,2.119
		c0.754,0,1.209-0.455,1.3-1.248h1.963c-0.065,1.573-1.313,2.795-3.237,2.795C328.189,370.306,326.759,368.707,326.759,366.64z"/>
	<path d="M334.324,366.64c0-2.08,1.443-3.666,3.55-3.666c0.987,0,1.768,0.325,2.379,0.884c0.78,0.754,1.131,1.925,1.118,3.289
		h-5.045c0.131,1.04,0.689,1.664,1.678,1.664c0.637,0,1.04-0.247,1.261-0.676h1.976c-0.351,1.222-1.481,2.158-3.263,2.158
		C335.716,370.293,334.324,368.707,334.324,366.64z M336.34,365.964h2.951c-0.065-0.962-0.611-1.547-1.417-1.547
		C336.938,364.417,336.47,365.015,336.34,365.964z"/>
</g>
<g>
	<path d="M9.025,463.52h7.254v1.846h-5.044v1.924h4.368v1.755h-4.368v2.249h5.135v1.898H9.025V463.52z"/>
	<path d="M19.633,467.328h0.039c0.429-0.832,1.17-1.248,2.132-1.248c1.521,0,2.405,1.014,2.405,2.562v4.55h-2.028v-4.16
		c0-0.754-0.403-1.261-1.157-1.261c-0.793,0-1.326,0.637-1.326,1.521v3.9h-2.042v-6.916h1.977V467.328z"/>
	<path d="M25.171,466.275h1.04v-2.21h2.002v2.21h1.352v1.3h-1.352v3.433c0,0.52,0.286,0.662,0.767,0.662
		c0.13,0,0.338-0.013,0.468-0.025h0.104v1.521c-0.221,0.039-0.637,0.104-1.183,0.104c-1.287,0-2.158-0.416-2.158-1.82v-3.874h-1.04
		V466.275z"/>
	<path d="M32.659,467.51h0.039c0.442-0.962,1.066-1.352,1.924-1.352c0.195,0,0.338,0.013,0.429,0.052v1.781h-0.052
		c-0.143-0.026-0.286-0.039-0.429-0.039c-1.105-0.013-1.833,0.676-1.833,2.028v3.211h-2.042v-6.916h1.963V467.51z"/>
	<path d="M40.29,472.347h-0.026c-0.455,0.637-1.027,1.026-2.093,1.026c-1.365,0-2.366-0.728-2.366-2.093
		c0-1.534,1.209-1.924,2.717-2.106c1.235-0.169,1.742-0.363,1.742-0.884c0-0.494-0.325-0.832-1.027-0.832
		c-0.78,0-1.157,0.364-1.209,0.91h-1.885c0.052-1.183,1.014-2.288,3.068-2.288c0.884,0,1.508,0.13,1.989,0.416
		c0.715,0.416,1.053,1.131,1.053,2.067v3.549c0,0.546,0.078,0.845,0.26,0.962v0.117h-1.989
		C40.42,473.035,40.329,472.736,40.29,472.347z M40.316,470.708v-0.896c-0.299,0.182-0.741,0.286-1.196,0.39
		c-0.897,0.195-1.326,0.416-1.326,1.014c0,0.599,0.455,0.819,1.014,0.819C39.718,472.034,40.316,471.462,40.316,470.708z"/>
	<path d="M45.672,467.328h0.039c0.429-0.832,1.17-1.248,2.132-1.248c1.521,0,2.405,1.014,2.405,2.562v4.55h-2.028v-4.16
		c0-0.754-0.403-1.261-1.157-1.261c-0.793,0-1.326,0.637-1.326,1.521v3.9h-2.041v-6.916h1.976V467.328z"/>
	<path d="M51.289,469.746c0-2.08,1.417-3.666,3.588-3.666c1.846,0,2.99,1.053,3.237,2.562h-1.976
		c-0.143-0.638-0.559-1.04-1.235-1.04c-1.027,0-1.547,0.845-1.547,2.145c0,1.262,0.52,2.119,1.547,2.119
		c0.754,0,1.209-0.455,1.3-1.248h1.963c-0.065,1.573-1.313,2.795-3.237,2.795C52.719,473.412,51.289,471.813,51.289,469.746z"/>
	<path d="M58.854,469.746c0-2.08,1.443-3.666,3.549-3.666c0.988,0,1.768,0.325,2.379,0.884c0.78,0.754,1.131,1.925,1.118,3.289
		h-5.044c0.13,1.04,0.689,1.664,1.677,1.664c0.637,0,1.04-0.247,1.261-0.676h1.976c-0.351,1.222-1.482,2.158-3.263,2.158
		C60.246,473.399,58.854,471.813,58.854,469.746z M60.87,469.07h2.951c-0.065-0.962-0.611-1.547-1.417-1.547
		C61.467,467.523,61,468.121,60.87,469.07z"/>
</g>
</svg>
