<?xml version="1.0" encoding="utf-8"?>
<!-- Generator: Adobe Illustrator 16.0.0, SVG Export Plug-In . SVG Version: 6.00 Build 0)  -->
<!DOCTYPE svg PUBLIC "-//W3C//DTD SVG 1.1//EN" "http://www.w3.org/Graphics/SVG/1.1/DTD/svg11.dtd">
<svg version="1.1" id="Livello_1" xmlns="http://www.w3.org/2000/svg" xmlns:xlink="http://www.w3.org/1999/xlink" x="0px" y="0px"
	 width="122px" height="40px" viewBox="0 0 122 40" enable-background="new 0 0 122 40" xml:space="preserve">
<g>
	<path d="M16.114,19.686h2.121v-3.958L0,17.77v8.144h18.183v-3.712h-2.042v1.671H2.174V22.43h9.385V20.9H2.147v-1.529l13.967-1.242
		V19.686z M21.455,17.336l13.377-0.823v2.061l-13.377,0.607V17.336z M21.375,22l16.09,4v-1.957L28.038,21.7l9.347-0.286V14
		L19.4,15.643l0.025,10.3h1.949V22z M54.52,19.658h2.277v-3.473l-18.299-2.043v11.8h18.273v-3.771H54.52v1.814H40.709v-7.773
		l13.811,1.773V19.658z M73.973,24.128H59.9v-5.456l14.072,1.07V24.128z M76,25.972v-8.043l-18.168-1.658v9.701H76z"/>
</g>
</svg>
