<?xml version="1.0" encoding="utf-8"?>
<!-- Generator: Adobe Illustrator 16.0.0, SVG Export Plug-In . SVG Version: 6.00 Build 0)  -->
<!DOCTYPE svg PUBLIC "-//W3C//DTD SVG 1.1//EN" "http://www.w3.org/Graphics/SVG/1.1/DTD/svg11.dtd">
<svg version="1.1" id="Livello_5" xmlns="http://www.w3.org/2000/svg" xmlns:xlink="http://www.w3.org/1999/xlink" x="0px" y="0px"
	 width="122px" height="24px" viewBox="0 0 122 24" enable-background="new 0 0 122 24" xml:space="preserve">
<g>
	<g>
		<g>
			<g>
				<path d="M8.592,7.693c-0.086-1.018-0.18-2.021-0.25-3.027C8.324,4.395,8.228,4.32,7.956,4.322
					C5.8,4.334,3.644,4.326,1.489,4.336C1.327,4.336,1.102,4.207,1,4.461C1.153,4.518,1.303,4.6,1.461,4.621
					C2.029,4.697,2.314,4.963,2.379,5.54c0.032,0.283,0.047,0.57,0.047,0.854c0.003,3.221,0.004,6.443,0.001,9.664
					c-0.001,0.692-0.008,1.385-0.038,2.077c-0.033,0.746-0.345,1.028-1.112,1.088c-0.095,0.006-0.184,0.094-0.276,0.146
					c0.089,0.04,0.178,0.115,0.267,0.116c1.426,0.006,2.852,0.006,4.278,0c0.09-0.001,0.179-0.076,0.268-0.118
					c-0.082-0.05-0.161-0.136-0.247-0.144c-0.85-0.082-1.144-0.348-1.154-1.188c-0.023-1.912-0.015-3.825-0.017-5.739
					c-0.001-0.05,0.02-0.102,0.031-0.15c0.535,0,1.049,0.009,1.563-0.002c0.371-0.01,0.658,0.141,0.782,0.459
					c0.149,0.384,0.256,0.793,0.308,1.198c0.036,0.279,0.114,0.349,0.384,0.257V9.475H7.137c-0.052,0.279-0.08,0.543-0.154,0.791
					c-0.1,0.343-0.335,0.601-0.708,0.62c-0.612,0.03-1.228,0.007-1.854,0.007c-0.012-0.096-0.027-0.158-0.027-0.221
					c-0.001-1.55-0.002-3.101,0.002-4.651c0-0.151,0.023-0.306,0.058-0.456C4.557,5.133,4.73,4.988,5.172,4.971
					c0.325-0.014,0.653-0.023,0.977,0c0.737,0.057,1.453,0.375,1.679,1.271C7.93,6.646,8.047,7.049,8.134,7.457
					C8.187,7.703,8.297,7.803,8.592,7.693 M16.935,16.545c-0.532,1.377-1.278,2.495-3.26,2.363c-1.1-0.072-1.304-0.174-1.33-1.259
					c-0.036-1.461-0.03-2.922-0.029-4.383c0.001-2.464,0.006-4.925,0.024-7.386c0.006-0.89,0.275-1.159,1.143-1.275
					c0.104-0.014,0.196-0.111,0.294-0.168C13.675,4.4,13.573,4.334,13.47,4.334C12.1,4.326,10.731,4.33,9.361,4.33
					c-0.067,0-0.141-0.014-0.199,0.01c-0.05,0.019-0.099,0.078-0.114,0.129C9.041,4.496,9.1,4.562,9.142,4.578
					c0.072,0.025,0.154,0.027,0.232,0.037c0.76,0.088,0.994,0.311,1.08,1.049c0.019,0.165,0.017,0.33,0.017,0.496
					c0.001,3.648,0.001,7.298,0.001,10.946c0,0.363,0.01,0.727-0.003,1.087c-0.024,0.639-0.277,0.889-0.924,0.944
					c-0.11,0.008-0.219,0.018-0.339,0.026v0.303h7.87c0.111-1.058,0.219-2.095,0.329-3.145
					C17.125,16.212,17.024,16.313,16.935,16.545 M31.492,13.029c0.018,2.778-1.469,4.688-4.194,5.472
					c-2.322,0.669-4.235-0.038-5.805-1.714c-1.506-1.606-2.337-3.536-2.436-5.726c-0.124-2.758,1.956-5.755,5.454-5.89
					c0.102-0.004,0.201-0.014,0.35-0.023c2.312,0.094,4.021,1.244,5.229,3.161C30.997,9.748,31.48,11.333,31.492,13.029
					 M33.723,11.875c-0.069-0.41-0.131-1.037-0.288-1.64c-0.514-1.941-1.507-3.595-3.202-4.775
					c-3.938-2.737-9.193-1.337-11.619,1.81c-1.904,2.469-2.117,5.141-0.896,7.963c1.011,2.337,2.789,3.827,5.29,4.366
					c2.906,0.627,5.562,0.018,7.865-1.896C32.647,16.229,33.609,14.372,33.723,11.875 M40.325,7.853
					c0-0.712,0.005-1.393-0.006-2.071c-0.002-0.084-0.069-0.186-0.138-0.246c-0.533-0.482-1.125-0.867-1.846-1.037
					c-1.21-0.287-2.37-0.247-3.399,0.521c-1.651,1.234-1.793,3.725-0.309,5.308c0.531,0.563,1.089,1.109,1.622,1.673
					c0.991,1.049,1.991,2.091,2.954,3.164c1.069,1.191,0.756,3.01-0.633,3.778c-0.896,0.497-1.774,0.343-2.617-0.154
					c-1.096-0.646-1.68-1.65-2.013-2.819c-0.068-0.239-0.179-0.304-0.408-0.224c0,0.847-0.004,1.692,0.006,2.536
					c0.001,0.082,0.079,0.18,0.15,0.238c0.944,0.785,2.007,1.343,3.255,1.458c1.45,0.132,2.673-0.303,3.466-1.562
					c0.789-1.255,0.957-3.42-0.573-5.017c-0.876-0.912-1.797-1.786-2.663-2.706c-0.684-0.727-1.363-1.463-1.956-2.261
					c-0.599-0.805-0.513-1.778,0.092-2.547c0.537-0.688,1.491-0.979,2.395-0.691c1.212,0.385,1.92,1.25,2.27,2.418
					C40.039,7.83,40.126,7.914,40.325,7.853"/>
			</g>
		</g>
	</g>
</g>
</svg>
