<?xml version="1.0" encoding="utf-8"?>
<!-- Generator: Adobe Illustrator 16.0.0, SVG Export Plug-In . SVG Version: 6.00 Build 0)  -->
<!DOCTYPE svg PUBLIC "-//W3C//DTD SVG 1.1//EN" "http://www.w3.org/Graphics/SVG/1.1/DTD/svg11.dtd">
<svg version="1.1" id="Livello_1" xmlns="http://www.w3.org/2000/svg" xmlns:xlink="http://www.w3.org/1999/xlink" x="0px" y="0px"
	 width="122px" height="24px" viewBox="0 0 122 24" enable-background="new 0 0 122 24" xml:space="preserve">
<g>
	<g>
		<g>
			<g>
				<g>
					<path d="M12.037,2.109c-0.655,0-1.207,0.016-1.895,0.016C3.521,2.125,0,7.172,0,12.115c0,6.807,5.25,9.771,10.143,9.771h1.895
						V11.02H5.993v1.92h4.149v7.025c-3.646,0-8.249-2.453-8.249-7.85c0-7.1,6.786-8.055,8.249-8.055h1.895V2.109z"/>
					<polygon points="12.85,2 12.85,21.887 18.606,21.887 18.606,19.535 15.178,19.535 15.178,8.199 17,8.199 17,5.918 
						15.178,5.918 15.178,4.469 18.606,4.469 18.606,2 					"/>
					<path d="M19.708,22v-2.465c0,0,4.114-0.506,4.114-3.84c0-3.332-4.114-6.408-4.114-9.777S23.358,2,23.822,2h1.065v2.469h-1.065
						c0,0-1.787-0.398-1.787,1.449s4.108,6.445,4.108,9.777C26.144,20.441,20.917,22,19.708,22"/>
					<path d="M25.176,22v-2.465c0,0,4.114-0.506,4.114-3.84c0-3.332-4.114-6.408-4.114-9.777S28.826,2,29.29,2h1.065v2.469H29.29
						c0,0-1.787-0.398-1.787,1.449s3.964,6.445,3.964,9.777C31.467,20.441,26.385,22,25.176,22"/>
					<rect x="31.817" y="2" width="2.183" height="19.887"/>
				</g>
			</g>
		</g>
	</g>
</g>
</svg>
