<?xml version="1.0" encoding="utf-8"?>
<!-- Generator: Adobe Illustrator 16.0.0, SVG Export Plug-In . SVG Version: 6.00 Build 0)  -->
<!DOCTYPE svg PUBLIC "-//W3C//DTD SVG 1.1//EN" "http://www.w3.org/Graphics/SVG/1.1/DTD/svg11.dtd">
<svg version="1.1" id="Livello_6" xmlns="http://www.w3.org/2000/svg" xmlns:xlink="http://www.w3.org/1999/xlink" x="0px" y="0px"
	 width="122px" height="24px" viewBox="0 0 122 24" enable-background="new 0 0 122 24" xml:space="preserve">
<g>
	<path fill="#FFFFFF" d="M58.77,14.329c-0.009,0.56-0.195,0.766-0.781,0.771c-1.319,0.012-2.641,0.012-3.961-0.002
		c-0.588-0.007-0.748-0.187-0.748-0.744c-0.004-1.017,0.064-1.08,1.144-1.08c0.083,0,0.165,0,0.248,0h1.345
		c0.66,0,1.321-0.004,1.981,0.002c0.544,0.005,0.765,0.223,0.772,0.748C58.77,14.126,58.77,14.229,58.77,14.329 M61.221,11.994
		c0-0.848-0.008-1.695,0.004-2.541c0.006-0.363-0.119-0.66-0.383-0.912c-0.56-0.534-1.095-1.096-1.688-1.592
		c-0.25-0.209-0.616-0.39-0.938-0.398c-1.46-0.041-2.924-0.025-4.385-0.014c-0.393,0.002-0.579,0.205-0.584,0.576
		c-0.006,0.395-0.003,0.791-0.001,1.186c0.005,0.46,0.18,0.624,0.668,0.625c1.215,0.002,2.431,0.023,3.644-0.006
		c1.158-0.029,1.233,0.174,1.213,1.172c-0.015,0.639-0.205,0.834-0.867,0.834c-1.344,0.003-2.688,0.01-4.031-0.003
		c-0.434-0.005-0.777,0.138-1.075,0.421c-0.534,0.512-1.067,1.021-1.601,1.535c-0.286,0.275-0.438,0.607-0.417,1.005
		c0.009,0.191,0.011,0.384-0.001,0.575c-0.025,0.424,0.135,0.771,0.441,1.066c0.533,0.512,1.067,1.023,1.603,1.533
		c0.297,0.28,0.646,0.42,1.077,0.416c1.414-0.014,2.83-0.012,4.244-0.002c0.418,0.004,0.76-0.134,1.047-0.408
		c0.535-0.51,1.065-1.022,1.603-1.531c0.291-0.275,0.44-0.596,0.435-0.996C61.211,13.688,61.221,12.842,61.221,11.994"/>
	<path fill="#FFFFFF" d="M40.018,9.561c0-1.637,0-3.275,0-4.914c0-0.465,0.169-0.635,0.651-0.642
		c0.414-0.006,0.826-0.007,1.239,0.001c0.403,0.009,0.599,0.2,0.606,0.594c0.009,0.439-0.001,0.881,0.003,1.32
		c0.005,0.406,0.205,0.602,0.629,0.604c0.873,0.004,1.746,0,2.619,0.002c0.578,0.001,0.751,0.168,0.754,0.731
		c0.002,0.361,0.007,0.723-0.002,1.085c-0.013,0.396-0.203,0.572-0.615,0.574c-0.885,0.004-1.77,0-2.655,0.002
		c-0.531,0.002-0.729,0.186-0.729,0.688c-0.002,1.604-0.002,3.208-0.001,4.814c0.001,0.471,0.188,0.646,0.686,0.648
		c1.428,0,2.855-0.002,4.283,0c0.616,0,0.777,0.154,0.779,0.734c0.001,0.373,0.005,0.745-0.001,1.119
		c-0.006,0.335-0.196,0.534-0.542,0.535c-1.605,0.006-3.208,0.021-4.812-0.016c-0.286-0.006-0.623-0.174-0.839-0.365
		c-0.604-0.537-1.186-1.104-1.715-1.708c-0.199-0.228-0.316-0.589-0.321-0.894C40.002,12.838,40.018,11.199,40.018,9.561"/>
	<path fill="#FFFFFF" d="M92.752,9.584c0-1.639-0.001-3.277,0-4.916c0.001-0.518,0.148-0.66,0.693-0.666
		c0.365-0.003,0.73-0.003,1.098,0.002c0.496,0.007,0.657,0.162,0.66,0.629c0.002,0.396-0.008,0.791,0.004,1.186
		c0.014,0.528,0.207,0.704,0.759,0.705c0.849,0.002,1.698-0.001,2.55,0.002c0.541,0.001,0.721,0.172,0.725,0.686
		c0.001,0.339,0.001,0.678,0,1.017c-0.004,0.532-0.164,0.688-0.711,0.689c-0.861,0.001-1.723-0.001-2.584,0.001
		c-0.49,0.002-0.73,0.199-0.733,0.672c-0.013,1.604-0.013,3.209,0,4.813c0.003,0.488,0.216,0.664,0.726,0.664
		c1.416,0,2.834,0,4.25,0c0.642,0,0.812,0.166,0.812,0.781c0,0.338,0.003,0.678-0.001,1.017c-0.005,0.393-0.2,0.593-0.601,0.594
		c-1.568,0.004-3.14,0.004-4.707,0c-0.389,0-0.705-0.16-0.973-0.421c-0.484-0.479-0.962-0.964-1.457-1.434
		c-0.365-0.347-0.525-0.738-0.519-1.24C92.766,12.771,92.752,11.178,92.752,9.584"/>
	<path fill="#FFFFFF" d="M36.499,11.959c0,0.814,0.001,1.627-0.001,2.441c-0.001,0.478-0.18,0.647-0.68,0.654
		c-0.377,0.004-0.755,0.004-1.133,0c-0.503-0.007-0.681-0.176-0.681-0.652c-0.001-1.57,0-3.142-0.001-4.712
		c0-0.597-0.18-0.771-0.789-0.772c-1.321,0-2.643-0.001-3.964,0.002c-0.517,0-0.735,0.201-0.736,0.695
		c-0.004,1.561,0,3.119-0.001,4.679c-0.001,0.647-0.124,0.763-0.81,0.763c-0.355,0-0.708,0.006-1.062-0.004
		c-0.417-0.011-0.597-0.162-0.599-0.552c-0.009-1.694-0.005-3.39-0.001-5.085c0-0.356,0.144-0.65,0.415-0.9
		c0.542-0.504,1.078-1.015,1.602-1.534c0.326-0.323,0.715-0.458,1.174-0.456c1.356,0.002,2.713,0.004,4.07-0.002
		c0.461,0,0.853,0.142,1.179,0.454c0.533,0.514,1.067,1.024,1.601,1.535c0.29,0.277,0.425,0.61,0.421,1.005
		C36.494,10.332,36.499,11.145,36.499,11.959"/>
	<path fill="#FFFFFF" d="M75.227,11.959c0,0.824,0.002,1.648-0.002,2.475c-0.002,0.437-0.186,0.612-0.644,0.619
		c-0.39,0.008-0.778,0.006-1.167,0.002c-0.516-0.006-0.684-0.177-0.684-0.687c-0.002-1.524,0-3.05,0-4.577
		c0-0.744-0.139-0.873-0.933-0.873c-1.274,0-2.549-0.002-3.821,0.001c-0.517,0-0.733,0.202-0.735,0.698
		c-0.005,1.56-0.001,3.117-0.002,4.678c-0.003,0.653-0.114,0.758-0.81,0.76c-0.354,0.002-0.709,0.006-1.062-0.004
		c-0.418-0.011-0.599-0.158-0.601-0.552c-0.01-1.694-0.002-3.39,0-5.085c0-0.357,0.146-0.65,0.414-0.901
		C65.73,8,66.273,7.479,66.812,6.955c0.309-0.301,0.683-0.43,1.112-0.43c1.382-0.001,2.761,0,4.142-0.001
		c0.447-0.001,0.826,0.149,1.141,0.454c0.531,0.514,1.066,1.024,1.602,1.534c0.293,0.278,0.428,0.61,0.424,1.005
		c-0.008,0.814-0.004,1.627-0.004,2.441L75.227,11.959L75.227,11.959z"/>
	<path fill="#FFFFFF" d="M20.017,12.023c0,0.779,0.005,1.559-0.002,2.338c-0.005,0.541-0.172,0.725-0.732,0.729
		c-1.333,0.013-2.666,0.015-4,0.001c-0.57-0.007-0.755-0.199-0.757-0.752c-0.009-1.56-0.008-3.118-0.001-4.677
		c0.002-0.564,0.208-0.745,0.798-0.745c1.321-0.001,2.642-0.003,3.963,0c0.52,0.001,0.727,0.194,0.73,0.698
		C20.021,10.419,20.017,11.221,20.017,12.023 M22.496,14.572c-0.005-1.719-0.004-3.437,0-5.152c0-0.35-0.131-0.633-0.39-0.877
		c-0.562-0.53-1.123-1.065-1.676-1.605c-0.291-0.283-0.645-0.41-1.049-0.41c-1.404-0.004-2.809-0.004-4.212,0
		c-0.418,0-0.78,0.139-1.079,0.428c-0.547,0.531-1.1,1.057-1.651,1.584c-0.262,0.252-0.391,0.549-0.387,0.91
		c0.008,0.848,0.002,1.695,0.002,2.543c0,0.848,0.006,1.694-0.004,2.543c-0.004,0.36,0.12,0.665,0.379,0.917
		c0.562,0.547,1.131,1.089,1.7,1.632c0.271,0.259,0.595,0.383,0.985,0.381c1.427-0.008,2.855-0.01,4.282,0.002
		c0.419,0.002,0.765-0.128,1.054-0.397c0.555-0.522,1.106-1.049,1.65-1.584C22.354,15.234,22.497,14.936,22.496,14.572"/>
	<path fill="#FFFFFF" d="M86.732,12.02c0.002,0.777,0.004,1.557,0,2.335c-0.002,0.526-0.183,0.729-0.731,0.735
		c-1.344,0.015-2.687,0.013-4.03-0.001c-0.557-0.006-0.727-0.199-0.728-0.732c-0.001-1.58-0.001-3.159,0.001-4.739
		c0-0.506,0.199-0.697,0.72-0.697c1.345-0.003,2.688-0.003,4.03,0c0.513,0,0.732,0.205,0.736,0.695
		C86.738,10.416,86.732,11.218,86.732,12.02 M89.211,14.493c-0.003-1.659-0.002-3.319,0-4.979c0-0.375-0.105-0.705-0.396-0.978
		c-0.565-0.528-1.121-1.066-1.678-1.603c-0.291-0.281-0.646-0.406-1.051-0.407c-1.404-0.004-2.807-0.003-4.209,0
		c-0.419,0.001-0.781,0.14-1.081,0.426c-0.551,0.526-1.101,1.054-1.649,1.581c-0.271,0.26-0.4,0.574-0.398,0.943
		c0.004,0.835,0.001,1.671,0.001,2.506c0,0.848,0.001,1.694-0.001,2.542c-0.002,0.369,0.13,0.682,0.402,0.941
		c0.56,0.534,1.119,1.067,1.676,1.604c0.279,0.271,0.611,0.398,1.013,0.396c1.404-0.009,2.808-0.012,4.209,0.003
		c0.47,0.005,0.847-0.141,1.17-0.454c0.505-0.49,1.015-0.979,1.526-1.462C89.053,15.259,89.212,14.912,89.211,14.493"/>
	<path fill="#FFFFFF" d="M1.005,14.4c0-1.613,0.006-3.23-0.005-4.846C0.998,9.12,1.135,8.769,1.464,8.466
		c0.527-0.484,1.041-0.984,1.552-1.484C3.33,6.675,3.698,6.521,4.151,6.523C5.625,6.531,7.1,6.526,8.573,6.527
		c0.496,0,0.721,0.197,0.736,0.664C9.32,7.553,9.321,7.915,9.308,8.277c-0.016,0.452-0.235,0.646-0.71,0.646
		c-1.438,0-2.877,0-4.316,0c-0.569,0-0.772,0.189-0.774,0.727c-0.002,1.568-0.002,3.14,0,4.711c0.001,0.521,0.2,0.707,0.75,0.707
		c0.861,0.004,1.723,0,2.583,0.002c0.483,0.002,0.691,0.193,0.698,0.65c0.005,0.373,0.005,0.746,0,1.118
		c-0.006,0.425-0.211,0.624-0.649,0.627c-0.885,0.003-1.769-0.002-2.654,0.002c-0.521,0.001-0.724,0.196-0.729,0.697
		C3.503,18.582,3.511,19,3.505,19.418c-0.006,0.376-0.195,0.566-0.582,0.575c-0.436,0.009-0.872,0.007-1.309,0
		c-0.438-0.009-0.61-0.185-0.61-0.611C1.004,17.723,1.005,16.062,1.005,14.4"/>
</g>
</svg>
