<?xml version="1.0" encoding="utf-8"?>
<!-- Generator: Adobe Illustrator 16.0.0, SVG Export Plug-In . SVG Version: 6.00 Build 0)  -->
<!DOCTYPE svg PUBLIC "-//W3C//DTD SVG 1.1//EN" "http://www.w3.org/Graphics/SVG/1.1/DTD/svg11.dtd">
<svg version="1.1" id="Livello_9" xmlns="http://www.w3.org/2000/svg" xmlns:xlink="http://www.w3.org/1999/xlink" x="0px" y="0px"
	 width="122px" height="24px" viewBox="0 0 122 24" enable-background="new 0 0 122 24" xml:space="preserve">
<g>
	<g>
		<g>
			<g>
				<rect x="1" y="5.002" fill="#FFFFFF" width="3.037" height="13.71"/>
				<path fill="#FFFFFF" d="M14.055,18.712H11.11v-1.364h-0.037C10.5,18.367,9.322,19,8.25,19c-2.66,0-3.428-1.652-3.428-4.264
					V8.745h3.037v5.78c0,1.322,0.535,1.785,1.5,1.785c0.66,0,1.66-0.463,1.66-2.229V8.745h3.035L14.055,18.712L14.055,18.712z"/>
				<path fill="#FFFFFF" d="M18.555,16.982c1.447,0,1.928-0.883,1.857-2.938c-0.43,0.29-1.215,0.349-1.875,0.539
					c-0.68,0.173-1.25,0.479-1.25,1.269C17.287,16.657,17.877,16.982,18.555,16.982 M14.627,11.818
					c0.053-1.306,0.625-2.15,1.445-2.67c0.822-0.5,1.893-0.691,2.947-0.691c2.195,0,4.32,0.519,4.32,3.342v4.358
					c0,0.845,0,1.766,0.356,2.553h-3.052c-0.107-0.306-0.143-0.612-0.18-0.938c-0.785,0.884-1.945,1.228-3.053,1.228
					c-1.768,0-3.16-0.96-3.16-3.015c0-3.244,3.285-2.993,5.393-3.457c0.518-0.114,0.803-0.306,0.803-0.92
					c0-0.749-0.84-1.036-1.465-1.036c-0.838,0-1.375,0.402-1.518,1.248L14.627,11.818L14.627,11.818z"/>
				<rect x="24.107" y="5.002" fill="#FFFFFF" width="3.037" height="13.71"/>
				<path fill="#FFFFFF" d="M30.537,13.623c0,1.361,0.465,2.88,1.857,2.88c1.481,0,1.803-1.519,1.803-2.783
					c0-1.441-0.482-2.765-1.803-2.765C31.002,10.955,30.537,12.354,30.537,13.623 M37.127,18.712h-2.895v-1.151h-0.035
					C33.607,18.501,32.715,19,31.645,19c-2.912,0-4.144-2.688-4.144-5.492c0-2.592,1.285-5.051,3.91-5.051
					c1.144,0,2.019,0.461,2.644,1.363h0.034V5h3.037L37.127,18.712L37.127,18.712z"/>
				<path fill="#FFFFFF" d="M37.965,8.745H41v9.967h-3.035V8.745z M41,7.498h-3.035V5.002H41V7.498z"/>
			</g>
		</g>
	</g>
</g>
</svg>
