<?xml version="1.0" encoding="utf-8"?>
<!-- Generator: Adobe Illustrator 16.0.0, SVG Export Plug-In . SVG Version: 6.00 Build 0)  -->
<!DOCTYPE svg PUBLIC "-//W3C//DTD SVG 1.1//EN" "http://www.w3.org/Graphics/SVG/1.1/DTD/svg11.dtd">
<svg version="1.1" id="Livello_7" xmlns="http://www.w3.org/2000/svg" xmlns:xlink="http://www.w3.org/1999/xlink" x="0px" y="0px"
	 width="122px" height="24px" viewBox="0 0 122 24" enable-background="new 0 0 122 24" xml:space="preserve">
<g>
	<g>
		<g>
			<g>
				<path fill="#FFFFFF" d="M51.201,4h4.91l-4.91,15.998h-4.613L51.201,4z M54.836,11.711L57.195,4L62,19.998h-4.805L54.836,11.711z
					"/>
				<path fill="#FFFFFF" d="M2,4.002h4.516v10.055H2V4.002z M2,15.468h9.725V19.9H2V15.468z M13.209,4.002H28.23v4.432H13.209V4.002
					z M13.209,9.625H28.23v4.432H13.209V9.625z M13.209,15.468H28.23V19.9H13.209V15.468z M29.709,4.002h4.516V20h-4.516V4.002z
					 M35.449,4.002h4.516V20h-4.516V4.002z M41.188,4.002h4.517V20h-4.517V4.002z"/>
			</g>
		</g>
	</g>
</g>
</svg>
