<?xml version="1.0" encoding="utf-8"?>
<!-- Generator: Adobe Illustrator 16.0.0, SVG Export Plug-In . SVG Version: 6.00 Build 0)  -->
<!DOCTYPE svg PUBLIC "-//W3C//DTD SVG 1.1//EN" "http://www.w3.org/Graphics/SVG/1.1/DTD/svg11.dtd">
<svg version="1.1" id="Livello_3" xmlns="http://www.w3.org/2000/svg" xmlns:xlink="http://www.w3.org/1999/xlink" x="0px" y="0px"
	 width="122px" height="24px" viewBox="0 0 122 24" enable-background="new 0 0 122 24" xml:space="preserve">
<g>
	<path fill="#FFFFFF" d="M77.962,13.035c-0.217,0.355-0.543,0.645-0.981,0.857c-0.435,0.213-0.902,0.319-1.408,0.319
		c-0.577,0-1.034-0.146-1.37-0.438c-0.335-0.293-0.503-0.684-0.503-1.168c0-0.805,0.371-1.434,1.119-1.897
		c0.748-0.461,1.779-0.698,3.102-0.71V8.312c0-0.346-0.109-0.6-0.33-0.766c-0.219-0.164-0.554-0.245-1.012-0.245
		c-0.357,0-0.676,0.065-0.952,0.2c-0.274,0.136-0.412,0.273-0.412,0.414c0,0.023,0.08,0.117,0.239,0.279
		c0.156,0.158,0.234,0.342,0.234,0.548c0,0.222-0.062,0.405-0.189,0.546s-0.292,0.209-0.491,0.209c-0.222,0-0.397-0.074-0.524-0.227
		c-0.129-0.153-0.19-0.357-0.19-0.615c0-0.488,0.25-0.89,0.75-1.213c0.497-0.321,1.144-0.483,1.931-0.483
		c0.832,0,1.418,0.138,1.756,0.417c0.338,0.278,0.51,0.775,0.51,1.489v3.923c0,0.276,0.025,0.456,0.072,0.543
		c0.053,0.084,0.141,0.126,0.269,0.126c0.139,0,0.264-0.061,0.375-0.182c0.11-0.118,0.188-0.27,0.226-0.451h0.274
		c-0.034,0.41-0.179,0.74-0.438,0.992c-0.259,0.252-0.58,0.377-0.961,0.377c-0.328,0-0.585-0.096-0.768-0.291
		C78.102,13.712,77.993,13.422,77.962,13.035L77.962,13.035z M77.919,10.395c-0.948,0-1.674,0.15-2.177,0.453
		c-0.504,0.299-0.754,0.736-0.754,1.312c0,0.41,0.117,0.736,0.351,0.982c0.231,0.246,0.542,0.368,0.933,0.368
		c0.482,0,0.877-0.132,1.186-0.396c0.311-0.264,0.463-0.605,0.463-1.028L77.919,10.395L77.919,10.395z"/>
	<path fill="#FFFFFF" d="M72.115,2v11.581h0.921v0.413c-0.511,0-0.938,0.015-1.283,0.045c-0.345,0.027-0.653,0.072-0.933,0.129
		v-1.271c-0.227,0.42-0.525,0.746-0.899,0.975s-0.787,0.342-1.239,0.342c-0.869,0-1.604-0.352-2.201-1.049
		c-0.597-0.698-0.895-1.562-0.895-2.586c0-1.02,0.297-1.873,0.895-2.562c0.599-0.693,1.336-1.037,2.218-1.037
		c0.493,0,0.915,0.113,1.269,0.338s0.629,0.558,0.822,0.996V2.537h-1.104v-0.36h0.273c0.354,0,0.708-0.015,1.066-0.045
		C71.382,2.102,71.745,2.061,72.115,2L72.115,2z M70.805,11.887V9.48c0-0.561-0.197-1.052-0.592-1.475
		c-0.396-0.422-0.861-0.633-1.391-0.633c-0.608,0-1.043,0.24-1.301,0.72c-0.258,0.48-0.385,1.298-0.385,2.448
		c0,1.209,0.133,2.053,0.398,2.542c0.264,0.488,0.711,0.734,1.334,0.734c0.492,0,0.938-0.201,1.337-0.604
		C70.605,12.816,70.805,12.373,70.805,11.887L70.805,11.887z"/>
	<path fill="#FFFFFF" d="M45.479,13.994v-0.413h1.021V7.506H45.46V7.128c0.433,0,0.863-0.015,1.293-0.045
		c0.427-0.03,0.851-0.069,1.265-0.123l0.008,1.729c0.298-0.584,0.662-1.02,1.086-1.304c0.427-0.284,0.932-0.426,1.508-0.426
		c0.646,0,1.146,0.153,1.515,0.456c0.365,0.305,0.563,0.734,0.597,1.282c0.254-0.566,0.6-0.998,1.039-1.294
		c0.439-0.297,0.961-0.444,1.566-0.444c0.696,0,1.225,0.183,1.576,0.549c0.355,0.365,0.531,0.911,0.531,1.63v4.442h0.974v0.413
		h-3.601V13.58h1.117V8.506c0-0.35-0.08-0.613-0.246-0.791c-0.166-0.176-0.414-0.264-0.746-0.264c-0.59,0-1.113,0.276-1.569,0.824
		c-0.453,0.552-0.683,1.193-0.683,1.925v3.381h0.984v0.413h-3.54v-0.413H51.2V8.506c0-0.374-0.081-0.644-0.244-0.809
		c-0.162-0.164-0.431-0.246-0.804-0.246c-0.58,0-1.092,0.315-1.531,0.947c-0.443,0.633-0.665,1.395-0.665,2.284v2.898h1.004v0.413
		L45.479,13.994L45.479,13.994z"/>
	<path fill="#FFFFFF" d="M40.033,10.578c0,1.301,0.134,2.169,0.403,2.611c0.268,0.441,0.731,0.664,1.392,0.664
		c0.652,0,1.119-0.234,1.389-0.701c0.274-0.471,0.411-1.322,0.411-2.558c0-1.312-0.131-2.182-0.396-2.613
		c-0.266-0.429-0.729-0.645-1.391-0.645c-0.664,0-1.133,0.228-1.404,0.686C40.167,8.479,40.033,9.33,40.033,10.578L40.033,10.578z
		 M38.345,10.578c0-1.02,0.338-1.877,1.015-2.572c0.673-0.697,1.502-1.046,2.483-1.046c1.003,0,1.828,0.342,2.486,1.028
		c0.657,0.684,0.987,1.54,0.987,2.571c0,1.013-0.342,1.873-1.021,2.577c-0.684,0.704-1.505,1.06-2.468,1.06
		c-1.002,0-1.831-0.346-2.492-1.031C38.674,12.475,38.345,11.615,38.345,10.578L38.345,10.578z"/>
	<path fill="#FFFFFF" d="M34.862,12.756v-5.25h-0.914V7.128h0.914c0.475-0.443,0.761-1.169,0.857-2.179
		c0.012-0.132,0.252-0.027,0.358-0.051v2.229h1.454v0.378h-1.454v5.082c0,0.405,0.043,0.672,0.13,0.802
		c0.089,0.129,0.252,0.191,0.488,0.191c0.149,0,0.295-0.055,0.442-0.162s0.293-0.273,0.442-0.488l0.252,0.219
		c-0.249,0.381-0.504,0.653-0.768,0.817c-0.26,0.165-0.569,0.246-0.925,0.246c-0.439,0-0.762-0.12-0.968-0.356
		C34.965,13.619,34.862,13.254,34.862,12.756L34.862,12.756z"/>
	<path fill="#FFFFFF" d="M28.715,13.994v-2.316h0.388c0.16,0.662,0.437,1.172,0.828,1.534c0.393,0.362,0.862,0.546,1.408,0.546
		c0.466,0,0.841-0.132,1.128-0.396c0.285-0.262,0.428-0.606,0.428-1.032c0-0.488-0.526-0.842-1.581-1.064
		c-0.207-0.045-0.369-0.084-0.486-0.113c-0.808-0.187-1.361-0.432-1.654-0.734c-0.296-0.3-0.442-0.738-0.442-1.312
		c0-0.633,0.193-1.148,0.581-1.547c0.385-0.398,0.887-0.597,1.502-0.597c0.35,0,0.657,0.052,0.925,0.153
		c0.268,0.101,0.48,0.252,0.64,0.443l0.325-0.465h0.223v1.993h-0.342c-0.111-0.572-0.317-1.01-0.621-1.312
		C31.663,7.47,31.278,7.32,30.812,7.32c-0.428,0-0.776,0.116-1.044,0.35s-0.401,0.54-0.401,0.914c0,0.48,0.619,0.843,1.853,1.088
		c0.206,0.043,0.366,0.075,0.478,0.1c0.624,0.123,1.09,0.354,1.402,0.698c0.309,0.341,0.464,0.797,0.464,1.364
		c0,0.73-0.214,1.312-0.64,1.736c-0.426,0.43-1.004,0.643-1.736,0.643c-0.333,0-0.651-0.068-0.949-0.21
		c-0.301-0.142-0.575-0.348-0.822-0.623l-0.374,0.614H28.715L28.715,13.994z"/>
	<path fill="#FFFFFF" d="M13.619,13.994v-0.413h0.927V7.506h-0.945V7.128h0.314c0.354,0,0.695-0.015,1.023-0.045
		c0.328-0.03,0.639-0.069,0.927-0.123l0.009,2.003c0.25-0.663,0.593-1.16,1.026-1.496c0.436-0.339,0.954-0.507,1.555-0.507
		c0.607,0,1.082,0.168,1.421,0.501c0.34,0.332,0.512,0.803,0.512,1.405v4.715h0.91v0.413h-3.227v-0.413h0.988V8.812
		c0-0.449-0.087-0.782-0.265-1.001c-0.174-0.216-0.448-0.323-0.817-0.323c-0.561,0-1.046,0.29-1.457,0.868
		c-0.41,0.579-0.613,1.286-0.613,2.116v3.108h0.918v0.413L13.619,13.994L13.619,13.994z"/>
	<path fill="#FFFFFF" d="M7.64,13.994v-0.413h1.147V7.506H7.674V7.128c0.446,0,0.878-0.015,1.292-0.045
		c0.412-0.03,0.8-0.065,1.162-0.114v1.76c0.284-0.576,0.594-1.004,0.933-1.289c0.342-0.285,0.708-0.426,1.095-0.426
		c0.325,0,0.571,0.078,0.739,0.237c0.171,0.159,0.255,0.387,0.255,0.687c0,0.222-0.067,0.401-0.2,0.536
		c-0.134,0.135-0.31,0.2-0.531,0.2c-0.197,0-0.368-0.071-0.513-0.219c-0.145-0.146-0.217-0.32-0.217-0.518
		c0-0.049,0.006-0.103,0.018-0.168c0.011-0.062,0.017-0.105,0.017-0.123c0-0.048-0.006-0.078-0.017-0.096
		c-0.012-0.018-0.029-0.027-0.052-0.027c-0.31,0-0.638,0.281-0.979,0.842c-0.342,0.564-0.513,1.139-0.513,1.729v3.485h1.266v0.413
		L7.64,13.994L7.64,13.994z"/>
	<path fill="#FFFFFF" d="M2.651,9.517H5.87V9.34c0-0.726-0.118-1.25-0.35-1.573C5.287,7.446,4.911,7.284,4.391,7.284
		c-0.54,0-0.953,0.187-1.241,0.559C2.861,8.213,2.694,8.773,2.651,9.517L2.651,9.517z M2.6,10.018v0.527
		c0,1.186,0.146,2.018,0.442,2.487c0.293,0.471,0.801,0.707,1.525,0.707c0.612,0,1.131-0.171,1.56-0.513
		c0.431-0.345,0.724-0.825,0.878-1.444h0.379c-0.169,0.8-0.505,1.401-1.013,1.808c-0.509,0.404-1.178,0.605-2.014,0.605
		c-0.947,0-1.746-0.334-2.389-0.998C1.322,12.535,1,11.719,1,10.754c0-1.061,0.33-1.957,0.988-2.691
		C2.649,7.33,3.453,6.96,4.406,6.96c0.893,0,1.597,0.261,2.113,0.785c0.515,0.524,0.816,1.283,0.899,2.272L2.6,10.018L2.6,10.018z"
		/>
	<path fill="#FFFFFF" d="M23.306,9.517h3.22V9.34c0-0.726-0.118-1.25-0.351-1.573c-0.233-0.321-0.609-0.483-1.129-0.483
		c-0.54,0-0.953,0.187-1.241,0.559C23.515,8.213,23.349,8.773,23.306,9.517L23.306,9.517z M23.254,10.018v0.527
		c0,1.186,0.147,2.018,0.442,2.487c0.293,0.471,0.801,0.707,1.525,0.707c0.612,0,1.131-0.171,1.56-0.513
		c0.431-0.345,0.724-0.825,0.879-1.444h0.379c-0.169,0.8-0.505,1.401-1.014,1.808c-0.508,0.404-1.178,0.605-2.014,0.605
		c-0.948,0-1.746-0.334-2.389-0.998c-0.646-0.662-0.968-1.479-0.968-2.443c0-1.061,0.33-1.957,0.988-2.691
		C23.303,7.33,24.107,6.96,25.06,6.96c0.893,0,1.597,0.261,2.113,0.785c0.514,0.524,0.816,1.283,0.899,2.272L23.254,10.018
		L23.254,10.018z"/>
	<path fill="#FFFFFF" d="M60.037,9.517h3.22V9.34c0-0.726-0.116-1.25-0.351-1.573c-0.232-0.321-0.608-0.483-1.129-0.483
		c-0.539,0-0.953,0.187-1.24,0.559C60.247,8.213,60.081,8.773,60.037,9.517L60.037,9.517z M59.984,10.018v0.527
		c0,1.186,0.147,2.018,0.443,2.487c0.293,0.471,0.801,0.707,1.524,0.707c0.612,0,1.132-0.171,1.56-0.513
		c0.432-0.345,0.725-0.825,0.879-1.444h0.379c-0.168,0.8-0.504,1.401-1.014,1.808c-0.508,0.404-1.178,0.605-2.014,0.605
		c-0.947,0-1.746-0.334-2.391-0.998c-0.646-0.662-0.967-1.479-0.967-2.443c0-1.061,0.33-1.957,0.987-2.691
		c0.661-0.733,1.465-1.103,2.419-1.103c0.893,0,1.598,0.261,2.113,0.785c0.514,0.524,0.814,1.283,0.898,2.272L59.984,10.018
		L59.984,10.018z"/>
	<polygon fill="#FFFFFF" points="1.218,14.986 81,14.986 81,22 1.218,22 	"/>
</g>
</svg>
