<?xml version="1.0" encoding="utf-8"?>
<!-- Generator: Adobe Illustrator 16.0.0, SVG Export Plug-In . SVG Version: 6.00 Build 0)  -->
<!DOCTYPE svg PUBLIC "-//W3C//DTD SVG 1.1//EN" "http://www.w3.org/Graphics/SVG/1.1/DTD/svg11.dtd">
<svg version="1.1" id="Livello_2" xmlns="http://www.w3.org/2000/svg" xmlns:xlink="http://www.w3.org/1999/xlink" x="0px" y="0px"
	 width="122px" height="24px" viewBox="0 0 122 24" enable-background="new 0 0 122 24" xml:space="preserve">
<path fill="#FFFFFF" d="M72.579,5.49c1.769,0,3.671,1.691,3.709,1.729c0.121,0.127,0.601,0.646,0.646,0.689s0.387,0.572,1.168,0.264
	c0.729-0.289,0.517-1.038,0.502-1.141c-0.023-0.103-0.357-1.525-1.078-2.673c-0.576-0.909-0.713-1.215-1.351-1.215
	c-0.479,0-0.714,0.476-0.993,0.423C73.725,3.301,72.427,3,70.773,3c-2.642,0-8.276,2.611-8.276,8.97c0,6.757,5.767,9.03,8.838,9.03
	c3.929,0,6.212-0.967,9.065-2.663c0.31-0.185,0.453-0.513,0.363-0.862c-0.13-0.47-0.615-0.705-0.684-0.742
	c-0.076-0.043-0.105-0.09-0.105-0.18v-3.311c0-0.083,0.008-0.143,0.099-0.172c0.061-0.019,0.956-0.139,0.926-0.981
	c-0.017-0.474-0.388-0.833-0.865-0.833h-5.757c-0.016,0-0.956,0.039-0.956,0.939c0,0.545,0.417,0.907,0.896,1.05
	c0.113,0.034,0.076,0.126,0.076,0.207v4.046c0,0.104,0,0.934-1.812,0.934c-1.965,0-4.423-2.285-4.423-6.462
	C68.156,7.875,70.523,5.49,72.579,5.49 M31.745,14.965h-3.922c-0.136,0-0.212-0.16-0.152-0.279c0.228-0.502,1.904-4.102,2.033-4.397
	c0.045-0.098,0.22-0.1,0.266,0c0.129,0.296,1.889,4.362,1.927,4.457C31.935,14.843,31.852,14.965,31.745,14.965 M40.81,18.993
	l-0.03-0.011c-0.129-0.039-0.6-0.217-0.607-0.221c-0.433-0.164-0.698-0.402-0.88-0.83c-2.063-4.77-4.126-9.539-6.19-14.309
	c-0.129-0.31-0.342-0.341-0.645-0.341h-5.492c-1.1,0-1.191,1.64-0.061,1.766c0.683,0.078,1.107,0.758,1.153,0.832l0.008,0.011
	c0.023,0.051,0.258,0.598,0.341,0.793c0.068,0.158,0.076,0.287,0,0.445c-0.524,1.124-4.628,9.971-5.083,10.948
	c-0.152,0.329-0.349,0.507-0.706,0.601c-0.348,0.096-0.705,0.189-1.062,0.283c-0.873,0.262-0.925,1.596,0.182,1.743h4.354
	c1.32-0.201,0.979-1.489,0.327-1.713c-0.152-0.056-0.304-0.108-0.447-0.163c-0.145-0.051-0.159-0.137-0.106-0.266
	c0.137-0.283,0.266-0.566,0.402-0.853c0.068-0.151,0.167-0.194,0.326-0.194h5.993c0.364,0,0.562,0.118,0.705,0.457
	c0.365,0.836,0.721,1.67,1.084,2.506c0.069,0.166,0.167,0.226,0.35,0.226h5.833C41.805,20.411,41.356,19.173,40.81,18.993
	 M50.354,5.783c-0.146,0-0.312,0.057-0.312,0.231v4.42c0,0.183,0.136,0.293,0.312,0.293h5.445c0.305,0,0.524-0.098,0.76-0.286
	c0.272-0.227,0.547-0.451,0.818-0.677c0.818-0.578,2.102,0.228,1.503,1.368c-0.69,0.971-1.389,1.944-2.087,2.916
	c-0.85,0.978-1.835,0.206-1.957-0.483c-0.046-0.24-0.175-0.308-0.402-0.308h-4.08c-0.137,0-0.312,0.054-0.312,0.228v4.44
	c0,0.181,0.151,0.271,0.312,0.271h3.944c0.629,0,1.236-0.076,1.843-0.225c1.032-0.25,2.209-1.035,2.791-1.506
	c0.768-0.611,1.828,0.469,1.275,1.176c-0.698,0.969-1.404,1.938-2.102,2.905c-0.068,0.09-0.129,0.158-0.258,0.158H44.104
	c-1.185-0.115-1.261-1.536-0.022-1.831c0.401-0.098,0.438-0.35,0.438-0.702V5.787c0-0.35-0.082-0.561-0.447-0.671
	c-1.229-0.368-1.139-1.754,0.031-1.833h13.698c0.167,0,0.243,0.078,0.334,0.195c0.683,0.943,1.373,1.889,2.063,2.832
	c0.516,0.704-0.426,1.904-1.358,1.141c-1.774-1.459-3.595-1.648-4.218-1.668c-0.075-0.002-0.159,0-0.234,0H50.354z M1,20.708h17.561
	V3.353H1V20.708z M11.324,4.441c0,3.961-3.732,6.994-7.699,6.994H1.956C2.228,7.371,5.635,4.29,9.776,4.29
	C10.308,4.291,10.832,4.343,11.324,4.441 M11.324,19.617c-0.493,0.1-1.016,0.152-1.547,0.152c-4.142,0-7.548-3.223-7.82-7.282h1.669
	C7.592,12.488,11.324,15.657,11.324,19.617 M12.371,4.732c3.057,1.065,5.242,3.827,5.242,7.226c0,3.403-2.185,6.306-5.242,7.37
	C12.371,18.615,12.371,5.445,12.371,4.732"/>
</svg>
