<?xml version="1.0" encoding="utf-8"?>
<!-- Generator: Adobe Illustrator 16.0.0, SVG Export Plug-In . SVG Version: 6.00 Build 0)  -->
<!DOCTYPE svg PUBLIC "-//W3C//DTD SVG 1.1//EN" "http://www.w3.org/Graphics/SVG/1.1/DTD/svg11.dtd">
<svg version="1.1" id="Livello_1" xmlns="http://www.w3.org/2000/svg" xmlns:xlink="http://www.w3.org/1999/xlink" x="0px" y="0px"
	 width="122px" height="24px" viewBox="0 0 122 24" enable-background="new 0 0 122 24" xml:space="preserve">
<g>
	<g>
		<g>
			<g>
				<g>
					<path fill="#FFFFFF" d="M13.037,2.109c-0.655,0-1.207,0.016-1.895,0.016C4.521,2.125,1,7.172,1,12.115
						c0,6.807,5.25,9.771,10.143,9.771h1.895V11.02H6.994v1.919h4.149v7.025c-3.646,0-8.249-2.453-8.249-7.85
						c0-7.1,6.786-8.055,8.249-8.055h1.895L13.037,2.109L13.037,2.109z"/>
					<polygon fill="#FFFFFF" points="13.85,2 13.85,21.887 19.605,21.887 19.605,19.535 16.178,19.535 16.178,8.199 18,8.199 
						18,5.918 16.178,5.918 16.178,4.469 19.605,4.469 19.605,2 					"/>
					<path fill="#FFFFFF" d="M20.708,22v-2.465c0,0,4.114-0.506,4.114-3.84c0-3.333-4.114-6.408-4.114-9.777S24.357,2,24.822,2
						h1.064v2.469h-1.064c0,0-1.787-0.398-1.787,1.449s4.107,6.445,4.107,9.777C27.145,20.441,21.917,22,20.708,22"/>
					<path fill="#FFFFFF" d="M26.176,22v-2.465c0,0,4.114-0.506,4.114-3.84c0-3.333-4.114-6.408-4.114-9.777S29.826,2,30.29,2h1.065
						v2.469H30.29c0,0-1.787-0.398-1.787,1.449s3.964,6.445,3.964,9.777C32.467,20.441,27.385,22,26.176,22"/>
					<rect x="32.816" y="2" fill="#FFFFFF" width="2.184" height="19.887"/>
				</g>
			</g>
		</g>
	</g>
</g>
</svg>
