<?xml version="1.0" encoding="utf-8"?>
<!-- Generator: Adobe Illustrator 16.0.0, SVG Export Plug-In . SVG Version: 6.00 Build 0)  -->
<!DOCTYPE svg PUBLIC "-//W3C//DTD SVG 1.1//EN" "http://www.w3.org/Graphics/SVG/1.1/DTD/svg11.dtd">
<svg version="1.1" id="Livello_10" xmlns="http://www.w3.org/2000/svg" xmlns:xlink="http://www.w3.org/1999/xlink" x="0px" y="0px"
	 width="122px" height="24px" viewBox="0 0 122 24" enable-background="new 0 0 122 24" xml:space="preserve">
<g>
	<g>
		<path d="M46.543,14.786c0-1.177-0.936-2.159-2.094-2.159c-1.184,0-2.121,0.982-2.121,2.159c0,1.18,0.938,2.134,2.121,2.134
			C45.607,16.92,46.543,15.966,46.543,14.786 M55.996,14.743v-0.08l-0.027,0.042L55.996,14.743z M67.709,14.786
			c0-1.177-0.967-2.159-2.121-2.159c-1.156,0-2.123,0.982-2.123,2.159c0,1.18,0.967,2.134,2.123,2.134
			C66.742,16.92,67.709,15.966,67.709,14.786 M77.465,16.329c0,0.31-0.057,0.646-0.168,0.953c-0.414,1.235-1.625,1.966-3.361,1.966
			c-1.352,0-2.809-0.534-3.688-1.264l0.963-1.795c0,0,0.496,0.393,1.127,0.675c0.474,0.194,0.968,0.336,1.488,0.362
			c0.856,0.056,1.297-0.252,1.407-0.42c0.082-0.111,0.14-0.281,0.082-0.447c-0.11-0.338-0.688-0.506-1.131-0.592
			c-0.44-0.082-0.604-0.113-1.295-0.279c-0.662-0.196-2.205-0.702-2.205-2.33c0-2.074,1.767-2.804,3.443-2.804
			c1.051,0,2.068,0.309,3.004,0.841l-0.936,1.768c0,0-0.137-0.053-0.273-0.166c-0.166-0.086-0.223-0.113-0.416-0.197
			c-0.191-0.086-0.77-0.309-1.186-0.309c0,0-0.193-0.029-0.496,0c-0.303,0.03-0.605,0.17-0.742,0.363
			C73.025,12.74,73,12.88,73,12.936c0,0.395,0.246,0.449,0.303,0.508c0.139,0.082,1.102,0.277,1.406,0.336
			c0.439,0.084,0.963,0.223,0.963,0.223c0.881,0.253,1.436,0.785,1.684,1.571C77.438,15.797,77.465,16.049,77.465,16.329
			 M69.941,14.786c0,2.44-1.959,4.435-4.354,4.435c-2.399,0-4.354-1.994-4.354-4.435c0-2.465,1.955-4.46,4.354-4.46
			C67.982,10.326,69.941,12.321,69.941,14.786 M61.506,10.496l-2.838,4.209l3.115,4.43h-2.672l-3.115-4.392v4.394h-2.453v-8.641
			h2.453v4.167l2.838-4.167H61.506z M52.193,19.137H49.74v-8.641h2.453V19.137z M48.803,14.786c0,2.44-1.957,4.435-4.354,4.435
			c-2.424,0-4.381-1.994-4.381-4.435c0-2.465,1.958-4.46,4.381-4.46C46.846,10.326,48.803,12.321,48.803,14.786 M80,2H0v20h80V2z"/>
	</g>
</g>
</svg>
