<?xml version="1.0" encoding="utf-8"?>
<!-- Generator: Adobe Illustrator 16.0.0, SVG Export Plug-In . SVG Version: 6.00 Build 0)  -->
<!DOCTYPE svg PUBLIC "-//W3C//DTD SVG 1.0//EN" "http://www.w3.org/TR/2001/REC-SVG-20010904/DTD/svg10.dtd" [
	<!ENTITY ns_flows "http://ns.adobe.com/Flows/1.0/">
	<!ENTITY ns_extend "http://ns.adobe.com/Extensibility/1.0/">
	<!ENTITY ns_ai "http://ns.adobe.com/AdobeIllustrator/10.0/">
	<!ENTITY ns_graphs "http://ns.adobe.com/Graphs/1.0/">
]>
<svg version="1.0" id="Livello_1" xmlns:x="&ns_extend;" xmlns:i="&ns_ai;" xmlns:graph="&ns_graphs;"
	 xmlns="http://www.w3.org/2000/svg" xmlns:xlink="http://www.w3.org/1999/xlink" xmlns:a="http://ns.adobe.com/AdobeSVGViewerExtensions/3.0/"
	 x="0px" y="0px" width="122px" height="40px" viewBox="0 0 122 40" enable-background="new 0 0 122 40" xml:space="preserve">
<g>
	<path d="M4.299,32.297c-1.13-0.342-1.627-0.559-1.627-1.197c0-0.578,0.771-0.783,1.431-0.783c0.578,0,1.197,0.172,1.621,0.445
		c0.099,0.064,0.223,0.084,0.337,0.055c0.114-0.031,0.211-0.109,0.264-0.217l0.193-0.381c0.093-0.189,0.032-0.418-0.146-0.533
		c-0.607-0.395-1.47-0.639-2.247-0.639c-1.639,0-2.74,0.836-2.74,2.08c0,1.621,1.375,2.025,2.477,2.357
		c1.154,0.344,1.658,0.564,1.653,1.246c0,0.688-0.813,0.932-1.572,0.932c-0.728,0-1.52-0.385-2-0.828
		c-0.098-0.088-0.22-0.139-0.351-0.123c-0.127,0.014-0.244,0.088-0.311,0.199l-0.22,0.373c-0.1,0.162-0.071,0.373,0.064,0.504
		c0.714,0.703,1.788,1.137,2.808,1.137c1.715,0,2.87-0.887,2.87-2.201C6.815,33.055,5.42,32.637,4.299,32.297"/>
	<path d="M10.031,33.664l1.222-2.699l1.237,2.699H10.031z M11.862,29.311c-0.068-0.15-0.216-0.246-0.379-0.246H11.03
		c-0.163,0-0.312,0.096-0.38,0.246l-3.202,7.016c-0.057,0.131-0.047,0.277,0.031,0.4c0.076,0.115,0.208,0.186,0.35,0.186h0.464
		c0.165,0,0.313-0.096,0.381-0.244l0.796-1.754h3.593l0.808,1.756c0.067,0.148,0.216,0.242,0.379,0.242h0.464
		c0.143,0,0.275-0.07,0.354-0.189c0.074-0.121,0.084-0.27,0.026-0.396L11.862,29.311z"/>
	<path d="M17.188,29.064h-0.423c-0.229,0-0.417,0.188-0.417,0.414v7.02c0,0.229,0.188,0.414,0.417,0.414h0.423
		c0.231,0,0.417-0.186,0.417-0.414v-7.02C17.605,29.252,17.418,29.064,17.188,29.064"/>
	<path d="M25.994,29.064H25.58c-0.232,0-0.417,0.188-0.417,0.414v5.113l-3.962-5.357c-0.078-0.107-0.205-0.17-0.335-0.17h-0.497
		c-0.23,0-0.417,0.186-0.417,0.414v7.018c0,0.23,0.187,0.414,0.417,0.414h0.423c0.231,0,0.417-0.184,0.417-0.414v-5.107l3.952,5.355
		c0.077,0.104,0.202,0.168,0.335,0.168h0.496c0.231,0,0.416-0.186,0.416-0.414v-7.02C26.41,29.252,26.225,29.064,25.994,29.064"/>
	<path d="M33.273,29.064h-5.19c-0.23,0-0.417,0.188-0.417,0.414v0.414c0,0.23,0.187,0.412,0.417,0.412h1.966v6.193
		c0,0.229,0.188,0.414,0.417,0.414h0.423c0.232,0,0.418-0.186,0.418-0.414v-6.193h1.966c0.229,0,0.417-0.182,0.417-0.412v-0.414
		C33.69,29.252,33.502,29.064,33.273,29.064"/>
	<path d="M36.377,32.891h-2.251c-0.231,0-0.419,0.188-0.419,0.414v0.344c0,0.227,0.188,0.414,0.419,0.414h2.251
		c0.231,0,0.416-0.188,0.416-0.414v-0.344C36.794,33.078,36.608,32.891,36.377,32.891"/>
	<path d="M45.146,32.639h-0.384h-0.009h-1.251c-0.231,0-0.417,0.188-0.417,0.414v0.422c0,0.229,0.186,0.414,0.417,0.414h0.844v1.283
		c-0.491,0.334-1.083,0.52-1.682,0.52c-1.558,0-2.826-1.217-2.826-2.707s1.268-2.697,2.826-2.697c0.72,0,1.434,0.266,1.951,0.725
		c0.087,0.078,0.198,0.115,0.313,0.105c0.115-0.01,0.218-0.062,0.289-0.152l0.254-0.309c0.14-0.174,0.117-0.428-0.049-0.574
		c-0.759-0.66-1.74-1.025-2.757-1.025c-2.253,0-4.084,1.762-4.084,3.928c0,2.172,1.822,3.938,4.062,3.938
		c1.012,0,2.023-0.369,2.775-1.012c0.095-0.076,0.146-0.193,0.146-0.316v-2.539C45.562,32.826,45.375,32.639,45.146,32.639"/>
	<path d="M51.062,35.684c-1.544,0-2.803-1.211-2.803-2.699c0-1.48,1.259-2.686,2.803-2.686c1.547,0,2.805,1.205,2.805,2.686
		C53.867,34.473,52.609,35.684,51.062,35.684 M51.062,29.055c-2.244,0-4.071,1.764-4.071,3.93c0,2.172,1.827,3.938,4.071,3.938
		c2.246,0,4.074-1.766,4.074-3.938C55.136,30.818,53.308,29.055,51.062,29.055"/>
	<path d="M57.815,33.492h2.038c0.641,0,1.721,0.137,1.721,1.068c0,0.92-0.935,1.113-1.721,1.113h-2.038V33.492z M59.852,32.248
		h-2.037v-1.941h2.038c0.622,0,1.368,0.168,1.368,0.961C61.22,31.92,60.76,32.248,59.852,32.248 M61.818,32.768
		c0.424-0.365,0.661-0.898,0.661-1.551c0-1.328-1.005-2.152-2.618-2.152h-2.89c-0.229,0-0.414,0.188-0.414,0.414v7.02
		c0,0.229,0.187,0.414,0.414,0.414h2.909c1.848,0,2.95-0.861,2.95-2.301C62.831,33.795,62.462,33.146,61.818,32.768"/>
	<path d="M66.123,33.664l1.222-2.699l1.237,2.699H66.123z M67.953,29.311c-0.068-0.15-0.215-0.246-0.377-0.246H67.12
		c-0.163,0-0.312,0.096-0.379,0.246l-3.202,7.016c-0.057,0.131-0.046,0.277,0.029,0.4c0.079,0.115,0.208,0.186,0.353,0.186h0.464
		c0.164,0,0.312-0.096,0.379-0.244l0.797-1.754h3.592l0.811,1.756c0.066,0.148,0.216,0.242,0.38,0.242h0.462
		c0.141,0,0.274-0.07,0.352-0.189c0.08-0.121,0.086-0.27,0.029-0.396L67.953,29.311z"/>
	<path d="M73.278,29.064h-0.424c-0.229,0-0.419,0.188-0.419,0.414v7.02c0,0.229,0.19,0.414,0.419,0.414h0.424
		c0.231,0,0.417-0.186,0.417-0.414v-7.02C73.696,29.252,73.51,29.064,73.278,29.064"/>
	<path d="M82.083,29.064h-0.415c-0.23,0-0.415,0.188-0.415,0.414v5.113l-3.961-5.357c-0.08-0.107-0.203-0.17-0.338-0.17h-0.493
		c-0.23,0-0.414,0.186-0.414,0.414v7.018c0,0.23,0.184,0.414,0.414,0.414h0.426c0.229,0,0.413-0.184,0.413-0.414v-5.107l3.953,5.355
		c0.079,0.104,0.2,0.168,0.335,0.168h0.495c0.23,0,0.417-0.186,0.417-0.414v-7.02C82.5,29.252,82.313,29.064,82.083,29.064"/>
	<path d="M46.815,18.056v6.897h-1.278v-7.846L46.815,18.056z M71.582,24.932h-5.026l-0.034-0.033l-4.421-4.346
		c-0.181-0.179-0.457-0.234-0.695-0.135c-0.236,0.098-0.39,0.327-0.39,0.583v3.953h-1.312v-9.786c0-0.174-0.074-0.34-0.2-0.459
		l-3.672-3.447c-0.12-0.112-0.273-0.172-0.436-0.172h-1.837c-0.351,0-0.635,0.285-0.635,0.632v13.234h-1.305V3.708
		c0-0.258-0.154-0.488-0.394-0.586c-0.236-0.097-0.518-0.038-0.692,0.142L44.45,9.397c-0.118,0.12-0.184,0.278-0.184,0.446v4.739
		l-2.489-1.85c-0.228-0.167-0.559-0.161-0.779,0.013l-5.661,4.513c-0.152,0.12-0.239,0.3-0.239,0.494v7.2h-1.282v-3.967
		c0-1.394-0.964-2.875-2.751-2.875c-1.79,0-2.754,1.488-2.754,2.888v3.952h-1.299V22.26c0-1.088-0.754-2.249-2.154-2.249
		s-2.155,1.161-2.155,2.251v2.691l-1.293,0.002v-0.119c-0.001-0.541-0.004-1.236-0.004-1.518c0-0.924-0.879-1.74-1.883-1.74
		c-1.005,0-1.884,0.811-1.884,1.734v1.641h-5.67c-0.351,0-0.636,0.283-0.636,0.633c0,0.168,0.067,0.328,0.187,0.449
		c0.118,0.117,0.279,0.182,0.449,0.182h6.307c0.171,0,0.329-0.062,0.449-0.182c0.12-0.121,0.187-0.281,0.187-0.449v-2.158
		c0-0.236,0.256-0.582,0.611-0.582c0.35,0,0.611,0.316,0.611,0.6c0,0.164,0.006,2.146,0.006,2.146
		c0.002,0.344,0.287,0.631,0.637,0.631l2.561-0.006c0.35,0,0.636-0.281,0.636-0.631v-3.322c0-0.342,0.184-0.988,0.885-0.988
		c0.699,0,0.884,0.646,0.884,0.986v3.322c0,0.35,0.284,0.633,0.634,0.633h2.569c0.169,0,0.334-0.064,0.452-0.182
		c0.118-0.119,0.187-0.281,0.187-0.449V21c0-0.562,0.309-1.624,1.481-1.624c1.083,0,1.48,0.963,1.48,1.61v4.6
		c0,0.35,0.285,0.631,0.635,0.631h2.555c0.35,0,0.636-0.281,0.636-0.631v-7.529l0.045-0.034l4.993-3.981l2.857,2.12v9.424
		c0,0.35,0.287,0.633,0.636,0.633h2.55c0.35,0,0.637-0.283,0.637-0.633V17.74c0-0.2-0.095-0.39-0.255-0.508L45.54,15.53v-5.428
		l0.036-0.035l4.773-4.819v20.336c0,0.35,0.287,0.633,0.636,0.633h2.576c0.351,0,0.635-0.283,0.635-0.633V12.351h0.949l0.034,0.033
		l3.255,3.058v10.145c0,0.35,0.285,0.631,0.635,0.631h2.585c0.35,0,0.638-0.281,0.638-0.631v-3.07l3.558,3.498
		c0.119,0.117,0.277,0.182,0.444,0.182h5.289c0.352,0,0.635-0.283,0.635-0.633C72.217,25.215,71.934,24.932,71.582,24.932"/>
</g>
</svg>
