<?xml version="1.0" encoding="utf-8"?>
<!-- Generator: Adobe Illustrator 16.0.0, SVG Export Plug-In . SVG Version: 6.00 Build 0)  -->
<!DOCTYPE svg PUBLIC "-//W3C//DTD SVG 1.0//EN" "http://www.w3.org/TR/2001/REC-SVG-20010904/DTD/svg10.dtd" [
	<!ENTITY ns_flows "http://ns.adobe.com/Flows/1.0/">
	<!ENTITY ns_extend "http://ns.adobe.com/Extensibility/1.0/">
	<!ENTITY ns_ai "http://ns.adobe.com/AdobeIllustrator/10.0/">
	<!ENTITY ns_graphs "http://ns.adobe.com/Graphs/1.0/">
]>
<svg version="1.0" id="Livello_1" xmlns:x="&ns_extend;" xmlns:i="&ns_ai;" xmlns:graph="&ns_graphs;"
	 xmlns="http://www.w3.org/2000/svg" xmlns:xlink="http://www.w3.org/1999/xlink" xmlns:a="http://ns.adobe.com/AdobeSVGViewerExtensions/3.0/"
	 x="0px" y="0px" width="122px" height="40px" viewBox="0 0 122 40" enable-background="new 0 0 122 40" xml:space="preserve">
<g>
	<path fill="#FFFFFF" d="M61.082,19.551h2.17v4.307h-2.17V19.551L61.082,19.551z M68,25.082C68,26.133,67.127,27,66.066,27h-7.756
		c-1.059,0-1.901-0.837-1.901-1.889L56.4,18.35c0-1.051,0.873-1.916,1.932-1.916h7.756c1.061,0,1.902,0.836,1.902,1.887L68,25.082
		L68,25.082z"/>
	<path fill="#FFFFFF" d="M4.82,23.749h2.287v-4.438H4.834L4.82,23.749L4.82,23.749z M0,26.949V13.035h4.752L4.746,16.49l4.982-0.012
		c1.209,0,1.901,0.838,1.901,1.889l0.009,6.761c0,1.052-0.832,1.799-1.892,1.799L0,26.949L0,26.949z"/>
	<polygon fill="#FFFFFF" points="20.053,16.383 24.711,16.383 24.711,26.943 20.053,26.943 	"/>
	<polygon fill="#FFFFFF" points="38.18,16.383 42.838,16.383 42.838,26.943 38.18,26.943 	"/>
	<path fill="#FFFFFF" d="M55.367,18.176c0-1.18-0.783-1.793-1.973-1.793h-9.473v10.562h4.527v-7.43h2.318v7.43l4.599-0.01
		L55.367,18.176L55.367,18.176z"/>
	<path fill="#FFFFFF" d="M14.652,26.936c-1.06,0-1.918-0.838-1.918-1.889L12.738,13h4.517v3.383h1.976v3.133h-1.965v4.43h1.983v3
		L14.652,26.936L14.652,26.936z"/>
	<path fill="#FFFFFF" d="M35.207,26.943l-7.799-0.008c-1.059,0-1.754-0.838-1.754-1.89l-0.008-6.925
		c0.166-1.167,1.268-1.854,2.434-1.743h6.902c1.188,0,2.15,0.601,2.15,1.777v2.862h-4.546v-1.525h-2.375v4.443h2.375v-1.562h4.546
		l-0.004,2.673C37.13,26.098,36.266,26.943,35.207,26.943L35.207,26.943z"/>
</g>
</svg>
