<?xml version="1.0" encoding="utf-8"?>
<!-- Generator: Adobe Illustrator 16.0.0, SVG Export Plug-In . SVG Version: 6.00 Build 0)  -->
<!DOCTYPE svg PUBLIC "-//W3C//DTD SVG 1.0//EN" "http://www.w3.org/TR/2001/REC-SVG-20010904/DTD/svg10.dtd" [
	<!ENTITY ns_flows "http://ns.adobe.com/Flows/1.0/">
	<!ENTITY ns_extend "http://ns.adobe.com/Extensibility/1.0/">
	<!ENTITY ns_ai "http://ns.adobe.com/AdobeIllustrator/10.0/">
	<!ENTITY ns_graphs "http://ns.adobe.com/Graphs/1.0/">
]>
<svg version="1.0" id="Livello_1" xmlns:x="&ns_extend;" xmlns:i="&ns_ai;" xmlns:graph="&ns_graphs;"
	 xmlns="http://www.w3.org/2000/svg" xmlns:xlink="http://www.w3.org/1999/xlink" xmlns:a="http://ns.adobe.com/AdobeSVGViewerExtensions/3.0/"
	 x="0px" y="0px" width="122px" height="40px" viewBox="0 0 122 40" enable-background="new 0 0 122 40" xml:space="preserve">
<g>
	<path fill="#FFFFFF" d="M91.378,26.273v-0.006c-2.066,0-3.744-1.674-3.744-3.744c0-2.064,1.678-3.742,3.744-3.742
		c1.026,0,1.952,0.412,2.629,1.08l1.792-1.791c-1.135-1.125-2.697-1.822-4.421-1.822c-3.032,0-5.562,2.152-6.146,5.012v0.004
		c-0.084-0.408-0.13-0.83-0.13-1.264c0-3.469,2.81-6.275,6.275-6.275c3.467,0,6.275,2.807,6.275,6.275
		C97.653,23.465,94.845,26.273,91.378,26.273 M91.378,11.166c-4.879,0-8.834,3.955-8.834,8.834s3.955,8.834,8.834,8.834
		c4.88,0,8.835-3.955,8.835-8.834S96.258,11.166,91.378,11.166"/>
	<path fill="#FFFFFF" d="M7.831,14.982c0.187,0.164,0.353,0.545,0.353,0.947c0,0.426-0.24,0.877-0.518,0.877
		c-0.12,0-0.241-0.047-0.331-0.164C6.808,16,5.938,15.385,4.967,15.385c-1.652,0-3.262,1.305-3.262,3.814
		c0,1.848,1.278,4.053,3.803,4.053c1.375,0,2.083-0.617,2.624-1.422c0.195-0.047,0.405,0.117,0.428,0.332
		c-0.804,1.752-2.577,2.412-3.944,2.412c-1.257,0-2.414-0.402-3.24-1.205C0.548,22.564,0,21.404,0,19.863
		c0-2.559,1.803-5.281,5.727-5.281C6.268,14.582,7.19,14.701,7.831,14.982"/>
	<path fill="#FFFFFF" d="M19.585,18.188c0.991,0,1.323-0.021,1.391-0.162c0.045-0.094,0.098-0.279,0.098-0.609
		c0-1.438-1.323-2.836-3.358-2.836c-2.833,0-4.752,2.453-4.752,5.361c0,1.039,0.285,2.152,0.993,3.074
		c0.691,0.898,1.894,1.559,3.426,1.559c1.233,0,2.933-0.59,3.714-2.197c-0.022-0.213-0.188-0.355-0.429-0.283
		c-0.729,0.922-1.39,1.158-2.172,1.158c-2.525,0-3.923-2.035-3.923-4.424c0-0.592,0.022-0.641,0.639-0.641H19.585z M15.001,17.488
		c-0.166,0-0.166-0.072-0.166-0.119c0.022-0.791,1.227-2.088,2.622-2.088c1.369,0,1.82,0.84,1.82,1.512
		c0,0.311-0.075,0.408-0.145,0.455c-0.187,0.145-0.704,0.24-2.456,0.24H15.001z"/>
	<path fill="#FFFFFF" d="M31.52,15c0.21,0.518,0.376,1.275,0.376,1.918c-0.098,0.166-0.452,0.215-0.564,0.072
		c-0.405-1.045-1.112-1.736-2.081-1.736c-0.925,0-1.518,0.594-1.518,1.451c0,0.973,0.998,1.498,1.826,1.971
		c1.247,0.713,2.405,1.52,2.405,3.205c0,1.807-1.654,2.695-3.397,2.695c-1.112,0-1.938-0.232-2.526-0.699
		c-0.188-0.451-0.33-1.615-0.285-2.398c0.121-0.143,0.429-0.168,0.542-0.025c0.405,1.307,1.157,2.447,2.502,2.447
		c0.85,0,1.586-0.498,1.586-1.52c0-1.094-0.947-1.688-1.818-2.186c-1.375-0.783-2.338-1.613-2.338-2.92
		c0-1.736,1.413-2.693,3.209-2.693C30.43,14.582,31.302,14.812,31.52,15"/>
	<path fill="#FFFFFF" d="M39.005,20.355c-1.51,0.547-1.954,1.092-1.954,2.018c0,0.664,0.279,1.26,0.729,1.66
		c0.398,0.354,0.971,0.541,1.654,0.541c0.66,0,1.179-0.307,1.698-0.59c0.474-0.258,0.759-0.471,0.924-0.471
		c0.143,0,0.285,0.188,0.375,0.328c0.399,0.521,0.971,0.732,1.534,0.732c1.157,0,1.983-0.92,1.983-1.037
		c0-0.168-0.074-0.311-0.165-0.311c-0.075,0-0.188,0.096-0.309,0.168c-0.143,0.07-0.353,0.143-0.594,0.143
		c-0.916,0-1.127-0.973-1.082-2.064l0.144-4.131c0.067-1.781-0.76-2.762-2.451-2.762c-1.728,0-4.396,1.668-4.396,2.904
		c0,0.213,0.112,0.332,0.331,0.332c0.353,0,0.99-0.166,1.345-0.451c0.188-0.143,0.21-0.428,0.232-0.807
		c0.053-0.736,0.855-1.07,1.52-1.07c1.464,0,1.743,1.188,1.721,2.066l-0.022,1.092c-0.023,0.355-0.045,0.57-0.399,0.689
		L39.005,20.355z M38.87,22.088c0-0.926,0.684-1.281,2.074-1.756c0.429-0.143,0.827-0.238,0.97-0.238s0.24,0.049,0.24,0.309
		l-0.052,1.402c0,0.5-0.022,0.83-0.31,1.115c-0.232,0.238-0.961,0.594-1.436,0.594C39.148,23.514,38.87,22.494,38.87,22.088"/>
	<path fill="#FFFFFF" d="M51.608,17.449c0-0.922,0-1.043-0.639-1.469l-0.21-0.143c-0.091-0.094-0.091-0.355,0.022-0.424
		c0.547-0.191,1.886-0.809,2.359-1.162c0.09,0,0.212,0.047,0.257,0.166c-0.045,0.543-0.045,0.9-0.045,1.113
		c0,0.143,0.088,0.262,0.254,0.262c1-0.617,2.111-1.211,3.322-1.211c1.953,0,2.758,1.352,2.758,2.938v4.076
		c0,1.707,0.045,1.943,0.895,2.062l0.519,0.07c0.166,0.117,0.12,0.516-0.045,0.588c-0.714-0.047-1.397-0.08-2.217-0.08
		c-0.85,0-1.557,0.033-2.195,0.08c-0.165-0.072-0.217-0.471-0.052-0.588l0.451-0.07c0.879-0.145,0.9-0.355,0.9-2.062v-3.529
		c0-1.352-0.615-2.346-2.225-2.346c-0.901,0-1.683,0.381-2.013,0.83c-0.308,0.402-0.353,0.732-0.353,1.42v3.625
		c0,1.707,0.045,1.918,0.893,2.062l0.43,0.07c0.165,0.117,0.119,0.516-0.045,0.588c-0.639-0.047-1.331-0.08-2.15-0.08
		c-0.849,0-1.555,0.033-2.217,0.08c-0.165-0.072-0.212-0.471-0.046-0.588l0.497-0.07c0.871-0.119,0.894-0.355,0.894-2.062V17.449z"
		/>
	<path fill="#FFFFFF" d="M68.047,20.355c-1.513,0.547-1.964,1.092-1.964,2.018c0,0.664,0.285,1.26,0.736,1.66
		c0.399,0.354,0.97,0.541,1.653,0.541c0.663,0,1.183-0.307,1.699-0.59c0.474-0.258,0.76-0.471,0.926-0.471
		c0.142,0,0.277,0.188,0.374,0.328c0.398,0.521,0.963,0.732,1.526,0.732c1.157,0,1.993-0.92,1.993-1.037
		c0-0.168-0.076-0.311-0.166-0.311c-0.076,0-0.196,0.096-0.309,0.168c-0.144,0.07-0.361,0.143-0.594,0.143
		c-0.925,0-1.135-0.973-1.09-2.064l0.143-4.131c0.075-1.781-0.751-2.762-2.45-2.762c-1.721,0-4.39,1.668-4.39,2.904
		c0,0.213,0.112,0.332,0.324,0.332c0.359,0,0.999-0.166,1.353-0.451c0.187-0.143,0.211-0.428,0.234-0.807
		c0.044-0.736,0.848-1.07,1.51-1.07c1.465,0,1.75,1.188,1.728,2.066l-0.021,1.092c-0.023,0.355-0.054,0.57-0.406,0.689
		L68.047,20.355z M67.902,22.088c0-0.926,0.685-1.281,2.082-1.756c0.43-0.143,0.826-0.238,0.97-0.238s0.233,0.049,0.233,0.309
		l-0.046,1.402c0,0.5-0.022,0.83-0.307,1.115c-0.233,0.238-0.972,0.594-1.444,0.594C68.188,23.514,67.902,22.494,67.902,22.088"/>
</g>
</svg>
