<?xml version="1.0" encoding="utf-8"?>
<!-- Generator: Adobe Illustrator 21.0.0, SVG Export Plug-In . SVG Version: 6.00 Build 0)  -->
<svg version="1.1" id="Livello_1" xmlns="http://www.w3.org/2000/svg" xmlns:xlink="http://www.w3.org/1999/xlink" x="0px" y="0px"
	 width="122px" height="40px" viewBox="0 0 122 40" style="enable-background:new 0 0 122 40;" xml:space="preserve">
<style type="text/css">
	.st0{fill:#1D1D1B;}
</style>
<g>
	<g>
		<path class="st0" d="M71.9,30.8c0.2,0,0.4,0,0.7,0.1c0.3,0.1,0.6,0.4,0.7,0.8c0.1,0.3,0.1,0.7,0,1.1c-0.2,0.5-0.7,0.8-1.3,0.8
			c0.4-0.1,0.8-0.4,1-0.8c0.4-1-0.6-1.8-1.7-1.5c-0.4,0.1-0.6,0.4-0.8,0.8c-0.2,0.4-0.1,0.8-0.1,1c-0.1-0.2-0.1-0.4-0.1-0.6
			C70.2,31.6,70.9,30.8,71.9,30.8"/>
		<path class="st0" d="M63.7,33.9c0.4,0.2,0.8,0.2,1.2,0.1c0.4-0.1,0.7-0.4,0.9-0.8c0.1-0.2,0.2-0.4,0.2-0.7c0-0.2,0-0.4-0.1-0.6
			c0,0.2,0.1,0.6-0.1,1s-0.5,0.6-0.8,0.7c-1,0.4-2.1-0.5-1.6-1.5c0.2-0.4,0.6-0.7,1-0.8c-0.5,0-1,0.3-1.3,0.8
			c-0.2,0.3-0.2,0.7-0.1,1.1C63.1,33.4,63.4,33.7,63.7,33.9z"/>
		<path class="st0" d="M71.2,33.9c0.4,0.2,0.8,0.2,1.2,0.1c0.4-0.1,0.7-0.4,0.9-0.8c0.1-0.2,0.2-0.4,0.2-0.7c0-0.2,0-0.4-0.1-0.6
			c0,0.2,0.1,0.6-0.1,1s-0.5,0.6-0.8,0.7c-1,0.4-2.1-0.5-1.6-1.5c0.2-0.4,0.6-0.7,1-0.8c-0.5,0-1,0.3-1.3,0.8
			c-0.2,0.3-0.2,0.7-0.1,1.1C70.6,33.4,70.9,33.7,71.2,33.9"/>
		<path class="st0" d="M64.4,30.8c0.2,0,0.4,0,0.7,0.1c0.3,0.1,0.6,0.4,0.7,0.8c0.1,0.3,0.1,0.7,0,1.1c-0.2,0.5-0.7,0.8-1.3,0.8
			c0.4-0.1,0.8-0.4,1-0.8c0.4-1-0.6-1.8-1.7-1.5c-0.4,0.1-0.6,0.4-0.8,0.8c-0.2,0.4-0.1,0.8-0.1,1c-0.1-0.2-0.1-0.4-0.1-0.6
			C62.7,31.6,63.4,30.8,64.4,30.8"/>
		<path class="st0" d="M49.1,31.4h-0.6v2.1c0,0.1,0,0.2,0.1,0.3h-0.7c0.1-0.1,0.1-0.2,0.1-0.3v-2.1h-0.7c-0.1,0-0.2,0-0.3,0.1
			l0.1-0.4H49c0.2,0,0.4,0,0.6,0C49.4,31.2,49.2,31.4,49.1,31.4"/>
		<path class="st0" d="M55.5,33.7h-1.9c0.1-0.1,0.1-0.1,0.1-0.3v-2.1c0-0.1,0-0.2-0.1-0.3h1.7v0.3c-0.1-0.1-0.2-0.1-0.4-0.1h-0.8
			v0.9c0.3,0,0.6,0,0.9,0v0.3c-0.1-0.1-0.3-0.1-0.4-0.1H54v1c0.1,0,0.3,0,0.4,0c0.3,0,0.6,0,0.8-0.1L55.5,33.7"/>
		<path class="st0" d="M58.8,31.3v2.4h-0.2l-1.7-2v1.8c0,0.1,0,0.2,0.1,0.2h-0.5c0.1-0.1,0.1-0.1,0.1-0.2v-2.2c0-0.1,0-0.2-0.1-0.3
			H57l1.5,1.8v-1.6c0-0.1,0-0.2-0.1-0.2H59C58.9,31.1,58.8,31.2,58.8,31.3"/>
		<path class="st0" d="M61.8,31.4h-0.6v2.1c0,0.1,0,0.2,0.1,0.3h-0.7c0.1-0.1,0.1-0.2,0.1-0.3v-2.1H60c-0.1,0-0.2,0-0.3,0.1l0.1-0.4
			h1.8c0.2,0,0.4,0,0.6,0C62.2,31.2,62,31.4,61.8,31.4"/>
		<path class="st0" d="M76.4,33.6c-0.2,0.1-0.6,0.2-0.8,0.2c-0.8,0-1.4-0.5-1.4-1.3s0.5-1.5,1.5-1.5c0.2,0,0.5,0,0.7,0.1l0.1,0.5
			c-0.2-0.2-0.4-0.4-0.7-0.4c-0.5,0-0.9,0.3-0.9,1.1c0,0.5,0.3,1.2,1,1.2c0.3,0,0.6-0.2,0.7-0.5v0.1C76.5,33.3,76.5,33.5,76.4,33.6"
			/>
		<path class="st0" d="M52.1,33.7c-0.1-0.1-0.3-0.3-0.6-0.9c-0.1-0.2-0.2-0.4-0.4-0.4c0.4,0,0.6-0.3,0.6-0.6c0-0.3-0.3-0.5-0.6-0.5
			H51v2.2c0,0.1,0,0.2,0.1,0.3h-0.7c0.1-0.1,0.1-0.1,0.1-0.2v-2.2c0-0.1,0-0.2-0.1-0.3h0.9c0.5,0,0.9,0.2,0.9,0.6s-0.4,0.6-0.8,0.7
			c0.3,0,0.6,0.4,0.8,0.8c0.2,0.3,0.4,0.5,0.6,0.6C52.9,33.7,52.3,33.8,52.1,33.7"/>
		<path class="st0" d="M68.1,33.7h-1.2c0.1-0.1,0.1-0.1,0.1-0.2v-2.2c0-0.1,0-0.2-0.1-0.3h1c0.8,0,1.5,0.5,1.5,1.4
			C69.4,33.2,68.9,33.7,68.1,33.7 M67.8,31.3c-0.1,0-0.2,0-0.2,0v2.1c0.1,0,0.4,0,0.5,0c0.6,0,0.8-0.6,0.8-1.1
			C68.9,31.7,68.5,31.3,67.8,31.3z"/>
	</g>
	<g>
		<g>
			<path class="st0" d="M46,25.2c0,1.4,0,2,0.2,2.1c0.1,0.1,0.4,0.2,1.1,0.2c0,0,0.2,0,0.3,0c0.6,0,1.3,0,1.5-0.3s0.2-0.4,0.3-0.6
				c0,0,0-0.1,0.1-0.1c0,0,0,0,0,0.1s0,1.2-0.1,1.3c0,0,0,0.1-0.1,0.1s-2.3,0-2.7,0s-0.7,0-0.9,0c0,0-0.2,0-0.4,0s-0.4,0-0.5,0
				s-0.1,0-0.1-0.1c0,0,0,0,0.1,0s0.2,0,0.2,0c0.1,0,0.3-0.3,0.3-0.6c0-0.4,0-1.2,0-2.1v-1.7c0-1.5,0-1.8,0-2.1
				c0-0.3-0.2-0.5-0.4-0.6c-0.1,0-0.2,0-0.2,0h-0.1c0,0,0-0.1,0.1-0.1c0.3,0,0.9,0,1,0s0.8,0,1,0c0.1,0,0.1,0,0.1,0.1c0,0,0,0-0.1,0
				c0,0-0.1,0-0.2,0c-0.2,0-0.4,0.2-0.4,0.6c0,0.3,0,0.6,0,2.1L46,25.2L46,25.2z"/>
			<path class="st0" d="M54.7,20.8C54.7,20.8,54.6,20.8,54.7,20.8C54.7,20.7,54.6,20.8,54.7,20.8c-0.2,0-1.9,0-2.6,0h-2.9
				c-0.3,0-0.4,0-0.5,0s-0.1,0-0.1,0s0,0,0,0.1s0,1.2,0,1.2c0,0.1,0,0.1,0,0.1s0.1-0.1,0.1-0.2c0.1-0.5,0.5-0.7,1.4-0.8h1.2v4.1
				c0,0.9,0,1.7,0,2.1c0,0.3-0.1,0.5-0.3,0.5c-0.1,0-0.2,0.1-0.3,0.1h-0.1c0,0,0,0.1,0.1,0.1c0.2,0,0.9,0,0.9,0s0.7,0,1,0
				c0.1,0,0.1,0,0.1-0.1l0,0c0,0-0.2,0-0.3-0.1c-0.2,0-0.2-0.2-0.3-0.5c0-0.4,0-1.2,0-2.1v-4.1h1.2c0.9,0,1.3,0.2,1.4,0.8
				c0,0.1,0.1,0.2,0.1,0.2s0.1,0,0-0.1C54.7,22,54.7,20.9,54.7,20.8z"/>
			<path class="st0" d="M83.2,26.3c-0.2,1.5-1.9,1.9-2.7,1.9c-0.5,0-1-0.1-1.4-0.3C79,27.8,79,27.8,79,27.5c0-0.5,0-0.9,0-1
				s0-0.2,0.1-0.2s0.1,0,0.1,0.1s0,0.2,0,0.4c0.1,0.7,0.8,1,1.4,1c1,0,1.7-0.5,1.8-0.9c0.3-1-0.1-1.7-1.4-2.1
				c-1.5-0.5-1.9-1.5-1.9-2.1c0-1,0.8-1.9,2-2c0.6,0,1.2,0.1,1.2,0.1c0.1,0,0.1,0,0.2,0s0.1,0,0.1,0.1c0,0,0,0.4,0,1
				c0,0.2,0,0.2-0.1,0.2s-0.1,0-0.1-0.1s-0.1-0.4-0.1-0.5S82,20.9,81.1,21c0,0-1.3,0-1.3,1.2c0,0.5,0.2,1.2,1.5,1.7
				C82.7,24.5,83.3,25,83.2,26.3z"/>
			<path class="st0" d="M85.6,25.2c0,0.9,0,1.7,0,2.1c0,0.3,0.1,0.5,0.3,0.5c0.1,0,0.3,0.1,0.3,0.1l0,0c0,0,0,0.1-0.1,0.1
				c-0.3,0-0.9,0-1,0c0,0-0.7,0-0.9,0c-0.1,0-0.1,0-0.1-0.1c0,0,0,0,0.1,0s0.2,0,0.3-0.1c0.2,0,0.2-0.2,0.3-0.5c0-0.4,0-1.2,0-2.1
				v-1.7c0-1.5,0-1.8,0-2.1c0-0.3-0.1-0.5-0.3-0.5c-0.1,0-0.2-0.1-0.3-0.1h-0.1c0,0,0-0.1,0.1-0.1c0.2,0,0.9,0,1,0c0,0,0.7,0,0.9,0
				c0.1,0,0.1,0,0.1,0.1c0,0,0,0-0.1,0s-0.1,0-0.2,0.1c-0.2,0-0.3,0.2-0.3,0.5s0,0.6,0,2.1C85.6,23.5,85.6,25.2,85.6,25.2z"/>
			<g>
				<path class="st0" d="M70.8,27.9c-0.1,0-0.1,0-0.3-0.1c-0.3-0.1-0.3-0.4-0.4-0.8l-0.4-5.7c0-0.3,0.1-0.5,0.2-0.5s0.2-0.1,0.2-0.1
					l0,0c0,0,0-0.1-0.1-0.1c-0.2,0-0.7,0.1-0.8,0.1c-0.3,0-0.7,0-0.9,0c-0.1,0-0.1,0-0.1,0s0,0,0.1,0.1c0.1,0,0.1,0,0.2,0.1
					c0.2,0.1,0.2,0.3,0.1,0.6c-0.1,0.3-0.9,2.3-2.1,5.1c-1.2-2.9-2.1-5.1-2.2-5.4c0-0.2,0-0.3,0-0.3c0.1,0,0.2-0.1,0.2-0.1
					s0.1,0,0.1-0.1c0,0,0-0.1-0.1,0c-0.2,0-0.7,0-1,0c-0.1,0-0.7-0.1-0.9-0.1c-0.1,0-0.1,0-0.1,0.1l0,0c0,0,0.1,0,0.2,0.1
					c0.1,0.1,0.2,0.2,0.2,0.5C63.2,22,63,27,63,27c0,0.4-0.1,0.7-0.3,0.8c-0.1,0-0.2,0.1-0.3,0.1h-0.1c0,0.1,0.1,0.1,0.2,0.1
					c0.2,0,0.7,0,0.8,0s0.6,0,0.9,0c0.1,0,0.1,0,0.1-0.1c0,0,0,0-0.1,0c0,0-0.2,0-0.3-0.1c-0.2-0.1-0.3-0.4-0.3-0.9
					c0-0.4,0.2-5.1,0.2-5.1l2.7,6.5l2.6-6c0,0,0.3,4.2,0.3,4.6s-0.1,0.8-0.2,0.9c-0.1,0-0.3,0.1-0.3,0.1h-0.1c0,0.1,0,0.1,0.2,0.1
					c0.4,0,0.9,0,0.9,0c0.1,0,0.5,0,0.8,0C70.8,28,70.9,28,70.8,27.9C70.9,27.9,70.8,27.9,70.8,27.9z"/>
			</g>
		</g>
		<path class="st0" d="M44.2,27.9c-0.1,0-0.2,0-0.3,0c-0.3,0-0.5-0.3-0.6-0.6l-3.8-8.7L36,27.4c-0.1,0.3-0.3,0.5-0.6,0.6
			c-0.1,0-0.2,0-0.3,0c0,0-0.1,0-0.1,0.1s0.1,0.1,0.2,0.1c0.4,0,0.7,0,1.1,0c0.1,0,0.7,0,0.8,0c0,0,0.1,0,0.1-0.1l0,0h-0.1
			c-0.1,0-0.3-0.2-0.3-0.4c0-0.2,0.1-0.5,0.2-0.8l0.9-2.1h3.4c0.2,0.5,0.4,1,0.6,1.4c0.3,0.7,0.5,1.2,0.5,1.4c0,0.2-0.3,0.4-0.4,0.4
			h-0.1h-0.1c0,0,0,0.1,0.1,0.1s0.8,0,0.9,0c0.5,0,0.9,0,1.3,0C44.2,28,44.3,28,44.2,27.9C44.3,27.9,44.3,27.9,44.2,27.9z M38.1,24
			l1.4-3.4c0.4,1,1,2.2,1.5,3.4H38.1z"/>
		<path class="st0" d="M61.5,26.5c0,0-0.1,0.1-0.1,0.2c-0.1,0.3-0.2,0.4-0.5,0.6c-0.5,0.3-1.1,0.4-2,0.4c-2,0-2.9-1.5-2.9-3.3l0,0
			c0.9,0,3.3,0,3.5,0c0.4,0,0.7,0.2,0.7,0.5V25v-0.1c0,0,0-0.4,0-0.6c0-0.3,0-0.6,0-0.7v-0.1c0,0,0,0,0,0.1
			c-0.1,0.4-0.4,0.5-0.8,0.5c-0.2,0-2.6,0-3.4,0c0.1-1.6,1-2.8,2.9-2.8c1.3,0,2,0.3,2.4,1.2c0,0.1,0,0.2,0.1,0.2s0-0.2,0-0.2
			s0-1.3,0-1.4S61.3,21,61.3,21s-0.1,0-0.2,0c-0.4-0.1-0.8-0.1-1.3-0.1c-0.3,0-0.5,0-0.8,0c-2.5,0-3.8,1.5-3.8,3.7
			c0,2.4,1.3,3.7,3.8,3.7c0.5,0,0.9,0,1.3-0.1c0.3-0.1,1.1-0.1,1.2-0.1c0.1,0,0.1,0,0.1-0.1s0-0.8,0-1
			C61.5,26.5,61.5,26.5,61.5,26.5z"/>
		<path class="st0" d="M78.4,27.9c0,0-0.1,0-0.2-0.1c-0.1,0-0.3-0.2-0.4-0.5c-0.1-0.1-2.8-7-2.8-7c-0.8,2-2.7,6.4-2.7,6.4
			c-0.2,0.5-0.4,0.9-0.7,1c-0.1,0-0.2,0.1-0.2,0.1h-0.1c0,0.1,0.1,0.1,0.1,0.1c0.2,0,0.7,0,0.7,0c0.1,0,0.5,0,0.7,0
			c0.1,0,0.1,0,0.1-0.1l0,0c0,0-0.1,0-0.2-0.1s-0.1-0.4,0-0.7c0-0.1,0.4-0.9,0.8-1.8h2.7c0.4,0.9,0.7,1.6,0.7,1.8
			c0.2,0.4,0.2,0.7,0.1,0.8c-0.1,0-0.2,0.1-0.3,0.1l0,0c0,0.1,0,0.1,0.1,0.1c0.3,0,0.8,0,0.9,0S78.2,28,78.4,27.9
			C78.4,28,78.5,28,78.4,27.9C78.5,27.9,78.4,27.9,78.4,27.9z M73.7,24.7c0.4-1,0.9-2.1,1.1-2.7c0.2,0.5,0.7,1.6,1.1,2.7H73.7z"/>
	</g>
	<g>
		<path class="st0" d="M61.8,6.5c-3.3,0-5.9,2.7-5.9,5.9c0,3.3,2.7,5.9,5.9,5.9c3.3,0,5.9-2.7,5.9-5.9S65.1,6.5,61.8,6.5z
			 M61.8,18.2c-3.2,0-5.8-2.6-5.8-5.8s2.6-5.8,5.8-5.8s5.8,2.6,5.8,5.8S65,18.2,61.8,18.2z"/>
		<path class="st0" d="M61.8,7.2c-2.9,0-5.3,2.4-5.3,5.3s2.4,5.3,5.3,5.3s5.3-2.4,5.3-5.3C67.1,9.5,64.7,7.2,61.8,7.2z M61.8,17.6
			c-2.9,0-5.2-2.3-5.2-5.2s2.3-5.2,5.2-5.2c2.9,0,5.2,2.3,5.2,5.2S64.7,17.6,61.8,17.6z"/>
		<ellipse class="st0" cx="61.8" cy="6.9" rx="0.1" ry="0.1"/>
		
			<ellipse transform="matrix(0.9973 -7.300065e-02 7.300065e-02 0.9973 -0.3399 4.5005)" class="st0" cx="61.4" cy="6.9" rx="0.1" ry="0.1"/>
		<ellipse transform="matrix(0.9899 -0.1421 0.1421 0.9899 -0.3614 8.7381)" class="st0" cx="61" cy="6.9" rx="0.1" ry="0.1"/>
		<ellipse transform="matrix(0.9772 -0.2124 0.2124 0.9772 -0.104 13.0308)" class="st0" cx="60.6" cy="7" rx="0.1" ry="0.1"/>
		<ellipse transform="matrix(0.9595 -0.2818 0.2818 0.9595 0.4388 17.251)" class="st0" cx="60.2" cy="7.1" rx="0.1" ry="0.1"/>
		<ellipse transform="matrix(0.9368 -0.3498 0.3498 0.9368 1.2679 21.4078)" class="st0" cx="59.9" cy="7.2" rx="0.1" ry="0.1"/>
		<ellipse transform="matrix(0.9094 -0.4158 0.4158 0.9094 2.31 25.41)" class="st0" cx="59.5" cy="7.4" rx="0.1" ry="0.1"/>
		<ellipse transform="matrix(0.8778 -0.4791 0.4791 0.8778 3.5769 29.2423)" class="st0" cx="59.1" cy="7.6" rx="0.1" ry="0.1"/>
		<ellipse transform="matrix(0.8417 -0.54 0.54 0.8417 5.0942 32.99)" class="st0" cx="58.8" cy="7.8" rx="0.1" ry="0.1"/>
		<ellipse transform="matrix(0.8017 -0.5978 0.5978 0.8017 6.8249 36.5611)" class="st0" cx="58.5" cy="8" rx="0.1" ry="0.1"/>
		<ellipse transform="matrix(0.7572 -0.6531 0.6531 0.7572 8.7887 39.9905)" class="st0" cx="58.2" cy="8.2" rx="0.1" ry="0.1"/>
		<ellipse transform="matrix(0.7078 -0.7065 0.7065 0.7078 10.9297 43.3865)" class="st0" cx="57.9" cy="8.5" rx="0.1" ry="0.1"/>
		<ellipse transform="matrix(0.6549 -0.7557 0.7557 0.6549 13.2238 46.5575)" class="st0" cx="57.6" cy="8.8" rx="0.1" ry="0.1"/>
		<ellipse transform="matrix(0.5997 -0.8003 0.8003 0.5997 15.7317 49.5723)" class="st0" cx="57.4" cy="9.1" rx="0.1" ry="0.1"/>
		<ellipse transform="matrix(0.5414 -0.8408 0.8408 0.5414 18.2582 52.279)" class="st0" cx="57.1" cy="9.4" rx="0.1" ry="0.1"/>
		<ellipse transform="matrix(0.4811 -0.8767 0.8767 0.4811 20.909 54.9828)" class="st0" cx="56.9" cy="9.8" rx="0.1" ry="0.1"/>
		<ellipse transform="matrix(0.4167 -0.909 0.909 0.4167 23.8922 57.4745)" class="st0" cx="56.7" cy="10.1" rx="0.1" ry="0.1"/>
		<ellipse transform="matrix(0.3519 -0.936 0.936 0.3519 26.8503 59.7766)" class="st0" cx="56.6" cy="10.5" rx="0.1" ry="0.1"/>
		<ellipse transform="matrix(0.2839 -0.9589 0.9589 0.2839 30.0631 61.9902)" class="st0" cx="56.5" cy="10.9" rx="0.1" ry="0.1"/>
		<ellipse transform="matrix(0.2128 -0.9771 0.9771 0.2128 33.4262 64.0323)" class="st0" cx="56.5" cy="11.3" rx="0.1" ry="0.1"/>
		<ellipse transform="matrix(0.1416 -0.9899 0.9899 0.1416 36.7817 65.8468)" class="st0" cx="56.4" cy="11.7" rx="0.1" ry="0.1"/>
		
			<ellipse transform="matrix(7.178365e-02 -0.9974 0.9974 7.178365e-02 40.244 67.3014)" class="st0" cx="56.3" cy="12" rx="0.1" ry="0.1"/>
		
			<ellipse transform="matrix(1.563080e-03 -1 1 1.563080e-03 43.7086 68.7629)" class="st0" cx="56.3" cy="12.5" rx="0.1" ry="0.1"/>
		
			<ellipse transform="matrix(0.9973 -7.339283e-02 7.339283e-02 0.9973 -0.7949 4.1668)" class="st0" cx="56.3" cy="12.9" rx="0.1" ry="0.1"/>
		<ellipse transform="matrix(0.9896 -0.1437 0.1437 0.9896 -1.3124 8.2273)" class="st0" cx="56.3" cy="13.2" rx="0.1" ry="0.1"/>
		<ellipse transform="matrix(0.9769 -0.2136 0.2136 0.9769 -1.6028 12.361)" class="st0" cx="56.4" cy="13.6" rx="0.1" ry="0.1"/>
		<ellipse transform="matrix(0.9589 -0.2836 0.2836 0.9589 -1.6497 16.5988)" class="st0" cx="56.5" cy="14" rx="0.1" ry="0.1"/>
		<ellipse transform="matrix(0.9364 -0.351 0.351 0.9364 -1.4533 20.7827)" class="st0" cx="56.6" cy="14.4" rx="0.1" ry="0.1"/>
		<ellipse transform="matrix(0.9095 -0.4157 0.4157 0.9095 -1.0253 24.908)" class="st0" cx="56.7" cy="14.8" rx="0.1" ry="0.1"/>
		<ellipse transform="matrix(0.8777 -0.4792 0.4792 0.8777 -0.277 29.1093)" class="st0" cx="56.9" cy="15.1" rx="0.1" ry="0.1"/>
		<ellipse transform="matrix(0.8412 -0.5408 0.5408 0.8412 0.6796 33.3434)" class="st0" cx="57.1" cy="15.5" rx="0.1" ry="0.1"/>
		<ellipse transform="matrix(0.8002 -0.5997 0.5997 0.8002 2.0012 37.5879)" class="st0" cx="57.4" cy="15.8" rx="0.1" ry="0.1"/>
		<ellipse transform="matrix(0.7556 -0.6551 0.6551 0.7556 3.5333 41.6692)" class="st0" cx="57.6" cy="16.1" rx="0.1" ry="0.1"/>
		<ellipse transform="matrix(0.7065 -0.7077 0.7077 0.7065 5.3967 45.7966)" class="st0" cx="57.9" cy="16.4" rx="0.1" ry="0.1"/>
		<ellipse transform="matrix(0.6543 -0.7563 0.7563 0.6543 7.5082 49.8175)" class="st0" cx="58.2" cy="16.7" rx="0.1" ry="0.1"/>
		<ellipse transform="matrix(0.5986 -0.801 0.801 0.5986 9.9614 53.6347)" class="st0" cx="58.5" cy="16.9" rx="0.1" ry="0.1"/>
		<ellipse transform="matrix(0.5415 -0.8407 0.8407 0.5415 12.5854 57.2385)" class="st0" cx="58.8" cy="17.1" rx="0.1" ry="0.1"/>
		<ellipse transform="matrix(0.4811 -0.8767 0.8767 0.4811 15.4603 60.849)" class="st0" cx="59.1" cy="17.4" rx="0.1" ry="0.1"/>
		<ellipse transform="matrix(0.4186 -0.9082 0.9082 0.4186 18.7066 64.1849)" class="st0" cx="59.5" cy="17.5" rx="0.1" ry="0.1"/>
		<ellipse transform="matrix(0.3544 -0.9351 0.9351 0.3544 22.1537 67.3551)" class="st0" cx="59.9" cy="17.6" rx="0.1" ry="0.1"/>
		<ellipse transform="matrix(0.2881 -0.9576 0.9576 0.2881 25.7464 70.3437)" class="st0" cx="60.2" cy="17.9" rx="0.1" ry="0.1"/>
		<ellipse transform="matrix(0.2189 -0.9757 0.9757 0.2189 29.8254 73.1424)" class="st0" cx="60.6" cy="17.9" rx="0.1" ry="0.1"/>
		<ellipse transform="matrix(0.1499 -0.9887 0.9887 0.1499 34.0651 75.6893)" class="st0" cx="61" cy="18" rx="0.1" ry="0.1"/>
		
			<ellipse transform="matrix(7.751766e-02 -0.997 0.997 7.751766e-02 38.6567 77.8121)" class="st0" cx="61.4" cy="18" rx="0.1" ry="0.1"/>
		<ellipse transform="matrix(8.361968e-03 -1 1 8.361968e-03 43.2232 79.6081)" class="st0" cx="61.7" cy="18" rx="0.1" ry="0.1"/>
		
			<ellipse transform="matrix(0.998 -6.326966e-02 6.326966e-02 0.998 -1.0142 3.9714)" class="st0" cx="62.2" cy="18" rx="0.1" ry="0.1"/>
		<ellipse transform="matrix(0.991 -0.1342 0.1342 0.991 -1.8494 8.5637)" class="st0" cx="62.6" cy="18" rx="0.1" ry="0.1"/>
		<ellipse transform="matrix(0.9791 -0.2034 0.2034 0.9791 -2.3239 13.1885)" class="st0" cx="63" cy="17.9" rx="0.1" ry="0.1"/>
		<ellipse transform="matrix(0.9621 -0.2728 0.2728 0.9621 -2.4509 17.9713)" class="st0" cx="63.4" cy="17.8" rx="0.1" ry="0.1"/>
		<ellipse transform="matrix(0.9405 -0.3397 0.3397 0.9405 -2.2183 22.7278)" class="st0" cx="63.8" cy="17.7" rx="0.1" ry="0.1"/>
		<ellipse transform="matrix(0.9144 -0.4048 0.4048 0.9144 -1.5966 27.4434)" class="st0" cx="64.1" cy="17.5" rx="0.1" ry="0.1"/>
		<ellipse transform="matrix(0.8825 -0.4703 0.4703 0.8825 -0.5516 32.3656)" class="st0" cx="64.5" cy="17.3" rx="0.1" ry="0.1"/>
		<ellipse transform="matrix(0.8463 -0.5327 0.5327 0.8463 0.8526 37.1386)" class="st0" cx="64.8" cy="17.1" rx="0.1" ry="0.1"/>
		<ellipse transform="matrix(0.8055 -0.5926 0.5926 0.8055 2.6417 41.8554)" class="st0" cx="65.1" cy="16.9" rx="0.1" ry="0.1"/>
		<ellipse transform="matrix(0.7625 -0.647 0.647 0.7625 4.7616 46.3611)" class="st0" cx="65.5" cy="16.7" rx="0.1" ry="0.1"/>
		<ellipse transform="matrix(0.714 -0.7002 0.7002 0.714 7.2919 50.6864)" class="st0" cx="65.7" cy="16.4" rx="0.1" ry="0.1"/>
		<ellipse transform="matrix(0.6638 -0.7479 0.7479 0.6638 10.139 54.7654)" class="st0" cx="66" cy="16.1" rx="0.1" ry="0.1"/>
		<ellipse transform="matrix(0.6092 -0.793 0.793 0.6092 13.4004 58.7536)" class="st0" cx="66.3" cy="15.8" rx="0.1" ry="0.1"/>
		<ellipse transform="matrix(0.5519 -0.8339 0.8339 0.5519 16.8758 62.4207)" class="st0" cx="66.5" cy="15.5" rx="0.1" ry="0.1"/>
		<ellipse transform="matrix(0.4905 -0.8715 0.8715 0.4905 20.8328 65.7891)" class="st0" cx="66.7" cy="15.1" rx="0.1" ry="0.1"/>
		<ellipse transform="matrix(0.426 -0.9047 0.9047 0.426 25.0437 69.0398)" class="st0" cx="66.9" cy="14.8" rx="0.1" ry="0.1"/>
		<ellipse transform="matrix(0.3462 -0.9382 0.9382 0.3462 30.2533 72.2694)" class="st0" cx="67" cy="14.4" rx="0.1" ry="0.1"/>
		<ellipse transform="matrix(0.2807 -0.9598 0.9598 0.2807 34.8443 74.5228)" class="st0" cx="67.1" cy="14" rx="0.1" ry="0.1"/>
		<ellipse transform="matrix(0.2108 -0.9775 0.9775 0.2108 39.7883 76.5299)" class="st0" cx="67.3" cy="13.6" rx="0.1" ry="0.1"/>
		<ellipse transform="matrix(0.1416 -0.9899 0.9899 0.1416 44.7134 78.0738)" class="st0" cx="67.4" cy="13.3" rx="0.1" ry="0.1"/>
		
			<ellipse transform="matrix(7.084294e-02 -0.9975 0.9975 7.084294e-02 49.7959 79.1285)" class="st0" cx="67.4" cy="12.8" rx="0.1" ry="0.1"/>
		<ellipse class="st0" cx="67.4" cy="12.5" rx="0.1" ry="0.1"/>
		
			<ellipse transform="matrix(0.9984 -5.704167e-02 5.704167e-02 0.9984 -0.5805 3.8644)" class="st0" cx="67.4" cy="12.1" rx="0.1" ry="0.1"/>
		<ellipse transform="matrix(0.992 -0.1262 0.1262 0.992 -0.9385 8.5867)" class="st0" cx="67.3" cy="11.7" rx="0.1" ry="0.1"/>
		<ellipse transform="matrix(0.9809 -0.1947 0.1947 0.9809 -0.9123 13.3198)" class="st0" cx="67.3" cy="11.3" rx="0.1" ry="0.1"/>
		<ellipse transform="matrix(0.9646 -0.2638 0.2638 0.9646 -0.4948 18.1141)" class="st0" cx="67.2" cy="10.9" rx="0.1" ry="0.1"/>
		<ellipse transform="matrix(0.9439 -0.3303 0.3303 0.9439 0.2923 22.7182)" class="st0" cx="67" cy="10.5" rx="0.1" ry="0.1"/>
		<ellipse transform="matrix(0.9179 -0.3969 0.3969 0.9179 1.4446 27.3932)" class="st0" cx="66.9" cy="10.2" rx="0.1" ry="0.1"/>
		<ellipse transform="matrix(0.8873 -0.4613 0.4613 0.8873 2.9994 31.8737)" class="st0" cx="66.7" cy="9.8" rx="0.1" ry="0.1"/>
		<ellipse transform="matrix(0.8522 -0.5232 0.5232 0.8522 4.8526 36.2017)" class="st0" cx="66.5" cy="9.5" rx="0.1" ry="0.1"/>
		<ellipse transform="matrix(0.7999 -0.6001 0.6001 0.7999 7.8132 41.6044)" class="st0" cx="66.3" cy="9.1" rx="0.1" ry="0.1"/>
		<ellipse transform="matrix(0.7567 -0.6537 0.6537 0.7567 10.2969 45.274)" class="st0" cx="66" cy="8.8" rx="0.1" ry="0.1"/>
		<ellipse transform="matrix(0.7065 -0.7077 0.7077 0.7065 13.3199 49.057)" class="st0" cx="65.8" cy="8.5" rx="0.1" ry="0.1"/>
		<ellipse transform="matrix(0.6548 -0.7558 0.7558 0.6548 16.3457 52.399)" class="st0" cx="65.5" cy="8.3" rx="0.1" ry="0.1"/>
		<ellipse transform="matrix(0.6005 -0.7996 0.7996 0.6005 19.6782 55.3298)" class="st0" cx="65.2" cy="8" rx="0.1" ry="0.1"/>
		<ellipse transform="matrix(0.5557 -0.8314 0.8314 0.5557 22.2771 57.3549)" class="st0" cx="64.8" cy="7.8" rx="0.1" ry="0.1"/>
		<ellipse transform="matrix(0.4929 -0.8701 0.8701 0.4929 26.1063 59.999)" class="st0" cx="64.5" cy="7.6" rx="0.1" ry="0.1"/>
		<ellipse transform="matrix(0.4309 -0.9024 0.9024 0.4309 29.7567 62.0633)" class="st0" cx="64.1" cy="7.4" rx="0.1" ry="0.1"/>
		<ellipse transform="matrix(0.3649 -0.9311 0.9311 0.3649 33.7423 63.9278)" class="st0" cx="63.7" cy="7.2" rx="0.1" ry="0.1"/>
		<ellipse transform="matrix(0.2979 -0.9546 0.9546 0.2979 37.74 65.4686)" class="st0" cx="63.4" cy="7.1" rx="0.1" ry="0.1"/>
		<ellipse transform="matrix(0.2267 -0.974 0.974 0.2267 41.8762 66.7441)" class="st0" cx="63" cy="7" rx="0.1" ry="0.1"/>
		<ellipse transform="matrix(0.156 -0.9878 0.9878 0.156 46.0063 67.6961)" class="st0" cx="62.6" cy="6.9" rx="0.1" ry="0.1"/>
		
			<ellipse transform="matrix(8.306705e-02 -0.9965 0.9965 8.306705e-02 50.0976 68.332)" class="st0" cx="62.2" cy="6.9" rx="0.1" ry="0.1"/>
		<path class="st0" d="M58.7,15.4c0.1,0.1,0.2,0.2,0.2,0.2v-0.1C58.9,15.5,58.8,15.4,58.7,15.4L58.7,15.4z"/>
		<path class="st0" d="M61.1,16.6c-0.4-0.1-0.9-0.2-1.3-0.4v0.1C60.2,16.5,60.7,16.6,61.1,16.6L61.1,16.6L61.1,16.6z"/>
		<path class="st0" d="M61,8.2C61,8.2,61.1,8.1,61,8.2c-0.7,0-1.3,0.3-1.8,0.7c0,0,0,0,0.1,0.1C59.8,8.6,60.4,8.3,61,8.2z"/>
		<path class="st0" d="M60.6,9.6h-1c0,0,0,0,0,0.1L60.6,9.6L60.6,9.6z"/>
		<path class="st0" d="M60.6,9.9h-0.7c0,0,0,0,0,0.1L60.6,9.9L60.6,9.9z"/>
		<path class="st0" d="M58.4,11.5h1.1c0,0,0,0,0-0.1L58.4,11.5C58.5,11.5,58.5,11.5,58.4,11.5z"/>
		<path class="st0" d="M58.5,11.2h0.9c0,0,0,0,0-0.1L58.5,11.2C58.6,11.2,58.5,11.2,58.5,11.2z"/>
		<path class="st0" d="M58.3,12L58.3,12h1.6c0,0,0,0,0-0.1L58.3,12L58.3,12z"/>
		<path class="st0" d="M58.3,12.3h1.6v-0.1L58.3,12.3L58.3,12.3z"/>
		<path class="st0" d="M58.4,11.8h1.4c0,0,0,0,0-0.1L58.4,11.8C58.4,11.7,58.4,11.8,58.4,11.8z"/>
		<path class="st0" d="M58.6,11h0.6c0,0,0,0,0-0.1L58.6,11C58.7,10.9,58.7,11,58.6,11z"/>
		<path class="st0" d="M60.5,10.1H60c0,0,0,0,0,0.1L60.5,10.1C60.5,10.2,60.5,10.2,60.5,10.1z"/>
		<path class="st0" d="M58.9,10.5L58.9,10.5C59,10.4,59,10.4,58.9,10.5C58.9,10.4,58.9,10.4,58.9,10.5z"/>
		<path class="st0" d="M58.8,10.7h0.3c0,0,0,0,0-0.1L58.8,10.7L58.8,10.7z"/>
		<path class="st0" d="M58.3,12.6h1.5v-0.1L58.3,12.6C58.3,12.5,58.3,12.5,58.3,12.6z"/>
		<path class="st0" d="M60.7,9.3h-1.2c0,0,0,0,0,0.1L60.7,9.3C60.7,9.4,60.7,9.4,60.7,9.3z"/>
		<path class="st0" d="M60.4,10.4h-0.3c0,0,0,0,0,0.1L60.4,10.4L60.4,10.4z"/>
		<path class="st0" d="M60.3,10.7L60.3,10.7L60.3,10.7L60.3,10.7z"/>
		<path class="st0" d="M60,16h1.3v-0.1L60,16C59.9,16,59.9,16,60,16c0.3,0.2,0.7,0.4,1.2,0.4v-0.1c-0.2,0-0.4-0.1-0.6-0.1h0.6v-0.1
			h-0.8C60.3,16.1,60.2,16.1,60,16z"/>
		<path class="st0" d="M60.2,15.2h1.4v-0.1L60.2,15.2L60.2,15.2z"/>
		<path class="st0" d="M59.7,12.8L59.7,12.8l-1.4-0.1c0,0,0,0,0,0.1H59.7z"/>
		<path class="st0" d="M61,8.4c-0.6,0.1-1.2,0.4-1.6,0.7c0,0,0,0,0,0.1c0,0,0,0,0.1-0.1h1.3c0,0,0,0,0-0.1h-1.2
			c0.1-0.1,0.2-0.1,0.3-0.2h1c0,0,0,0,0-0.1H60c0.2-0.1,0.3-0.1,0.5-0.2L61,8.4C61,8.5,61,8.5,61,8.4h-0.3C60.7,8.5,60.9,8.5,61,8.4
			L61,8.4z"/>
		<path class="st0" d="M60,15.7h1.4v-0.1L60,15.7L60,15.7z"/>
		<path class="st0" d="M58.8,15.2c0.1,0.1,0.2,0.2,0.2,0.2v-0.1l-0.1-0.1H59v-0.1L58.8,15.2C58.9,15.1,58.8,15.1,58.8,15.2
			L58.8,15.2z"/>
		<path class="st0" d="M60.1,15.5h1.4v-0.1L60.1,15.5C60.1,15.4,60.1,15.4,60.1,15.5z"/>
		<path class="st0" d="M60.4,14.4h1.2c0,0,0,0,0-0.1L60.4,14.4L60.4,14.4z"/>
		<path class="st0" d="M60.3,14.7h1.5l0,0l0,0H60.3C60.3,14.6,60.3,14.7,60.3,14.7z"/>
		<path class="st0" d="M60.5,14.1h1c0,0,0,0,0-0.1L60.5,14.1L60.5,14.1z"/>
		<path class="st0" d="M60.5,13.9h0.7c0,0,0,0,0-0.1L60.5,13.9C60.6,13.8,60.6,13.9,60.5,13.9z"/>
		<path class="st0" d="M59.7,13.1L59.7,13.1L58.4,13c0,0,0,0,0,0.1H59.7z"/>
		<path class="st0" d="M60.7,13.3L60.7,13.3l0.1,0.1C60.8,13.3,60.8,13.3,60.7,13.3L60.7,13.3z"/>
		<path class="st0" d="M60.6,13.6H61c0,0,0,0,0-0.1L60.6,13.6L60.6,13.6z"/>
		<path class="st0" d="M59.5,13.6L59.5,13.6l-1-0.1c0,0,0,0,0,0.1H59.5z"/>
		<path class="st0" d="M59.4,14.1L59.4,14.1L58.7,14c0,0,0,0,0,0.1H59.4z"/>
		<path class="st0" d="M59.4,13.9L59.4,13.9l-0.9-0.1c0,0,0,0,0,0.1H59.4z"/>
		<polygon class="st0" points="59.2,14.6 59,14.6 58.9,14.7 59.2,14.7 		"/>
		<polygon class="st0" points="58.9,14.9 59.1,14.9 59.2,14.9 		"/>
		<path class="st0" d="M59.3,14.4L59.3,14.4l-0.5-0.1c0,0,0,0,0,0.1H59.3z"/>
		<path class="st0" d="M59.6,13.4L59.6,13.4l-1.2-0.1c0,0,0,0,0,0.1H59.6z"/>
		<path class="st0" d="M60.2,14.9h1.4l0,0l0,0H60.2L60.2,14.9z"/>
		<path class="st0" d="M64.9,15.4L64.9,15.4c-0.1,0-0.2,0.1-0.3,0.1v0.1C64.8,15.6,64.8,15.5,64.9,15.4z"/>
		<path class="st0" d="M62.5,16.6L62.5,16.6L62.5,16.6c0.4,0,0.9-0.1,1.3-0.4v-0.1C63.4,16.4,63,16.5,62.5,16.6z"/>
		<path class="st0" d="M64.3,9C64.4,9,64.4,8.9,64.3,9c-0.5-0.5-1.1-0.7-1.8-0.9v0.1C63.2,8.3,63.8,8.6,64.3,9z"/>
		<path class="st0" d="M64,9.6h-1c0,0,0,0,0,0.1L64,9.6C63.9,9.6,63.9,9.6,64,9.6z"/>
		<path class="st0" d="M63.8,9.9h-0.7c0,0,0,0,0,0.1L63.8,9.9L63.8,9.9z"/>
		<path class="st0" d="M64,11.5h1.1c0,0,0,0,0-0.1L64,11.5C64.1,11.5,64.1,11.5,64,11.5z"/>
		<path class="st0" d="M64.2,11.2h0.9c0,0,0,0,0-0.1L64.2,11.2L64.2,11.2z"/>
		<path class="st0" d="M63.7,12h1.6l0,0l0,0H63.7L63.7,12z"/>
		<path class="st0" d="M65.3,12.3L65.3,12.3l-1.6-0.1v0.1H65.3z"/>
		<path class="st0" d="M63.9,11.8h1.4c0,0,0,0,0-0.1L63.9,11.8C63.9,11.7,63.9,11.8,63.9,11.8z"/>
		<path class="st0" d="M64.4,11H65c0,0,0,0,0-0.1L64.4,11C64.4,10.9,64.4,11,64.4,11z"/>
		<path class="st0" d="M63.6,10.1h-0.5c0,0,0,0,0,0.1L63.6,10.1C63.6,10.2,63.6,10.2,63.6,10.1z"/>
		<path class="st0" d="M64.7,10.5L64.7,10.5C64.7,10.4,64.7,10.4,64.7,10.5C64.7,10.4,64.7,10.4,64.7,10.5z"/>
		<path class="st0" d="M64.5,10.7h0.3c0,0,0,0,0-0.1L64.5,10.7L64.5,10.7z"/>
		<polygon class="st0" points="61.6,10.5 62.1,10.5 62.1,10.4 61.6,10.4 		"/>
		<polygon class="st0" points="61.5,12.6 62.1,12.6 62.1,12.5 61.5,12.5 		"/>
		<polygon class="st0" points="61.4,12.3 62.3,12.3 62.3,12.2 61.3,12.2 		"/>
		<polygon class="st0" points="61.7,9.9 61.9,9.9 61.9,9.9 		"/>
		<polygon class="st0" points="61.6,10.2 62,10.2 62,10.1 61.6,10.1 		"/>
		<polygon class="st0" points="61.8,9.7 61.8,9.7 61.8,9.6 61.8,9.6 		"/>
		<path class="st0" d="M65.3,12.6C65.3,12.5,65.3,12.5,65.3,12.6l-1.5-0.1v0.1H65.3z"/>
		<path class="st0" d="M64.1,9.3h-1.2c0,0,0,0,0,0.1L64.1,9.3C64.1,9.4,64.1,9.4,64.1,9.3z"/>
		<polygon class="st0" points="61.7,12.8 61.9,12.8 62,12.8 		"/>
		<polygon class="st0" points="61.3,11.2 62.3,11.2 62.3,11.2 		"/>
		<polygon class="st0" points="61.2,11.5 62.4,11.5 62.4,11.4 61.3,11.4 		"/>
		<polygon class="st0" points="61.2,12 62.4,12 62.5,12 		"/>
		<polygon class="st0" points="61.2,11.8 62.5,11.8 62.4,11.7 61.2,11.7 		"/>
		<polygon class="st0" points="61.5,10.7 62.1,10.7 62.1,10.7 		"/>
		<path class="st0" d="M63.5,10.4h-0.3c0,0,0,0,0,0.1L63.5,10.4C63.4,10.4,63.5,10.4,63.5,10.4z"/>
		<path class="st0" d="M63.3,10.7L63.3,10.7L63.3,10.7L63.3,10.7z"/>
		<polygon class="st0" points="61.4,11 62.2,11 62.2,10.9 61.4,10.9 		"/>
		<path class="st0" d="M63.7,15.9h-1.4V16L63.7,15.9c-0.2,0.1-0.4,0.2-0.5,0.3h-0.8v0.1H63c-0.2,0.1-0.4,0.1-0.6,0.1v0.1
			C62.9,16.4,63.3,16.2,63.7,15.9C63.7,16,63.7,16,63.7,15.9z"/>
		<path class="st0" d="M62,15.1L62,15.1l1.5,0.1c0,0,0,0,0-0.1H62z"/>
		<path class="st0" d="M65.3,12.8L65.3,12.8l-1.4-0.1v0.1H65.3z"/>
		<path class="st0" d="M64.2,9.2C64.2,9.2,64.2,9.1,64.2,9.2c-0.4-0.4-1-0.7-1.6-0.8v0.1c0.1,0,0.2,0.1,0.3,0.1h-0.3c0,0,0,0,0,0.1
			h0.5c0.2,0.1,0.3,0.1,0.5,0.2h-0.9c0,0,0,0,0,0.1h1C63.9,8.9,64,9,64.2,9.2l-1.3-0.1c0,0,0,0,0,0.1H64.2L64.2,9.2z"/>
		<path class="st0" d="M63.6,15.7L63.6,15.7l-1.4-0.1v0.1H63.6z"/>
		<path class="st0" d="M64.6,15.4c0.1-0.1,0.2-0.2,0.2-0.2v-0.1c0,0,0,0.1-0.1,0.1h-0.2L64.6,15.4L64.6,15.4
			C64.6,15.2,64.6,15.3,64.6,15.4L64.6,15.4z"/>
		<path class="st0" d="M62.1,15.4L62.1,15.4l1.4,0.1c0,0,0,0,0-0.1H62.1z"/>
		<path class="st0" d="M62,14.4h1.2c0,0,0,0,0-0.1L62,14.4L62,14.4z"/>
		<path class="st0" d="M61.9,14.6L61.9,14.6L61.9,14.6l1.5,0.1c0,0,0,0,0-0.1H61.9z"/>
		<path class="st0" d="M62.2,14.1h1c0,0,0,0,0-0.1L62.2,14.1L62.2,14.1z"/>
		<path class="st0" d="M62.4,13.9h0.7c0,0,0,0,0-0.1L62.4,13.9C62.4,13.8,62.4,13.9,62.4,13.9z"/>
		<path class="st0" d="M65.2,13.1L65.2,13.1L63.9,13v0.1H65.2z"/>
		<path class="st0" d="M62.8,13.3L62.8,13.3l0.1,0.1C62.9,13.3,62.9,13.3,62.8,13.3L62.8,13.3z"/>
		<path class="st0" d="M62.6,13.6H63c0,0,0,0,0-0.1L62.6,13.6L62.6,13.6z"/>
		<path class="st0" d="M65.1,13.6L65.1,13.6l-1-0.1v0.1H65.1z"/>
		<path class="st0" d="M64.9,14.1L64.9,14.1L64.2,14v0.1H64.9z"/>
		<path class="st0" d="M65,13.9C65,13.9,65,13.8,65,13.9l-0.9-0.1v0.1H65z"/>
		<polygon class="st0" points="64.7,14.7 64.7,14.6 64.4,14.6 64.4,14.7 		"/>
		<polygon class="st0" points="64.8,14.9 64.7,14.9 64.5,14.9 64.5,14.9 		"/>
		<path class="st0" d="M64.8,14.4L64.8,14.4l-0.4-0.1v0.1H64.8z"/>
		<path class="st0" d="M65.2,13.4C65.2,13.3,65.2,13.3,65.2,13.4L64,13.3v0.1C64,13.4,65.2,13.4,65.2,13.4z"/>
		<path class="st0" d="M61.9,14.9L61.9,14.9L61.9,14.9l1.5,0.1c0,0,0,0,0-0.1H61.9z"/>
		<path class="st0" d="M66.3,11.9c-0.3-1.8-1.2-2.6-1.4-2.8C64.8,9,64.7,9,64.6,9s-0.1,0-0.2,0.1s-1.2,2-1.2,2s-0.8-3-0.8-3.1
			c-0.1-0.2-0.2-0.3-0.6-0.4c-0.3,0-0.5,0.2-0.6,0.4c-0.1,0.2-0.9,3.1-0.9,3.1s-1.1-1.8-1.2-2C59.1,9,59.1,9,59,9s-0.2,0.1-0.3,0.1
			c-0.2,0.2-1.1,1-1.4,2.8c-0.3,1.9,0.9,3.3,1.2,3.7l0.3-1c0,0-0.8-1.1-0.6-2.6c0.1-1,0.8-1.8,0.8-1.8s0.6,1.1,1.1,1.9l0,0l0,0
			L59,15.9V16c0,0.1-0.1,0.1-0.1,0.2c0.2,0.2,0.5,0.4,0.8,0.5c0-0.1,0-0.2,0-0.3l1.1-3.6c0,0,1,1.3,1.1,1.6c0.2-0.2,1.1-1.6,1.1-1.6
			l1.1,3.6c0,0,0,0.2,0,0.3c0.3-0.1,0.5-0.3,0.8-0.5c-0.1,0-0.1-0.1-0.1-0.2v-0.1L63.7,12l0,0l0,0c0.5-0.7,1.1-1.9,1.1-1.9
			s0.7,0.9,0.8,1.8c0.2,1.5-0.6,2.6-0.6,2.6l0.3,1C65.4,15.2,66.6,13.8,66.3,11.9z M61.8,13.3L61,12l0.8-2.9l0.8,2.9L61.8,13.3z"/>
		<path class="st0" d="M61.3,16.6l0.6,0.6l0.6-0.6l-0.6-1.7L61.3,16.6z M61.8,16.9l-0.2-0.3l0.2-1l0.2,1L61.8,16.9z"/>
	</g>
</g>
</svg>
