<?xml version="1.0" encoding="utf-8"?>
<!-- Generator: Adobe Illustrator 21.0.0, SVG Export Plug-In . SVG Version: 6.00 Build 0)  -->
<svg version="1.1" id="Livello_1" xmlns="http://www.w3.org/2000/svg" xmlns:xlink="http://www.w3.org/1999/xlink" x="0px" y="0px"
	 width="122px" height="40px" viewBox="0 0 122 40" style="enable-background:new 0 0 122 40;" xml:space="preserve">
<style type="text/css">
	.st0{fill:#1D1D1B;}
	.st1{fill:#FFFFFF;}
</style>
<g>
	<g>
		<path class="st0" d="M52.7,34.7c0.3,0,0.6,0,1,0.1c0.4,0.1,0.8,0.6,1,1.1c0.1,0.4,0.1,1,0,1.6c-0.3,0.7-1,1.1-1.8,1.1
			c0.6-0.1,1.1-0.6,1.4-1.1c0.6-1.4-0.8-2.5-2.4-2.1c-0.6,0.1-0.8,0.6-1.1,1.1c-0.3,0.6-0.1,1.1-0.1,1.4c-0.1-0.3-0.1-0.6-0.1-0.8
			C50.2,35.9,51.2,34.7,52.7,34.7"/>
		<path class="st0" d="M41,39.1c0.6,0.3,1.1,0.3,1.7,0.1c0.6-0.1,1-0.6,1.3-1.1c0.1-0.3,0.3-0.6,0.3-1c0-0.3,0-0.6-0.1-0.8
			c0,0.3,0.1,0.8-0.1,1.4c-0.3,0.6-0.7,0.8-1.1,1c-1.4,0.6-3-0.7-2.3-2.1c0.3-0.6,0.8-1,1.4-1.1c-0.7,0-1.4,0.4-1.8,1.1
			c-0.3,0.4-0.3,1-0.1,1.6C40.2,38.4,40.6,38.8,41,39.1z"/>
		<path class="st0" d="M51.7,39.1c0.6,0.3,1.1,0.3,1.7,0.1c0.6-0.1,1-0.6,1.3-1.1c0.1-0.3,0.3-0.6,0.3-1c0-0.3,0-0.6-0.1-0.8
			c0,0.3,0.1,0.8-0.1,1.4c-0.3,0.6-0.7,0.8-1.1,1c-1.4,0.6-3-0.7-2.3-2.1c0.3-0.6,0.8-1,1.4-1.1c-0.7,0-1.4,0.4-1.8,1.1
			c-0.3,0.4-0.3,1-0.1,1.6C50.8,38.4,51.2,38.8,51.7,39.1"/>
		<path class="st0" d="M42,34.7c0.3,0,0.6,0,1,0.1c0.4,0.1,0.8,0.6,1,1.1c0.1,0.4,0.1,1,0,1.6c-0.3,0.7-1,1.1-1.8,1.1
			c0.6-0.1,1.1-0.6,1.4-1.1c0.6-1.4-0.8-2.5-2.4-2.1c-0.6,0.1-0.8,0.6-1.1,1.1c-0.3,0.6-0.1,1.1-0.1,1.4c-0.1-0.3-0.1-0.6-0.1-0.8
			C39.6,35.9,40.6,34.7,42,34.7"/>
		<path class="st0" d="M20.4,35.6h-0.8v3c0,0.1,0,0.3,0.1,0.4h-1c0.1-0.1,0.1-0.3,0.1-0.4v-3h-1c-0.1,0-0.3,0-0.4,0.1l0.1-0.6h2.7
			c0.3,0,0.6,0,0.8,0C20.8,35.3,20.5,35.6,20.4,35.6"/>
		<path class="st0" d="M29.4,38.8h-2.7c0.1-0.1,0.1-0.1,0.1-0.4v-3c0-0.1,0-0.3-0.1-0.4h2.4v0.4c-0.1-0.1-0.3-0.1-0.6-0.1h-1.1v1.3
			c0.4,0,0.8,0,1.3,0V37c-0.1-0.1-0.4-0.1-0.6-0.1h-0.8v1.4c0.1,0,0.4,0,0.6,0c0.4,0,0.8,0,1.1-0.1L29.4,38.8"/>
		<path class="st0" d="M34.1,35.4v3.4h-0.3L31.4,36v2.5c0,0.1,0,0.3,0.1,0.3h-0.7c0.1-0.1,0.1-0.1,0.1-0.3v-3.1c0-0.1,0-0.3-0.1-0.4
			h0.7l2.1,2.5v-2.3c0-0.1,0-0.3-0.1-0.3h0.8C34.2,35.1,34.1,35.3,34.1,35.4"/>
		<path class="st0" d="M38.4,35.6h-0.8v3c0,0.1,0,0.3,0.1,0.4h-1c0.1-0.1,0.1-0.3,0.1-0.4v-3h-1c-0.1,0-0.3,0-0.4,0.1l0.1-0.6h2.5
			c0.3,0,0.6,0,0.8,0C38.9,35.3,38.6,35.6,38.4,35.6"/>
		<path class="st0" d="M59,38.7c-0.3,0.1-0.8,0.3-1.1,0.3c-1.1,0-2-0.7-2-1.8c0-1.1,0.7-2.1,2.1-2.1c0.3,0,0.7,0,1,0.1l0.1,0.7
			c-0.3-0.3-0.6-0.6-1-0.6c-0.7,0-1.3,0.4-1.3,1.6c0,0.7,0.4,1.7,1.4,1.7c0.4,0,0.8-0.3,1-0.7V38C59.2,38.3,59.2,38.5,59,38.7"/>
		<path class="st0" d="M24.6,38.8c-0.1-0.1-0.4-0.4-0.8-1.3c-0.1-0.3-0.3-0.6-0.6-0.6c0.6,0,0.8-0.4,0.8-0.8c0-0.4-0.4-0.7-0.8-0.7
			h-0.1v3.1c0,0.1,0,0.3,0.1,0.4h-1c0.1-0.1,0.1-0.1,0.1-0.3v-3.1c0-0.1,0-0.3-0.1-0.4h1.3c0.7,0,1.3,0.3,1.3,0.8s-0.6,0.8-1.1,1
			c0.4,0,0.8,0.6,1.1,1.1c0.3,0.4,0.6,0.7,0.8,0.8C25.7,38.8,24.9,39,24.6,38.8"/>
		<path class="st0" d="M47.3,38.8h-1.7c0.1-0.1,0.1-0.1,0.1-0.3v-3.1c0-0.1,0-0.3-0.1-0.4H47c1.1,0,2.1,0.7,2.1,2
			C49.1,38.1,48.4,38.8,47.3,38.8 M46.8,35.4c-0.1,0-0.3,0-0.3,0v3c0.1,0,0.6,0,0.7,0c0.8,0,1.1-0.8,1.1-1.6
			C48.4,36,47.8,35.4,46.8,35.4z"/>
	</g>
	<g>
		<path class="st0" d="M21.1,28.8C21.1,28.8,20.9,28.8,21.1,28.8c-0.1,0-0.3,0.1-0.3,0.1c0,0.1,0,0.1,0,0.1c0,0.3,0,0.3-0.3,0.7
			c-0.1,0.1-1,0.4-1.8,0.3h-0.3c-1,0-1.3-0.1-1.4-0.3c0,0-0.1-0.3-0.1-0.7c0-0.4,0-1.1,0-2.1v-2.4c0-2.1,0-2.5,0-3
			c0-0.4,0.1-0.6,0.3-0.6c0.1,0,0.3,0,0.3,0c0.1,0,0.1,0,0.3-0.1c0.1,0,0.1-0.1,0.1-0.3s0-0.3-0.1-0.3c-0.1,0-0.1,0-0.3,0
			c-0.3,0-1.3,0-1.4,0c0,0-1,0-1.4,0c-0.1,0-0.1,0-0.3,0c-0.1,0-0.1,0.3-0.1,0.3c0,0.1,0,0.3,0.1,0.3s0.1,0.1,0.3,0.1h0.3
			c0.1,0,0.3,0.1,0.4,0.6c0,0.4,0,0.8,0,3v2.4c0,1.3,0,2.4,0,3c0,0.1-0.1,0.3-0.1,0.4c0,0,0,0.1-0.1,0.1l0,0c-0.1,0-0.1,0-0.3,0
			c-0.1,0-0.1,0-0.3,0.1c0,0,0,0,0,0.1c0,0,0-0.1-0.1-0.1c-0.1,0-0.1-0.1-0.3-0.1h-0.3c-0.1,0-0.4-0.3-0.6-0.7L7.8,17.4
			c0-0.1-0.1-0.1-0.3-0.1c-0.1,0-0.3,0.1-0.3,0.1L1.8,29.9c-0.1,0.4-0.4,0.6-0.6,0.7c-0.1,0-0.3,0-0.3,0c-0.1,0-0.1,0-0.3,0.1
			c-0.1,0-0.1,0.1-0.1,0.3s0.1,0.3,0.1,0.3c0.1,0,0.1,0,0.3,0l0,0c0.6,0,1,0,1.6,0c0.1,0,0.8,0,1.1,0c0,0,0.1,0,0.3-0.1
			c0.1-0.1,0.1-0.3,0.1-0.3s0-0.1-0.1-0.3c-0.1,0.1-0.1,0.1-0.3,0.1l0,0c0,0-0.1-0.1-0.1-0.3c0-0.3,0.1-0.7,0.3-1.1l1.1-2.8h4.4
			c0.3,0.7,0.6,1.3,0.8,1.8c0.4,1,0.7,1.8,0.7,1.8l0,0c0,0,0,0.1-0.1,0.1h-0.1l0,0l0,0l0,0c0,0-0.1,0-0.3,0.1
			c-0.1,0.1-0.1,0.1-0.1,0.3l0,0c0,0.1,0,0.3,0.1,0.3s0.1,0,0.3,0c0.3,0,1.1,0,1.3,0c0.7,0,1.3,0,1.8,0c0,0,0,0,0.1,0
			c0.1,0,0.1,0,0.3,0l0.1-0.1l0.1,0.1c0.1,0,0.1,0,0.3,0c0.1,0,0.6,0,0.7,0c0.3,0,0.4,0,0.6,0c0.4,0,0.7,0,1.3,0s3.7,0,3.8,0l0,0
			c0,0,0.1,0,0.3,0c0.1-0.1,0.1-0.1,0.1-0.1c0-0.1,0-0.1,0-0.4c0-0.6,0-1.4,0-1.6l0,0v-0.1C21.4,28.9,21.2,28.8,21.1,28.8z
			 M8.6,25.1H5.4l1.6-3.7C7.5,22.5,8,23.8,8.6,25.1z"/>
		<path class="st0" d="M28.7,20.8L28.7,20.8C28.7,20.7,28.7,20.7,28.7,20.8c0-0.1-0.1-0.4-0.3-0.3c-0.1,0-0.1,0-0.1,0l0,0
			c0,0-0.4,0-1,0c-0.8,0-2,0-2.5,0h-4.1c-0.3,0-0.4,0-0.6,0l0,0l0,0c-0.1,0,0,0-0.1,0c-0.1,0-0.3,0.1-0.3,0.3V21c0,0.1,0,1.6,0,1.7
			l0,0c0,0.1,0,0.1,0,0.3s0.1,0.1,0.3,0.1c0.3,0,0.3-0.1,0.3-0.3s0-0.1,0.1-0.3c0.1-0.3,0.1-0.4,0.4-0.6c0.3-0.1,0.7-0.3,1.3-0.3
			h1.4v5.4c0,1.3,0,2.4,0,3c0,0.1,0,0.3-0.1,0.4c0,0.1,0,0,0,0.1c-0.1,0-0.3,0.1-0.3,0.1c-0.1,0-0.1,0-0.3,0.1
			c-0.1,0.1-0.1,0.1-0.1,0.3c0,0.1,0.1,0.3,0.1,0.3c0.1,0,0.1,0,0.3,0c0.3,0,1.3,0,1.3,0s1,0,1.4,0c0.1,0,0.1,0,0.3-0.1
			c0.1,0,0.1-0.1,0.1-0.3c0,0,0-0.1-0.1-0.3c0-0.1-0.1-0.1-0.3-0.1l0,0c0,0-0.3,0-0.4-0.1c0,0,0,0-0.1,0c0-0.1,0-0.3-0.1-0.4
			c0-0.6,0-1.6,0-3v-5.5h1.3c0.6,0,1,0.1,1.3,0.3c0.3,0.1,0.4,0.3,0.4,0.6c0,0.1,0,0.1,0.1,0.3c0,0,0,0.3,0.3,0.3
			c0.1,0,0.3-0.1,0.3-0.1c0-0.1,0-0.1,0-0.3l0,0l0,0C28.9,22.4,28.9,21,28.7,20.8z"/>
		<path class="st0" d="M66.3,24.8c-1.7-0.7-2-1.4-2-2c0,0,0,0,0-0.1c0-0.7,0.4-1.1,0.8-1.3c0.3-0.1,0.7-0.1,0.8-0.1l0,0l0,0l0,0h0.1
			c1,0,1.1,0.4,1.1,0.6c0,0,0.1,0.4,0.1,0.6c0,0.1,0,0.1,0,0.3s0.3,0.3,0.3,0.3c0.1,0,0.3-0.1,0.3-0.3s0-0.1,0-0.3c0-1,0-1.3,0-1.4
			c0,0,0-0.1-0.1-0.3c-0.1-0.1-0.1-0.1-0.3-0.1c0,0-0.1,0-0.3,0c0,0-0.6-0.1-1.4-0.1c-0.1,0-0.3,0-0.4,0c-1.8,0.1-3.1,1.6-3.1,3.1
			c0,1,0.7,2.5,3,3.3c1.4,0.4,1.8,1.1,2,1.8c0,0.3,0,0.4-0.1,0.7c-0.1,0.4-0.8,1-2.1,1c0,0,0,0-0.1,0c-0.8,0-1.6-0.3-1.8-1.1
			c0-0.1,0-0.3,0-0.4c0,0,0-0.1,0-0.3s-0.3-0.1-0.3-0.1c-0.1,0-0.3,0.1-0.3,0.3s0,0.1,0,0.3c0,0.3,0,0.7,0,1.4c0,0.1,0,0.3,0,0.4
			c0,0.1,0.1,0.3,0.3,0.3c0.6,0.3,1.4,0.3,2.1,0.4c0.1,0,0.1,0,0.3,0c0.7,0,1.6-0.1,2.3-0.6c0.8-0.4,1.4-1.1,1.6-2.3h-0.3h0.3
			c0-0.1,0-0.3,0-0.6C69.2,26.5,68.2,25.7,66.3,24.8z"/>
		<path class="st0" d="M73.5,30.6c0-0.1-0.1-0.1-0.3-0.1c0,0-0.3,0-0.4-0.1c0,0,0,0-0.1,0c0-0.1,0-0.3-0.1-0.4c0-0.6,0-1.6,0-3v-2.4
			c0-2.1,0-2.5,0-3c0-0.3,0-0.4,0.1-0.4c0,0,0,0,0.1-0.1c0.1,0,0.1,0,0.3,0l0,0l0,0c0,0,0.1,0,0.3,0s0.1-0.1,0.1-0.3
			c0-0.1-0.1-0.3-0.1-0.3c-0.1,0-0.1,0-0.3,0c-0.3,0-1.3,0-1.3,0s-1,0-1.4,0c-0.1,0-0.1,0-0.3,0s-0.3,0.3-0.1,0.3
			c0,0.1,0.1,0.3,0.1,0.3c0.1,0,0.1,0,0.3,0c0,0,0.3,0,0.3,0.1c0.1,0,0.1,0,0.3,0.6c0,0.4,0,0.8,0,3v2.4c0,1.3,0,2.4,0,3
			c0,0.1,0,0.3-0.1,0.4c0,0.1,0,0,0,0.1c-0.1,0-0.3,0.1-0.3,0.1c-0.1,0-0.1,0-0.3,0.1s-0.1,0.1-0.1,0.3c0,0.1,0.1,0.3,0.1,0.3
			c0.1,0,0.1,0,0.3,0c0.3,0,1.3,0,1.3,0s1,0,1.4,0c0.1,0,0.1,0,0.3-0.1c0.1,0,0.1-0.1,0.1-0.3C73.6,30.9,73.6,30.8,73.5,30.6z"/>
		<path class="st0" d="M38.1,28.5c-0.3,0-0.3,0.1-0.3,0.3c0,0,0,0.1-0.1,0.3c-0.1,0.3-0.1,0.4-0.6,0.7c-0.6,0.4-1.4,0.6-2.7,0.6
			c-2.7,0-3.7-1.7-3.8-4.1c1.4,0,4.4,0,4.7,0l0,0c0.6,0,0.6,0.1,0.7,0.4v0.1c0,0.1,0.1,0.1,0.3,0.1l0,0l0,0c0.1,0,0.3-0.1,0.3-0.3
			s0-0.1,0-0.1l0,0c0,0,0-0.3,0-0.6c0-0.1,0-0.3,0-0.3c0-0.4,0-0.8,0-0.8v-0.1v-0.1c0-0.1-0.1-0.1-0.3-0.1l0,0c-0.1,0-0.3,0-0.3,0.1
			c0,0.1,0,0.1-0.1,0.1c0,0.3-0.1,0.3-0.3,0.4c-0.1,0.1-0.3,0.1-0.6,0.1l0,0c-0.6,0-3.1,0-4.4,0c0.3-2,1.4-3.4,3.7-3.4
			c1.8,0,2.7,0.4,3.1,1.6v0.1v0.1c0,0.1,0.1,0.1,0.3,0.1l0,0l0,0l0,0c0.3,0,0.3-0.1,0.3-0.3s0-0.1,0-0.1v-0.1c0,0,0-1.8,0-2
			c0-0.1,0-0.3-0.1-0.3c-0.1-0.1-0.1-0.1-0.3-0.1h-0.1l0,0l0,0c0,0,0,0-0.1,0c-0.6-0.1-1.3-0.1-1.8-0.1c-0.4,0-0.7,0-1.3,0
			c-1.8,0-3.3,0.6-4.2,1.6s-1.4,2.4-1.4,4c0,0,0,0,0,0.1c0,1.7,0.4,3.1,1.4,4.1c1,1,2.4,1.4,4.2,1.4c0.7,0,1.3,0,1.8-0.1
			c0.3,0,1.4-0.1,1.6-0.1l0,0c0,0,0,0,0.1,0c0,0,0.1,0,0.3-0.1c0.1-0.3,0.1-0.3,0.1-0.4c0-0.1,0-1.1,0-1.4v-0.1c0-0.1,0-0.1,0-0.3
			C38.5,28.6,38.4,28.5,38.1,28.5z"/>
		<path class="st0" d="M62.1,30.6L62.1,30.6c0,0-0.1,0-0.3-0.1c0,0-0.3-0.1-0.4-0.6c0,0-1-2.5-2-5c-1-2.4-2-4.8-2-4.8
			c0-0.1-0.1-0.1-0.3-0.1c-0.1,0-0.3,0-0.3,0.1c-1.1,2.8-3.8,9.1-3.8,9.1c-0.3,0.7-0.7,1.3-0.7,1.3c-0.1,0-0.1,0.1-0.3,0.1l0,0h-0.1
			l-0.1,0.1c0-0.1-0.1-0.1-0.1-0.1c-0.1,0-0.1,0-0.1,0s-0.1,0-0.3-0.1c0,0-0.1,0-0.1-0.1S51,29.9,51,29.6l-0.6-7.9
			c0-0.4,0.1-0.4,0.1-0.4h0.1l0,0l0,0c0.1,0,0.3-0.1,0.3-0.4c0-0.1,0-0.3-0.1-0.3c-0.1-0.1-0.1-0.1-0.3-0.1l0,0l0,0
			c-0.3,0-0.8,0.1-1,0.1l0,0c-0.4,0-1,0-1.1,0c0,0,0,0-0.1,0c0,0-0.1,0-0.3,0c-0.1,0-0.1,0.3-0.1,0.3c0,0.3,0.3,0.4,0.3,0.4
			s0.1,0,0.3,0.1c0,0,0,0,0,0.1s0,0.3,0,0.3c-0.1,0.3-1.1,2.8-2.7,6.5c-1.6-3.8-2.8-6.7-2.8-6.9c0,0,0,0,0-0.1H43l0,0l0,0
			c0.1,0,0.3-0.1,0.3-0.4c0-0.1,0-0.3-0.1-0.3c-0.1,0-0.1,0-0.3,0c0,0,0,0-0.1,0c-0.1,0-1,0-1.3,0l0,0c-0.1,0-1-0.1-1.3-0.1l0,0
			c0,0-0.1,0-0.3,0.1c-0.1,0.1-0.1,0.3-0.1,0.3c0,0.1,0.1,0.4,0.3,0.4l0,0c0,0,0.1,0,0.3,0.1c0,0,0.1,0,0.1,0.4c0,0,0,0,0,0.1
			c0,0.8-0.4,7.9-0.4,7.9c0,0.3,0,0.6-0.1,0.7c0,0.1-0.1,0.1-0.1,0.1c-0.1,0-0.3,0.1-0.3,0.1h-0.1c0,0-0.1,0.1-0.1,0.3
			s0.1,0.3,0.3,0.3c0.1,0,0.1,0,0.3,0c0.4,0,1,0,1.1,0s0.8,0,1.3,0c0.1,0,0.1,0,0.3,0s0.3-0.3,0.3-0.3c0-0.3-0.3-0.3-0.4-0.3l0,0
			c0,0-0.3,0-0.3-0.1l0,0c0,0-0.1-0.4-0.1-0.8c0,0,0,0,0-0.1c0-0.4,0.1-4,0.3-5.9l3.4,7.9c0,0.1,0.1,0.1,0.3,0.1l0,0
			c0.1,0,0.3,0,0.3-0.1l3.1-7.4c0.1,1.7,0.3,4.8,0.3,5.4v0.1c0,0.3,0,0.4,0,0.6c0,0.1,0,0.1,0,0.1l0,0h-0.1c0,0,0,0-0.1,0l0,0l0,0
			c-0.1,0-0.3,0-0.4,0.3l0,0c0,0.1,0.1,0.3,0.3,0.3s0.1,0,0.3,0c0.6,0,1.3,0,1.3,0c0.1,0,0.7,0,1.1,0c0.1,0,0.1,0,0.3,0
			c0.1,0,0.1-0.1,0.3-0.3c0,0.1,0.1,0.1,0.1,0.3c0.1,0,0.1,0,0.3,0c0.3,0,1,0,1,0s0.7,0,1,0c0,0,0.1,0,0.3-0.1
			c0.1-0.1,0.1-0.3,0.1-0.3c0-0.1-0.1-0.3-0.3-0.3h-0.1c0,0,0,0,0-0.1s0-0.4,0.1-0.6c0-0.1,0.4-1.1,1-2.4h3.4c0.4,1.1,0.8,2.1,1,2.3
			c0.1,0.3,0.1,0.7,0.1,0.8l0,0l0,0c0,0,0,0-0.1,0l0,0c-0.1,0-0.3,0.1-0.4,0.3l0,0l0,0c0,0.1,0.1,0.3,0.1,0.3c0.1,0,0.1,0,0.3,0
			c0.4,0,1.3,0,1.3,0c0.1,0,0.7,0,1,0c0.1,0,0.1,0,0.3,0c0.1,0,0.3-0.1,0.3-0.3l0,0C62.4,30.6,62.3,30.6,62.1,30.6z M51.4,31.2
			L51.4,31.2L51.4,31.2z M57,23.3c0.3,0.7,0.7,1.7,1.1,2.8h-2.3C56.2,25.1,56.6,24.1,57,23.3z"/>
	</g>
	<g>
		<path class="st1" d="M20.8,28.5L20.8,28.5c-0.1,0-0.3,0.1-0.3,0.1c0,0.1,0,0.1,0,0.1c0,0.3,0,0.3-0.3,0.7c-0.1,0.1-1,0.4-1.8,0.3
			h-0.3c-1,0-1.3-0.1-1.4-0.3c0,0-0.1-0.3-0.1-0.7s0-1.1,0-2.1v-2.4c0-2.1,0-2.5,0-3c0-0.4,0.1-0.6,0.3-0.6c0.1,0,0.3,0,0.3,0
			c0.1,0,0.1,0,0.3-0.1c0.1,0,0.1-0.1,0.1-0.3c0-0.1,0-0.3-0.1-0.3c-0.1,0-0.1,0-0.3,0c-0.3,0-1.3,0-1.4,0c0,0-1,0-1.4,0
			c-0.1,0-0.1,0-0.3,0c-0.1,0-0.1,0.3-0.1,0.3c0,0.1,0,0.3,0.1,0.3c0.1,0,0.1,0.1,0.3,0.1h0.3c0.1,0,0.3,0.1,0.4,0.6
			c0,0.4,0,0.8,0,3v2.4c0,1.3,0,2.4,0,3c0,0.1-0.1,0.3-0.1,0.4c0,0,0,0.1-0.1,0.1l0,0c-0.1,0-0.1,0-0.3,0c-0.1,0-0.1,0-0.3,0.1
			c0,0,0,0,0,0.1c0,0,0-0.1-0.1-0.1c-0.1,0-0.1-0.1-0.3-0.1h-0.3c-0.1,0-0.4-0.3-0.6-0.7L7.5,17.2C7.5,17,7.3,17,7.2,17
			c-0.1,0-0.3,0.1-0.3,0.1L1.8,29.6c-0.1,0.4-0.4,0.6-0.6,0.7c-0.1,0-0.3,0-0.3,0c-0.1,0-0.1,0-0.3,0.1c-0.1,0-0.1,0.1-0.1,0.3
			S0.7,31,0.7,31c0.1,0,0.1,0,0.3,0l0,0c0.6,0,1,0,1.6,0c0.1,0,0.8,0,1.1,0c0,0,0.1,0,0.3-0.1c0.1-0.1,0.1-0.3,0.1-0.3
			s0-0.1-0.1-0.3c-0.1-0.1-0.1-0.1-0.3-0.1l0,0c0,0-0.1-0.1-0.1-0.3c0-0.3,0.1-0.7,0.3-1.1l1.1-2.8h4.4c0.3,0.7,0.6,1.3,0.8,1.8
			c0.4,1,0.7,1.8,0.7,1.8l0,0c0,0,0,0.1-0.1,0.1h-0.1l0,0l0,0c0,0-0.1,0-0.3,0.1c-0.1,0.1-0.1,0.1-0.1,0.3l0,0c0,0.1,0,0.3,0.1,0.3
			s0.1,0,0.3,0c0.3,0,1.1,0,1.3,0c0.7,0,1.3,0,1.8,0c0,0,0,0,0.1,0c0.1,0,0.1,0,0.3,0l0.1-0.1l0.1,0.1c0.1,0,0.1,0,0.3,0
			c0.1,0,0.6,0,0.7,0c0.3,0,0.4,0,0.6,0c0.4,0,0.7,0,1.3,0s3.7,0,3.8,0l0,0c0,0,0.1,0,0.3,0c0.1-0.1,0.1-0.1,0.1-0.1
			c0-0.1,0-0.1,0-0.4c0-0.6,0-1.4,0-1.6l0,0v-0.1C21.1,28.6,20.9,28.5,20.8,28.5z M8.3,24.8H5.1l1.6-3.7C7.2,22.3,7.8,23.5,8.3,24.8
			z"/>
		<path class="st1" d="M28.6,20.6L28.6,20.6L28.6,20.6c0-0.1-0.1-0.4-0.3-0.3c-0.1,0-0.1,0-0.1,0l0,0c0,0-0.4,0-1,0
			c-0.8,0-2,0-2.5,0h-4.1c-0.3,0-0.4,0-0.6,0l0,0l0,0c-0.1,0,0,0-0.1,0c-0.1,0-0.3,0.1-0.3,0.3v0.1c0,0.3,0,1.6,0,1.7l0,0
			c0,0.1,0,0.1,0,0.3c0,0.1,0.1,0.1,0.3,0.1c0.3,0,0.3-0.1,0.3-0.3c0-0.1,0-0.1,0.1-0.3c0.1-0.3,0.1-0.4,0.4-0.6
			c0.3-0.1,0.7-0.3,1.3-0.3h1.4v5.4c0,1.3,0,2.4,0,3c0,0.1,0,0.3-0.1,0.4c0,0.1,0,0,0,0.1c-0.1,0-0.3,0.1-0.3,0.1
			c-0.1,0-0.1,0-0.3,0.1c-0.1,0.1-0.1,0.1-0.1,0.3s0.1,0.3,0.1,0.3c0.1,0,0.1,0,0.3,0c0.3,0,1.3,0,1.3,0s1,0,1.4,0
			c0.1,0,0.1,0,0.3-0.1c0.1,0,0.1-0.1,0.1-0.3c0,0,0-0.1-0.1-0.3c0-0.1-0.1-0.1-0.3-0.1l0,0c0,0-0.3,0-0.4-0.1c0,0,0,0-0.1,0
			c0-0.1,0-0.3-0.1-0.4c0-0.6,0-1.6,0-3v-5.5h1.3c0.6,0,1,0.1,1.3,0.3c0.3,0.1,0.4,0.3,0.4,0.6c0,0.1,0,0.1,0.1,0.3
			c0,0,0,0.3,0.3,0.3c0.1,0,0.3-0.1,0.3-0.1c0-0.1,0-0.1,0-0.3l0,0l0,0C28.6,22.3,28.6,20.7,28.6,20.6z"/>
		<path class="st1" d="M66,24.7c-1.7-0.7-2-1.4-2-2c0,0,0,0,0-0.1c0-0.7,0.4-1.1,0.8-1.3c0.3-0.1,0.7-0.1,0.8-0.1l0,0l0,0l0,0h0.1
			c1,0,1.1,0.4,1.1,0.6c0,0,0.1,0.4,0.1,0.6s0,0.1,0,0.3c0,0.1,0.3,0.3,0.3,0.3c0.1,0,0.3-0.1,0.3-0.3c0-0.1,0-0.1,0-0.3
			c0-1,0-1.3,0-1.4c0,0,0-0.1-0.1-0.3c-0.1-0.1-0.1-0.1-0.3-0.1c0,0-0.1,0-0.3,0c0,0-0.6-0.1-1.4-0.1c-0.1,0-0.3,0-0.4,0
			c-1.8,0.1-3.1,1.6-3.1,3.1c0,1,0.7,2.5,3,3.3c1.4,0.4,1.8,1.1,2,1.8c0,0.3,0,0.4-0.1,0.7c-0.1,0.4-0.8,1-2.1,1c0,0,0,0-0.1,0
			c-0.8,0-1.6-0.3-1.8-1.1c0-0.1,0-0.3,0-0.4c0,0,0-0.1,0-0.3s-0.3-0.1-0.3-0.1c-0.1,0-0.3,0.1-0.3,0.3c0,0.1,0,0.1,0,0.3
			c0,0.3,0,0.7,0,1.4c0,0.1,0,0.3,0,0.4s0.1,0.3,0.3,0.3c0.6,0.3,1.4,0.3,2.1,0.4c0.1,0,0.1,0,0.3,0c0.7,0,1.6-0.1,2.3-0.6
			c0.8-0.4,1.4-1.1,1.6-2.3h-0.3l0,0h0.3c0-0.1,0-0.3,0-0.6C68.9,26.2,68,25.4,66,24.7z"/>
		<path class="st1" d="M73.2,30.5c0-0.1-0.1-0.1-0.3-0.1c0,0-0.3,0-0.4-0.1c0,0,0,0-0.1,0c0-0.1,0-0.3-0.1-0.4c0-0.6,0-1.6,0-3v-2.4
			c0-2.1,0-2.5,0-3c0-0.3,0-0.4,0.1-0.4c0,0,0,0,0.1-0.1c0.1,0,0.1,0,0.3,0l0,0l0,0c0,0,0.1,0,0.3,0s0.1-0.1,0.1-0.3
			c0-0.1-0.1-0.3-0.1-0.3c-0.1,0-0.1,0-0.3,0c-0.3,0-1.3,0-1.3,0s-1,0-1.4,0c-0.1,0-0.1,0-0.3,0c-0.1,0-0.3,0.3-0.1,0.3
			c0,0.1,0.1,0.3,0.1,0.3c0.1,0,0.1,0,0.3,0c0,0,0.3,0,0.3,0.1c0.1,0,0.1,0,0.3,0.6c0,0.4,0,0.8,0,3v2.4c0,1.3,0,2.4,0,3
			c0,0.1,0,0.3-0.1,0.4c0,0.1,0,0,0,0.1c-0.1,0-0.3,0.1-0.3,0.1c-0.1,0-0.1,0-0.3,0.1c-0.1-0.3-0.1-0.1-0.1-0.1
			c0,0.1,0.1,0.3,0.1,0.3c0.1,0,0.1,0,0.3,0c0.3,0,1.3,0,1.3,0s1,0,1.4,0c0.1,0,0.1,0,0.3-0.1c0.1,0,0.1-0.1,0.1-0.3
			C73.3,30.6,73.3,30.5,73.2,30.5z"/>
		<path class="st1" d="M37.9,28.4c-0.3,0-0.3,0.1-0.3,0.3c0,0,0,0.1-0.1,0.3c-0.1,0.3-0.1,0.4-0.6,0.7c-0.6,0.4-1.4,0.6-2.7,0.6
			c-2.7,0-3.7-1.7-3.8-4.1c1.4,0,4.4,0,4.7,0l0,0c0.6,0,0.6,0.1,0.7,0.4v0.1c0,0.1,0.1,0.1,0.3,0.1l0,0l0,0c0.1,0,0.3-0.1,0.3-0.3
			c0-0.1,0-0.1,0-0.1l0,0c0,0,0-0.3,0-0.6c0-0.1,0-0.3,0-0.3c0-0.4,0-0.8,0-0.8v-0.1v-0.1c0-0.1-0.1-0.1-0.3-0.1l0,0
			c-0.1,0-0.3,0-0.3,0.1s0,0.1-0.1,0.1c0,0.3-0.1,0.3-0.3,0.4c-0.1,0.1-0.3,0.1-0.6,0.1l0,0c-0.6,0-3.1,0-4.4,0
			c0.3-2,1.4-3.4,3.7-3.4c1.8,0,2.7,0.4,3.1,1.6v0.1v0.1c0,0.1,0.1,0.1,0.3,0.1l0,0l0,0l0,0c0.3,0,0.3-0.1,0.3-0.3
			c0-0.1,0-0.1,0-0.1v-0.1c0,0,0-1.8,0-2c0-0.1,0-0.3-0.1-0.3c-0.1-0.1-0.1-0.1-0.3-0.1h-0.1l0,0l0,0c0,0,0,0-0.1,0
			c-0.6-0.1-1.3-0.1-1.8-0.1c-0.4,0-0.7,0-1.3,0c-1.8,0-3.3,0.6-4.2,1.6c-1,1-1.4,2.4-1.4,4c0,0,0,0,0,0.1c0,1.7,0.4,3.1,1.4,4.1
			c1,1,2.4,1.4,4.2,1.4c0.7,0,1.3,0,1.8-0.1c0.3,0,1.4-0.1,1.6-0.1l0,0c0,0,0,0,0.1,0c0,0,0.1,0,0.3-0.1c0.1-0.3,0.1-0.3,0.1-0.4
			s0-1.1,0-1.4v-0.1c0-0.1,0-0.1,0-0.3C38.2,28.5,38.1,28.4,37.9,28.4z"/>
		<path class="st1" d="M61.9,30.3L61.9,30.3c0,0-0.1,0-0.3-0.1c0,0-0.3-0.1-0.4-0.6c0,0-1-2.5-2-5c-1-2.4-2-4.8-2-4.8
			c0-0.1-0.1-0.1-0.3-0.1s-0.3,0-0.3,0.1c-1.1,2.8-3.8,9.1-3.8,9.1c-0.3,0.7-0.7,1.3-0.7,1.3c-0.1,0-0.1,0.1-0.3,0.1l0,0h-0.1
			l-0.1,0.1c0-0.1-0.1-0.1-0.1-0.1h-0.1c0,0-0.1,0-0.3-0.1c-0.1,0-0.1,0-0.1-0.1s-0.1-0.4-0.1-0.7L50,21.4c0-0.4,0.1-0.4,0.1-0.4
			h0.1l0,0l0,0c0.1,0,0.3-0.1,0.3-0.4c0-0.1,0-0.3-0.1-0.3c-0.1-0.1-0.1-0.1-0.3-0.1l0,0l0,0c-0.3,0-0.8,0.1-1,0.1l0,0
			c-0.4,0-1,0-1.1,0c0,0,0,0-0.1,0c0,0-0.1,0-0.3,0s-0.1,0.3-0.1,0.3c0,0.3,0.3,0.4,0.3,0.4s0.1,0,0.3,0.1c0,0,0,0,0,0.1
			c0,0.1,0,0.3,0,0.3c-0.1,0.3-1.1,2.8-2.7,6.5c-1.6-3.8-2.8-6.7-2.8-6.9c0,0,0,0,0-0.1h0.1l0,0l0,0c0.1,0,0.3-0.1,0.3-0.4
			c0-0.1,0-0.3-0.1-0.3c-0.1,0-0.1,0-0.3,0c0,0,0,0-0.1,0c-0.1,0-1,0-1.3,0l0,0c-0.1,0-1-0.1-1.3-0.1l0,0c0,0-0.1,0-0.3,0.1
			c-0.1,0.1-0.1,0.3-0.1,0.3c0,0.1,0.1,0.4,0.3,0.4l0,0c0,0,0.1,0,0.3,0.1c0,0,0.1,0,0.1,0.4c0,0,0,0,0,0.1c0,0.8-0.4,7.9-0.4,7.9
			c0,0.3,0,0.6-0.1,0.7c0,0.1-0.1,0.1-0.1,0.1c-0.1,0-0.3,0.1-0.3,0.1h-0.1c0,0-0.1,0.1-0.1,0.3s0.1,0.3,0.3,0.3c0.1,0,0.1,0,0.3,0
			c0.4,0,1,0,1.1,0c0.1,0,0.8,0,1.3,0c0.1,0,0.1,0,0.3,0c0.1,0,0.3-0.3,0.1-0.3c0-0.3-0.3-0.3-0.4-0.3l0,0c0,0-0.3,0-0.3-0.1l0,0
			c0,0-0.1-0.4-0.1-0.8c0,0,0,0,0-0.1c0-0.4,0.1-4,0.3-5.9l3.4,7.9c0,0.1,0.1,0.1,0.3,0.1s0.3,0,0.3-0.1l3.1-7.4
			c0.1,1.7,0.3,4.8,0.3,5.4v0.1c0,0.3,0,0.4,0,0.6s0,0.1,0,0.1l0,0h-0.1c0,0,0,0-0.1,0l0,0l0,0c-0.1,0-0.3,0-0.4,0.3l0,0l0,0
			c0,0.1,0.1,0.3,0.3,0.3s0.1,0,0.3,0c0.6,0,1.3,0,1.3,0c0.1,0,0.7,0,1.1,0c0.1,0,0.1,0,0.3,0c0.1,0,0.1-0.1,0.3-0.3
			c0,0.1,0.1,0.1,0.1,0.3c0.1,0,0.1,0,0.3,0c0.3,0,1,0,1,0s0.7,0,1,0c0,0,0.1,0,0.3-0.1s0.1-0.3,0.1-0.3c0-0.1-0.1-0.3-0.3-0.3h-0.1
			c0,0,0,0,0-0.1c0-0.1,0-0.4,0.1-0.6c0-0.1,0.4-1.1,1-2.4h3.4c0.4,1.1,0.8,2.1,1,2.3c0.1,0.3,0.1,0.7,0.1,0.8l0,0l0,0
			c0,0,0,0-0.1,0l0,0c-0.1,0-0.3,0.1-0.4,0.3l0,0c0,0.1,0.1,0.3,0.1,0.3c0.1,0,0.1,0,0.3,0c0.4,0,1.3,0,1.3,0c0.1,0,0.7,0,1,0
			c0.1,0,0.1,0,0.3,0c0.1,0,0.3-0.1,0.3-0.3l0,0C62.1,30.3,62,30.3,61.9,30.3z M51.1,30.9L51.1,30.9L51.1,30.9z M51.4,30.9
			L51.4,30.9L51.4,30.9L51.4,30.9z M56.8,23.1c0.3,0.7,0.7,1.7,1.1,2.8h-2.3C56.1,24.8,56.5,23.8,56.8,23.1z"/>
	</g>
	<g>
		<g>
			<path class="st0" d="M16,26.8c0,2,0,2.8,0.3,3c0.1,0.1,0.6,0.3,1.6,0.3c0,0,0.3,0,0.4,0c0.8,0,1.8,0,2.1-0.4
				c0.3-0.4,0.3-0.6,0.4-0.8c0,0,0-0.1,0.1-0.1c0,0,0,0,0,0.1c0,0.1,0,1.7-0.1,1.8c0,0,0,0.1-0.1,0.1c-0.1,0-3.3,0-3.8,0s-1,0-1.3,0
				c0,0-0.3,0-0.6,0s-0.6,0-0.7,0c-0.1,0-0.1,0-0.1-0.1c0,0,0,0,0.1,0c0.1,0,0.3,0,0.3,0c0.1,0,0.4-0.4,0.4-0.8c0-0.6,0-1.7,0-3
				v-2.4c0-2.1,0-2.5,0-3c0-0.4-0.3-0.7-0.6-0.8c-0.1,0-0.3,0-0.3,0H14c0,0,0-0.1,0.1-0.1c0.4,0,1.3,0,1.4,0c0.1,0,1.1,0,1.4,0
				c0.1,0,0.1,0,0.1,0.1c0,0,0,0-0.1,0c0,0-0.1,0-0.3,0c-0.3,0-0.6,0.3-0.6,0.8c0,0.4,0,0.8,0,3v2.4H16z"/>
			<path class="st0" d="M28.3,20.6C28.3,20.6,28.2,20.6,28.3,20.6c0-0.1-0.1,0-0.1,0c-0.1,0-2.5,0-3.5,0h-4.1c-0.4,0-0.6,0-0.7,0
				c-0.1,0-0.1,0-0.1,0s0,0,0,0.1c0,0.1,0,1.7,0,1.7c0,0.1,0,0.1,0,0.1s0.1-0.1,0.1-0.3c0.1-0.7,0.7-1,2-1.1h1.7v5.8
				c0,1.3,0,2.4,0,3c0,0.4-0.1,0.7-0.4,0.7c-0.1,0-0.3,0.1-0.4,0.1h-0.1c0,0,0,0.1,0.1,0.1c0.3,0,1.3,0,1.3,0s1,0,1.4,0
				c0.1,0,0.1,0,0.1-0.1l0,0c0,0-0.3,0-0.4-0.1c-0.3,0-0.3-0.3-0.4-0.7c0-0.6,0-1.7,0-3v-5.8h1.7c1.3,0,1.8,0.3,2,1.1
				c0,0.1,0.1,0.3,0.1,0.3s0.1,0,0-0.1C28.3,22.3,28.3,20.7,28.3,20.6z"/>
			<path class="st0" d="M68.7,28.4C68.4,30.5,66,31,64.8,31c-0.7,0-1.4-0.1-2-0.4c-0.1-0.1-0.1-0.1-0.1-0.6c0-0.7,0-1.3,0-1.4
				c0-0.1,0-0.3,0.1-0.3c0.1,0,0.1,0,0.1,0.1c0,0.1,0,0.3,0,0.6c0.1,1,1.1,1.4,2,1.4c1.4,0,2.4-0.7,2.5-1.3c0.4-1.4-0.1-2.4-2-3
				c-2.1-0.7-2.7-2.1-2.7-3c0-1.4,1.1-2.7,2.8-2.8c0.8,0,1.7,0.1,1.7,0.1c0.1,0,0.1,0,0.3,0s0.1,0,0.1,0.1c0,0,0,0.6,0,1.4
				c0,0.3,0,0.3-0.1,0.3s-0.1,0-0.1-0.1s-0.1-0.6-0.1-0.7s-0.4-0.8-1.7-0.7c0,0-1.8,0-1.8,1.7c0,0.7,0.3,1.7,2.1,2.4
				C68,25.8,68.8,26.5,68.7,28.4z"/>
			<path class="st0" d="M72.1,26.8c0,1.3,0,2.4,0,3c0,0.4,0.1,0.7,0.4,0.7c0.1,0,0.4,0.1,0.4,0.1l0,0c0,0,0,0.1-0.1,0.1
				c-0.4,0-1.3,0-1.4,0c0,0-1,0-1.3,0c-0.1,0-0.1,0-0.1-0.1c0,0,0,0,0.1,0c0.1,0,0.3,0,0.4-0.1c0.3,0,0.3-0.3,0.4-0.7
				c0-0.6,0-1.7,0-3v-2.4c0-2.1,0-2.5,0-3c0-0.4-0.1-0.7-0.4-0.7c-0.1,0-0.3-0.1-0.4-0.1h-0.1c0,0,0-0.1,0.1-0.1c0.3,0,1.3,0,1.4,0
				c0,0,1,0,1.3,0c0.1,0,0.1,0,0.1,0.1c0,0,0,0-0.1,0s-0.1,0-0.3,0.1c-0.3,0-0.4,0.3-0.4,0.7s0,0.8,0,3
				C72.1,24.4,72.1,26.8,72.1,26.8z"/>
			<g>
				<path class="st0" d="M51.1,30.6c-0.1,0-0.1,0-0.4-0.1c-0.4-0.1-0.4-0.6-0.6-1.1l-0.6-8.1c0-0.4,0.1-0.7,0.3-0.7
					c0.1,0,0.3-0.1,0.3-0.1l0,0c0,0,0-0.1-0.1-0.1c-0.3,0-1,0.1-1.1,0.1c-0.4,0-1,0-1.3,0c-0.1,0-0.1,0-0.1,0s0,0,0.1,0.1
					c0.1,0,0.1,0,0.3,0.1c0.3,0.1,0.3,0.4,0.1,0.8c-0.1,0.4-1.3,3.3-3,7.2c-1.7-4.1-3-7.2-3.1-7.6c0-0.3,0-0.4,0-0.4
					c0.1,0,0.3-0.1,0.3-0.1s0.1,0,0.1-0.1c0,0,0-0.1-0.1,0c-0.3,0-1,0-1.4,0c-0.1,0-1-0.1-1.3-0.1c-0.1,0-0.1,0-0.1,0.1l0,0
					c0,0,0.1,0,0.3,0.1c0.1,0.1,0.3,0.3,0.3,0.7c0.4,1,0.1,8.1,0.1,8.1c0,0.6-0.1,1-0.4,1.1c-0.1,0-0.3,0.1-0.4,0.1h-0.1
					c0,0.1,0.1,0.1,0.3,0.1c0.3,0,1,0,1.1,0c0.1,0,0.8,0,1.3,0c0.1,0,0.1,0,0.1-0.1c0,0,0,0-0.1,0c0,0-0.3,0-0.4-0.1
					c-0.3-0.1-0.4-0.6-0.4-1.3c0-0.6,0.3-7.2,0.3-7.2l3.8,9.2l3.7-8.5c0,0,0.4,5.9,0.4,6.5c0,0.6-0.1,1.1-0.3,1.3
					c-0.1,0-0.4,0.1-0.4,0.1h-0.1c0,0.1,0,0.1,0.3,0.1c0.6,0,1.3,0,1.3,0c0.1,0,0.7,0,1.1,0C51.1,30.8,51.2,30.8,51.1,30.6
					C51.2,30.6,51.1,30.6,51.1,30.6z"/>
			</g>
		</g>
		<path class="st0" d="M13.4,30.6c-0.1,0-0.3,0-0.4,0c-0.4,0-0.7-0.4-0.8-0.8L6.8,17.4l-5,12.5c-0.1,0.4-0.4,0.7-0.8,0.8
			c-0.1,0-0.3,0-0.4,0c0,0-0.1,0-0.1,0.1S0.5,31,0.7,31c0.6,0,1,0,1.6,0c0.1,0,1,0,1.1,0c0,0,0.1,0,0.1-0.1l0,0H3.4
			c-0.1,0-0.4-0.3-0.4-0.6c0-0.3,0.1-0.7,0.3-1.1l1.3-3h4.8c0.3,0.7,0.6,1.4,0.8,2c0.4,1,0.7,1.7,0.7,2c0,0.3-0.4,0.6-0.6,0.6h-0.1
			H10c0,0,0,0.1,0.1,0.1s1.1,0,1.3,0c0.7,0,1.3,0,1.8,0C13.4,30.8,13.6,30.8,13.4,30.6C13.6,30.6,13.6,30.6,13.4,30.6z M4.8,25.1
			l2-4.8c0.6,1.4,1.4,3.1,2.1,4.8H4.8z"/>
		<path class="st0" d="M37.9,28.6c0,0-0.1,0.1-0.1,0.3c-0.1,0.4-0.3,0.6-0.7,0.8c-0.7,0.4-1.6,0.6-2.8,0.6c-2.8,0-4.1-2.1-4.1-4.7
			l0,0c1.3,0,4.7,0,5,0c0.6,0,1,0.3,1,0.7v0.1v-0.1c0,0,0-0.6,0-0.8c0-0.4,0-0.8,0-1v-0.1c0,0,0,0,0,0.1c-0.1,0.6-0.6,0.7-1.1,0.7
			c-0.3,0-3.7,0-4.8,0c0.1-2.3,1.4-4,4.1-4c1.8,0,2.8,0.4,3.4,1.7c0,0.1,0,0.3,0.1,0.3c0.1,0,0-0.3,0-0.3s0-1.8,0-2
			c0-0.1-0.1-0.1-0.1-0.1s-0.1,0-0.3,0c-0.6-0.1-1.1-0.1-1.8-0.1c-0.4,0-0.7,0-1.1,0c-3.5,0-5.4,2.1-5.4,5.2c0,3.4,1.8,5.2,5.4,5.2
			c0.7,0,1.3,0,1.8-0.1c0.4-0.1,1.6-0.1,1.7-0.1c0.1,0,0.1,0,0.1-0.1s0-1.1,0-1.4C37.9,28.6,37.9,28.6,37.9,28.6z"/>
		<path class="st0" d="M61.9,30.6c0,0-0.1,0-0.3-0.1c-0.1,0-0.4-0.3-0.6-0.7c-0.1-0.1-4-9.9-4-9.9c-1.1,2.8-3.8,9.1-3.8,9.1
			c-0.3,0.7-0.6,1.3-1,1.4c-0.1,0-0.3,0.1-0.3,0.1h-0.1c0,0.1,0.1,0.1,0.1,0.1c0.3,0,1,0,1,0c0.1,0,0.7,0,1,0c0.1,0,0.1,0,0.1-0.1
			l0,0c0,0-0.1,0-0.3-0.1s-0.1-0.6,0-1c0-0.1,0.6-1.3,1.1-2.5h3.8c0.6,1.3,1,2.3,1,2.5c0.3,0.6,0.3,1,0.1,1.1
			c-0.1,0-0.3,0.1-0.4,0.1l0,0c0,0.1,0,0.1,0.1,0.1c0.4,0,1.1,0,1.3,0s0.7,0,1,0C61.9,30.8,62,30.8,61.9,30.6
			C62,30.6,61.9,30.6,61.9,30.6z M55.2,26.1c0.6-1.4,1.3-3,1.6-3.8c0.3,0.7,1,2.3,1.6,3.8H55.2z"/>
	</g>
	<g>
		<path class="st0" d="M38.4,0.3c-4.7,0-8.4,3.8-8.4,8.4c0,4.7,3.8,8.4,8.4,8.4c4.7,0,8.4-3.8,8.4-8.4S43,0.3,38.4,0.3z M38.4,16.9
			c-4.5,0-8.2-3.7-8.2-8.2s3.7-8.2,8.2-8.2s8.2,3.7,8.2,8.2S42.9,16.9,38.4,16.9z"/>
		<path class="st0" d="M38.4,1.3c-4.1,0-7.5,3.4-7.5,7.5s3.4,7.5,7.5,7.5s7.5-3.4,7.5-7.5C45.9,4.6,42.5,1.3,38.4,1.3z M38.4,16
			c-4.1,0-7.4-3.3-7.4-7.4s3.3-7.4,7.4-7.4s7.4,3.3,7.4,7.4S42.5,16,38.4,16z"/>
		<ellipse class="st0" cx="38.4" cy="0.9" rx="0.1" ry="0.1"/>
		
			<ellipse transform="matrix(0.9973 -7.299832e-02 7.299832e-02 0.9973 3.680539e-02 2.7603)" class="st0" cx="37.8" cy="0.9" rx="0.1" ry="0.1"/>
		<ellipse transform="matrix(0.9899 -0.1421 0.1421 0.9899 0.2527 5.2966)" class="st0" cx="37.2" cy="0.9" rx="0.1" ry="0.1"/>
		<ellipse transform="matrix(0.9772 -0.2124 0.2124 0.9772 0.6177 7.8075)" class="st0" cx="36.6" cy="1" rx="0.1" ry="0.1"/>
		<ellipse transform="matrix(0.9595 -0.2818 0.2818 0.9595 1.1308 10.2156)" class="st0" cx="36.1" cy="1.2" rx="0.1" ry="0.1"/>
		<ellipse transform="matrix(0.9368 -0.3498 0.3498 0.9368 1.7996 12.5472)" class="st0" cx="35.6" cy="1.3" rx="0.1" ry="0.1"/>
		<ellipse transform="matrix(0.9094 -0.4158 0.4158 0.9094 2.5183 14.7364)" class="st0" cx="35.1" cy="1.6" rx="0.1" ry="0.1"/>
		<ellipse transform="matrix(0.8778 -0.4791 0.4791 0.8778 3.318 16.7868)" class="st0" cx="34.6" cy="1.9" rx="0.1" ry="0.1"/>
		<ellipse transform="matrix(0.8417 -0.54 0.54 0.8417 4.2434 18.7674)" class="st0" cx="34.1" cy="2.1" rx="0.1" ry="0.1"/>
		<ellipse transform="matrix(0.8017 -0.5978 0.5978 0.8017 5.235 20.6095)" class="st0" cx="33.7" cy="2.4" rx="0.1" ry="0.1"/>
		<ellipse transform="matrix(0.7572 -0.6531 0.6531 0.7572 6.2894 22.3364)" class="st0" cx="33.2" cy="2.7" rx="0.1" ry="0.1"/>
		<ellipse transform="matrix(0.7078 -0.7065 0.7065 0.7078 7.378 24.088)" class="st0" cx="32.8" cy="3.1" rx="0.1" ry="0.1"/>
		<ellipse transform="matrix(0.6549 -0.7557 0.7557 0.6549 8.4731 25.7164)" class="st0" cx="32.4" cy="3.6" rx="0.1" ry="0.1"/>
		<ellipse transform="matrix(0.5997 -0.8003 0.8003 0.5997 9.6788 27.2521)" class="st0" cx="32.1" cy="4" rx="0.1" ry="0.1"/>
		<ellipse transform="matrix(0.5414 -0.8408 0.8408 0.5414 10.7514 28.6796)" class="st0" cx="31.7" cy="4.5" rx="0.1" ry="0.1"/>
		<ellipse transform="matrix(0.4811 -0.8767 0.8767 0.4811 11.9302 30.1663)" class="st0" cx="31.4" cy="5" rx="0.1" ry="0.1"/>
		<ellipse transform="matrix(0.4167 -0.909 0.909 0.4167 13.2896 31.4755)" class="st0" cx="31.2" cy="5.4" rx="0.1" ry="0.1"/>
		<ellipse transform="matrix(0.3519 -0.936 0.936 0.3519 14.4806 32.8703)" class="st0" cx="31" cy="6" rx="0.1" ry="0.1"/>
		<ellipse transform="matrix(0.2839 -0.9589 0.9589 0.2839 15.8633 34.2177)" class="st0" cx="30.8" cy="6.5" rx="0.1" ry="0.1"/>
		<ellipse transform="matrix(0.2128 -0.9771 0.9771 0.2128 17.3003 35.5542)" class="st0" cx="30.7" cy="7" rx="0.1" ry="0.1"/>
		<ellipse transform="matrix(0.1416 -0.9899 0.9899 0.1416 18.7227 36.8593)" class="st0" cx="30.6" cy="7.6" rx="0.1" ry="0.1"/>
		
			<ellipse transform="matrix(7.178219e-02 -0.9974 0.9974 7.178219e-02 20.2654 38.0383)" class="st0" cx="30.6" cy="8.1" rx="0.1" ry="0.1"/>
		<ellipse transform="matrix(1.563082e-03 -1 1 1.563082e-03 21.6934 39.3441)" class="st0" cx="30.5" cy="8.8" rx="0.1" ry="0.1"/>
		
			<ellipse transform="matrix(0.9973 -7.339261e-02 7.339261e-02 0.9973 -0.6051 2.2686)" class="st0" cx="30.6" cy="9.4" rx="0.1" ry="0.1"/>
		<ellipse transform="matrix(0.9896 -0.1437 0.1437 0.9896 -1.0907 4.4919)" class="st0" cx="30.6" cy="9.8" rx="0.1" ry="0.1"/>
		<ellipse transform="matrix(0.9769 -0.2136 0.2136 0.9769 -1.5043 6.7944)" class="st0" cx="30.7" cy="10.4" rx="0.1" ry="0.1"/>
		<ellipse transform="matrix(0.9589 -0.2836 0.2836 0.9589 -1.8298 9.1934)" class="st0" cx="30.8" cy="10.9" rx="0.1" ry="0.1"/>
		<ellipse transform="matrix(0.9364 -0.351 0.351 0.9364 -2.0639 11.6082)" class="st0" cx="31" cy="11.5" rx="0.1" ry="0.1"/>
		<ellipse transform="matrix(0.9095 -0.4157 0.4157 0.9095 -2.2056 14.0445)" class="st0" cx="31.2" cy="12.1" rx="0.1" ry="0.1"/>
		<ellipse transform="matrix(0.8777 -0.4792 0.4792 0.8777 -2.1533 16.576)" class="st0" cx="31.4" cy="12.5" rx="0.1" ry="0.1"/>
		<ellipse transform="matrix(0.8412 -0.5408 0.5408 0.8412 -2.0269 19.2352)" class="st0" cx="31.7" cy="13.1" rx="0.1" ry="0.1"/>
		<ellipse transform="matrix(0.8002 -0.5997 0.5997 0.8002 -1.6422 21.9414)" class="st0" cx="32.1" cy="13.4" rx="0.1" ry="0.1"/>
		<ellipse transform="matrix(0.7556 -0.6551 0.6551 0.7556 -1.1877 24.6265)" class="st0" cx="32.4" cy="13.9" rx="0.1" ry="0.1"/>
		<ellipse transform="matrix(0.7065 -0.7077 0.7077 0.7065 -0.4865 27.426)" class="st0" cx="32.8" cy="14.3" rx="0.1" ry="0.1"/>
		<ellipse transform="matrix(0.6543 -0.7563 0.7563 0.6543 0.3918 30.2468)" class="st0" cx="33.3" cy="14.7" rx="0.1" ry="0.1"/>
		<ellipse transform="matrix(0.5986 -0.801 0.801 0.5986 1.475 32.9785)" class="st0" cx="33.6" cy="15" rx="0.1" ry="0.1"/>
		<ellipse transform="matrix(0.5415 -0.8407 0.8407 0.5415 2.7115 35.6676)" class="st0" cx="34.1" cy="15.3" rx="0.1" ry="0.1"/>
		<ellipse transform="matrix(0.4811 -0.8767 0.8767 0.4811 4.1543 38.392)" class="st0" cx="34.5" cy="15.7" rx="0.1" ry="0.1"/>
		<ellipse transform="matrix(0.4186 -0.9082 0.9082 0.4186 5.9492 41.0853)" class="st0" cx="35.1" cy="15.9" rx="0.1" ry="0.1"/>
		<ellipse transform="matrix(0.3544 -0.9351 0.9351 0.3544 7.9708 43.7423)" class="st0" cx="35.7" cy="16.1" rx="0.1" ry="0.1"/>
		<ellipse transform="matrix(0.2881 -0.9576 0.9576 0.2881 10.046 46.2466)" class="st0" cx="36.1" cy="16.4" rx="0.1" ry="0.1"/>
		<ellipse transform="matrix(0.2189 -0.9757 0.9757 0.2189 12.5716 48.6701)" class="st0" cx="36.7" cy="16.5" rx="0.1" ry="0.1"/>
		<ellipse transform="matrix(0.1499 -0.9887 0.9887 0.1499 15.2987 50.955)" class="st0" cx="37.3" cy="16.6" rx="0.1" ry="0.1"/>
		
			<ellipse transform="matrix(7.751836e-02 -0.997 0.997 7.751836e-02 18.2774 53.0042)" class="st0" cx="37.8" cy="16.6" rx="0.1" ry="0.1"/>
		<ellipse transform="matrix(8.362261e-03 -1 1 8.362261e-03 21.3639 54.825)" class="st0" cx="38.3" cy="16.6" rx="0.1" ry="0.1"/>
		
			<ellipse transform="matrix(0.998 -6.326988e-02 6.326988e-02 0.998 -0.972 2.4955)" class="st0" cx="38.9" cy="16.6" rx="0.1" ry="0.1"/>
		<ellipse transform="matrix(0.991 -0.1342 0.1342 0.991 -1.8701 5.4499)" class="st0" cx="39.5" cy="16.6" rx="0.1" ry="0.1"/>
		<ellipse transform="matrix(0.9791 -0.2034 0.2034 0.9791 -2.5085 8.4901)" class="st0" cx="40.1" cy="16.4" rx="0.1" ry="0.1"/>
		<ellipse transform="matrix(0.9621 -0.2728 0.2728 0.9621 -2.9058 11.6983)" class="st0" cx="40.6" cy="16.3" rx="0.1" ry="0.1"/>
		<ellipse transform="matrix(0.9405 -0.3397 0.3397 0.9405 -3.0342 14.9516)" class="st0" cx="41.2" cy="16.1" rx="0.1" ry="0.1"/>
		<ellipse transform="matrix(0.9144 -0.4048 0.4048 0.9144 -2.8764 18.199)" class="st0" cx="41.6" cy="15.9" rx="0.1" ry="0.1"/>
		<ellipse transform="matrix(0.8825 -0.4703 0.4703 0.8825 -2.3829 21.6495)" class="st0" cx="42.1" cy="15.6" rx="0.1" ry="0.1"/>
		<ellipse transform="matrix(0.8463 -0.5327 0.5327 0.8463 -1.6333 25.0359)" class="st0" cx="42.6" cy="15.3" rx="0.1" ry="0.1"/>
		<ellipse transform="matrix(0.8055 -0.5926 0.5926 0.8055 -0.5682 28.4262)" class="st0" cx="43" cy="15.1" rx="0.1" ry="0.1"/>
		<ellipse transform="matrix(0.7625 -0.647 0.647 0.7625 0.8455 31.7008)" class="st0" cx="43.6" cy="14.7" rx="0.1" ry="0.1"/>
		<ellipse transform="matrix(0.714 -0.7002 0.7002 0.714 2.4909 34.8461)" class="st0" cx="43.9" cy="14.4" rx="0.1" ry="0.1"/>
		<ellipse transform="matrix(0.6638 -0.7479 0.7479 0.6638 4.4743 37.8131)" class="st0" cx="44.3" cy="13.9" rx="0.1" ry="0.1"/>
		<ellipse transform="matrix(0.6092 -0.793 0.793 0.6092 6.8076 40.7062)" class="st0" cx="44.7" cy="13.4" rx="0.1" ry="0.1"/>
		<ellipse transform="matrix(0.5519 -0.8339 0.8339 0.5519 9.311 43.3919)" class="st0" cx="45" cy="13" rx="0.1" ry="0.1"/>
		<ellipse transform="matrix(0.4905 -0.8715 0.8715 0.4905 12.1579 45.8061)" class="st0" cx="45.3" cy="12.5" rx="0.1" ry="0.1"/>
		<ellipse transform="matrix(0.426 -0.9047 0.9047 0.426 15.2914 48.1305)" class="st0" cx="45.6" cy="12" rx="0.1" ry="0.1"/>
		<ellipse transform="matrix(0.3462 -0.9382 0.9382 0.3462 19.069 50.4502)" class="st0" cx="45.7" cy="11.5" rx="0.1" ry="0.1"/>
		<ellipse transform="matrix(0.2807 -0.9598 0.9598 0.2807 22.5533 51.8965)" class="st0" cx="45.9" cy="10.9" rx="0.1" ry="0.1"/>
		<ellipse transform="matrix(0.2108 -0.9775 0.9775 0.2108 26.2709 53.3132)" class="st0" cx="46.2" cy="10.4" rx="0.1" ry="0.1"/>
		<ellipse transform="matrix(0.1416 -0.9899 0.9899 0.1416 29.8552 54.2811)" class="st0" cx="46.2" cy="9.9" rx="0.1" ry="0.1"/>
		
			<ellipse transform="matrix(7.084382e-02 -0.9975 0.9975 7.084382e-02 33.7557 54.794)" class="st0" cx="46.3" cy="9.3" rx="0.1" ry="0.1"/>
		<ellipse class="st0" cx="46.3" cy="8.8" rx="0.1" ry="0.1"/>
		
			<ellipse transform="matrix(0.9984 -5.704328e-02 5.704328e-02 0.9984 -0.3945 2.6538)" class="st0" cx="46.3" cy="8.2" rx="0.1" ry="0.1"/>
		<ellipse transform="matrix(0.992 -0.1262 0.1262 0.992 -0.6003 5.8849)" class="st0" cx="46.1" cy="7.7" rx="0.1" ry="0.1"/>
		<ellipse transform="matrix(0.9809 -0.1947 0.1947 0.9809 -0.4991 9.1205)" class="st0" cx="46.1" cy="7.1" rx="0.1" ry="0.1"/>
		
			<ellipse transform="matrix(0.9646 -0.2638 0.2638 0.9646 -9.201606e-02 12.3656)" class="st0" cx="46" cy="6.5" rx="0.1" ry="0.1"/>
		<ellipse transform="matrix(0.9439 -0.3303 0.3303 0.9439 0.588 15.4336)" class="st0" cx="45.7" cy="6" rx="0.1" ry="0.1"/>
		<ellipse transform="matrix(0.9179 -0.3969 0.3969 0.9179 1.5494 18.553)" class="st0" cx="45.6" cy="5.5" rx="0.1" ry="0.1"/>
		<ellipse transform="matrix(0.8873 -0.4613 0.4613 0.8873 2.8085 21.4564)" class="st0" cx="45.3" cy="5" rx="0.1" ry="0.1"/>
		<ellipse transform="matrix(0.8522 -0.5232 0.5232 0.8522 4.276 24.2377)" class="st0" cx="45" cy="4.6" rx="0.1" ry="0.1"/>
		<ellipse transform="matrix(0.7999 -0.6001 0.6001 0.7999 6.5535 27.6162)" class="st0" cx="44.7" cy="4" rx="0.1" ry="0.1"/>
		<ellipse transform="matrix(0.7567 -0.6537 0.6537 0.7567 8.4204 29.8278)" class="st0" cx="44.3" cy="3.6" rx="0.1" ry="0.1"/>
		<ellipse transform="matrix(0.7065 -0.7077 0.7077 0.7065 10.7047 32.0283)" class="st0" cx="44" cy="3.1" rx="0.1" ry="0.1"/>
		<ellipse transform="matrix(0.6548 -0.7558 0.7558 0.6548 12.9386 33.9402)" class="st0" cx="43.6" cy="2.8" rx="0.1" ry="0.1"/>
		<ellipse transform="matrix(0.6005 -0.7996 0.7996 0.6005 15.3192 35.446)" class="st0" cx="43.1" cy="2.4" rx="0.1" ry="0.1"/>
		<ellipse transform="matrix(0.5557 -0.8314 0.8314 0.5557 17.1392 36.4228)" class="st0" cx="42.6" cy="2.2" rx="0.1" ry="0.1"/>
		<ellipse transform="matrix(0.4929 -0.8701 0.8701 0.4929 19.7998 37.6477)" class="st0" cx="42.2" cy="1.8" rx="0.1" ry="0.1"/>
		<ellipse transform="matrix(0.4309 -0.9024 0.9024 0.4309 22.2284 38.5047)" class="st0" cx="41.6" cy="1.6" rx="0.1" ry="0.1"/>
		<ellipse transform="matrix(0.3649 -0.9311 0.9311 0.3649 24.8951 39.0867)" class="st0" cx="41.1" cy="1.3" rx="0.1" ry="0.1"/>
		<ellipse transform="matrix(0.2979 -0.9546 0.9546 0.2979 27.3785 39.5555)" class="st0" cx="40.6" cy="1.2" rx="0.1" ry="0.1"/>
		<ellipse transform="matrix(0.2267 -0.974 0.974 0.2267 29.9374 39.7984)" class="st0" cx="40" cy="1" rx="0.1" ry="0.1"/>
		<ellipse transform="matrix(0.156 -0.9878 0.9878 0.156 32.3428 39.7591)" class="st0" cx="39.4" cy="1" rx="0.1" ry="0.1"/>
		
			<ellipse transform="matrix(8.306339e-02 -0.9965 0.9965 8.306339e-02 34.7871 39.6416)" class="st0" cx="38.9" cy="0.9" rx="0.1" ry="0.1"/>
		<path class="st0" d="M34,12.9c0.1,0.1,0.3,0.3,0.3,0.3v-0.1C34.2,13.1,34.1,12.9,34,12.9L34,12.9z"/>
		<path class="st0" d="M37.4,14.6c-0.6-0.1-1.3-0.3-1.8-0.6v0.1C36.1,14.5,36.8,14.6,37.4,14.6L37.4,14.6L37.4,14.6z"/>
		<path class="st0" d="M37.2,2.7C37.2,2.7,37.4,2.6,37.2,2.7c-1,0-1.8,0.4-2.5,1c0,0,0,0,0.1,0.1C35.5,3.3,36.4,2.9,37.2,2.7z"/>
		<path class="st0" d="M36.7,4.7h-1.4c0,0,0,0,0,0.1L36.7,4.7L36.7,4.7z"/>
		<path class="st0" d="M36.7,5.1h-1c0,0,0,0,0,0.1L36.7,5.1L36.7,5.1z"/>
		<path class="st0" d="M33.5,7.4h1.6c0,0,0,0,0-0.1L33.5,7.4C33.7,7.4,33.7,7.4,33.5,7.4z"/>
		<path class="st0" d="M33.7,7H35c0,0,0,0,0-0.1L33.7,7C33.8,7,33.7,7,33.7,7z"/>
		<path class="st0" d="M33.4,8.1L33.4,8.1h2.3c0,0,0,0,0-0.1L33.4,8.1L33.4,8.1z"/>
		<path class="st0" d="M33.4,8.5h2.3V8.4L33.4,8.5L33.4,8.5z"/>
		<path class="st0" d="M33.5,7.8h2c0,0,0,0,0-0.1L33.5,7.8C33.5,7.7,33.5,7.8,33.5,7.8z"/>
		<path class="st0" d="M33.8,6.7h0.8c0,0,0,0,0-0.1L33.8,6.7C34,6.5,34,6.7,33.8,6.7z"/>
		<path class="st0" d="M36.5,5.4h-0.7c0,0,0,0,0,0.1L36.5,5.4C36.5,5.5,36.5,5.5,36.5,5.4z"/>
		<path class="st0" d="M34.2,6L34.2,6C34.4,5.8,34.4,5.8,34.2,6C34.2,5.8,34.2,5.8,34.2,6z"/>
		<path class="st0" d="M34.1,6.3h0.4c0,0,0,0,0-0.1L34.1,6.3L34.1,6.3z"/>
		<path class="st0" d="M33.4,8.9h2.1V8.8L33.4,8.9C33.4,8.8,33.4,8.8,33.4,8.9z"/>
		<path class="st0" d="M36.8,4.3h-1.7c0,0,0,0,0,0.1L36.8,4.3C36.8,4.4,36.8,4.4,36.8,4.3z"/>
		<path class="st0" d="M36.4,5.8h-0.4c0,0,0,0,0,0.1L36.4,5.8L36.4,5.8z"/>
		<path class="st0" d="M36.2,6.3L36.2,6.3L36.2,6.3L36.2,6.3z"/>
		<path class="st0" d="M35.8,13.8h1.8v-0.1L35.8,13.8c-0.1,0-0.1,0-0.1,0c0.6,0.3,1.1,0.6,1.8,0.6v-0.1c-0.3,0-0.6-0.1-0.8-0.1h0.8
			v-0.1h-1.1C36.2,13.9,36.1,13.9,35.8,13.8z"/>
		<path class="st0" d="M36.1,12.6h2v-0.1L36.1,12.6L36.1,12.6z"/>
		<path class="st0" d="M35.4,9.2L35.4,9.2l-2-0.1c0,0,0,0,0,0.1H35.4z"/>
		<path class="st0" d="M37.2,3c-0.8,0.1-1.7,0.6-2.3,1c0,0,0,0,0,0.1c0,0,0,0,0.1-0.1h1.8c0,0,0,0,0-0.1h-1.7
			c0.1-0.1,0.3-0.1,0.4-0.3h1.4c0,0,0,0,0-0.1h-1.3c0.3-0.1,0.4-0.1,0.7-0.3h0.7C37.2,3.1,37.2,3.1,37.2,3l-0.4,0
			C36.8,3.1,37.1,3.1,37.2,3L37.2,3z"/>
		<path class="st0" d="M35.8,13.3h2v-0.1L35.8,13.3L35.8,13.3z"/>
		<path class="st0" d="M34.1,12.6c0.1,0.1,0.3,0.3,0.3,0.3v-0.1l-0.1-0.1h0.1v-0.1L34.1,12.6C34.2,12.5,34.1,12.5,34.1,12.6
			L34.1,12.6z"/>
		<path class="st0" d="M35.9,13.1h2v-0.1L35.9,13.1C35.9,12.9,35.9,12.9,35.9,13.1z"/>
		<path class="st0" d="M36.4,11.5h1.7c0,0,0,0,0-0.1L36.4,11.5L36.4,11.5z"/>
		<path class="st0" d="M36.2,11.9h2.1l0,0l0,0H36.2C36.2,11.8,36.2,11.9,36.2,11.9z"/>
		<path class="st0" d="M36.5,11.1h1.4c0,0,0,0,0-0.1L36.5,11.1L36.5,11.1z"/>
		<path class="st0" d="M36.5,10.8h1c0,0,0,0,0-0.1L36.5,10.8C36.7,10.6,36.7,10.8,36.5,10.8z"/>
		<path class="st0" d="M35.4,9.7L35.4,9.7l-1.8-0.1c0,0,0,0,0,0.1H35.4z"/>
		<path class="st0" d="M36.8,9.9L36.8,9.9l0.1,0.1C36.9,9.9,36.9,9.9,36.8,9.9L36.8,9.9z"/>
		<path class="st0" d="M36.7,10.4h0.6c0,0,0,0,0-0.1L36.7,10.4L36.7,10.4z"/>
		<path class="st0" d="M35.1,10.4L35.1,10.4l-1.4-0.1c0,0,0,0,0,0.1H35.1z"/>
		<path class="st0" d="M35,11.1L35,11.1l-1-0.1c0,0,0,0,0,0.1H35z"/>
		<path class="st0" d="M35,10.8L35,10.8l-1.3-0.1c0,0,0,0,0,0.1H35z"/>
		<polygon class="st0" points="34.7,11.8 34.4,11.8 34.2,11.9 34.7,11.9 		"/>
		<polygon class="st0" points="34.2,12.2 34.5,12.2 34.7,12.2 		"/>
		<path class="st0" d="M34.8,11.5L34.8,11.5l-0.7-0.1c0,0,0,0,0,0.1H34.8z"/>
		<path class="st0" d="M35.2,10.1L35.2,10.1l-1.7-0.1c0,0,0,0,0,0.1H35.2z"/>
		<path class="st0" d="M36.1,12.2h2l0,0l0,0H36.1L36.1,12.2z"/>
		<path class="st0" d="M42.7,12.9L42.7,12.9c-0.1,0-0.3,0.1-0.4,0.1v0.1C42.6,13.2,42.6,13.1,42.7,12.9z"/>
		<path class="st0" d="M39.3,14.6L39.3,14.6L39.3,14.6c0.6,0,1.3-0.1,1.8-0.6v-0.1C40.6,14.3,40.1,14.5,39.3,14.6z"/>
		<path class="st0" d="M41.9,3.8C42,3.8,42,3.7,41.9,3.8c-0.7-0.7-1.6-1-2.5-1.3v0.1C40.3,2.9,41.2,3.3,41.9,3.8z"/>
		<path class="st0" d="M41.5,4.7h-1.4c0,0,0,0,0,0.1L41.5,4.7C41.3,4.7,41.3,4.7,41.5,4.7z"/>
		<path class="st0" d="M41.2,5.1h-1c0,0,0,0,0,0.1L41.2,5.1L41.2,5.1z"/>
		<path class="st0" d="M41.5,7.4H43c0,0,0,0,0-0.1L41.5,7.4C41.6,7.4,41.6,7.4,41.5,7.4z"/>
		<path class="st0" d="M41.8,7H43c0,0,0,0,0-0.1L41.8,7L41.8,7z"/>
		<path class="st0" d="M41,8.1h2.3l0,0l0,0H41L41,8.1z"/>
		<path class="st0" d="M43.3,8.5L43.3,8.5L41,8.4v0.1H43.3z"/>
		<path class="st0" d="M41.3,7.8h2c0,0,0,0,0-0.1L41.3,7.8C41.3,7.7,41.3,7.8,41.3,7.8z"/>
		<path class="st0" d="M42,6.7h0.8c0,0,0,0,0-0.1L42,6.7C42,6.5,42,6.7,42,6.7z"/>
		<path class="st0" d="M40.9,5.4h-0.7c0,0,0,0,0,0.1L40.9,5.4C40.9,5.5,40.9,5.5,40.9,5.4z"/>
		<path class="st0" d="M42.5,6L42.5,6C42.5,5.8,42.5,5.8,42.5,6C42.5,5.8,42.5,5.8,42.5,6z"/>
		<path class="st0" d="M42.2,6.3h0.4c0,0,0,0,0-0.1L42.2,6.3L42.2,6.3z"/>
		<polygon class="st0" points="38.1,6 38.8,6 38.8,5.8 38.1,5.8 		"/>
		<polygon class="st0" points="37.9,8.9 38.8,8.9 38.8,8.8 37.9,8.8 		"/>
		<polygon class="st0" points="37.8,8.5 39.1,8.5 39.1,8.4 37.6,8.4 		"/>
		<polygon class="st0" points="38.2,5.1 38.5,5.1 38.5,5.1 		"/>
		<polygon class="st0" points="38.1,5.5 38.6,5.5 38.6,5.4 38.1,5.4 		"/>
		<polygon class="st0" points="38.4,4.8 38.4,4.8 38.4,4.7 38.4,4.7 		"/>
		<path class="st0" d="M43.3,8.9C43.3,8.8,43.3,8.8,43.3,8.9l-2.1-0.1v0.1H43.3z"/>
		<path class="st0" d="M41.6,4.3h-1.7c0,0,0,0,0,0.1L41.6,4.3C41.6,4.4,41.6,4.4,41.6,4.3z"/>
		<polygon class="st0" points="38.2,9.2 38.5,9.2 38.6,9.2 		"/>
		<polygon class="st0" points="37.6,7 39.1,7 39.1,7 		"/>
		<polygon class="st0" points="37.5,7.4 39.2,7.4 39.2,7.2 37.6,7.2 		"/>
		<polygon class="st0" points="37.5,8.1 39.2,8.1 39.3,8.1 		"/>
		<polygon class="st0" points="37.5,7.8 39.3,7.8 39.2,7.7 37.5,7.7 		"/>
		<polygon class="st0" points="37.9,6.3 38.8,6.3 38.8,6.3 		"/>
		<path class="st0" d="M40.8,5.8h-0.4c0,0,0,0,0,0.1L40.8,5.8C40.6,5.8,40.8,5.8,40.8,5.8z"/>
		<path class="st0" d="M40.5,6.3L40.5,6.3L40.5,6.3L40.5,6.3z"/>
		<polygon class="st0" points="37.8,6.7 38.9,6.7 38.9,6.5 37.8,6.5 		"/>
		<path class="st0" d="M41,13.6h-2v0.1L41,13.6c-0.3,0.1-0.6,0.3-0.7,0.4h-1.1v0.1h0.8c-0.3,0.1-0.6,0.1-0.8,0.1v0.1
			C39.9,14.3,40.5,14,41,13.6C41,13.8,41,13.8,41,13.6z"/>
		<path class="st0" d="M38.6,12.5L38.6,12.5l2.1,0.1c0,0,0,0,0-0.1H38.6z"/>
		<path class="st0" d="M43.3,9.2L43.3,9.2l-2-0.1v0.1H43.3z"/>
		<path class="st0" d="M41.8,4.1C41.8,4.1,41.8,4,41.8,4.1c-0.6-0.6-1.4-1-2.3-1.1v0.1c0.1,0,0.3,0.1,0.4,0.1h-0.4c0,0,0,0,0,0.1
			h0.7c0.3,0.1,0.4,0.1,0.7,0.3h-1.3c0,0,0,0,0,0.1H41c0.3-0.1,0.4,0,0.6,0.1h-1.7c0,0,0,0,0,0.1L41.8,4.1L41.8,4.1z"/>
		<path class="st0" d="M40.9,13.3L40.9,13.3l-2-0.1v0.1H40.9z"/>
		<path class="st0" d="M42.3,12.9c0.1-0.1,0.3-0.3,0.3-0.3v-0.1c0,0,0,0.1-0.1,0.1h-0.3v0.1h0.1C42.3,12.6,42.3,12.8,42.3,12.9
			L42.3,12.9z"/>
		<path class="st0" d="M38.8,12.9L38.8,12.9l2,0.1c0,0,0,0,0-0.1H38.8z"/>
		<path class="st0" d="M38.6,11.5h1.7c0,0,0,0,0-0.1L38.6,11.5L38.6,11.5z"/>
		<path class="st0" d="M38.5,11.8L38.5,11.8L38.5,11.8l2.1,0.1c0,0,0,0,0-0.1H38.5z"/>
		<path class="st0" d="M38.9,11.1h1.4c0,0,0,0,0-0.1L38.9,11.1L38.9,11.1z"/>
		<path class="st0" d="M39.2,10.8h1c0,0,0,0,0-0.1L39.2,10.8C39.2,10.6,39.2,10.8,39.2,10.8z"/>
		<path class="st0" d="M43.2,9.7L43.2,9.7l-1.8-0.1v0.1H43.2z"/>
		<path class="st0" d="M39.8,9.9L39.8,9.9l0.1,0.1C39.9,9.9,39.9,9.9,39.8,9.9L39.8,9.9z"/>
		<path class="st0" d="M39.5,10.4h0.6c0,0,0,0,0-0.1L39.5,10.4L39.5,10.4z"/>
		<path class="st0" d="M43,10.4L43,10.4l-1.4-0.1v0.1H43z"/>
		<path class="st0" d="M42.7,11.1L42.7,11.1l-1-0.1v0.1H42.7z"/>
		<path class="st0" d="M42.9,10.8C42.9,10.8,42.9,10.6,42.9,10.8l-1.3-0.1v0.1H42.9z"/>
		<polygon class="st0" points="42.5,11.9 42.5,11.8 42,11.8 42,11.9 		"/>
		<polygon class="st0" points="42.6,12.2 42.5,12.2 42.2,12.2 42.2,12.2 		"/>
		<path class="st0" d="M42.6,11.5L42.6,11.5L42,11.4v0.1H42.6z"/>
		<path class="st0" d="M43.2,10.1C43.2,9.9,43.2,9.9,43.2,10.1l-1.7-0.1v0.1C41.5,10.1,43.2,10.1,43.2,10.1z"/>
		<path class="st0" d="M38.5,12.2L38.5,12.2L38.5,12.2l2.1,0.1c0,0,0,0,0-0.1H38.5z"/>
		<path class="st0" d="M44.7,8c-0.4-2.5-1.7-3.7-2-4c-0.1-0.1-0.3-0.1-0.4-0.1c-0.1,0-0.1,0-0.3,0.1c-0.1,0.1-1.7,2.8-1.7,2.8
			s-1.1-4.2-1.1-4.4c-0.1-0.3-0.3-0.4-0.8-0.6c-0.4,0-0.7,0.3-0.8,0.6c-0.1,0.3-1.3,4.4-1.3,4.4S34.7,4.3,34.5,4
			c0-0.1,0-0.1-0.1-0.1S34.1,4,34,4c-0.3,0.3-1.6,1.4-2,4c-0.4,2.7,1.3,4.7,1.7,5.2l0.4-1.4c0,0-1.1-1.6-0.8-3.7
			c0.1-1.4,1.1-2.5,1.1-2.5s0.8,1.6,1.6,2.7l0,0l0,0l-1.6,5.4v0.1c0,0.1-0.1,0.1-0.1,0.3c0.3,0.3,0.7,0.6,1.1,0.7c0-0.1,0-0.3,0-0.4
			l1.6-5.1c0,0,1.4,1.8,1.6,2.3c0.3-0.3,1.6-2.3,1.6-2.3l1.6,5.1c0,0,0,0.3,0,0.4c0.4-0.1,0.7-0.4,1.1-0.7c-0.1,0-0.1-0.1-0.1-0.3
			v-0.1L41,8.1l0,0l0,0c0.7-1,1.6-2.7,1.6-2.7s1,1.3,1.1,2.5c0.3,2.1-0.8,3.7-0.8,3.7l0.4,1.4C43.4,12.6,45.1,10.6,44.7,8z
			 M38.4,9.9l-1.1-1.8L38.4,4l1.1,4.1L38.4,9.9z"/>
		<path class="st0" d="M37.6,14.6l0.8,0.8l0.8-0.8l-0.8-2.4L37.6,14.6z M38.4,15l-0.3-0.4l0.3-1.4l0.3,1.4L38.4,15z"/>
	</g>
</g>
</svg>
