<?xml version="1.0" encoding="utf-8"?>
<!-- Generator: Adobe Illustrator 16.0.0, SVG Export Plug-In . SVG Version: 6.00 Build 0)  -->
<!DOCTYPE svg PUBLIC "-//W3C//DTD SVG 1.0//EN" "http://www.w3.org/TR/2001/REC-SVG-20010904/DTD/svg10.dtd" [
	<!ENTITY ns_flows "http://ns.adobe.com/Flows/1.0/">
	<!ENTITY ns_extend "http://ns.adobe.com/Extensibility/1.0/">
	<!ENTITY ns_ai "http://ns.adobe.com/AdobeIllustrator/10.0/">
	<!ENTITY ns_graphs "http://ns.adobe.com/Graphs/1.0/">
]>
<svg version="1.0" id="Livello_1" xmlns:x="&ns_extend;" xmlns:i="&ns_ai;" xmlns:graph="&ns_graphs;"
	 xmlns="http://www.w3.org/2000/svg" xmlns:xlink="http://www.w3.org/1999/xlink" xmlns:a="http://ns.adobe.com/AdobeSVGViewerExtensions/3.0/"
	 x="0px" y="0px" width="122px" height="40px" viewBox="0 0 122 40" enable-background="new 0 0 122 40" xml:space="preserve">
<path d="M69.223,24.572c0-0.828-0.646-1.428-1.426-1.428s-1.426,0.6-1.426,1.428s0.629,1.441,1.426,1.441
	C68.592,26.014,69.223,25.4,69.223,24.572 M58.169,25.916h2.172v-4.979c0-1.328-0.031-2.54-0.164-3.618
	c0.299,1.112,0.465,1.775,0.547,1.975l2.59,6.622h2.188V14.085h-2.188v4.546c0,1.278,0.133,2.689,0.365,4.265
	c-0.348-1.262-0.598-2.074-0.73-2.439l-2.391-6.372h-2.389V25.916z M52.294,19.23v2.088h2.109c0,1.645-0.648,2.523-1.676,2.523
	c-1.18,0-1.828-1.277-1.828-3.833c0-2.555,0.533-3.817,1.828-3.817c0.846,0,1.359,0.581,1.543,1.762l2.123-0.981
	c-0.58-1.99-1.857-3.035-3.617-3.035c-2.572,0-4.23,2.238-4.23,6.072c0,3.833,1.625,6.056,4.064,6.056
	c2.49,0,4.098-2.238,4.098-6.288c0-0.183-0.018-0.363-0.018-0.547H52.294z M44.564,25.916h2.404v-11.83h-2.404V25.916z
	 M37.728,25.502c0.582,0.379,1.244,0.562,2.041,0.562c2.123,0,3.398-1.359,3.398-3.482c0-1.66-0.711-2.34-1.873-3.336
	c-0.83-0.714-1.379-1.195-1.379-2.009c0-0.696,0.482-1.161,1.164-1.161c0.416,0,0.896,0.198,1.576,0.53v-2.089
	c-0.68-0.382-1.311-0.581-1.99-0.581c-1.859,0-3.121,1.377-3.121,3.417c0,1.479,0.648,2.373,1.893,3.502
	c0.695,0.631,1.328,0.963,1.328,1.791c0,0.715-0.482,1.18-1.295,1.18c-0.598,0-1.16-0.266-1.742-0.779V25.502z M31.522,25.916H36.5
	v-2.305h-2.688v-2.773h2.438v-2.171h-2.438v-2.393H36.5v-2.188h-4.977V25.916z M24.935,23.727v-7.485h0.148
	c1.777,0,2.623,1.228,2.623,3.801c0,2.422-0.93,3.684-2.59,3.684H24.935z M22.597,25.916h1.773c1.477,0,2.622-0.102,3.65-0.879
	c1.443-1.096,2.041-2.703,2.041-5.029c0-3.983-1.791-5.923-5.443-5.923h-2.021V25.916z M20.437,24.572
	c0-0.828-0.646-1.428-1.426-1.428c-0.779,0-1.426,0.6-1.426,1.428s0.63,1.441,1.426,1.441C19.808,26.014,20.437,25.4,20.437,24.572
	 M14.925,25.916h2.37v-9.642h1.808v-2.188h-5.986v2.188h1.809V25.916z M12.483,24.572c0-0.828-0.646-1.428-1.426-1.428
	s-1.427,0.6-1.427,1.428s0.63,1.441,1.427,1.441C11.853,26.014,12.483,25.4,12.483,24.572 M4.749,19.23v2.088h2.109
	c0,1.645-0.648,2.523-1.678,2.523c-1.179,0-1.826-1.277-1.826-3.833c0-2.555,0.531-3.817,1.826-3.817
	c0.846,0,1.361,0.581,1.545,1.762l2.121-0.981c-0.58-1.99-1.855-3.035-3.617-3.035C2.658,13.936,1,16.174,1,20.008
	c0,3.833,1.625,6.056,4.064,6.056c2.49,0,4.098-2.238,4.098-6.288c0-0.183-0.017-0.363-0.017-0.547H4.749z"/>
</svg>
