<?xml version="1.0" encoding="utf-8"?>
<!-- Generator: Adobe Illustrator 21.1.0, SVG Export Plug-In . SVG Version: 6.00 Build 0)  -->
<svg version="1.1" id="Livello_1" xmlns="http://www.w3.org/2000/svg" xmlns:xlink="http://www.w3.org/1999/xlink" x="0px" y="0px"
	 width="143px" height="40px" viewBox="0 0 143 40" style="enable-background:new 0 0 143 40;" xml:space="preserve">
<style type="text/css">
	.st0{fill:#1D1D1B;}
</style>
<g>
	<polygon class="st0" points="0.5,13.5 0.5,27.2 10.2,27.2 10.2,24.6 3.7,24.6 3.7,13.5 	"/>
	<path class="st0" d="M17.2,22h2.6v2.4c-0.5,0.2-1.4,0.4-2.3,0.4c-2.9,0-3.8-1.5-3.8-4.4c0-2.8,0.9-4.5,3.8-4.5
		c1.6,0,2.5,0.5,3.3,1.5l2-1.8c-1.2-1.7-3.3-2.3-5.3-2.3c-4.5,0-6.8,2.4-6.8,7.1c0,4.6,2.1,7.1,6.8,7.1c2.1,0,4.2-0.5,5.4-1.3v-6.7
		h-5.5V22z"/>
	<path class="st0" d="M43.7,22.5c0-1.9-1.2-3-3.3-3h-6.1h0.1c-0.9,0-1.3-0.5-1.3-1.3v-1.5l0,0c0-0.6,0.6-1.1,1.4-1.1h8.4v-1.7h-8.3
		h0c-1.8,0-2.9,0.8-3.2,2.3c-0.1,0.3-0.1,0.6-0.1,0.9v1l0,0.1c0,1.9,1.2,3,3.3,3h6.1h-0.1c0.9,0,1.3,0.5,1.3,1.3v1.5l0,0
		c0,0.6-0.6,1.1-1.4,1.1h-8.7h-0.2v1.7h0.2h8.6h0c1.8,0,2.9-0.8,3.2-2.3c0.1-0.3,0.1-0.6,0.1-0.9v-1L43.7,22.5z"/>
	<rect x="46.2" y="13.9" class="st0" width="1.8" height="13"/>
	<path class="st0" d="M56.7,21.3h4.6v1.9c0,1.4-0.7,1.9-2.1,1.9h-4.7c-1.2,0-2.1-0.7-2.1-1.9v-5.7c0-1.2,0.8-1.9,2.1-1.9h7.9v-1.7
		h-7.8c-2.6,0-4,1.5-4,3.8V23c0,2.4,1.4,3.9,4,3.9h4.6c2.6,0,4-1.4,4-3.9v-3.4h-6.5V21.3z"/>
	<path class="st0" d="M85.9,15.7l3,6.3h-6L85.9,15.7z M84.8,13.9l-6.2,13h2l1.5-3.2h7.6l1.5,3.2h2l-6.2-13H84.8z"/>
	<polygon class="st0" points="75.5,13.9 75.5,24.6 67.4,13.9 65.1,13.9 65.1,26.8 66.9,26.8 66.9,16.1 75,26.8 77.3,26.8 77.3,13.9 
			"/>
	<polygon class="st0" points="90.8,13.9 90.8,15.5 95.6,15.5 95.6,26.8 97.5,26.8 97.5,15.5 97.6,15.5 102.4,15.5 102.4,13.9 	"/>
	<path class="st0" d="M113.8,22.9c0,1.4-0.7,2.3-2.2,2.3H108c-1.6,0-2.2-0.9-2.2-2.3v-9h-1.9v8.8c0,2.7,1.3,4.2,4.2,4.2h3.4
		c2.8,0,4.2-1.4,4.2-4.2v-8.8h-1.9V22.9z"/>
	<path class="st0" d="M127.6,22.1c1.2-0.3,2.3-1.3,2.3-3.2v-1.7c0-2.2-1.3-3.4-3.5-3.4h-8.6v12.9h1.8v-4.6h3.9
		c3.4,0,4.5,3.1,4.5,4.6h1.9C129.7,24.7,128.9,23.1,127.6,22.1 M126.3,20.5h-6.8v-5h6.7c1,0,1.7,0.5,1.7,1.5l0,2
		C128,20,127.3,20.5,126.3,20.5"/>
	<polygon class="st0" points="131.7,13.9 131.7,26.8 142.8,26.8 142.8,25.2 133.6,25.2 133.6,21.2 142.6,21.2 142.6,19.5 
		133.6,19.5 133.6,15.5 142.8,15.5 142.8,13.9 	"/>
</g>
</svg>
