<?xml version="1.0" encoding="utf-8"?>
<!-- Generator: Adobe Illustrator 21.1.0, SVG Export Plug-In . SVG Version: 6.00 Build 0)  -->
<svg version="1.1" id="Livello_1" xmlns="http://www.w3.org/2000/svg" xmlns:xlink="http://www.w3.org/1999/xlink" x="0px" y="0px"
	 width="97px" height="25px" viewBox="0 0 97 25" style="enable-background:new 0 0 97 25;" xml:space="preserve">
<style type="text/css">
	.st0{fill:#1D1D1B;}
</style>
<g>
	<polygon class="st0" points="2.7,7.4 2.7,16.2 8.9,16.2 8.9,14.5 4.7,14.5 4.7,7.4 	"/>
	<path class="st0" d="M13.4,12.9h1.7v1.5c-0.3,0.1-0.9,0.2-1.5,0.2c-1.8,0-2.4-0.9-2.4-2.8c0-1.8,0.6-2.9,2.4-2.9
		c1,0,1.6,0.3,2.1,0.9l1.3-1.2c-0.8-1.1-2.1-1.4-3.4-1.4c-2.9,0-4.4,1.6-4.4,4.5c0,3,1.4,4.6,4.3,4.6c1.4,0,2.7-0.4,3.4-0.9v-4.3
		h-3.5V12.9z"/>
	<path class="st0" d="M30.4,13.2c0-1.2-0.8-2-2.1-2h-3.9h0c-0.6,0-0.9-0.3-0.9-0.8v-1l0,0c0-0.4,0.4-0.7,0.9-0.7h5.4V7.7h-5.3h0
		c-1.1,0-1.8,0.5-2,1.5c0,0.2-0.1,0.4-0.1,0.6v0.6l0,0.1c0,1.2,0.8,1.9,2.1,1.9h3.9h0c0.6,0,0.9,0.3,0.9,0.8v1l0,0
		c0,0.4-0.4,0.7-0.9,0.7h-5.6h-0.1V16h0.1h5.5h0c1.1,0,1.8-0.5,2-1.5c0-0.2,0.1-0.4,0.1-0.6L30.4,13.2L30.4,13.2z"/>
	<rect x="32" y="7.7" class="st0" width="1.1" height="8.3"/>
	<path class="st0" d="M38.7,12.4h3v1.2c0,0.9-0.5,1.2-1.3,1.2h-3c-0.8,0-1.3-0.4-1.3-1.2V10c0-0.8,0.5-1.2,1.3-1.2h5.1V7.7h-5
		c-1.7,0-2.6,1-2.6,2.5v3.4c0,1.5,0.9,2.5,2.6,2.5h2.9c1.7,0,2.6-0.9,2.6-2.5v-2.2h-4.1V12.4z"/>
	<path class="st0" d="M57.4,8.8l1.9,4h-3.8L57.4,8.8z M56.7,7.7l-4,8.3H54l1-2h4.9l1,2h1.3l-4-8.3H56.7z"/>
	<polygon class="st0" points="50.8,7.7 50.8,14.6 45.5,7.7 44.1,7.7 44.1,16 45.2,16 45.2,9.1 50.4,16 51.9,16 51.9,7.7 	"/>
	<polygon class="st0" points="60.5,7.7 60.5,8.7 63.6,8.7 63.6,15.9 64.8,15.9 64.8,8.7 64.9,8.7 68,8.7 68,7.7 	"/>
	<path class="st0" d="M75.3,13.4c0,0.9-0.4,1.4-1.4,1.4h-2.3c-1,0-1.4-0.6-1.4-1.4V7.7h-1.2v5.6c0,1.7,0.9,2.7,2.7,2.7h2.2
		c1.8,0,2.7-0.9,2.7-2.7V7.7h-1.2V13.4z"/>
	<path class="st0" d="M84.1,12.9c0.8-0.2,1.5-0.8,1.5-2V9.8c0-1.4-0.8-2.2-2.3-2.2h-5.5V16H79V13h2.5c2.2,0,2.9,2,2.9,3h1.2
		C85.5,14.6,85,13.6,84.1,12.9 M83.3,11.9H79V8.7h4.3c0.6,0,1.1,0.3,1.1,1l0,1.3C84.4,11.6,83.9,11.9,83.3,11.9"/>
	<polygon class="st0" points="86.8,7.7 86.8,16 93.9,16 93.9,14.9 88,14.9 88,12.3 93.7,12.3 93.7,11.3 88,11.3 88,8.7 93.9,8.7 
		93.9,7.7 	"/>
</g>
</svg>
